<svg xmlns="http://www.w3.org/2000/svg" xmlns:xlink="http://www.w3.org/1999/xlink" width="411" zoomAndPan="magnify" viewBox="0 0 308.25 247.500006" height="330" preserveAspectRatio="xMidYMid meet" version="1.0"><defs><clipPath id="fa69832f62"><path d="M 98.019531 31.773438 L 129.9375 31.773438 L 129.9375 59.664062 L 98.019531 59.664062 Z M 98.019531 31.773438 " clip-rule="nonzero"/></clipPath><clipPath id="797d781117"><path d="M 113.957031 59.664062 L 129.890625 31.773438 L 98.019531 31.773438 Z M 113.957031 59.664062 " clip-rule="nonzero"/></clipPath><clipPath id="facae884ec"><path d="M 118.0625 31.460938 L 149.980469 31.460938 L 149.980469 59.351562 L 118.0625 59.351562 Z M 118.0625 31.460938 " clip-rule="nonzero"/></clipPath><clipPath id="811495e7c3"><path d="M 134 31.460938 L 149.933594 59.351562 L 118.0625 59.351562 Z M 134 31.460938 " clip-rule="nonzero"/></clipPath><clipPath id="ec6e5004e0"><path d="M 137.636719 31.460938 L 169.554688 31.460938 L 169.554688 59.351562 L 137.636719 59.351562 Z M 137.636719 31.460938 " clip-rule="nonzero"/></clipPath><clipPath id="b7e3c2d306"><path d="M 153.570312 59.351562 L 169.507812 31.460938 L 137.636719 31.460938 Z M 153.570312 59.351562 " clip-rule="nonzero"/></clipPath><clipPath id="51ce9b197f"><path d="M 157.550781 31.460938 L 189.46875 31.460938 L 189.46875 59.351562 L 157.550781 59.351562 Z M 157.550781 31.460938 " clip-rule="nonzero"/></clipPath><clipPath id="af8f5f6afd"><path d="M 173.484375 31.460938 L 189.421875 59.351562 L 157.550781 59.351562 Z M 173.484375 31.460938 " clip-rule="nonzero"/></clipPath><clipPath id="ef256b5526"><path d="M 176.988281 31.773438 L 208.910156 31.773438 L 208.910156 59.664062 L 176.988281 59.664062 Z M 176.988281 31.773438 " clip-rule="nonzero"/></clipPath><clipPath id="ceed602acf"><path d="M 192.925781 59.664062 L 208.863281 31.773438 L 176.988281 31.773438 Z M 192.925781 59.664062 " clip-rule="nonzero"/></clipPath><clipPath id="f8a753d786"><path d="M 196.902344 31.773438 L 228.824219 31.773438 L 228.824219 59.664062 L 196.902344 59.664062 Z M 196.902344 31.773438 " clip-rule="nonzero"/></clipPath><clipPath id="19105dc753"><path d="M 212.839844 31.773438 L 228.777344 59.664062 L 196.902344 59.664062 Z M 212.839844 31.773438 " clip-rule="nonzero"/></clipPath><clipPath id="540ee32e89"><path d="M 216.34375 31.773438 L 248.261719 31.773438 L 248.261719 59.664062 L 216.34375 59.664062 Z M 216.34375 31.773438 " clip-rule="nonzero"/></clipPath><clipPath id="159407b279"><path d="M 232.28125 59.664062 L 248.214844 31.773438 L 216.34375 31.773438 Z M 232.28125 59.664062 " clip-rule="nonzero"/></clipPath><clipPath id="6e372bf1f7"><path d="M 236.257812 31.460938 L 268.175781 31.460938 L 268.175781 59.351562 L 236.257812 59.351562 Z M 236.257812 31.460938 " clip-rule="nonzero"/></clipPath><clipPath id="b81606b7a5"><path d="M 252.195312 31.460938 L 268.128906 59.351562 L 236.257812 59.351562 Z M 252.195312 31.460938 " clip-rule="nonzero"/></clipPath><clipPath id="8ef3ea903e"><path d="M 98.019531 0.363281 L 129.9375 0.363281 L 129.9375 28.25 L 98.019531 28.25 Z M 98.019531 0.363281 " clip-rule="nonzero"/></clipPath><clipPath id="608d87d5c0"><path d="M 113.957031 0.363281 L 129.890625 28.25 L 98.019531 28.25 Z M 113.957031 0.363281 " clip-rule="nonzero"/></clipPath><clipPath id="56120ff368"><path d="M 118.0625 0.363281 L 149.980469 0.363281 L 149.980469 28.25 L 118.0625 28.25 Z M 118.0625 0.363281 " clip-rule="nonzero"/></clipPath><clipPath id="99b4c2777d"><path d="M 134 28.25 L 149.933594 0.363281 L 118.0625 0.363281 Z M 134 28.25 " clip-rule="nonzero"/></clipPath><clipPath id="3980932ca5"><path d="M 137.636719 0.363281 L 169.554688 0.363281 L 169.554688 28.25 L 137.636719 28.25 Z M 137.636719 0.363281 " clip-rule="nonzero"/></clipPath><clipPath id="1acf7aef34"><path d="M 153.570312 0.363281 L 169.507812 28.25 L 137.636719 28.25 Z M 153.570312 0.363281 " clip-rule="nonzero"/></clipPath><clipPath id="d754f98208"><path d="M 157.550781 0.363281 L 189.46875 0.363281 L 189.46875 28.25 L 157.550781 28.25 Z M 157.550781 0.363281 " clip-rule="nonzero"/></clipPath><clipPath id="31fdf2e602"><path d="M 173.484375 28.25 L 189.421875 0.363281 L 157.550781 0.363281 Z M 173.484375 28.25 " clip-rule="nonzero"/></clipPath><clipPath id="c01d3f4135"><path d="M 176.988281 0.363281 L 208.910156 0.363281 L 208.910156 28.25 L 176.988281 28.25 Z M 176.988281 0.363281 " clip-rule="nonzero"/></clipPath><clipPath id="d9a62ad7bb"><path d="M 192.925781 0.363281 L 208.863281 28.25 L 176.988281 28.25 Z M 192.925781 0.363281 " clip-rule="nonzero"/></clipPath><clipPath id="2b62f6d3ee"><path d="M 196.902344 0.363281 L 228.824219 0.363281 L 228.824219 28.25 L 196.902344 28.25 Z M 196.902344 0.363281 " clip-rule="nonzero"/></clipPath><clipPath id="f26c36c6f4"><path d="M 212.839844 28.25 L 228.777344 0.363281 L 196.902344 0.363281 Z M 212.839844 28.25 " clip-rule="nonzero"/></clipPath><clipPath id="fc476f514f"><path d="M 216.34375 0.894531 L 248.261719 0.894531 L 248.261719 28.78125 L 216.34375 28.78125 Z M 216.34375 0.894531 " clip-rule="nonzero"/></clipPath><clipPath id="d72cd7bc26"><path d="M 232.28125 0.894531 L 248.214844 28.78125 L 216.34375 28.78125 Z M 232.28125 0.894531 " clip-rule="nonzero"/></clipPath><clipPath id="6193089f8f"><path d="M 98.019531 94.066406 L 129.9375 94.066406 L 129.9375 121.957031 L 98.019531 121.957031 Z M 98.019531 94.066406 " clip-rule="nonzero"/></clipPath><clipPath id="24b29530da"><path d="M 113.957031 121.957031 L 129.890625 94.066406 L 98.019531 94.066406 Z M 113.957031 121.957031 " clip-rule="nonzero"/></clipPath><clipPath id="f669ebd6de"><path d="M 118.0625 93.753906 L 149.980469 93.753906 L 149.980469 121.644531 L 118.0625 121.644531 Z M 118.0625 93.753906 " clip-rule="nonzero"/></clipPath><clipPath id="cb8e5b5b37"><path d="M 134 93.753906 L 149.933594 121.644531 L 118.0625 121.644531 Z M 134 93.753906 " clip-rule="nonzero"/></clipPath><clipPath id="0a0436a111"><path d="M 137.636719 93.753906 L 169.554688 93.753906 L 169.554688 121.644531 L 137.636719 121.644531 Z M 137.636719 93.753906 " clip-rule="nonzero"/></clipPath><clipPath id="9fd5537e02"><path d="M 153.570312 121.644531 L 169.507812 93.753906 L 137.636719 93.753906 Z M 153.570312 121.644531 " clip-rule="nonzero"/></clipPath><clipPath id="9013fd8a69"><path d="M 157.550781 93.753906 L 189.46875 93.753906 L 189.46875 121.644531 L 157.550781 121.644531 Z M 157.550781 93.753906 " clip-rule="nonzero"/></clipPath><clipPath id="2aa3d13a41"><path d="M 173.484375 93.753906 L 189.421875 121.644531 L 157.550781 121.644531 Z M 173.484375 93.753906 " clip-rule="nonzero"/></clipPath><clipPath id="5e2d99e774"><path d="M 176.988281 94.066406 L 208.910156 94.066406 L 208.910156 121.957031 L 176.988281 121.957031 Z M 176.988281 94.066406 " clip-rule="nonzero"/></clipPath><clipPath id="305e2a6bf0"><path d="M 192.925781 121.957031 L 208.863281 94.066406 L 176.988281 94.066406 Z M 192.925781 121.957031 " clip-rule="nonzero"/></clipPath><clipPath id="451804e595"><path d="M 196.902344 94.066406 L 228.824219 94.066406 L 228.824219 121.957031 L 196.902344 121.957031 Z M 196.902344 94.066406 " clip-rule="nonzero"/></clipPath><clipPath id="c5c525fd51"><path d="M 212.839844 94.066406 L 228.777344 121.957031 L 196.902344 121.957031 Z M 212.839844 94.066406 " clip-rule="nonzero"/></clipPath><clipPath id="89641b97aa"><path d="M 216.34375 94.066406 L 248.261719 94.066406 L 248.261719 121.957031 L 216.34375 121.957031 Z M 216.34375 94.066406 " clip-rule="nonzero"/></clipPath><clipPath id="032f1c301c"><path d="M 232.28125 121.957031 L 248.214844 94.066406 L 216.34375 94.066406 Z M 232.28125 121.957031 " clip-rule="nonzero"/></clipPath><clipPath id="5cef3339c8"><path d="M 236.257812 94.066406 L 268.175781 94.066406 L 268.175781 121.957031 L 236.257812 121.957031 Z M 236.257812 94.066406 " clip-rule="nonzero"/></clipPath><clipPath id="7e0a5a4d45"><path d="M 252.195312 94.066406 L 268.128906 121.957031 L 236.257812 121.957031 Z M 252.195312 94.066406 " clip-rule="nonzero"/></clipPath><clipPath id="21d72e1c92"><path d="M 98.019531 62.65625 L 129.9375 62.65625 L 129.9375 90.542969 L 98.019531 90.542969 Z M 98.019531 62.65625 " clip-rule="nonzero"/></clipPath><clipPath id="2293d302aa"><path d="M 113.957031 62.65625 L 129.890625 90.542969 L 98.019531 90.542969 Z M 113.957031 62.65625 " clip-rule="nonzero"/></clipPath><clipPath id="6522fbdcd6"><path d="M 118.0625 62.65625 L 149.980469 62.65625 L 149.980469 90.542969 L 118.0625 90.542969 Z M 118.0625 62.65625 " clip-rule="nonzero"/></clipPath><clipPath id="b408439f56"><path d="M 134 90.542969 L 149.933594 62.65625 L 118.0625 62.65625 Z M 134 90.542969 " clip-rule="nonzero"/></clipPath><clipPath id="9f631f83b7"><path d="M 137.636719 62.65625 L 169.554688 62.65625 L 169.554688 90.542969 L 137.636719 90.542969 Z M 137.636719 62.65625 " clip-rule="nonzero"/></clipPath><clipPath id="1e290e94ef"><path d="M 153.570312 62.65625 L 169.507812 90.542969 L 137.636719 90.542969 Z M 153.570312 62.65625 " clip-rule="nonzero"/></clipPath><clipPath id="52a3fda406"><path d="M 157.550781 62.65625 L 189.46875 62.65625 L 189.46875 90.542969 L 157.550781 90.542969 Z M 157.550781 62.65625 " clip-rule="nonzero"/></clipPath><clipPath id="a66583c325"><path d="M 173.484375 90.542969 L 189.421875 62.65625 L 157.550781 62.65625 Z M 173.484375 90.542969 " clip-rule="nonzero"/></clipPath><clipPath id="216c2051df"><path d="M 176.988281 62.65625 L 208.910156 62.65625 L 208.910156 90.542969 L 176.988281 90.542969 Z M 176.988281 62.65625 " clip-rule="nonzero"/></clipPath><clipPath id="32333b3249"><path d="M 192.925781 62.65625 L 208.863281 90.542969 L 176.988281 90.542969 Z M 192.925781 62.65625 " clip-rule="nonzero"/></clipPath><clipPath id="add79b2018"><path d="M 196.902344 62.65625 L 228.824219 62.65625 L 228.824219 90.542969 L 196.902344 90.542969 Z M 196.902344 62.65625 " clip-rule="nonzero"/></clipPath><clipPath id="99341af879"><path d="M 212.839844 90.542969 L 228.777344 62.65625 L 196.902344 62.65625 Z M 212.839844 90.542969 " clip-rule="nonzero"/></clipPath><clipPath id="a6b56e0eae"><path d="M 216.34375 62.65625 L 248.261719 62.65625 L 248.261719 90.542969 L 216.34375 90.542969 Z M 216.34375 62.65625 " clip-rule="nonzero"/></clipPath><clipPath id="7d4fbf876c"><path d="M 232.28125 62.65625 L 248.214844 90.542969 L 216.34375 90.542969 Z M 232.28125 62.65625 " clip-rule="nonzero"/></clipPath><clipPath id="d7b572de57"><path d="M 98.019531 156.359375 L 129.9375 156.359375 L 129.9375 184.25 L 98.019531 184.25 Z M 98.019531 156.359375 " clip-rule="nonzero"/></clipPath><clipPath id="47082d26d9"><path d="M 113.957031 184.25 L 129.890625 156.359375 L 98.019531 156.359375 Z M 113.957031 184.25 " clip-rule="nonzero"/></clipPath><clipPath id="1cc5d087c0"><path d="M 118.0625 156.046875 L 149.980469 156.046875 L 149.980469 183.9375 L 118.0625 183.9375 Z M 118.0625 156.046875 " clip-rule="nonzero"/></clipPath><clipPath id="9e52fa6238"><path d="M 134 156.046875 L 149.933594 183.9375 L 118.0625 183.9375 Z M 134 156.046875 " clip-rule="nonzero"/></clipPath><clipPath id="27664a98ec"><path d="M 137.636719 156.046875 L 169.554688 156.046875 L 169.554688 183.9375 L 137.636719 183.9375 Z M 137.636719 156.046875 " clip-rule="nonzero"/></clipPath><clipPath id="05009c2cf1"><path d="M 153.570312 183.9375 L 169.507812 156.046875 L 137.636719 156.046875 Z M 153.570312 183.9375 " clip-rule="nonzero"/></clipPath><clipPath id="2657fdd18c"><path d="M 157.550781 156.046875 L 189.46875 156.046875 L 189.46875 183.9375 L 157.550781 183.9375 Z M 157.550781 156.046875 " clip-rule="nonzero"/></clipPath><clipPath id="281220ad6e"><path d="M 173.484375 156.046875 L 189.421875 183.9375 L 157.550781 183.9375 Z M 173.484375 156.046875 " clip-rule="nonzero"/></clipPath><clipPath id="4310f195ba"><path d="M 176.988281 156.359375 L 208.910156 156.359375 L 208.910156 184.25 L 176.988281 184.25 Z M 176.988281 156.359375 " clip-rule="nonzero"/></clipPath><clipPath id="57deddd115"><path d="M 192.925781 184.25 L 208.863281 156.359375 L 176.988281 156.359375 Z M 192.925781 184.25 " clip-rule="nonzero"/></clipPath><clipPath id="847fb89dc0"><path d="M 196.902344 156.359375 L 228.824219 156.359375 L 228.824219 184.25 L 196.902344 184.25 Z M 196.902344 156.359375 " clip-rule="nonzero"/></clipPath><clipPath id="da2366e0fc"><path d="M 212.839844 156.359375 L 228.777344 184.25 L 196.902344 184.25 Z M 212.839844 156.359375 " clip-rule="nonzero"/></clipPath><clipPath id="6a311e11f4"><path d="M 216.34375 156.359375 L 248.261719 156.359375 L 248.261719 184.25 L 216.34375 184.25 Z M 216.34375 156.359375 " clip-rule="nonzero"/></clipPath><clipPath id="1c30fdb1db"><path d="M 232.28125 184.25 L 248.214844 156.359375 L 216.34375 156.359375 Z M 232.28125 184.25 " clip-rule="nonzero"/></clipPath><clipPath id="dab9f9df8b"><path d="M 236.257812 156.359375 L 268.175781 156.359375 L 268.175781 184.25 L 236.257812 184.25 Z M 236.257812 156.359375 " clip-rule="nonzero"/></clipPath><clipPath id="14395ced84"><path d="M 252.195312 156.359375 L 268.128906 184.25 L 236.257812 184.25 Z M 252.195312 156.359375 " clip-rule="nonzero"/></clipPath><clipPath id="2948f6d177"><path d="M 98.019531 124.949219 L 129.9375 124.949219 L 129.9375 152.835938 L 98.019531 152.835938 Z M 98.019531 124.949219 " clip-rule="nonzero"/></clipPath><clipPath id="f98c0fdc8d"><path d="M 113.957031 124.949219 L 129.890625 152.835938 L 98.019531 152.835938 Z M 113.957031 124.949219 " clip-rule="nonzero"/></clipPath><clipPath id="79637848a2"><path d="M 118.0625 124.949219 L 149.980469 124.949219 L 149.980469 152.835938 L 118.0625 152.835938 Z M 118.0625 124.949219 " clip-rule="nonzero"/></clipPath><clipPath id="a6417c41b3"><path d="M 134 152.835938 L 149.933594 124.949219 L 118.0625 124.949219 Z M 134 152.835938 " clip-rule="nonzero"/></clipPath><clipPath id="c0184f1228"><path d="M 137.636719 124.949219 L 169.554688 124.949219 L 169.554688 152.835938 L 137.636719 152.835938 Z M 137.636719 124.949219 " clip-rule="nonzero"/></clipPath><clipPath id="70bb332ea4"><path d="M 153.570312 124.949219 L 169.507812 152.835938 L 137.636719 152.835938 Z M 153.570312 124.949219 " clip-rule="nonzero"/></clipPath><clipPath id="ef3ec95414"><path d="M 157.550781 124.949219 L 189.46875 124.949219 L 189.46875 152.835938 L 157.550781 152.835938 Z M 157.550781 124.949219 " clip-rule="nonzero"/></clipPath><clipPath id="13d0672a4d"><path d="M 173.484375 152.835938 L 189.421875 124.949219 L 157.550781 124.949219 Z M 173.484375 152.835938 " clip-rule="nonzero"/></clipPath><clipPath id="e8ebe211c7"><path d="M 176.988281 124.949219 L 208.910156 124.949219 L 208.910156 152.835938 L 176.988281 152.835938 Z M 176.988281 124.949219 " clip-rule="nonzero"/></clipPath><clipPath id="26efeb6cfb"><path d="M 192.925781 124.949219 L 208.863281 152.835938 L 176.988281 152.835938 Z M 192.925781 124.949219 " clip-rule="nonzero"/></clipPath><clipPath id="3ee7def856"><path d="M 196.902344 124.949219 L 228.824219 124.949219 L 228.824219 152.835938 L 196.902344 152.835938 Z M 196.902344 124.949219 " clip-rule="nonzero"/></clipPath><clipPath id="f6908d0afe"><path d="M 212.839844 152.835938 L 228.777344 124.949219 L 196.902344 124.949219 Z M 212.839844 152.835938 " clip-rule="nonzero"/></clipPath><clipPath id="7d411134f6"><path d="M 216.34375 124.949219 L 248.261719 124.949219 L 248.261719 152.835938 L 216.34375 152.835938 Z M 216.34375 124.949219 " clip-rule="nonzero"/></clipPath><clipPath id="b877c610ee"><path d="M 232.28125 124.949219 L 248.214844 152.835938 L 216.34375 152.835938 Z M 232.28125 124.949219 " clip-rule="nonzero"/></clipPath><clipPath id="49775cf641"><path d="M 98.019531 218.652344 L 129.9375 218.652344 L 129.9375 246.542969 L 98.019531 246.542969 Z M 98.019531 218.652344 " clip-rule="nonzero"/></clipPath><clipPath id="dd707b43aa"><path d="M 113.957031 246.542969 L 129.890625 218.652344 L 98.019531 218.652344 Z M 113.957031 246.542969 " clip-rule="nonzero"/></clipPath><clipPath id="a019413234"><path d="M 118.0625 218.339844 L 149.980469 218.339844 L 149.980469 246.230469 L 118.0625 246.230469 Z M 118.0625 218.339844 " clip-rule="nonzero"/></clipPath><clipPath id="dbc3ee12b7"><path d="M 134 218.339844 L 149.933594 246.230469 L 118.0625 246.230469 Z M 134 218.339844 " clip-rule="nonzero"/></clipPath><clipPath id="e772926be4"><path d="M 137.636719 218.339844 L 169.554688 218.339844 L 169.554688 246.230469 L 137.636719 246.230469 Z M 137.636719 218.339844 " clip-rule="nonzero"/></clipPath><clipPath id="84b74facb3"><path d="M 153.570312 246.230469 L 169.507812 218.339844 L 137.636719 218.339844 Z M 153.570312 246.230469 " clip-rule="nonzero"/></clipPath><clipPath id="a864c2b309"><path d="M 157.550781 218.339844 L 189.46875 218.339844 L 189.46875 246.230469 L 157.550781 246.230469 Z M 157.550781 218.339844 " clip-rule="nonzero"/></clipPath><clipPath id="f9474dbec9"><path d="M 173.484375 218.339844 L 189.421875 246.230469 L 157.550781 246.230469 Z M 173.484375 218.339844 " clip-rule="nonzero"/></clipPath><clipPath id="3dad836a55"><path d="M 176.988281 218.652344 L 208.910156 218.652344 L 208.910156 246.542969 L 176.988281 246.542969 Z M 176.988281 218.652344 " clip-rule="nonzero"/></clipPath><clipPath id="f3a83ece99"><path d="M 192.925781 246.542969 L 208.863281 218.652344 L 176.988281 218.652344 Z M 192.925781 246.542969 " clip-rule="nonzero"/></clipPath><clipPath id="0756e09ae1"><path d="M 196.902344 218.652344 L 228.824219 218.652344 L 228.824219 246.542969 L 196.902344 246.542969 Z M 196.902344 218.652344 " clip-rule="nonzero"/></clipPath><clipPath id="a09cd204b2"><path d="M 212.839844 218.652344 L 228.777344 246.542969 L 196.902344 246.542969 Z M 212.839844 218.652344 " clip-rule="nonzero"/></clipPath><clipPath id="008c7973d2"><path d="M 216.34375 218.652344 L 248.261719 218.652344 L 248.261719 246.542969 L 216.34375 246.542969 Z M 216.34375 218.652344 " clip-rule="nonzero"/></clipPath><clipPath id="14617b1fd8"><path d="M 232.28125 246.542969 L 248.214844 218.652344 L 216.34375 218.652344 Z M 232.28125 246.542969 " clip-rule="nonzero"/></clipPath><clipPath id="1596fb23d4"><path d="M 98.019531 187.242188 L 129.9375 187.242188 L 129.9375 215.128906 L 98.019531 215.128906 Z M 98.019531 187.242188 " clip-rule="nonzero"/></clipPath><clipPath id="20f4190dae"><path d="M 113.957031 187.242188 L 129.890625 215.128906 L 98.019531 215.128906 Z M 113.957031 187.242188 " clip-rule="nonzero"/></clipPath><clipPath id="0419975865"><path d="M 118.0625 187.242188 L 149.980469 187.242188 L 149.980469 215.128906 L 118.0625 215.128906 Z M 118.0625 187.242188 " clip-rule="nonzero"/></clipPath><clipPath id="6a3603b472"><path d="M 134 215.128906 L 149.933594 187.242188 L 118.0625 187.242188 Z M 134 215.128906 " clip-rule="nonzero"/></clipPath><clipPath id="1daa0e5ac1"><path d="M 137.636719 187.242188 L 169.554688 187.242188 L 169.554688 215.128906 L 137.636719 215.128906 Z M 137.636719 187.242188 " clip-rule="nonzero"/></clipPath><clipPath id="4b19d6e189"><path d="M 153.570312 187.242188 L 169.507812 215.128906 L 137.636719 215.128906 Z M 153.570312 187.242188 " clip-rule="nonzero"/></clipPath><clipPath id="ef05757564"><path d="M 157.550781 187.242188 L 189.46875 187.242188 L 189.46875 215.128906 L 157.550781 215.128906 Z M 157.550781 187.242188 " clip-rule="nonzero"/></clipPath><clipPath id="c19e2daa48"><path d="M 173.484375 215.128906 L 189.421875 187.242188 L 157.550781 187.242188 Z M 173.484375 215.128906 " clip-rule="nonzero"/></clipPath><clipPath id="786bf78a1b"><path d="M 176.988281 187.242188 L 208.910156 187.242188 L 208.910156 215.128906 L 176.988281 215.128906 Z M 176.988281 187.242188 " clip-rule="nonzero"/></clipPath><clipPath id="a9a21e0051"><path d="M 192.925781 187.242188 L 208.863281 215.128906 L 176.988281 215.128906 Z M 192.925781 187.242188 " clip-rule="nonzero"/></clipPath><clipPath id="806a6f8f90"><path d="M 196.902344 187.242188 L 228.824219 187.242188 L 228.824219 215.128906 L 196.902344 215.128906 Z M 196.902344 187.242188 " clip-rule="nonzero"/></clipPath><clipPath id="af97b4533b"><path d="M 212.839844 215.128906 L 228.777344 187.242188 L 196.902344 187.242188 Z M 212.839844 215.128906 " clip-rule="nonzero"/></clipPath><clipPath id="987bc7f8a1"><path d="M 216.34375 187.53125 L 248.261719 187.53125 L 248.261719 215.417969 L 216.34375 215.417969 Z M 216.34375 187.53125 " clip-rule="nonzero"/></clipPath><clipPath id="36234408ff"><path d="M 232.28125 187.53125 L 248.214844 215.417969 L 216.34375 215.417969 Z M 232.28125 187.53125 " clip-rule="nonzero"/></clipPath><clipPath id="9977bdb8a3"><path d="M 255.460938 156.359375 L 287.378906 156.359375 L 287.378906 184.25 L 255.460938 184.25 Z M 255.460938 156.359375 " clip-rule="nonzero"/></clipPath><clipPath id="9fe38e32f0"><path d="M 271.398438 184.25 L 287.332031 156.359375 L 255.460938 156.359375 Z M 271.398438 184.25 " clip-rule="nonzero"/></clipPath><clipPath id="185110c1fc"><path d="M 236 187.234375 L 267.890625 187.234375 L 267.890625 215.121094 L 236 215.121094 Z M 236 187.234375 " clip-rule="nonzero"/></clipPath><clipPath id="73725fb7e5"><path d="M 251.953125 215.121094 L 236.015625 187.234375 L 267.890625 187.234375 Z M 251.953125 215.121094 " clip-rule="nonzero"/></clipPath><clipPath id="bbb6c17e0e"><path d="M 236.019531 124.949219 L 267.941406 124.949219 L 267.941406 152.835938 L 236.019531 152.835938 Z M 236.019531 124.949219 " clip-rule="nonzero"/></clipPath><clipPath id="fa8694250e"><path d="M 251.957031 152.835938 L 267.894531 124.949219 L 236.019531 124.949219 Z M 251.957031 152.835938 " clip-rule="nonzero"/></clipPath><clipPath id="1cb106ea78"><path d="M 255.460938 124.949219 L 287.378906 124.949219 L 287.378906 152.835938 L 255.460938 152.835938 Z M 255.460938 124.949219 " clip-rule="nonzero"/></clipPath><clipPath id="786405fb0e"><path d="M 271.398438 124.949219 L 287.332031 152.835938 L 255.460938 152.835938 Z M 271.398438 124.949219 " clip-rule="nonzero"/></clipPath><clipPath id="b3617f2d5b"><path d="M 255.699219 94.066406 L 287.617188 94.066406 L 287.617188 121.957031 L 255.699219 121.957031 Z M 255.699219 94.066406 " clip-rule="nonzero"/></clipPath><clipPath id="a69d0a3808"><path d="M 271.632812 121.957031 L 287.570312 94.066406 L 255.699219 94.066406 Z M 271.632812 121.957031 " clip-rule="nonzero"/></clipPath><clipPath id="1ad9094386"><path d="M 275.613281 94.066406 L 307.5 94.066406 L 307.5 121.957031 L 275.613281 121.957031 Z M 275.613281 94.066406 " clip-rule="nonzero"/></clipPath><clipPath id="ec8e44505a"><path d="M 291.546875 94.066406 L 307.484375 121.957031 L 275.613281 121.957031 Z M 291.546875 94.066406 " clip-rule="nonzero"/></clipPath><clipPath id="32c38aeaf1"><path d="M 236.257812 62.65625 L 268.175781 62.65625 L 268.175781 90.542969 L 236.257812 90.542969 Z M 236.257812 62.65625 " clip-rule="nonzero"/></clipPath><clipPath id="1f9c008d57"><path d="M 252.195312 90.542969 L 268.128906 62.65625 L 236.257812 62.65625 Z M 252.195312 90.542969 " clip-rule="nonzero"/></clipPath><clipPath id="9d853dfcc2"><path d="M 255.699219 62.65625 L 287.617188 62.65625 L 287.617188 90.542969 L 255.699219 90.542969 Z M 255.699219 62.65625 " clip-rule="nonzero"/></clipPath><clipPath id="f3aba0e354"><path d="M 271.632812 62.65625 L 287.570312 90.542969 L 255.699219 90.542969 Z M 271.632812 62.65625 " clip-rule="nonzero"/></clipPath><clipPath id="2ddecc25e4"><path d="M 275.375 125.214844 L 307.292969 125.214844 L 307.292969 153.101562 L 275.375 153.101562 Z M 275.375 125.214844 " clip-rule="nonzero"/></clipPath><clipPath id="c98e72f35a"><path d="M 291.3125 153.101562 L 307.246094 125.214844 L 275.375 125.214844 Z M 291.3125 153.101562 " clip-rule="nonzero"/></clipPath><clipPath id="2f0d6c7cf0"><path d="M 58.664062 31.460938 L 90.585938 31.460938 L 90.585938 59.351562 L 58.664062 59.351562 Z M 58.664062 31.460938 " clip-rule="nonzero"/></clipPath><clipPath id="b7d82a70af"><path d="M 74.601562 59.351562 L 90.539062 31.460938 L 58.664062 31.460938 Z M 74.601562 59.351562 " clip-rule="nonzero"/></clipPath><clipPath id="ce13dd61e2"><path d="M 78.707031 31.152344 L 110.628906 31.152344 L 110.628906 59.039062 L 78.707031 59.039062 Z M 78.707031 31.152344 " clip-rule="nonzero"/></clipPath><clipPath id="512fe83394"><path d="M 94.644531 31.152344 L 110.582031 59.039062 L 78.707031 59.039062 Z M 94.644531 31.152344 " clip-rule="nonzero"/></clipPath><clipPath id="6c248041e9"><path d="M 58.664062 0.0507812 L 90.585938 0.0507812 L 90.585938 27.9375 L 58.664062 27.9375 Z M 58.664062 0.0507812 " clip-rule="nonzero"/></clipPath><clipPath id="ee8a538d8e"><path d="M 74.601562 0.0507812 L 90.539062 27.9375 L 58.664062 27.9375 Z M 74.601562 0.0507812 " clip-rule="nonzero"/></clipPath><clipPath id="ed5029afb2"><path d="M 78.707031 0.0507812 L 110.628906 0.0507812 L 110.628906 27.9375 L 78.707031 27.9375 Z M 78.707031 0.0507812 " clip-rule="nonzero"/></clipPath><clipPath id="00bba86b11"><path d="M 94.644531 27.9375 L 110.582031 0.0507812 L 78.707031 0.0507812 Z M 94.644531 27.9375 " clip-rule="nonzero"/></clipPath><clipPath id="d2ec988eec"><path d="M 58.664062 93.753906 L 90.585938 93.753906 L 90.585938 121.644531 L 58.664062 121.644531 Z M 58.664062 93.753906 " clip-rule="nonzero"/></clipPath><clipPath id="ce665f7310"><path d="M 74.601562 121.644531 L 90.539062 93.753906 L 58.664062 93.753906 Z M 74.601562 121.644531 " clip-rule="nonzero"/></clipPath><clipPath id="6fbfb50413"><path d="M 78.707031 93.445312 L 110.628906 93.445312 L 110.628906 121.332031 L 78.707031 121.332031 Z M 78.707031 93.445312 " clip-rule="nonzero"/></clipPath><clipPath id="cf94eab127"><path d="M 94.644531 93.445312 L 110.582031 121.332031 L 78.707031 121.332031 Z M 94.644531 93.445312 " clip-rule="nonzero"/></clipPath><clipPath id="4bbbbcbda4"><path d="M 58.664062 62.34375 L 90.585938 62.34375 L 90.585938 90.230469 L 58.664062 90.230469 Z M 58.664062 62.34375 " clip-rule="nonzero"/></clipPath><clipPath id="c57462ee91"><path d="M 74.601562 62.34375 L 90.539062 90.230469 L 58.664062 90.230469 Z M 74.601562 62.34375 " clip-rule="nonzero"/></clipPath><clipPath id="f57ec1747c"><path d="M 78.707031 62.34375 L 110.628906 62.34375 L 110.628906 90.230469 L 78.707031 90.230469 Z M 78.707031 62.34375 " clip-rule="nonzero"/></clipPath><clipPath id="ba4d090b3b"><path d="M 94.644531 90.230469 L 110.582031 62.34375 L 78.707031 62.34375 Z M 94.644531 90.230469 " clip-rule="nonzero"/></clipPath><clipPath id="93e6588f76"><path d="M 58.664062 156.046875 L 90.585938 156.046875 L 90.585938 183.9375 L 58.664062 183.9375 Z M 58.664062 156.046875 " clip-rule="nonzero"/></clipPath><clipPath id="e1e18d070a"><path d="M 74.601562 183.9375 L 90.539062 156.046875 L 58.664062 156.046875 Z M 74.601562 183.9375 " clip-rule="nonzero"/></clipPath><clipPath id="0029cb5691"><path d="M 78.707031 155.738281 L 110.628906 155.738281 L 110.628906 183.625 L 78.707031 183.625 Z M 78.707031 155.738281 " clip-rule="nonzero"/></clipPath><clipPath id="9e2231b7a5"><path d="M 94.644531 155.738281 L 110.582031 183.625 L 78.707031 183.625 Z M 94.644531 155.738281 " clip-rule="nonzero"/></clipPath><clipPath id="294f2ea3a2"><path d="M 58.664062 124.636719 L 90.585938 124.636719 L 90.585938 152.523438 L 58.664062 152.523438 Z M 58.664062 124.636719 " clip-rule="nonzero"/></clipPath><clipPath id="b18192e100"><path d="M 74.601562 124.636719 L 90.539062 152.523438 L 58.664062 152.523438 Z M 74.601562 124.636719 " clip-rule="nonzero"/></clipPath><clipPath id="2c7e6a1be1"><path d="M 78.707031 124.636719 L 110.628906 124.636719 L 110.628906 152.523438 L 78.707031 152.523438 Z M 78.707031 124.636719 " clip-rule="nonzero"/></clipPath><clipPath id="3bcf6ce6d6"><path d="M 94.644531 152.523438 L 110.582031 124.636719 L 78.707031 124.636719 Z M 94.644531 152.523438 " clip-rule="nonzero"/></clipPath><clipPath id="875992fdec"><path d="M 58.664062 218.339844 L 90.585938 218.339844 L 90.585938 246.230469 L 58.664062 246.230469 Z M 58.664062 218.339844 " clip-rule="nonzero"/></clipPath><clipPath id="fdd54c03ba"><path d="M 74.601562 246.230469 L 90.539062 218.339844 L 58.664062 218.339844 Z M 74.601562 246.230469 " clip-rule="nonzero"/></clipPath><clipPath id="614b766bba"><path d="M 78.707031 218.03125 L 110.628906 218.03125 L 110.628906 245.917969 L 78.707031 245.917969 Z M 78.707031 218.03125 " clip-rule="nonzero"/></clipPath><clipPath id="727c3e6762"><path d="M 94.644531 218.03125 L 110.582031 245.917969 L 78.707031 245.917969 Z M 94.644531 218.03125 " clip-rule="nonzero"/></clipPath><clipPath id="20512b81de"><path d="M 58.664062 186.929688 L 90.585938 186.929688 L 90.585938 214.816406 L 58.664062 214.816406 Z M 58.664062 186.929688 " clip-rule="nonzero"/></clipPath><clipPath id="8ff8a154dd"><path d="M 74.601562 186.929688 L 90.539062 214.816406 L 58.664062 214.816406 Z M 74.601562 186.929688 " clip-rule="nonzero"/></clipPath><clipPath id="92ee888b28"><path d="M 78.707031 186.929688 L 110.628906 186.929688 L 110.628906 214.816406 L 78.707031 214.816406 Z M 78.707031 186.929688 " clip-rule="nonzero"/></clipPath><clipPath id="13bbfb0379"><path d="M 94.644531 214.816406 L 110.582031 186.929688 L 78.707031 186.929688 Z M 94.644531 214.816406 " clip-rule="nonzero"/></clipPath><clipPath id="09e825d398"><path d="M 39.355469 30.839844 L 71.273438 30.839844 L 71.273438 58.726562 L 39.355469 58.726562 Z M 39.355469 30.839844 " clip-rule="nonzero"/></clipPath><clipPath id="265014babf"><path d="M 55.289062 30.839844 L 71.226562 58.726562 L 39.355469 58.726562 Z M 55.289062 30.839844 " clip-rule="nonzero"/></clipPath><clipPath id="513308192a"><path d="M 19.3125 93.445312 L 51.230469 93.445312 L 51.230469 121.332031 L 19.3125 121.332031 Z M 19.3125 93.445312 " clip-rule="nonzero"/></clipPath><clipPath id="41385ef3bc"><path d="M 35.246094 121.332031 L 51.183594 93.445312 L 19.3125 93.445312 Z M 35.246094 121.332031 " clip-rule="nonzero"/></clipPath><clipPath id="0b49d482c5"><path d="M 39.355469 93.132812 L 71.273438 93.132812 L 71.273438 121.019531 L 39.355469 121.019531 Z M 39.355469 93.132812 " clip-rule="nonzero"/></clipPath><clipPath id="1c5962d49a"><path d="M 55.289062 93.132812 L 71.226562 121.019531 L 39.355469 121.019531 Z M 55.289062 93.132812 " clip-rule="nonzero"/></clipPath><clipPath id="2536995116"><path d="M 19.3125 62.03125 L 51.230469 62.03125 L 51.230469 89.921875 L 19.3125 89.921875 Z M 19.3125 62.03125 " clip-rule="nonzero"/></clipPath><clipPath id="dfe28c8482"><path d="M 35.246094 62.03125 L 51.183594 89.921875 L 19.3125 89.921875 Z M 35.246094 62.03125 " clip-rule="nonzero"/></clipPath><clipPath id="b11533d946"><path d="M 39.355469 62.03125 L 71.273438 62.03125 L 71.273438 89.921875 L 39.355469 89.921875 Z M 39.355469 62.03125 " clip-rule="nonzero"/></clipPath><clipPath id="4d349f39aa"><path d="M 55.289062 89.921875 L 71.226562 62.03125 L 39.355469 62.03125 Z M 55.289062 89.921875 " clip-rule="nonzero"/></clipPath><clipPath id="e129907796"><path d="M 19.3125 155.738281 L 51.230469 155.738281 L 51.230469 183.625 L 19.3125 183.625 Z M 19.3125 155.738281 " clip-rule="nonzero"/></clipPath><clipPath id="5d31ed15df"><path d="M 35.246094 183.625 L 51.183594 155.738281 L 19.3125 155.738281 Z M 35.246094 183.625 " clip-rule="nonzero"/></clipPath><clipPath id="82ed892ffc"><path d="M 39.355469 155.425781 L 71.273438 155.425781 L 71.273438 183.3125 L 39.355469 183.3125 Z M 39.355469 155.425781 " clip-rule="nonzero"/></clipPath><clipPath id="5c37479ff8"><path d="M 55.289062 155.425781 L 71.226562 183.3125 L 39.355469 183.3125 Z M 55.289062 155.425781 " clip-rule="nonzero"/></clipPath><clipPath id="cb0158946b"><path d="M 19.3125 124.324219 L 51.230469 124.324219 L 51.230469 152.214844 L 19.3125 152.214844 Z M 19.3125 124.324219 " clip-rule="nonzero"/></clipPath><clipPath id="98b6013a25"><path d="M 35.246094 124.324219 L 51.183594 152.214844 L 19.3125 152.214844 Z M 35.246094 124.324219 " clip-rule="nonzero"/></clipPath><clipPath id="3b733f9256"><path d="M 39.355469 124.324219 L 71.273438 124.324219 L 71.273438 152.214844 L 39.355469 152.214844 Z M 39.355469 124.324219 " clip-rule="nonzero"/></clipPath><clipPath id="09908955e7"><path d="M 55.289062 152.214844 L 71.226562 124.324219 L 39.355469 124.324219 Z M 55.289062 152.214844 " clip-rule="nonzero"/></clipPath><clipPath id="8472c40060"><path d="M 39.355469 186.617188 L 71.273438 186.617188 L 71.273438 214.507812 L 39.355469 214.507812 Z M 39.355469 186.617188 " clip-rule="nonzero"/></clipPath><clipPath id="8957621dc0"><path d="M 55.289062 214.507812 L 71.226562 186.617188 L 39.355469 186.617188 Z M 55.289062 214.507812 " clip-rule="nonzero"/></clipPath><clipPath id="634ca024c6"><path d="M 0 93.753906 L 31.917969 93.753906 L 31.917969 121.644531 L 0 121.644531 Z M 0 93.753906 " clip-rule="nonzero"/></clipPath><clipPath id="7a5e93ef4c"><path d="M 15.9375 93.753906 L 31.871094 121.644531 L 0 121.644531 Z M 15.9375 93.753906 " clip-rule="nonzero"/></clipPath><clipPath id="e84980e0cf"><path d="M 0 124.949219 L 31.917969 124.949219 L 31.917969 152.835938 L 0 152.835938 Z M 0 124.949219 " clip-rule="nonzero"/></clipPath><clipPath id="460ac77506"><path d="M 15.9375 152.835938 L 31.871094 124.949219 L 0 124.949219 Z M 15.9375 152.835938 " clip-rule="nonzero"/></clipPath></defs><g clip-path="url(#fa69832f62)"><g clip-path="url(#797d781117)"><path fill="#a60404" d="M 98.019531 31.773438 L 129.9375 31.773438 L 129.9375 59.664062 L 98.019531 59.664062 Z M 98.019531 31.773438 " fill-opacity="1" fill-rule="nonzero"/></g></g><g clip-path="url(#facae884ec)"><g clip-path="url(#811495e7c3)"><path fill="#cc5200" d="M 118.0625 31.460938 L 149.980469 31.460938 L 149.980469 59.351562 L 118.0625 59.351562 Z M 118.0625 31.460938 " fill-opacity="1" fill-rule="nonzero"/></g></g><g clip-path="url(#ec6e5004e0)"><g clip-path="url(#b7e3c2d306)"><path fill="#a60404" d="M 137.636719 31.460938 L 169.554688 31.460938 L 169.554688 59.351562 L 137.636719 59.351562 Z M 137.636719 31.460938 " fill-opacity="1" fill-rule="nonzero"/></g></g><g clip-path="url(#51ce9b197f)"><g clip-path="url(#af8f5f6afd)"><path fill="#a60404" d="M 157.550781 31.460938 L 189.46875 31.460938 L 189.46875 59.351562 L 157.550781 59.351562 Z M 157.550781 31.460938 " fill-opacity="1" fill-rule="nonzero"/></g></g><g clip-path="url(#ef256b5526)"><g clip-path="url(#ceed602acf)"><path fill="#a60404" d="M 176.988281 31.773438 L 208.910156 31.773438 L 208.910156 59.664062 L 176.988281 59.664062 Z M 176.988281 31.773438 " fill-opacity="1" fill-rule="nonzero"/></g></g><g clip-path="url(#f8a753d786)"><g clip-path="url(#19105dc753)"><path fill="#a60404" d="M 196.902344 31.773438 L 228.824219 31.773438 L 228.824219 59.664062 L 196.902344 59.664062 Z M 196.902344 31.773438 " fill-opacity="1" fill-rule="nonzero"/></g></g><g clip-path="url(#540ee32e89)"><g clip-path="url(#159407b279)"><path fill="#a60404" d="M 216.34375 31.773438 L 248.261719 31.773438 L 248.261719 59.664062 L 216.34375 59.664062 Z M 216.34375 31.773438 " fill-opacity="1" fill-rule="nonzero"/></g></g><g clip-path="url(#6e372bf1f7)"><g clip-path="url(#b81606b7a5)"><path fill="#a60404" d="M 236.257812 31.460938 L 268.175781 31.460938 L 268.175781 59.351562 L 236.257812 59.351562 Z M 236.257812 31.460938 " fill-opacity="1" fill-rule="nonzero"/></g></g><g clip-path="url(#8ef3ea903e)"><g clip-path="url(#608d87d5c0)"><path fill="#a60404" d="M 98.019531 0.363281 L 129.9375 0.363281 L 129.9375 28.25 L 98.019531 28.25 Z M 98.019531 0.363281 " fill-opacity="1" fill-rule="nonzero"/></g></g><g clip-path="url(#56120ff368)"><g clip-path="url(#99b4c2777d)"><path fill="#a60404" d="M 118.0625 0.363281 L 149.980469 0.363281 L 149.980469 28.25 L 118.0625 28.25 Z M 118.0625 0.363281 " fill-opacity="1" fill-rule="nonzero"/></g></g><g clip-path="url(#3980932ca5)"><g clip-path="url(#1acf7aef34)"><path fill="#a60404" d="M 137.636719 0.363281 L 169.554688 0.363281 L 169.554688 28.25 L 137.636719 28.25 Z M 137.636719 0.363281 " fill-opacity="1" fill-rule="nonzero"/></g></g><g clip-path="url(#d754f98208)"><g clip-path="url(#31fdf2e602)"><path fill="#a60404" d="M 157.550781 0.363281 L 189.46875 0.363281 L 189.46875 28.25 L 157.550781 28.25 Z M 157.550781 0.363281 " fill-opacity="1" fill-rule="nonzero"/></g></g><g clip-path="url(#c01d3f4135)"><g clip-path="url(#d9a62ad7bb)"><path fill="#cc5200" d="M 176.988281 0.363281 L 208.910156 0.363281 L 208.910156 28.25 L 176.988281 28.25 Z M 176.988281 0.363281 " fill-opacity="1" fill-rule="nonzero"/></g></g><g clip-path="url(#2b62f6d3ee)"><g clip-path="url(#f26c36c6f4)"><path fill="#a60404" d="M 196.902344 0.363281 L 228.824219 0.363281 L 228.824219 28.25 L 196.902344 28.25 Z M 196.902344 0.363281 " fill-opacity="1" fill-rule="nonzero"/></g></g><g clip-path="url(#fc476f514f)"><g clip-path="url(#d72cd7bc26)"><path fill="#a60404" d="M 216.34375 0.894531 L 248.261719 0.894531 L 248.261719 28.78125 L 216.34375 28.78125 Z M 216.34375 0.894531 " fill-opacity="1" fill-rule="nonzero"/></g></g><g clip-path="url(#6193089f8f)"><g clip-path="url(#24b29530da)"><path fill="#a60404" d="M 98.019531 94.066406 L 129.9375 94.066406 L 129.9375 121.957031 L 98.019531 121.957031 Z M 98.019531 94.066406 " fill-opacity="1" fill-rule="nonzero"/></g></g><g clip-path="url(#f669ebd6de)"><g clip-path="url(#cb8e5b5b37)"><path fill="#cc5200" d="M 118.0625 93.753906 L 149.980469 93.753906 L 149.980469 121.644531 L 118.0625 121.644531 Z M 118.0625 93.753906 " fill-opacity="1" fill-rule="nonzero"/></g></g><g clip-path="url(#0a0436a111)"><g clip-path="url(#9fd5537e02)"><path fill="#a60404" d="M 137.636719 93.753906 L 169.554688 93.753906 L 169.554688 121.644531 L 137.636719 121.644531 Z M 137.636719 93.753906 " fill-opacity="1" fill-rule="nonzero"/></g></g><g clip-path="url(#9013fd8a69)"><g clip-path="url(#2aa3d13a41)"><path fill="#a60404" d="M 157.550781 93.753906 L 189.46875 93.753906 L 189.46875 121.644531 L 157.550781 121.644531 Z M 157.550781 93.753906 " fill-opacity="1" fill-rule="nonzero"/></g></g><g clip-path="url(#5e2d99e774)"><g clip-path="url(#305e2a6bf0)"><path fill="#a60404" d="M 176.988281 94.066406 L 208.910156 94.066406 L 208.910156 121.957031 L 176.988281 121.957031 Z M 176.988281 94.066406 " fill-opacity="1" fill-rule="nonzero"/></g></g><g clip-path="url(#451804e595)"><g clip-path="url(#c5c525fd51)"><path fill="#a60404" d="M 196.902344 94.066406 L 228.824219 94.066406 L 228.824219 121.957031 L 196.902344 121.957031 Z M 196.902344 94.066406 " fill-opacity="1" fill-rule="nonzero"/></g></g><g clip-path="url(#89641b97aa)"><g clip-path="url(#032f1c301c)"><path fill="#a60404" d="M 216.34375 94.066406 L 248.261719 94.066406 L 248.261719 121.957031 L 216.34375 121.957031 Z M 216.34375 94.066406 " fill-opacity="1" fill-rule="nonzero"/></g></g><g clip-path="url(#5cef3339c8)"><g clip-path="url(#7e0a5a4d45)"><path fill="#a60404" d="M 236.257812 94.066406 L 268.175781 94.066406 L 268.175781 121.957031 L 236.257812 121.957031 Z M 236.257812 94.066406 " fill-opacity="1" fill-rule="nonzero"/></g></g><g clip-path="url(#21d72e1c92)"><g clip-path="url(#2293d302aa)"><path fill="#a60404" d="M 98.019531 62.65625 L 129.9375 62.65625 L 129.9375 90.542969 L 98.019531 90.542969 Z M 98.019531 62.65625 " fill-opacity="1" fill-rule="nonzero"/></g></g><g clip-path="url(#6522fbdcd6)"><g clip-path="url(#b408439f56)"><path fill="#a60404" d="M 118.0625 62.65625 L 149.980469 62.65625 L 149.980469 90.542969 L 118.0625 90.542969 Z M 118.0625 62.65625 " fill-opacity="1" fill-rule="nonzero"/></g></g><g clip-path="url(#9f631f83b7)"><g clip-path="url(#1e290e94ef)"><path fill="#a60404" d="M 137.636719 62.65625 L 169.554688 62.65625 L 169.554688 90.542969 L 137.636719 90.542969 Z M 137.636719 62.65625 " fill-opacity="1" fill-rule="nonzero"/></g></g><g clip-path="url(#52a3fda406)"><g clip-path="url(#a66583c325)"><path fill="#a60404" d="M 157.550781 62.65625 L 189.46875 62.65625 L 189.46875 90.542969 L 157.550781 90.542969 Z M 157.550781 62.65625 " fill-opacity="1" fill-rule="nonzero"/></g></g><g clip-path="url(#216c2051df)"><g clip-path="url(#32333b3249)"><path fill="#cc5200" d="M 176.988281 62.65625 L 208.910156 62.65625 L 208.910156 90.542969 L 176.988281 90.542969 Z M 176.988281 62.65625 " fill-opacity="1" fill-rule="nonzero"/></g></g><g clip-path="url(#add79b2018)"><g clip-path="url(#99341af879)"><path fill="#a60404" d="M 196.902344 62.65625 L 228.824219 62.65625 L 228.824219 90.542969 L 196.902344 90.542969 Z M 196.902344 62.65625 " fill-opacity="1" fill-rule="nonzero"/></g></g><g clip-path="url(#a6b56e0eae)"><g clip-path="url(#7d4fbf876c)"><path fill="#a60404" d="M 216.34375 62.65625 L 248.261719 62.65625 L 248.261719 90.542969 L 216.34375 90.542969 Z M 216.34375 62.65625 " fill-opacity="1" fill-rule="nonzero"/></g></g><g clip-path="url(#d7b572de57)"><g clip-path="url(#47082d26d9)"><path fill="#a60404" d="M 98.019531 156.359375 L 129.9375 156.359375 L 129.9375 184.25 L 98.019531 184.25 Z M 98.019531 156.359375 " fill-opacity="1" fill-rule="nonzero"/></g></g><g clip-path="url(#1cc5d087c0)"><g clip-path="url(#9e52fa6238)"><path fill="#cc5200" d="M 118.0625 156.046875 L 149.980469 156.046875 L 149.980469 183.9375 L 118.0625 183.9375 Z M 118.0625 156.046875 " fill-opacity="1" fill-rule="nonzero"/></g></g><g clip-path="url(#27664a98ec)"><g clip-path="url(#05009c2cf1)"><path fill="#a60404" d="M 137.636719 156.046875 L 169.554688 156.046875 L 169.554688 183.9375 L 137.636719 183.9375 Z M 137.636719 156.046875 " fill-opacity="1" fill-rule="nonzero"/></g></g><g clip-path="url(#2657fdd18c)"><g clip-path="url(#281220ad6e)"><path fill="#a60404" d="M 157.550781 156.046875 L 189.46875 156.046875 L 189.46875 183.9375 L 157.550781 183.9375 Z M 157.550781 156.046875 " fill-opacity="1" fill-rule="nonzero"/></g></g><g clip-path="url(#4310f195ba)"><g clip-path="url(#57deddd115)"><path fill="#a60404" d="M 176.988281 156.359375 L 208.910156 156.359375 L 208.910156 184.25 L 176.988281 184.25 Z M 176.988281 156.359375 " fill-opacity="1" fill-rule="nonzero"/></g></g><g clip-path="url(#847fb89dc0)"><g clip-path="url(#da2366e0fc)"><path fill="#a60404" d="M 196.902344 156.359375 L 228.824219 156.359375 L 228.824219 184.25 L 196.902344 184.25 Z M 196.902344 156.359375 " fill-opacity="1" fill-rule="nonzero"/></g></g><g clip-path="url(#6a311e11f4)"><g clip-path="url(#1c30fdb1db)"><path fill="#a60404" d="M 216.34375 156.359375 L 248.261719 156.359375 L 248.261719 184.25 L 216.34375 184.25 Z M 216.34375 156.359375 " fill-opacity="1" fill-rule="nonzero"/></g></g><g clip-path="url(#dab9f9df8b)"><g clip-path="url(#14395ced84)"><path fill="#a60404" d="M 236.257812 156.359375 L 268.175781 156.359375 L 268.175781 184.25 L 236.257812 184.25 Z M 236.257812 156.359375 " fill-opacity="1" fill-rule="nonzero"/></g></g><g clip-path="url(#2948f6d177)"><g clip-path="url(#f98c0fdc8d)"><path fill="#a60404" d="M 98.019531 124.949219 L 129.9375 124.949219 L 129.9375 152.835938 L 98.019531 152.835938 Z M 98.019531 124.949219 " fill-opacity="1" fill-rule="nonzero"/></g></g><g clip-path="url(#79637848a2)"><g clip-path="url(#a6417c41b3)"><path fill="#a60404" d="M 118.0625 124.949219 L 149.980469 124.949219 L 149.980469 152.835938 L 118.0625 152.835938 Z M 118.0625 124.949219 " fill-opacity="1" fill-rule="nonzero"/></g></g><g clip-path="url(#c0184f1228)"><g clip-path="url(#70bb332ea4)"><path fill="#a60404" d="M 137.636719 124.949219 L 169.554688 124.949219 L 169.554688 152.835938 L 137.636719 152.835938 Z M 137.636719 124.949219 " fill-opacity="1" fill-rule="nonzero"/></g></g><g clip-path="url(#ef3ec95414)"><g clip-path="url(#13d0672a4d)"><path fill="#a60404" d="M 157.550781 124.949219 L 189.46875 124.949219 L 189.46875 152.835938 L 157.550781 152.835938 Z M 157.550781 124.949219 " fill-opacity="1" fill-rule="nonzero"/></g></g><g clip-path="url(#e8ebe211c7)"><g clip-path="url(#26efeb6cfb)"><path fill="#cc5200" d="M 176.988281 124.949219 L 208.910156 124.949219 L 208.910156 152.835938 L 176.988281 152.835938 Z M 176.988281 124.949219 " fill-opacity="1" fill-rule="nonzero"/></g></g><g clip-path="url(#3ee7def856)"><g clip-path="url(#f6908d0afe)"><path fill="#a60404" d="M 196.902344 124.949219 L 228.824219 124.949219 L 228.824219 152.835938 L 196.902344 152.835938 Z M 196.902344 124.949219 " fill-opacity="1" fill-rule="nonzero"/></g></g><g clip-path="url(#7d411134f6)"><g clip-path="url(#b877c610ee)"><path fill="#a60404" d="M 216.34375 124.949219 L 248.261719 124.949219 L 248.261719 152.835938 L 216.34375 152.835938 Z M 216.34375 124.949219 " fill-opacity="1" fill-rule="nonzero"/></g></g><g clip-path="url(#49775cf641)"><g clip-path="url(#dd707b43aa)"><path fill="#a60404" d="M 98.019531 218.652344 L 129.9375 218.652344 L 129.9375 246.542969 L 98.019531 246.542969 Z M 98.019531 218.652344 " fill-opacity="1" fill-rule="nonzero"/></g></g><g clip-path="url(#a019413234)"><g clip-path="url(#dbc3ee12b7)"><path fill="#cc5200" d="M 118.0625 218.339844 L 149.980469 218.339844 L 149.980469 246.230469 L 118.0625 246.230469 Z M 118.0625 218.339844 " fill-opacity="1" fill-rule="nonzero"/></g></g><g clip-path="url(#e772926be4)"><g clip-path="url(#84b74facb3)"><path fill="#a60404" d="M 137.636719 218.339844 L 169.554688 218.339844 L 169.554688 246.230469 L 137.636719 246.230469 Z M 137.636719 218.339844 " fill-opacity="1" fill-rule="nonzero"/></g></g><g clip-path="url(#a864c2b309)"><g clip-path="url(#f9474dbec9)"><path fill="#a60404" d="M 157.550781 218.339844 L 189.46875 218.339844 L 189.46875 246.230469 L 157.550781 246.230469 Z M 157.550781 218.339844 " fill-opacity="1" fill-rule="nonzero"/></g></g><g clip-path="url(#3dad836a55)"><g clip-path="url(#f3a83ece99)"><path fill="#a60404" d="M 176.988281 218.652344 L 208.910156 218.652344 L 208.910156 246.542969 L 176.988281 246.542969 Z M 176.988281 218.652344 " fill-opacity="1" fill-rule="nonzero"/></g></g><g clip-path="url(#0756e09ae1)"><g clip-path="url(#a09cd204b2)"><path fill="#a60404" d="M 196.902344 218.652344 L 228.824219 218.652344 L 228.824219 246.542969 L 196.902344 246.542969 Z M 196.902344 218.652344 " fill-opacity="1" fill-rule="nonzero"/></g></g><g clip-path="url(#008c7973d2)"><g clip-path="url(#14617b1fd8)"><path fill="#a60404" d="M 216.34375 218.652344 L 248.261719 218.652344 L 248.261719 246.542969 L 216.34375 246.542969 Z M 216.34375 218.652344 " fill-opacity="1" fill-rule="nonzero"/></g></g><g clip-path="url(#1596fb23d4)"><g clip-path="url(#20f4190dae)"><path fill="#a60404" d="M 98.019531 187.242188 L 129.9375 187.242188 L 129.9375 215.128906 L 98.019531 215.128906 Z M 98.019531 187.242188 " fill-opacity="1" fill-rule="nonzero"/></g></g><g clip-path="url(#0419975865)"><g clip-path="url(#6a3603b472)"><path fill="#a60404" d="M 118.0625 187.242188 L 149.980469 187.242188 L 149.980469 215.128906 L 118.0625 215.128906 Z M 118.0625 187.242188 " fill-opacity="1" fill-rule="nonzero"/></g></g><g clip-path="url(#1daa0e5ac1)"><g clip-path="url(#4b19d6e189)"><path fill="#a60404" d="M 137.636719 187.242188 L 169.554688 187.242188 L 169.554688 215.128906 L 137.636719 215.128906 Z M 137.636719 187.242188 " fill-opacity="1" fill-rule="nonzero"/></g></g><g clip-path="url(#ef05757564)"><g clip-path="url(#c19e2daa48)"><path fill="#a60404" d="M 157.550781 187.242188 L 189.46875 187.242188 L 189.46875 215.128906 L 157.550781 215.128906 Z M 157.550781 187.242188 " fill-opacity="1" fill-rule="nonzero"/></g></g><g clip-path="url(#786bf78a1b)"><g clip-path="url(#a9a21e0051)"><path fill="#cc5200" d="M 176.988281 187.242188 L 208.910156 187.242188 L 208.910156 215.128906 L 176.988281 215.128906 Z M 176.988281 187.242188 " fill-opacity="1" fill-rule="nonzero"/></g></g><g clip-path="url(#806a6f8f90)"><g clip-path="url(#af97b4533b)"><path fill="#a60404" d="M 196.902344 187.242188 L 228.824219 187.242188 L 228.824219 215.128906 L 196.902344 215.128906 Z M 196.902344 187.242188 " fill-opacity="1" fill-rule="nonzero"/></g></g><g clip-path="url(#987bc7f8a1)"><g clip-path="url(#36234408ff)"><path fill="#a60404" d="M 216.34375 187.53125 L 248.261719 187.53125 L 248.261719 215.417969 L 216.34375 215.417969 Z M 216.34375 187.53125 " fill-opacity="1" fill-rule="nonzero"/></g></g><g clip-path="url(#9977bdb8a3)"><g clip-path="url(#9fe38e32f0)"><path fill="#a60404" d="M 255.460938 156.359375 L 287.378906 156.359375 L 287.378906 184.25 L 255.460938 184.25 Z M 255.460938 156.359375 " fill-opacity="1" fill-rule="nonzero"/></g></g><g clip-path="url(#185110c1fc)"><g clip-path="url(#73725fb7e5)"><path fill="#a60404" d="M 267.890625 215.121094 L 235.96875 215.121094 L 235.96875 187.234375 L 267.890625 187.234375 Z M 267.890625 215.121094 " fill-opacity="1" fill-rule="nonzero"/></g></g><g clip-path="url(#bbb6c17e0e)"><g clip-path="url(#fa8694250e)"><path fill="#a60404" d="M 236.019531 124.949219 L 267.941406 124.949219 L 267.941406 152.835938 L 236.019531 152.835938 Z M 236.019531 124.949219 " fill-opacity="1" fill-rule="nonzero"/></g></g><g clip-path="url(#1cb106ea78)"><g clip-path="url(#786405fb0e)"><path fill="#a60404" d="M 255.460938 124.949219 L 287.378906 124.949219 L 287.378906 152.835938 L 255.460938 152.835938 Z M 255.460938 124.949219 " fill-opacity="1" fill-rule="nonzero"/></g></g><g clip-path="url(#b3617f2d5b)"><g clip-path="url(#a69d0a3808)"><path fill="#a60404" d="M 255.699219 94.066406 L 287.617188 94.066406 L 287.617188 121.957031 L 255.699219 121.957031 Z M 255.699219 94.066406 " fill-opacity="1" fill-rule="nonzero"/></g></g><g clip-path="url(#1ad9094386)"><g clip-path="url(#ec8e44505a)"><path fill="#a60404" d="M 275.613281 94.066406 L 307.53125 94.066406 L 307.53125 121.957031 L 275.613281 121.957031 Z M 275.613281 94.066406 " fill-opacity="1" fill-rule="nonzero"/></g></g><g clip-path="url(#32c38aeaf1)"><g clip-path="url(#1f9c008d57)"><path fill="#a60404" d="M 236.257812 62.65625 L 268.175781 62.65625 L 268.175781 90.542969 L 236.257812 90.542969 Z M 236.257812 62.65625 " fill-opacity="1" fill-rule="nonzero"/></g></g><g clip-path="url(#9d853dfcc2)"><g clip-path="url(#f3aba0e354)"><path fill="#a60404" d="M 255.699219 62.65625 L 287.617188 62.65625 L 287.617188 90.542969 L 255.699219 90.542969 Z M 255.699219 62.65625 " fill-opacity="1" fill-rule="nonzero"/></g></g><g clip-path="url(#2ddecc25e4)"><g clip-path="url(#c98e72f35a)"><path fill="#a60404" d="M 275.375 125.214844 L 307.292969 125.214844 L 307.292969 153.101562 L 275.375 153.101562 Z M 275.375 125.214844 " fill-opacity="1" fill-rule="nonzero"/></g></g><g clip-path="url(#2f0d6c7cf0)"><g clip-path="url(#b7d82a70af)"><path fill="#a60404" d="M 58.664062 31.460938 L 90.585938 31.460938 L 90.585938 59.351562 L 58.664062 59.351562 Z M 58.664062 31.460938 " fill-opacity="1" fill-rule="nonzero"/></g></g><g clip-path="url(#ce13dd61e2)"><g clip-path="url(#512fe83394)"><path fill="#cc5200" d="M 78.707031 31.152344 L 110.628906 31.152344 L 110.628906 59.039062 L 78.707031 59.039062 Z M 78.707031 31.152344 " fill-opacity="1" fill-rule="nonzero"/></g></g><g clip-path="url(#6c248041e9)"><g clip-path="url(#ee8a538d8e)"><path fill="#a60404" d="M 58.664062 0.0507812 L 90.585938 0.0507812 L 90.585938 27.9375 L 58.664062 27.9375 Z M 58.664062 0.0507812 " fill-opacity="1" fill-rule="nonzero"/></g></g><g clip-path="url(#ed5029afb2)"><g clip-path="url(#00bba86b11)"><path fill="#a60404" d="M 78.707031 0.0507812 L 110.628906 0.0507812 L 110.628906 27.9375 L 78.707031 27.9375 Z M 78.707031 0.0507812 " fill-opacity="1" fill-rule="nonzero"/></g></g><g clip-path="url(#d2ec988eec)"><g clip-path="url(#ce665f7310)"><path fill="#a60404" d="M 58.664062 93.753906 L 90.585938 93.753906 L 90.585938 121.644531 L 58.664062 121.644531 Z M 58.664062 93.753906 " fill-opacity="1" fill-rule="nonzero"/></g></g><g clip-path="url(#6fbfb50413)"><g clip-path="url(#cf94eab127)"><path fill="#cc5200" d="M 78.707031 93.445312 L 110.628906 93.445312 L 110.628906 121.332031 L 78.707031 121.332031 Z M 78.707031 93.445312 " fill-opacity="1" fill-rule="nonzero"/></g></g><g clip-path="url(#4bbbbcbda4)"><g clip-path="url(#c57462ee91)"><path fill="#a60404" d="M 58.664062 62.34375 L 90.585938 62.34375 L 90.585938 90.230469 L 58.664062 90.230469 Z M 58.664062 62.34375 " fill-opacity="1" fill-rule="nonzero"/></g></g><g clip-path="url(#f57ec1747c)"><g clip-path="url(#ba4d090b3b)"><path fill="#a60404" d="M 78.707031 62.34375 L 110.628906 62.34375 L 110.628906 90.230469 L 78.707031 90.230469 Z M 78.707031 62.34375 " fill-opacity="1" fill-rule="nonzero"/></g></g><g clip-path="url(#93e6588f76)"><g clip-path="url(#e1e18d070a)"><path fill="#a60404" d="M 58.664062 156.046875 L 90.585938 156.046875 L 90.585938 183.9375 L 58.664062 183.9375 Z M 58.664062 156.046875 " fill-opacity="1" fill-rule="nonzero"/></g></g><g clip-path="url(#0029cb5691)"><g clip-path="url(#9e2231b7a5)"><path fill="#cc5200" d="M 78.707031 155.738281 L 110.628906 155.738281 L 110.628906 183.625 L 78.707031 183.625 Z M 78.707031 155.738281 " fill-opacity="1" fill-rule="nonzero"/></g></g><g clip-path="url(#294f2ea3a2)"><g clip-path="url(#b18192e100)"><path fill="#a60404" d="M 58.664062 124.636719 L 90.585938 124.636719 L 90.585938 152.523438 L 58.664062 152.523438 Z M 58.664062 124.636719 " fill-opacity="1" fill-rule="nonzero"/></g></g><g clip-path="url(#2c7e6a1be1)"><g clip-path="url(#3bcf6ce6d6)"><path fill="#a60404" d="M 78.707031 124.636719 L 110.628906 124.636719 L 110.628906 152.523438 L 78.707031 152.523438 Z M 78.707031 124.636719 " fill-opacity="1" fill-rule="nonzero"/></g></g><g clip-path="url(#875992fdec)"><g clip-path="url(#fdd54c03ba)"><path fill="#a60404" d="M 58.664062 218.339844 L 90.585938 218.339844 L 90.585938 246.230469 L 58.664062 246.230469 Z M 58.664062 218.339844 " fill-opacity="1" fill-rule="nonzero"/></g></g><g clip-path="url(#614b766bba)"><g clip-path="url(#727c3e6762)"><path fill="#cc5200" d="M 78.707031 218.03125 L 110.628906 218.03125 L 110.628906 245.917969 L 78.707031 245.917969 Z M 78.707031 218.03125 " fill-opacity="1" fill-rule="nonzero"/></g></g><g clip-path="url(#20512b81de)"><g clip-path="url(#8ff8a154dd)"><path fill="#a60404" d="M 58.664062 186.929688 L 90.585938 186.929688 L 90.585938 214.816406 L 58.664062 214.816406 Z M 58.664062 186.929688 " fill-opacity="1" fill-rule="nonzero"/></g></g><g clip-path="url(#92ee888b28)"><g clip-path="url(#13bbfb0379)"><path fill="#a60404" d="M 78.707031 186.929688 L 110.628906 186.929688 L 110.628906 214.816406 L 78.707031 214.816406 Z M 78.707031 186.929688 " fill-opacity="1" fill-rule="nonzero"/></g></g><g clip-path="url(#09e825d398)"><g clip-path="url(#265014babf)"><path fill="#cc5200" d="M 39.355469 30.839844 L 71.273438 30.839844 L 71.273438 58.726562 L 39.355469 58.726562 Z M 39.355469 30.839844 " fill-opacity="1" fill-rule="nonzero"/></g></g><g clip-path="url(#513308192a)"><g clip-path="url(#41385ef3bc)"><path fill="#a60404" d="M 19.3125 93.445312 L 51.230469 93.445312 L 51.230469 121.332031 L 19.3125 121.332031 Z M 19.3125 93.445312 " fill-opacity="1" fill-rule="nonzero"/></g></g><g clip-path="url(#0b49d482c5)"><g clip-path="url(#1c5962d49a)"><path fill="#cc5200" d="M 39.355469 93.132812 L 71.273438 93.132812 L 71.273438 121.019531 L 39.355469 121.019531 Z M 39.355469 93.132812 " fill-opacity="1" fill-rule="nonzero"/></g></g><g clip-path="url(#2536995116)"><g clip-path="url(#dfe28c8482)"><path fill="#a60404" d="M 19.3125 62.03125 L 51.230469 62.03125 L 51.230469 89.921875 L 19.3125 89.921875 Z M 19.3125 62.03125 " fill-opacity="1" fill-rule="nonzero"/></g></g><g clip-path="url(#b11533d946)"><g clip-path="url(#4d349f39aa)"><path fill="#a60404" d="M 39.355469 62.03125 L 71.273438 62.03125 L 71.273438 89.921875 L 39.355469 89.921875 Z M 39.355469 62.03125 " fill-opacity="1" fill-rule="nonzero"/></g></g><g clip-path="url(#e129907796)"><g clip-path="url(#5d31ed15df)"><path fill="#a60404" d="M 19.3125 155.738281 L 51.230469 155.738281 L 51.230469 183.625 L 19.3125 183.625 Z M 19.3125 155.738281 " fill-opacity="1" fill-rule="nonzero"/></g></g><g clip-path="url(#82ed892ffc)"><g clip-path="url(#5c37479ff8)"><path fill="#cc5200" d="M 39.355469 155.425781 L 71.273438 155.425781 L 71.273438 183.3125 L 39.355469 183.3125 Z M 39.355469 155.425781 " fill-opacity="1" fill-rule="nonzero"/></g></g><g clip-path="url(#cb0158946b)"><g clip-path="url(#98b6013a25)"><path fill="#a60404" d="M 19.3125 124.324219 L 51.230469 124.324219 L 51.230469 152.214844 L 19.3125 152.214844 Z M 19.3125 124.324219 " fill-opacity="1" fill-rule="nonzero"/></g></g><g clip-path="url(#3b733f9256)"><g clip-path="url(#09908955e7)"><path fill="#a60404" d="M 39.355469 124.324219 L 71.273438 124.324219 L 71.273438 152.214844 L 39.355469 152.214844 Z M 39.355469 124.324219 " fill-opacity="1" fill-rule="nonzero"/></g></g><g clip-path="url(#8472c40060)"><g clip-path="url(#8957621dc0)"><path fill="#a60404" d="M 39.355469 186.617188 L 71.273438 186.617188 L 71.273438 214.507812 L 39.355469 214.507812 Z M 39.355469 186.617188 " fill-opacity="1" fill-rule="nonzero"/></g></g><g clip-path="url(#634ca024c6)"><g clip-path="url(#7a5e93ef4c)"><path fill="#cc5200" d="M 0 93.753906 L 31.917969 93.753906 L 31.917969 121.644531 L 0 121.644531 Z M 0 93.753906 " fill-opacity="1" fill-rule="nonzero"/></g></g><g clip-path="url(#e84980e0cf)"><g clip-path="url(#460ac77506)"><path fill="#a60404" d="M 0 124.949219 L 31.917969 124.949219 L 31.917969 152.835938 L 0 152.835938 Z M 0 124.949219 " fill-opacity="1" fill-rule="nonzero"/></g></g></svg>