<svg xmlns="http://www.w3.org/2000/svg" xmlns:xlink="http://www.w3.org/1999/xlink" width="201" zoomAndPan="magnify" viewBox="0 0 150.75 122.249994" height="163" preserveAspectRatio="xMidYMid meet" version="1.0"><defs><clipPath id="80c31e81ae"><path d="M 19.574219 31.296875 L 51.378906 31.296875 L 51.378906 59.082031 L 19.574219 59.082031 Z M 19.574219 31.296875 " clip-rule="nonzero"/></clipPath><clipPath id="c8bf3694ea"><path d="M 35.453125 59.082031 L 51.332031 31.296875 L 19.574219 31.296875 Z M 35.453125 59.082031 " clip-rule="nonzero"/></clipPath><clipPath id="5d72166dc3"><path d="M 39.542969 30.984375 L 71.347656 30.984375 L 71.347656 58.773438 L 39.542969 58.773438 Z M 39.542969 30.984375 " clip-rule="nonzero"/></clipPath><clipPath id="0d9959f395"><path d="M 55.421875 30.984375 L 71.300781 58.773438 L 39.542969 58.773438 Z M 55.421875 30.984375 " clip-rule="nonzero"/></clipPath><clipPath id="f3fd883654"><path d="M 59.046875 30.984375 L 90.847656 30.984375 L 90.847656 58.773438 L 59.046875 58.773438 Z M 59.046875 30.984375 " clip-rule="nonzero"/></clipPath><clipPath id="dcd1556725"><path d="M 74.921875 58.773438 L 90.800781 30.984375 L 59.046875 30.984375 Z M 74.921875 58.773438 " clip-rule="nonzero"/></clipPath><clipPath id="06203a09dd"><path d="M 78.886719 30.984375 L 110.6875 30.984375 L 110.6875 58.773438 L 78.886719 58.773438 Z M 78.886719 30.984375 " clip-rule="nonzero"/></clipPath><clipPath id="8697834d48"><path d="M 94.765625 30.984375 L 110.640625 58.773438 L 78.886719 58.773438 Z M 94.765625 30.984375 " clip-rule="nonzero"/></clipPath><clipPath id="5f01155887"><path d="M 98.253906 31.296875 L 130.058594 31.296875 L 130.058594 59.082031 L 98.253906 59.082031 Z M 98.253906 31.296875 " clip-rule="nonzero"/></clipPath><clipPath id="cc3f0e9b24"><path d="M 114.132812 59.082031 L 130.011719 31.296875 L 98.253906 31.296875 Z M 114.132812 59.082031 " clip-rule="nonzero"/></clipPath><clipPath id="ff13041252"><path d="M 118.097656 31.296875 L 149.898438 31.296875 L 149.898438 59.082031 L 118.097656 59.082031 Z M 118.097656 31.296875 " clip-rule="nonzero"/></clipPath><clipPath id="2691fd16ae"><path d="M 133.972656 31.296875 L 149.851562 59.082031 L 118.097656 59.082031 Z M 133.972656 31.296875 " clip-rule="nonzero"/></clipPath><clipPath id="aedf43511e"><path d="M 19.574219 0 L 51.378906 0 L 51.378906 27.785156 L 19.574219 27.785156 Z M 19.574219 0 " clip-rule="nonzero"/></clipPath><clipPath id="567245d594"><path d="M 35.453125 0 L 51.332031 27.785156 L 19.574219 27.785156 Z M 35.453125 0 " clip-rule="nonzero"/></clipPath><clipPath id="cbe13bfae9"><path d="M 39.542969 0 L 71.347656 0 L 71.347656 27.785156 L 39.542969 27.785156 Z M 39.542969 0 " clip-rule="nonzero"/></clipPath><clipPath id="dae92717f6"><path d="M 55.421875 27.785156 L 71.300781 0 L 39.542969 0 Z M 55.421875 27.785156 " clip-rule="nonzero"/></clipPath><clipPath id="9f7ffff0b6"><path d="M 59.046875 0 L 90.847656 0 L 90.847656 27.785156 L 59.046875 27.785156 Z M 59.046875 0 " clip-rule="nonzero"/></clipPath><clipPath id="c321aa65e3"><path d="M 74.921875 0 L 90.800781 27.785156 L 59.046875 27.785156 Z M 74.921875 0 " clip-rule="nonzero"/></clipPath><clipPath id="f19a54cc10"><path d="M 78.886719 0 L 110.6875 0 L 110.6875 27.785156 L 78.886719 27.785156 Z M 78.886719 0 " clip-rule="nonzero"/></clipPath><clipPath id="788ee50ae0"><path d="M 94.765625 27.785156 L 110.640625 0 L 78.886719 0 Z M 94.765625 27.785156 " clip-rule="nonzero"/></clipPath><clipPath id="7e8d493246"><path d="M 98.253906 0 L 130.058594 0 L 130.058594 27.785156 L 98.253906 27.785156 Z M 98.253906 0 " clip-rule="nonzero"/></clipPath><clipPath id="f42994d7bf"><path d="M 114.132812 0 L 130.011719 27.785156 L 98.253906 27.785156 Z M 114.132812 0 " clip-rule="nonzero"/></clipPath><clipPath id="65bdff6d70"><path d="M 19.574219 93.359375 L 51.378906 93.359375 L 51.378906 121.144531 L 19.574219 121.144531 Z M 19.574219 93.359375 " clip-rule="nonzero"/></clipPath><clipPath id="c221f8ff56"><path d="M 35.453125 121.144531 L 51.332031 93.359375 L 19.574219 93.359375 Z M 35.453125 121.144531 " clip-rule="nonzero"/></clipPath><clipPath id="3f6a8a8cdc"><path d="M 39.542969 93.050781 L 71.347656 93.050781 L 71.347656 120.835938 L 39.542969 120.835938 Z M 39.542969 93.050781 " clip-rule="nonzero"/></clipPath><clipPath id="853c1e3390"><path d="M 55.421875 93.050781 L 71.300781 120.835938 L 39.542969 120.835938 Z M 55.421875 93.050781 " clip-rule="nonzero"/></clipPath><clipPath id="62e943dced"><path d="M 59.046875 93.050781 L 90.847656 93.050781 L 90.847656 120.835938 L 59.046875 120.835938 Z M 59.046875 93.050781 " clip-rule="nonzero"/></clipPath><clipPath id="9c589587d2"><path d="M 74.921875 120.835938 L 90.800781 93.050781 L 59.046875 93.050781 Z M 74.921875 120.835938 " clip-rule="nonzero"/></clipPath><clipPath id="1b17a855e7"><path d="M 78.886719 93.050781 L 110.6875 93.050781 L 110.6875 120.835938 L 78.886719 120.835938 Z M 78.886719 93.050781 " clip-rule="nonzero"/></clipPath><clipPath id="083b2f5622"><path d="M 94.765625 93.050781 L 110.640625 120.835938 L 78.886719 120.835938 Z M 94.765625 93.050781 " clip-rule="nonzero"/></clipPath><clipPath id="7bdf8b59c0"><path d="M 98.253906 93.359375 L 130.058594 93.359375 L 130.058594 121.144531 L 98.253906 121.144531 Z M 98.253906 93.359375 " clip-rule="nonzero"/></clipPath><clipPath id="7fe2231f43"><path d="M 114.132812 121.144531 L 130.011719 93.359375 L 98.253906 93.359375 Z M 114.132812 121.144531 " clip-rule="nonzero"/></clipPath><clipPath id="018a82ebe7"><path d="M 19.574219 62.0625 L 51.378906 62.0625 L 51.378906 89.847656 L 19.574219 89.847656 Z M 19.574219 62.0625 " clip-rule="nonzero"/></clipPath><clipPath id="13f1393830"><path d="M 35.453125 62.0625 L 51.332031 89.847656 L 19.574219 89.847656 Z M 35.453125 62.0625 " clip-rule="nonzero"/></clipPath><clipPath id="6c203439d1"><path d="M 39.542969 62.0625 L 71.347656 62.0625 L 71.347656 89.847656 L 39.542969 89.847656 Z M 39.542969 62.0625 " clip-rule="nonzero"/></clipPath><clipPath id="8ae9b3ea7b"><path d="M 55.421875 89.847656 L 71.300781 62.0625 L 39.542969 62.0625 Z M 55.421875 89.847656 " clip-rule="nonzero"/></clipPath><clipPath id="1807c2b01b"><path d="M 59.046875 62.0625 L 90.847656 62.0625 L 90.847656 89.847656 L 59.046875 89.847656 Z M 59.046875 62.0625 " clip-rule="nonzero"/></clipPath><clipPath id="30c7f63116"><path d="M 74.921875 62.0625 L 90.800781 89.847656 L 59.046875 89.847656 Z M 74.921875 62.0625 " clip-rule="nonzero"/></clipPath><clipPath id="bdbe2e925e"><path d="M 78.886719 62.0625 L 110.6875 62.0625 L 110.6875 89.847656 L 78.886719 89.847656 Z M 78.886719 62.0625 " clip-rule="nonzero"/></clipPath><clipPath id="31dde835d4"><path d="M 94.765625 89.847656 L 110.640625 62.0625 L 78.886719 62.0625 Z M 94.765625 89.847656 " clip-rule="nonzero"/></clipPath><clipPath id="69884e2bed"><path d="M 98.253906 62.0625 L 130.058594 62.0625 L 130.058594 89.847656 L 98.253906 89.847656 Z M 98.253906 62.0625 " clip-rule="nonzero"/></clipPath><clipPath id="fee3989494"><path d="M 114.132812 62.0625 L 130.011719 89.847656 L 98.253906 89.847656 Z M 114.132812 62.0625 " clip-rule="nonzero"/></clipPath><clipPath id="6e1f126ca8"><path d="M 118.097656 62.0625 L 149.898438 62.0625 L 149.898438 89.847656 L 118.097656 89.847656 Z M 118.097656 62.0625 " clip-rule="nonzero"/></clipPath><clipPath id="bb62535a7c"><path d="M 133.972656 89.847656 L 149.851562 62.0625 L 118.097656 62.0625 Z M 133.972656 89.847656 " clip-rule="nonzero"/></clipPath><clipPath id="ee7863f34f"><path d="M 0.335938 30.675781 L 32.136719 30.675781 L 32.136719 58.460938 L 0.335938 58.460938 Z M 0.335938 30.675781 " clip-rule="nonzero"/></clipPath><clipPath id="130250fcc5"><path d="M 16.214844 30.675781 L 32.089844 58.460938 L 0.335938 58.460938 Z M 16.214844 30.675781 " clip-rule="nonzero"/></clipPath><clipPath id="16e2076c2e"><path d="M 0.335938 61.753906 L 32.136719 61.753906 L 32.136719 89.539062 L 0.335938 89.539062 Z M 0.335938 61.753906 " clip-rule="nonzero"/></clipPath><clipPath id="81c562c018"><path d="M 16.214844 89.539062 L 32.089844 61.753906 L 0.335938 61.753906 Z M 16.214844 89.539062 " clip-rule="nonzero"/></clipPath></defs><g clip-path="url(#80c31e81ae)"><g clip-path="url(#c8bf3694ea)"><path fill="#a60404" d="M 19.574219 31.296875 L 51.378906 31.296875 L 51.378906 59.082031 L 19.574219 59.082031 Z M 19.574219 31.296875 " fill-opacity="1" fill-rule="nonzero"/></g></g><g clip-path="url(#5d72166dc3)"><g clip-path="url(#0d9959f395)"><path fill="#cc5200" d="M 39.542969 30.984375 L 71.347656 30.984375 L 71.347656 58.773438 L 39.542969 58.773438 Z M 39.542969 30.984375 " fill-opacity="1" fill-rule="nonzero"/></g></g><g clip-path="url(#f3fd883654)"><g clip-path="url(#dcd1556725)"><path fill="#a60404" d="M 59.046875 30.984375 L 90.847656 30.984375 L 90.847656 58.773438 L 59.046875 58.773438 Z M 59.046875 30.984375 " fill-opacity="1" fill-rule="nonzero"/></g></g><g clip-path="url(#06203a09dd)"><g clip-path="url(#8697834d48)"><path fill="#a60404" d="M 78.886719 30.984375 L 110.6875 30.984375 L 110.6875 58.773438 L 78.886719 58.773438 Z M 78.886719 30.984375 " fill-opacity="1" fill-rule="nonzero"/></g></g><g clip-path="url(#5f01155887)"><g clip-path="url(#cc3f0e9b24)"><path fill="#a60404" d="M 98.253906 31.296875 L 130.058594 31.296875 L 130.058594 59.082031 L 98.253906 59.082031 Z M 98.253906 31.296875 " fill-opacity="1" fill-rule="nonzero"/></g></g><g clip-path="url(#ff13041252)"><g clip-path="url(#2691fd16ae)"><path fill="#a60404" d="M 118.097656 31.296875 L 149.898438 31.296875 L 149.898438 59.082031 L 118.097656 59.082031 Z M 118.097656 31.296875 " fill-opacity="1" fill-rule="nonzero"/></g></g><g clip-path="url(#aedf43511e)"><g clip-path="url(#567245d594)"><path fill="#a60404" d="M 19.574219 0 L 51.378906 0 L 51.378906 27.785156 L 19.574219 27.785156 Z M 19.574219 0 " fill-opacity="1" fill-rule="nonzero"/></g></g><g clip-path="url(#cbe13bfae9)"><g clip-path="url(#dae92717f6)"><path fill="#a60404" d="M 39.542969 0 L 71.347656 0 L 71.347656 27.785156 L 39.542969 27.785156 Z M 39.542969 0 " fill-opacity="1" fill-rule="nonzero"/></g></g><g clip-path="url(#9f7ffff0b6)"><g clip-path="url(#c321aa65e3)"><path fill="#a60404" d="M 59.046875 0 L 90.847656 0 L 90.847656 27.785156 L 59.046875 27.785156 Z M 59.046875 0 " fill-opacity="1" fill-rule="nonzero"/></g></g><g clip-path="url(#f19a54cc10)"><g clip-path="url(#788ee50ae0)"><path fill="#a60404" d="M 78.886719 0 L 110.6875 0 L 110.6875 27.785156 L 78.886719 27.785156 Z M 78.886719 0 " fill-opacity="1" fill-rule="nonzero"/></g></g><g clip-path="url(#7e8d493246)"><g clip-path="url(#f42994d7bf)"><path fill="#cc5200" d="M 98.253906 0 L 130.058594 0 L 130.058594 27.785156 L 98.253906 27.785156 Z M 98.253906 0 " fill-opacity="1" fill-rule="nonzero"/></g></g><g clip-path="url(#65bdff6d70)"><g clip-path="url(#c221f8ff56)"><path fill="#a60404" d="M 19.574219 93.359375 L 51.378906 93.359375 L 51.378906 121.144531 L 19.574219 121.144531 Z M 19.574219 93.359375 " fill-opacity="1" fill-rule="nonzero"/></g></g><g clip-path="url(#3f6a8a8cdc)"><g clip-path="url(#853c1e3390)"><path fill="#cc5200" d="M 39.542969 93.050781 L 71.347656 93.050781 L 71.347656 120.835938 L 39.542969 120.835938 Z M 39.542969 93.050781 " fill-opacity="1" fill-rule="nonzero"/></g></g><g clip-path="url(#62e943dced)"><g clip-path="url(#9c589587d2)"><path fill="#a60404" d="M 59.046875 93.050781 L 90.847656 93.050781 L 90.847656 120.835938 L 59.046875 120.835938 Z M 59.046875 93.050781 " fill-opacity="1" fill-rule="nonzero"/></g></g><g clip-path="url(#1b17a855e7)"><g clip-path="url(#083b2f5622)"><path fill="#a60404" d="M 78.886719 93.050781 L 110.6875 93.050781 L 110.6875 120.835938 L 78.886719 120.835938 Z M 78.886719 93.050781 " fill-opacity="1" fill-rule="nonzero"/></g></g><g clip-path="url(#7bdf8b59c0)"><g clip-path="url(#7fe2231f43)"><path fill="#a60404" d="M 98.253906 93.359375 L 130.058594 93.359375 L 130.058594 121.144531 L 98.253906 121.144531 Z M 98.253906 93.359375 " fill-opacity="1" fill-rule="nonzero"/></g></g><g clip-path="url(#018a82ebe7)"><g clip-path="url(#13f1393830)"><path fill="#a60404" d="M 19.574219 62.0625 L 51.378906 62.0625 L 51.378906 89.847656 L 19.574219 89.847656 Z M 19.574219 62.0625 " fill-opacity="1" fill-rule="nonzero"/></g></g><g clip-path="url(#6c203439d1)"><g clip-path="url(#8ae9b3ea7b)"><path fill="#a60404" d="M 39.542969 62.0625 L 71.347656 62.0625 L 71.347656 89.847656 L 39.542969 89.847656 Z M 39.542969 62.0625 " fill-opacity="1" fill-rule="nonzero"/></g></g><g clip-path="url(#1807c2b01b)"><g clip-path="url(#30c7f63116)"><path fill="#a60404" d="M 59.046875 62.0625 L 90.847656 62.0625 L 90.847656 89.847656 L 59.046875 89.847656 Z M 59.046875 62.0625 " fill-opacity="1" fill-rule="nonzero"/></g></g><g clip-path="url(#bdbe2e925e)"><g clip-path="url(#31dde835d4)"><path fill="#a60404" d="M 78.886719 62.0625 L 110.6875 62.0625 L 110.6875 89.847656 L 78.886719 89.847656 Z M 78.886719 62.0625 " fill-opacity="1" fill-rule="nonzero"/></g></g><g clip-path="url(#69884e2bed)"><g clip-path="url(#fee3989494)"><path fill="#cc5200" d="M 98.253906 62.0625 L 130.058594 62.0625 L 130.058594 89.847656 L 98.253906 89.847656 Z M 98.253906 62.0625 " fill-opacity="1" fill-rule="nonzero"/></g></g><g clip-path="url(#6e1f126ca8)"><g clip-path="url(#bb62535a7c)"><path fill="#a60404" d="M 118.097656 62.0625 L 149.898438 62.0625 L 149.898438 89.847656 L 118.097656 89.847656 Z M 118.097656 62.0625 " fill-opacity="1" fill-rule="nonzero"/></g></g><g clip-path="url(#ee7863f34f)"><g clip-path="url(#130250fcc5)"><path fill="#cc5200" d="M 0.335938 30.675781 L 32.136719 30.675781 L 32.136719 58.460938 L 0.335938 58.460938 Z M 0.335938 30.675781 " fill-opacity="1" fill-rule="nonzero"/></g></g><g clip-path="url(#16e2076c2e)"><g clip-path="url(#81c562c018)"><path fill="#a60404" d="M 0.335938 61.753906 L 32.136719 61.753906 L 32.136719 89.539062 L 0.335938 89.539062 Z M 0.335938 61.753906 " fill-opacity="1" fill-rule="nonzero"/></g></g></svg>