<svg xmlns="http://www.w3.org/2000/svg" xmlns:xlink="http://www.w3.org/1999/xlink" width="96" zoomAndPan="magnify" viewBox="0 0 72 59.249999" height="79" preserveAspectRatio="xMidYMid meet" version="1.0"><defs><clipPath id="18389fe74e"><path d="M 0.449219 0 L 32 0 L 32 27.605469 L 0.449219 27.605469 Z M 0.449219 0 " clip-rule="nonzero"/></clipPath><clipPath id="56efd3bdfb"><path d="M 16.226562 0 L 32 27.605469 L 0.449219 27.605469 Z M 16.226562 0 " clip-rule="nonzero"/></clipPath><clipPath id="4cd4fc5ca1"><path d="M 19.824219 0 L 51.421875 0 L 51.421875 27.605469 L 19.824219 27.605469 Z M 19.824219 0 " clip-rule="nonzero"/></clipPath><clipPath id="c4b7dcd5e4"><path d="M 35.601562 27.605469 L 51.375 0 L 19.824219 0 Z M 35.601562 27.605469 " clip-rule="nonzero"/></clipPath><clipPath id="c3313a821f"><path d="M 39.539062 0 L 71.136719 0 L 71.136719 27.605469 L 39.539062 27.605469 Z M 39.539062 0 " clip-rule="nonzero"/></clipPath><clipPath id="5f3e400f75"><path d="M 55.3125 0 L 71.089844 27.605469 L 39.539062 27.605469 Z M 55.3125 0 " clip-rule="nonzero"/></clipPath><clipPath id="956bc61180"><path d="M 0.449219 30.878906 L 32 30.878906 L 32 58.484375 L 0.449219 58.484375 Z M 0.449219 30.878906 " clip-rule="nonzero"/></clipPath><clipPath id="bb42f75277"><path d="M 16.226562 58.484375 L 32 30.878906 L 0.449219 30.878906 Z M 16.226562 58.484375 " clip-rule="nonzero"/></clipPath><clipPath id="e1bdf85627"><path d="M 19.824219 30.878906 L 51.421875 30.878906 L 51.421875 58.484375 L 19.824219 58.484375 Z M 19.824219 30.878906 " clip-rule="nonzero"/></clipPath><clipPath id="cc12de130b"><path d="M 35.601562 30.878906 L 51.375 58.484375 L 19.824219 58.484375 Z M 35.601562 30.878906 " clip-rule="nonzero"/></clipPath><clipPath id="8941e5ba81"><path d="M 39.539062 30.878906 L 71.136719 30.878906 L 71.136719 58.484375 L 39.539062 58.484375 Z M 39.539062 30.878906 " clip-rule="nonzero"/></clipPath><clipPath id="979b1a5f2a"><path d="M 55.3125 58.484375 L 71.089844 30.878906 L 39.539062 30.878906 Z M 55.3125 58.484375 " clip-rule="nonzero"/></clipPath></defs><g clip-path="url(#18389fe74e)"><g clip-path="url(#56efd3bdfb)"><path fill="#cc5200" d="M 0.449219 0 L 32.046875 0 L 32.046875 27.605469 L 0.449219 27.605469 Z M 0.449219 0 " fill-opacity="1" fill-rule="nonzero"/></g></g><g clip-path="url(#4cd4fc5ca1)"><g clip-path="url(#c4b7dcd5e4)"><path fill="#a60404" d="M 19.824219 0 L 51.421875 0 L 51.421875 27.605469 L 19.824219 27.605469 Z M 19.824219 0 " fill-opacity="1" fill-rule="nonzero"/></g></g><g clip-path="url(#c3313a821f)"><g clip-path="url(#5f3e400f75)"><path fill="#a60404" d="M 39.539062 0 L 71.136719 0 L 71.136719 27.605469 L 39.539062 27.605469 Z M 39.539062 0 " fill-opacity="1" fill-rule="nonzero"/></g></g><g clip-path="url(#956bc61180)"><g clip-path="url(#bb42f75277)"><path fill="#a60404" d="M 0.449219 30.878906 L 32.046875 30.878906 L 32.046875 58.484375 L 0.449219 58.484375 Z M 0.449219 30.878906 " fill-opacity="1" fill-rule="nonzero"/></g></g><g clip-path="url(#e1bdf85627)"><g clip-path="url(#cc12de130b)"><path fill="#a60404" d="M 19.824219 30.878906 L 51.421875 30.878906 L 51.421875 58.484375 L 19.824219 58.484375 Z M 19.824219 30.878906 " fill-opacity="1" fill-rule="nonzero"/></g></g><g clip-path="url(#8941e5ba81)"><g clip-path="url(#979b1a5f2a)"><path fill="#a60404" d="M 39.539062 30.878906 L 71.136719 30.878906 L 71.136719 58.484375 L 39.539062 58.484375 Z M 39.539062 30.878906 " fill-opacity="1" fill-rule="nonzero"/></g></g></svg>