<svg xmlns="http://www.w3.org/2000/svg" xmlns:xlink="http://www.w3.org/1999/xlink" width="1366" zoomAndPan="magnify" viewBox="0 0 1024.5 340.49999" height="454" preserveAspectRatio="xMidYMid meet" version="1.0"><defs><clipPath id="1a75d5edc4"><path d="M 0.5 0 L 1023.5 0 L 1023.5 340 L 0.5 340 Z M 0.5 0 " clip-rule="nonzero"/></clipPath><clipPath id="949dc564ce"><path d="M 0.5 77.980469 L 17.472656 77.980469 L 17.472656 105.894531 L 0.5 105.894531 Z M 0.5 77.980469 " clip-rule="nonzero"/></clipPath><clipPath id="fd0f1b3fb5"><path d="M 1.476562 77.980469 L 17.425781 105.894531 L -14.476562 105.894531 Z M 1.476562 77.980469 " clip-rule="nonzero"/></clipPath><clipPath id="deaad5cd72"><path d="M 4.648438 72.425781 L 36.597656 72.425781 L 36.597656 100.339844 L 4.648438 100.339844 Z M 4.648438 72.425781 " clip-rule="nonzero"/></clipPath><clipPath id="07b3ec9b52"><path d="M 20.601562 100.339844 L 36.550781 72.425781 L 4.648438 72.425781 Z M 20.601562 100.339844 " clip-rule="nonzero"/></clipPath><clipPath id="add1258eef"><path d="M 23.773438 77.980469 L 55.722656 77.980469 L 55.722656 105.894531 L 23.773438 105.894531 Z M 23.773438 77.980469 " clip-rule="nonzero"/></clipPath><clipPath id="26e671798f"><path d="M 39.726562 77.980469 L 55.675781 105.894531 L 23.773438 105.894531 Z M 39.726562 77.980469 " clip-rule="nonzero"/></clipPath><clipPath id="9f3ce62005"><path d="M 42.898438 72.425781 L 74.847656 72.425781 L 74.847656 100.339844 L 42.898438 100.339844 Z M 42.898438 72.425781 " clip-rule="nonzero"/></clipPath><clipPath id="87981558ea"><path d="M 58.851562 100.339844 L 74.800781 72.425781 L 42.898438 72.425781 Z M 58.851562 100.339844 " clip-rule="nonzero"/></clipPath><clipPath id="e001063bb2"><path d="M 62.023438 77.980469 L 93.976562 77.980469 L 93.976562 105.894531 L 62.023438 105.894531 Z M 62.023438 77.980469 " clip-rule="nonzero"/></clipPath><clipPath id="53ac2a01e9"><path d="M 77.976562 77.980469 L 93.929688 105.894531 L 62.023438 105.894531 Z M 77.976562 77.980469 " clip-rule="nonzero"/></clipPath><clipPath id="4ba25952b5"><path d="M 81.148438 72.425781 L 113.101562 72.425781 L 113.101562 100.339844 L 81.148438 100.339844 Z M 81.148438 72.425781 " clip-rule="nonzero"/></clipPath><clipPath id="9fc0c3dc7c"><path d="M 97.101562 100.339844 L 113.054688 72.425781 L 81.148438 72.425781 Z M 97.101562 100.339844 " clip-rule="nonzero"/></clipPath><clipPath id="da798f1a41"><path d="M 100.277344 77.980469 L 132.226562 77.980469 L 132.226562 105.894531 L 100.277344 105.894531 Z M 100.277344 77.980469 " clip-rule="nonzero"/></clipPath><clipPath id="ec954d43ba"><path d="M 116.226562 77.980469 L 132.179688 105.894531 L 100.277344 105.894531 Z M 116.226562 77.980469 " clip-rule="nonzero"/></clipPath><clipPath id="2eb0b352b8"><path d="M 119.402344 72.425781 L 151.351562 72.425781 L 151.351562 100.339844 L 119.402344 100.339844 Z M 119.402344 72.425781 " clip-rule="nonzero"/></clipPath><clipPath id="843360610d"><path d="M 135.351562 100.339844 L 151.304688 72.425781 L 119.402344 72.425781 Z M 135.351562 100.339844 " clip-rule="nonzero"/></clipPath><clipPath id="a05dbaf5ca"><path d="M 138.167969 77.980469 L 170.121094 77.980469 L 170.121094 105.894531 L 138.167969 105.894531 Z M 138.167969 77.980469 " clip-rule="nonzero"/></clipPath><clipPath id="f4be0fa462"><path d="M 154.121094 77.980469 L 170.074219 105.894531 L 138.167969 105.894531 Z M 154.121094 77.980469 " clip-rule="nonzero"/></clipPath><clipPath id="11862d3255"><path d="M 0.5 33.402344 L 17.828125 33.402344 L 17.828125 61.316406 L 0.5 61.316406 Z M 0.5 33.402344 " clip-rule="nonzero"/></clipPath><clipPath id="3491edb518"><path d="M 1.832031 61.316406 L 17.78125 33.402344 L -14.121094 33.402344 Z M 1.832031 61.316406 " clip-rule="nonzero"/></clipPath><clipPath id="6f8a2f78f7"><path d="M 5.003906 38.957031 L 36.953125 38.957031 L 36.953125 66.871094 L 5.003906 66.871094 Z M 5.003906 38.957031 " clip-rule="nonzero"/></clipPath><clipPath id="2c49564e12"><path d="M 20.957031 38.957031 L 36.910156 66.871094 L 5.003906 66.871094 Z M 20.957031 38.957031 " clip-rule="nonzero"/></clipPath><clipPath id="c1f8ff0bbe"><path d="M 24.128906 33.402344 L 56.082031 33.402344 L 56.082031 61.316406 L 24.128906 61.316406 Z M 24.128906 33.402344 " clip-rule="nonzero"/></clipPath><clipPath id="85191db157"><path d="M 40.082031 61.316406 L 56.035156 33.402344 L 24.128906 33.402344 Z M 40.082031 61.316406 " clip-rule="nonzero"/></clipPath><clipPath id="c570e6d2a8"><path d="M 43.253906 38.957031 L 75.207031 38.957031 L 75.207031 66.871094 L 43.253906 66.871094 Z M 43.253906 38.957031 " clip-rule="nonzero"/></clipPath><clipPath id="b7cff1e30f"><path d="M 59.207031 38.957031 L 75.160156 66.871094 L 43.253906 66.871094 Z M 59.207031 38.957031 " clip-rule="nonzero"/></clipPath><clipPath id="d388217882"><path d="M 62.382812 33.402344 L 94.332031 33.402344 L 94.332031 61.316406 L 62.382812 61.316406 Z M 62.382812 33.402344 " clip-rule="nonzero"/></clipPath><clipPath id="d9b5e37af1"><path d="M 78.332031 61.316406 L 94.285156 33.402344 L 62.382812 33.402344 Z M 78.332031 61.316406 " clip-rule="nonzero"/></clipPath><clipPath id="0c2d1cb1d0"><path d="M 81.507812 38.957031 L 113.457031 38.957031 L 113.457031 66.871094 L 81.507812 66.871094 Z M 81.507812 38.957031 " clip-rule="nonzero"/></clipPath><clipPath id="9a1ebd3353"><path d="M 97.457031 38.957031 L 113.410156 66.871094 L 81.507812 66.871094 Z M 97.457031 38.957031 " clip-rule="nonzero"/></clipPath><clipPath id="1ddfdfe0d4"><path d="M 100.632812 33.402344 L 132.582031 33.402344 L 132.582031 61.316406 L 100.632812 61.316406 Z M 100.632812 33.402344 " clip-rule="nonzero"/></clipPath><clipPath id="a485edc094"><path d="M 116.582031 61.316406 L 132.535156 33.402344 L 100.632812 33.402344 Z M 116.582031 61.316406 " clip-rule="nonzero"/></clipPath><clipPath id="b6638b0c4a"><path d="M 119.402344 38.957031 L 151.351562 38.957031 L 151.351562 66.871094 L 119.402344 66.871094 Z M 119.402344 38.957031 " clip-rule="nonzero"/></clipPath><clipPath id="b1b23621e3"><path d="M 135.351562 38.957031 L 151.304688 66.871094 L 119.402344 66.871094 Z M 135.351562 38.957031 " clip-rule="nonzero"/></clipPath><clipPath id="613f0e7962"><path d="M 0.5 0.246094 L 17.652344 0.246094 L 17.652344 28.160156 L 0.5 28.160156 Z M 0.5 0.246094 " clip-rule="nonzero"/></clipPath><clipPath id="ea80c8bc63"><path d="M 1.652344 0.246094 L 17.605469 28.160156 L -14.296875 28.160156 Z M 1.652344 0.246094 " clip-rule="nonzero"/></clipPath><clipPath id="a40fb62b8d"><path d="M 4.828125 0 L 36.777344 0 L 36.777344 22.605469 L 4.828125 22.605469 Z M 4.828125 0 " clip-rule="nonzero"/></clipPath><clipPath id="8e0ba0fca5"><path d="M 20.777344 22.605469 L 36.730469 -5.308594 L 4.828125 -5.308594 Z M 20.777344 22.605469 " clip-rule="nonzero"/></clipPath><clipPath id="83c0874d6a"><path d="M 23.953125 0.246094 L 55.902344 0.246094 L 55.902344 28.160156 L 23.953125 28.160156 Z M 23.953125 0.246094 " clip-rule="nonzero"/></clipPath><clipPath id="20b3041c2e"><path d="M 39.902344 0.246094 L 55.855469 28.160156 L 23.953125 28.160156 Z M 39.902344 0.246094 " clip-rule="nonzero"/></clipPath><clipPath id="27f97532e8"><path d="M 43.078125 0 L 75 0 L 75 22.605469 L 43.078125 22.605469 Z M 43.078125 0 " clip-rule="nonzero"/></clipPath><clipPath id="7fef8ddc20"><path d="M 59.027344 22.605469 L 74.980469 -5.308594 L 43.078125 -5.308594 Z M 59.027344 22.605469 " clip-rule="nonzero"/></clipPath><clipPath id="cae9c4bcf1"><path d="M 62.203125 0.246094 L 94.152344 0.246094 L 94.152344 28.160156 L 62.203125 28.160156 Z M 62.203125 0.246094 " clip-rule="nonzero"/></clipPath><clipPath id="76dd5fa179"><path d="M 78.15625 0.246094 L 94.105469 28.160156 L 62.203125 28.160156 Z M 78.15625 0.246094 " clip-rule="nonzero"/></clipPath><clipPath id="dfe2ebc3d3"><path d="M 81.328125 0 L 113.277344 0 L 113.277344 22.605469 L 81.328125 22.605469 Z M 81.328125 0 " clip-rule="nonzero"/></clipPath><clipPath id="70e10d5041"><path d="M 97.28125 22.605469 L 113.230469 -5.308594 L 81.328125 -5.308594 Z M 97.28125 22.605469 " clip-rule="nonzero"/></clipPath><clipPath id="cb5b090de6"><path d="M 100.097656 0.246094 L 132 0.246094 L 132 28.160156 L 100.097656 28.160156 Z M 100.097656 0.246094 " clip-rule="nonzero"/></clipPath><clipPath id="5f3b3c5818"><path d="M 116.050781 0.246094 L 132 28.160156 L 100.097656 28.160156 Z M 116.050781 0.246094 " clip-rule="nonzero"/></clipPath><clipPath id="9176a644f8"><path d="M 0.5 188.871094 L 18.433594 188.871094 L 18.433594 216.785156 L 0.5 216.785156 Z M 0.5 188.871094 " clip-rule="nonzero"/></clipPath><clipPath id="d2ef0ef758"><path d="M 2.4375 216.785156 L 18.386719 188.871094 L -13.515625 188.871094 Z M 2.4375 216.785156 " clip-rule="nonzero"/></clipPath><clipPath id="0d2b0ea15f"><path d="M 5.609375 194.425781 L 37.558594 194.425781 L 37.558594 222.339844 L 5.609375 222.339844 Z M 5.609375 194.425781 " clip-rule="nonzero"/></clipPath><clipPath id="fa990a6339"><path d="M 21.5625 194.425781 L 37.511719 222.339844 L 5.609375 222.339844 Z M 21.5625 194.425781 " clip-rule="nonzero"/></clipPath><clipPath id="db510fc46a"><path d="M 24.734375 188.871094 L 56.6875 188.871094 L 56.6875 216.785156 L 24.734375 216.785156 Z M 24.734375 188.871094 " clip-rule="nonzero"/></clipPath><clipPath id="3a45eaf47d"><path d="M 40.6875 216.785156 L 56.640625 188.871094 L 24.734375 188.871094 Z M 40.6875 216.785156 " clip-rule="nonzero"/></clipPath><clipPath id="f3d9dd09b5"><path d="M 43.859375 194.425781 L 75.8125 194.425781 L 75.8125 222.339844 L 43.859375 222.339844 Z M 43.859375 194.425781 " clip-rule="nonzero"/></clipPath><clipPath id="ad5e0a99ef"><path d="M 59.8125 194.425781 L 75.765625 222.339844 L 43.859375 222.339844 Z M 59.8125 194.425781 " clip-rule="nonzero"/></clipPath><clipPath id="783815362b"><path d="M 62.988281 188.871094 L 94.9375 188.871094 L 94.9375 216.785156 L 62.988281 216.785156 Z M 62.988281 188.871094 " clip-rule="nonzero"/></clipPath><clipPath id="4dfa93c41c"><path d="M 78.9375 216.785156 L 94.890625 188.871094 L 62.988281 188.871094 Z M 78.9375 216.785156 " clip-rule="nonzero"/></clipPath><clipPath id="4958591ad3"><path d="M 82.113281 194.425781 L 114.0625 194.425781 L 114.0625 222.339844 L 82.113281 222.339844 Z M 82.113281 194.425781 " clip-rule="nonzero"/></clipPath><clipPath id="d4f2478a43"><path d="M 98.0625 194.425781 L 114.015625 222.339844 L 82.113281 222.339844 Z M 98.0625 194.425781 " clip-rule="nonzero"/></clipPath><clipPath id="535eced0a8"><path d="M 101.238281 188.871094 L 133.1875 188.871094 L 133.1875 216.785156 L 101.238281 216.785156 Z M 101.238281 188.871094 " clip-rule="nonzero"/></clipPath><clipPath id="ac4ea6a5fe"><path d="M 117.1875 216.785156 L 133.140625 188.871094 L 101.238281 188.871094 Z M 117.1875 216.785156 " clip-rule="nonzero"/></clipPath><clipPath id="63e963f93b"><path d="M 120.007812 194.425781 L 151.957031 194.425781 L 151.957031 222.339844 L 120.007812 222.339844 Z M 120.007812 194.425781 " clip-rule="nonzero"/></clipPath><clipPath id="80da4f62c2"><path d="M 135.957031 194.425781 L 151.910156 222.339844 L 120.007812 222.339844 Z M 135.957031 194.425781 " clip-rule="nonzero"/></clipPath><clipPath id="ddde6735b1"><path d="M 0.5 155.402344 L 18.792969 155.402344 L 18.792969 183.316406 L 0.5 183.316406 Z M 0.5 155.402344 " clip-rule="nonzero"/></clipPath><clipPath id="f42e2fc2e7"><path d="M 2.792969 155.402344 L 18.746094 183.316406 L -13.160156 183.316406 Z M 2.792969 155.402344 " clip-rule="nonzero"/></clipPath><clipPath id="b9bd2f182c"><path d="M 5.964844 149.847656 L 37.917969 149.847656 L 37.917969 177.761719 L 5.964844 177.761719 Z M 5.964844 149.847656 " clip-rule="nonzero"/></clipPath><clipPath id="115a5ec5e3"><path d="M 21.917969 177.761719 L 37.871094 149.847656 L 5.964844 149.847656 Z M 21.917969 177.761719 " clip-rule="nonzero"/></clipPath><clipPath id="0734727271"><path d="M 25.09375 155.402344 L 57 155.402344 L 57 183.316406 L 25.09375 183.316406 Z M 25.09375 155.402344 " clip-rule="nonzero"/></clipPath><clipPath id="30e068e8e8"><path d="M 41.042969 155.402344 L 56.996094 183.316406 L 25.09375 183.316406 Z M 41.042969 155.402344 " clip-rule="nonzero"/></clipPath><clipPath id="3859ec3fd6"><path d="M 44.21875 149.847656 L 76.167969 149.847656 L 76.167969 177.761719 L 44.21875 177.761719 Z M 44.21875 149.847656 " clip-rule="nonzero"/></clipPath><clipPath id="e815d58433"><path d="M 60.167969 177.761719 L 76.121094 149.847656 L 44.21875 149.847656 Z M 60.167969 177.761719 " clip-rule="nonzero"/></clipPath><clipPath id="933f7e3fad"><path d="M 63.34375 155.402344 L 95.292969 155.402344 L 95.292969 183.316406 L 63.34375 183.316406 Z M 63.34375 155.402344 " clip-rule="nonzero"/></clipPath><clipPath id="1cc39692e8"><path d="M 79.292969 155.402344 L 95.246094 183.316406 L 63.34375 183.316406 Z M 79.292969 155.402344 " clip-rule="nonzero"/></clipPath><clipPath id="fb0ed8a70f"><path d="M 82.46875 149.847656 L 114.417969 149.847656 L 114.417969 177.761719 L 82.46875 177.761719 Z M 82.46875 149.847656 " clip-rule="nonzero"/></clipPath><clipPath id="a20e7f1834"><path d="M 98.417969 177.761719 L 114.371094 149.847656 L 82.46875 149.847656 Z M 98.417969 177.761719 " clip-rule="nonzero"/></clipPath><clipPath id="7a653b4219"><path d="M 101.238281 155.402344 L 133.1875 155.402344 L 133.1875 183.316406 L 101.238281 183.316406 Z M 101.238281 155.402344 " clip-rule="nonzero"/></clipPath><clipPath id="865f0b9e8d"><path d="M 117.1875 155.402344 L 133.140625 183.316406 L 101.238281 183.316406 Z M 117.1875 155.402344 " clip-rule="nonzero"/></clipPath><clipPath id="6d66d522f1"><path d="M 5.789062 116.691406 L 37.738281 116.691406 L 37.738281 144.605469 L 5.789062 144.605469 Z M 5.789062 116.691406 " clip-rule="nonzero"/></clipPath><clipPath id="f7a8be4496"><path d="M 21.738281 116.691406 L 37.691406 144.605469 L 5.789062 144.605469 Z M 21.738281 116.691406 " clip-rule="nonzero"/></clipPath><clipPath id="470c44414f"><path d="M 24.914062 111.136719 L 56.863281 111.136719 L 56.863281 139.050781 L 24.914062 139.050781 Z M 24.914062 111.136719 " clip-rule="nonzero"/></clipPath><clipPath id="9433c1ed84"><path d="M 40.867188 139.050781 L 56.816406 111.136719 L 24.914062 111.136719 Z M 40.867188 139.050781 " clip-rule="nonzero"/></clipPath><clipPath id="cdd75c3b4d"><path d="M 44.039062 116.691406 L 75.988281 116.691406 L 75.988281 144.605469 L 44.039062 144.605469 Z M 44.039062 116.691406 " clip-rule="nonzero"/></clipPath><clipPath id="f2addc59a6"><path d="M 59.992188 116.691406 L 75.941406 144.605469 L 44.039062 144.605469 Z M 59.992188 116.691406 " clip-rule="nonzero"/></clipPath><clipPath id="4838a2a071"><path d="M 63.164062 111.136719 L 95.113281 111.136719 L 95.113281 139.050781 L 63.164062 139.050781 Z M 63.164062 111.136719 " clip-rule="nonzero"/></clipPath><clipPath id="46f1629b70"><path d="M 79.117188 139.050781 L 95.066406 111.136719 L 63.164062 111.136719 Z M 79.117188 139.050781 " clip-rule="nonzero"/></clipPath><clipPath id="3a8d3694f7"><path d="M 81.933594 116.691406 L 113.882812 116.691406 L 113.882812 144.605469 L 81.933594 144.605469 Z M 81.933594 116.691406 " clip-rule="nonzero"/></clipPath><clipPath id="64b369f409"><path d="M 97.886719 116.691406 L 113.835938 144.605469 L 81.933594 144.605469 Z M 97.886719 116.691406 " clip-rule="nonzero"/></clipPath><clipPath id="db57b320f7"><path d="M 0.5 310.871094 L 18 310.871094 L 18 338.789062 L 0.5 338.789062 Z M 0.5 310.871094 " clip-rule="nonzero"/></clipPath><clipPath id="e4ecd25c39"><path d="M 2.007812 310.871094 L 17.960938 338.789062 L -13.941406 338.789062 Z M 2.007812 310.871094 " clip-rule="nonzero"/></clipPath><clipPath id="c2d1d88f37"><path d="M 5.183594 305.320312 L 37.132812 305.320312 L 37.132812 333.234375 L 5.183594 333.234375 Z M 5.183594 305.320312 " clip-rule="nonzero"/></clipPath><clipPath id="7e8a7c1ee8"><path d="M 21.136719 333.234375 L 37.085938 305.320312 L 5.183594 305.320312 Z M 21.136719 333.234375 " clip-rule="nonzero"/></clipPath><clipPath id="d9b0d5aa04"><path d="M 24.308594 310.871094 L 56.257812 310.871094 L 56.257812 338.789062 L 24.308594 338.789062 Z M 24.308594 310.871094 " clip-rule="nonzero"/></clipPath><clipPath id="a9558db7c4"><path d="M 40.261719 310.871094 L 56.210938 338.789062 L 24.308594 338.789062 Z M 40.261719 310.871094 " clip-rule="nonzero"/></clipPath><clipPath id="23d59d6a21"><path d="M 43.433594 305.320312 L 75.382812 305.320312 L 75.382812 333.234375 L 43.433594 333.234375 Z M 43.433594 305.320312 " clip-rule="nonzero"/></clipPath><clipPath id="e85caed58c"><path d="M 59.386719 333.234375 L 75.335938 305.320312 L 43.433594 305.320312 Z M 59.386719 333.234375 " clip-rule="nonzero"/></clipPath><clipPath id="1a4c9093ce"><path d="M 62.558594 310.871094 L 94.507812 310.871094 L 94.507812 338.789062 L 62.558594 338.789062 Z M 62.558594 310.871094 " clip-rule="nonzero"/></clipPath><clipPath id="b8a9efb063"><path d="M 78.511719 310.871094 L 94.460938 338.789062 L 62.558594 338.789062 Z M 78.511719 310.871094 " clip-rule="nonzero"/></clipPath><clipPath id="89cd61a891"><path d="M 81.683594 305.320312 L 113.632812 305.320312 L 113.632812 333.234375 L 81.683594 333.234375 Z M 81.683594 305.320312 " clip-rule="nonzero"/></clipPath><clipPath id="73d82bd725"><path d="M 97.636719 333.234375 L 113.585938 305.320312 L 81.683594 305.320312 Z M 97.636719 333.234375 " clip-rule="nonzero"/></clipPath><clipPath id="f50f930777"><path d="M 100.808594 310.871094 L 132.757812 310.871094 L 132.757812 338.789062 L 100.808594 338.789062 Z M 100.808594 310.871094 " clip-rule="nonzero"/></clipPath><clipPath id="bc450dc050"><path d="M 116.761719 310.871094 L 132.714844 338.789062 L 100.808594 338.789062 Z M 116.761719 310.871094 " clip-rule="nonzero"/></clipPath><clipPath id="b8a69ee2c6"><path d="M 119.933594 305.320312 L 151.886719 305.320312 L 151.886719 333.234375 L 119.933594 333.234375 Z M 119.933594 305.320312 " clip-rule="nonzero"/></clipPath><clipPath id="fa833f5870"><path d="M 135.886719 333.234375 L 151.839844 305.320312 L 119.933594 305.320312 Z M 135.886719 333.234375 " clip-rule="nonzero"/></clipPath><clipPath id="829fad610c"><path d="M 138.703125 310.871094 L 170.652344 310.871094 L 170.652344 338.789062 L 138.703125 338.789062 Z M 138.703125 310.871094 " clip-rule="nonzero"/></clipPath><clipPath id="eee55bb29a"><path d="M 154.65625 310.871094 L 170.605469 338.789062 L 138.703125 338.789062 Z M 154.65625 310.871094 " clip-rule="nonzero"/></clipPath><clipPath id="779ed8806f"><path d="M 0.5 266.296875 L 18.363281 266.296875 L 18.363281 294.210938 L 0.5 294.210938 Z M 0.5 266.296875 " clip-rule="nonzero"/></clipPath><clipPath id="2d2d6f1fb6"><path d="M 2.367188 294.210938 L 18.316406 266.296875 L -13.585938 266.296875 Z M 2.367188 294.210938 " clip-rule="nonzero"/></clipPath><clipPath id="60ec70f2a3"><path d="M 5.539062 271.847656 L 37.488281 271.847656 L 37.488281 299.765625 L 5.539062 299.765625 Z M 5.539062 271.847656 " clip-rule="nonzero"/></clipPath><clipPath id="383b350639"><path d="M 21.492188 271.847656 L 37.441406 299.765625 L 5.539062 299.765625 Z M 21.492188 271.847656 " clip-rule="nonzero"/></clipPath><clipPath id="6ac44324af"><path d="M 24.664062 266.296875 L 56.613281 266.296875 L 56.613281 294.210938 L 24.664062 294.210938 Z M 24.664062 266.296875 " clip-rule="nonzero"/></clipPath><clipPath id="431f534087"><path d="M 40.617188 294.210938 L 56.566406 266.296875 L 24.664062 266.296875 Z M 40.617188 294.210938 " clip-rule="nonzero"/></clipPath><clipPath id="9a860200ba"><path d="M 43.789062 271.847656 L 75.738281 271.847656 L 75.738281 299.765625 L 43.789062 299.765625 Z M 43.789062 271.847656 " clip-rule="nonzero"/></clipPath><clipPath id="a5a84df3fd"><path d="M 59.742188 271.847656 L 75.695312 299.765625 L 43.789062 299.765625 Z M 59.742188 271.847656 " clip-rule="nonzero"/></clipPath><clipPath id="e059a322b2"><path d="M 62.914062 266.296875 L 94.867188 266.296875 L 94.867188 294.210938 L 62.914062 294.210938 Z M 62.914062 266.296875 " clip-rule="nonzero"/></clipPath><clipPath id="a60c46c184"><path d="M 78.867188 294.210938 L 94.820312 266.296875 L 62.914062 266.296875 Z M 78.867188 294.210938 " clip-rule="nonzero"/></clipPath><clipPath id="4e5b914015"><path d="M 82.039062 271.847656 L 113.992188 271.847656 L 113.992188 299.765625 L 82.039062 299.765625 Z M 82.039062 271.847656 " clip-rule="nonzero"/></clipPath><clipPath id="a3dc7ea981"><path d="M 97.992188 271.847656 L 113.945312 299.765625 L 82.039062 299.765625 Z M 97.992188 271.847656 " clip-rule="nonzero"/></clipPath><clipPath id="cd31c92897"><path d="M 101.167969 266.296875 L 133.117188 266.296875 L 133.117188 294.210938 L 101.167969 294.210938 Z M 101.167969 266.296875 " clip-rule="nonzero"/></clipPath><clipPath id="08f929a3b7"><path d="M 117.117188 294.210938 L 133.070312 266.296875 L 101.167969 266.296875 Z M 117.117188 294.210938 " clip-rule="nonzero"/></clipPath><clipPath id="0d2cc43710"><path d="M 119.933594 271.847656 L 151.886719 271.847656 L 151.886719 299.765625 L 119.933594 299.765625 Z M 119.933594 271.847656 " clip-rule="nonzero"/></clipPath><clipPath id="e686c08765"><path d="M 135.886719 271.847656 L 151.839844 299.765625 L 119.933594 299.765625 Z M 135.886719 271.847656 " clip-rule="nonzero"/></clipPath><clipPath id="400f0538a3"><path d="M 0.5 233.136719 L 18.1875 233.136719 L 18.1875 261.054688 L 0.5 261.054688 Z M 0.5 233.136719 " clip-rule="nonzero"/></clipPath><clipPath id="73335c987d"><path d="M 2.1875 233.136719 L 18.140625 261.054688 L -13.765625 261.054688 Z M 2.1875 233.136719 " clip-rule="nonzero"/></clipPath><clipPath id="e9b41fab4b"><path d="M 5.363281 227.582031 L 37.3125 227.582031 L 37.3125 255.5 L 5.363281 255.5 Z M 5.363281 227.582031 " clip-rule="nonzero"/></clipPath><clipPath id="e55569c94a"><path d="M 21.3125 255.5 L 37.265625 227.582031 L 5.363281 227.582031 Z M 21.3125 255.5 " clip-rule="nonzero"/></clipPath><clipPath id="dcd233e27c"><path d="M 24.488281 233.136719 L 56.4375 233.136719 L 56.4375 261.054688 L 24.488281 261.054688 Z M 24.488281 233.136719 " clip-rule="nonzero"/></clipPath><clipPath id="c8588517c1"><path d="M 40.4375 233.136719 L 56.390625 261.054688 L 24.488281 261.054688 Z M 40.4375 233.136719 " clip-rule="nonzero"/></clipPath><clipPath id="b34843be6a"><path d="M 43.613281 227.582031 L 75.5625 227.582031 L 75.5625 255.5 L 43.613281 255.5 Z M 43.613281 227.582031 " clip-rule="nonzero"/></clipPath><clipPath id="5787afea66"><path d="M 59.5625 255.5 L 75.515625 227.582031 L 43.613281 227.582031 Z M 59.5625 255.5 " clip-rule="nonzero"/></clipPath><clipPath id="ecb3a0288f"><path d="M 62.738281 233.136719 L 94.6875 233.136719 L 94.6875 261.054688 L 62.738281 261.054688 Z M 62.738281 233.136719 " clip-rule="nonzero"/></clipPath><clipPath id="4ace617c0b"><path d="M 78.6875 233.136719 L 94.640625 261.054688 L 62.738281 261.054688 Z M 78.6875 233.136719 " clip-rule="nonzero"/></clipPath><clipPath id="9b7bce8073"><path d="M 81.863281 227.582031 L 113.8125 227.582031 L 113.8125 255.5 L 81.863281 255.5 Z M 81.863281 227.582031 " clip-rule="nonzero"/></clipPath><clipPath id="0dfd126f78"><path d="M 97.8125 255.5 L 113.765625 227.582031 L 81.863281 227.582031 Z M 97.8125 255.5 " clip-rule="nonzero"/></clipPath><clipPath id="388c2b3eac"><path d="M 100.632812 233.136719 L 132.582031 233.136719 L 132.582031 261.054688 L 100.632812 261.054688 Z M 100.632812 233.136719 " clip-rule="nonzero"/></clipPath><clipPath id="07ccaf82c2"><path d="M 116.582031 233.136719 L 132.535156 261.054688 L 100.632812 261.054688 Z M 116.582031 233.136719 " clip-rule="nonzero"/></clipPath><clipPath id="55b7807da6"><path d="M 0.5 111.136719 L 18.613281 111.136719 L 18.613281 139.050781 L 0.5 139.050781 Z M 0.5 111.136719 " clip-rule="nonzero"/></clipPath><clipPath id="7aaa2b7c3c"><path d="M 2.613281 139.050781 L 18.566406 111.136719 L -13.335938 111.136719 Z M 2.613281 139.050781 " clip-rule="nonzero"/></clipPath><clipPath id="b8b56e4c0e"><path d="M 140.058594 189.183594 L 172 189.183594 L 172 217.097656 L 140.058594 217.097656 Z M 140.058594 189.183594 " clip-rule="nonzero"/></clipPath><clipPath id="af04244dac"><path d="M 156.011719 217.097656 L 171.960938 189.183594 L 140.058594 189.183594 Z M 156.011719 217.097656 " clip-rule="nonzero"/></clipPath><clipPath id="05354b8f38"><path d="M 158.828125 194.738281 L 190.777344 194.738281 L 190.777344 222.652344 L 158.828125 222.652344 Z M 158.828125 194.738281 " clip-rule="nonzero"/></clipPath><clipPath id="a5e3cd7d52"><path d="M 174.777344 194.738281 L 190.730469 222.652344 L 158.828125 222.652344 Z M 174.777344 194.738281 " clip-rule="nonzero"/></clipPath><clipPath id="d2d56e76ef"><path d="M 121.289062 150.160156 L 153.238281 150.160156 L 153.238281 178.074219 L 121.289062 178.074219 Z M 121.289062 150.160156 " clip-rule="nonzero"/></clipPath><clipPath id="1d903a241f"><path d="M 137.242188 178.074219 L 153.191406 150.160156 L 121.289062 150.160156 Z M 137.242188 178.074219 " clip-rule="nonzero"/></clipPath><clipPath id="0cdad3d735"><path d="M 140.058594 155.714844 L 172 155.714844 L 172 183.628906 L 140.058594 183.628906 Z M 140.058594 155.714844 " clip-rule="nonzero"/></clipPath><clipPath id="5a5ccf705c"><path d="M 156.011719 155.714844 L 171.960938 183.628906 L 140.058594 183.628906 Z M 156.011719 155.714844 " clip-rule="nonzero"/></clipPath><clipPath id="b7a6feb8d7"><path d="M 101.984375 111.449219 L 133.9375 111.449219 L 133.9375 139.363281 L 101.984375 139.363281 Z M 101.984375 111.449219 " clip-rule="nonzero"/></clipPath><clipPath id="592e33fc35"><path d="M 117.9375 139.363281 L 133.890625 111.449219 L 101.984375 111.449219 Z M 117.9375 139.363281 " clip-rule="nonzero"/></clipPath><clipPath id="956f260b1a"><path d="M 120.753906 117.003906 L 152.703125 117.003906 L 152.703125 144.917969 L 120.753906 144.917969 Z M 120.753906 117.003906 " clip-rule="nonzero"/></clipPath><clipPath id="554da0d485"><path d="M 136.707031 117.003906 L 152.65625 144.917969 L 120.753906 144.917969 Z M 136.707031 117.003906 " clip-rule="nonzero"/></clipPath><clipPath id="a92743810f"><path d="M 177.953125 189.183594 L 209.902344 189.183594 L 209.902344 217.097656 L 177.953125 217.097656 Z M 177.953125 189.183594 " clip-rule="nonzero"/></clipPath><clipPath id="655637a3da"><path d="M 193.90625 217.097656 L 209.855469 189.183594 L 177.953125 189.183594 Z M 193.90625 217.097656 " clip-rule="nonzero"/></clipPath><clipPath id="5879d865c2"><path d="M 196.722656 194.738281 L 228.671875 194.738281 L 228.671875 222.652344 L 196.722656 222.652344 Z M 196.722656 194.738281 " clip-rule="nonzero"/></clipPath><clipPath id="25815a7007"><path d="M 212.671875 194.738281 L 228.625 222.652344 L 196.722656 222.652344 Z M 212.671875 194.738281 " clip-rule="nonzero"/></clipPath><clipPath id="6e7f35cd53"><path d="M 159.183594 150.160156 L 191.132812 150.160156 L 191.132812 178.074219 L 159.183594 178.074219 Z M 159.183594 150.160156 " clip-rule="nonzero"/></clipPath><clipPath id="c01bdd057a"><path d="M 175.136719 178.074219 L 191.085938 150.160156 L 159.183594 150.160156 Z M 175.136719 178.074219 " clip-rule="nonzero"/></clipPath><clipPath id="162679a020"><path d="M 177.953125 155.714844 L 209.902344 155.714844 L 209.902344 183.628906 L 177.953125 183.628906 Z M 177.953125 155.714844 " clip-rule="nonzero"/></clipPath><clipPath id="483b52e007"><path d="M 193.90625 155.714844 L 209.855469 183.628906 L 177.953125 183.628906 Z M 193.90625 155.714844 " clip-rule="nonzero"/></clipPath><clipPath id="3f3afd188a"><path d="M 139.878906 111.449219 L 171.832031 111.449219 L 171.832031 139.363281 L 139.878906 139.363281 Z M 139.878906 111.449219 " clip-rule="nonzero"/></clipPath><clipPath id="4643869f27"><path d="M 155.832031 139.363281 L 171.785156 111.449219 L 139.878906 111.449219 Z M 155.832031 139.363281 " clip-rule="nonzero"/></clipPath><clipPath id="1271ec1c17"><path d="M 158.648438 117.003906 L 190.597656 117.003906 L 190.597656 144.917969 L 158.648438 144.917969 Z M 158.648438 117.003906 " clip-rule="nonzero"/></clipPath><clipPath id="91abfcf762"><path d="M 174.601562 117.003906 L 190.550781 144.917969 L 158.648438 144.917969 Z M 174.601562 117.003906 " clip-rule="nonzero"/></clipPath><clipPath id="827fbdb5d9"><path d="M 158.757812 306.378906 L 190.707031 306.378906 L 190.707031 334.292969 L 158.757812 334.292969 Z M 158.757812 306.378906 " clip-rule="nonzero"/></clipPath><clipPath id="f608758481"><path d="M 174.707031 334.292969 L 190.660156 306.378906 L 158.757812 306.378906 Z M 174.707031 334.292969 " clip-rule="nonzero"/></clipPath><clipPath id="3d478968a3"><path d="M 177.882812 311.933594 L 209.832031 311.933594 L 209.832031 339.847656 L 177.882812 339.847656 Z M 177.882812 311.933594 " clip-rule="nonzero"/></clipPath><clipPath id="dc0752ebc1"><path d="M 193.832031 311.933594 L 209.785156 339.847656 L 177.882812 339.847656 Z M 193.832031 311.933594 " clip-rule="nonzero"/></clipPath><clipPath id="87b03a9d63"><path d="M 197.007812 306.378906 L 228.957031 306.378906 L 228.957031 334.292969 L 197.007812 334.292969 Z M 197.007812 306.378906 " clip-rule="nonzero"/></clipPath><clipPath id="ed1abe6ed7"><path d="M 212.957031 334.292969 L 228.910156 306.378906 L 197.007812 306.378906 Z M 212.957031 334.292969 " clip-rule="nonzero"/></clipPath><clipPath id="789709290e"><path d="M 216.132812 311.933594 L 248.082031 311.933594 L 248.082031 339.847656 L 216.132812 339.847656 Z M 216.132812 311.933594 " clip-rule="nonzero"/></clipPath><clipPath id="abfdded322"><path d="M 232.085938 311.933594 L 248.035156 339.847656 L 216.132812 339.847656 Z M 232.085938 311.933594 " clip-rule="nonzero"/></clipPath><clipPath id="b716df1794"><path d="M 235.257812 306.378906 L 267.207031 306.378906 L 267.207031 334.292969 L 235.257812 334.292969 Z M 235.257812 306.378906 " clip-rule="nonzero"/></clipPath><clipPath id="d7d2f1bd91"><path d="M 251.210938 334.292969 L 267.160156 306.378906 L 235.257812 306.378906 Z M 251.210938 334.292969 " clip-rule="nonzero"/></clipPath><clipPath id="aacf57c59c"><path d="M 254.027344 311.933594 L 285.976562 311.933594 L 285.976562 339.847656 L 254.027344 339.847656 Z M 254.027344 311.933594 " clip-rule="nonzero"/></clipPath><clipPath id="84f2602358"><path d="M 269.980469 311.933594 L 285.929688 339.847656 L 254.027344 339.847656 Z M 269.980469 311.933594 " clip-rule="nonzero"/></clipPath><clipPath id="ece5e87c04"><path d="M 139.988281 267.355469 L 171.9375 267.355469 L 171.9375 295.269531 L 139.988281 295.269531 Z M 139.988281 267.355469 " clip-rule="nonzero"/></clipPath><clipPath id="8f4089ba4c"><path d="M 155.9375 295.269531 L 171.890625 267.355469 L 139.988281 267.355469 Z M 155.9375 295.269531 " clip-rule="nonzero"/></clipPath><clipPath id="4dfcb0d09a"><path d="M 159.113281 272.910156 L 191.0625 272.910156 L 191.0625 300.824219 L 159.113281 300.824219 Z M 159.113281 272.910156 " clip-rule="nonzero"/></clipPath><clipPath id="208c740611"><path d="M 175.066406 272.910156 L 191.015625 300.824219 L 159.113281 300.824219 Z M 175.066406 272.910156 " clip-rule="nonzero"/></clipPath><clipPath id="4fccf8d7b0"><path d="M 178.238281 267.355469 L 210.1875 267.355469 L 210.1875 295.269531 L 178.238281 295.269531 Z M 178.238281 267.355469 " clip-rule="nonzero"/></clipPath><clipPath id="ac6cdacb89"><path d="M 194.191406 295.269531 L 210.140625 267.355469 L 178.238281 267.355469 Z M 194.191406 295.269531 " clip-rule="nonzero"/></clipPath><clipPath id="b99e77ea0c"><path d="M 197.363281 272.910156 L 229.3125 272.910156 L 229.3125 300.824219 L 197.363281 300.824219 Z M 197.363281 272.910156 " clip-rule="nonzero"/></clipPath><clipPath id="e00ac212f6"><path d="M 213.316406 272.910156 L 229.265625 300.824219 L 197.363281 300.824219 Z M 213.316406 272.910156 " clip-rule="nonzero"/></clipPath><clipPath id="9b281ff7f1"><path d="M 216.488281 267.355469 L 248.4375 267.355469 L 248.4375 295.269531 L 216.488281 295.269531 Z M 216.488281 267.355469 " clip-rule="nonzero"/></clipPath><clipPath id="4b8ad36af2"><path d="M 232.441406 295.269531 L 248.390625 267.355469 L 216.488281 267.355469 Z M 232.441406 295.269531 " clip-rule="nonzero"/></clipPath><clipPath id="f828cc2e45"><path d="M 235.257812 272.910156 L 267.207031 272.910156 L 267.207031 300.824219 L 235.257812 300.824219 Z M 235.257812 272.910156 " clip-rule="nonzero"/></clipPath><clipPath id="1751517772"><path d="M 251.210938 272.910156 L 267.160156 300.824219 L 235.257812 300.824219 Z M 251.210938 272.910156 " clip-rule="nonzero"/></clipPath><clipPath id="a032eb03c5"><path d="M 120.683594 228.644531 L 152.632812 228.644531 L 152.632812 256.558594 L 120.683594 256.558594 Z M 120.683594 228.644531 " clip-rule="nonzero"/></clipPath><clipPath id="9c9cc6f8e2"><path d="M 136.636719 256.558594 L 152.585938 228.644531 L 120.683594 228.644531 Z M 136.636719 256.558594 " clip-rule="nonzero"/></clipPath><clipPath id="b28bfe857c"><path d="M 139.808594 234.199219 L 171.757812 234.199219 L 171.757812 262.113281 L 139.808594 262.113281 Z M 139.808594 234.199219 " clip-rule="nonzero"/></clipPath><clipPath id="26dc7364e7"><path d="M 155.761719 234.199219 L 171.710938 262.113281 L 139.808594 262.113281 Z M 155.761719 234.199219 " clip-rule="nonzero"/></clipPath><clipPath id="fa3e8d0f7c"><path d="M 158.933594 228.644531 L 190.882812 228.644531 L 190.882812 256.558594 L 158.933594 256.558594 Z M 158.933594 228.644531 " clip-rule="nonzero"/></clipPath><clipPath id="d219aa1581"><path d="M 174.886719 256.558594 L 190.839844 228.644531 L 158.933594 228.644531 Z M 174.886719 256.558594 " clip-rule="nonzero"/></clipPath><clipPath id="2cd6f1e4e6"><path d="M 178.058594 234.199219 L 210 234.199219 L 210 262.113281 L 178.058594 262.113281 Z M 178.058594 234.199219 " clip-rule="nonzero"/></clipPath><clipPath id="5447e7c2b5"><path d="M 194.011719 234.199219 L 209.964844 262.113281 L 178.058594 262.113281 Z M 194.011719 234.199219 " clip-rule="nonzero"/></clipPath><clipPath id="a38671d6bc"><path d="M 197.183594 228.644531 L 229.136719 228.644531 L 229.136719 256.558594 L 197.183594 256.558594 Z M 197.183594 228.644531 " clip-rule="nonzero"/></clipPath><clipPath id="5b8c93ae3a"><path d="M 213.136719 256.558594 L 229.089844 228.644531 L 197.183594 228.644531 Z M 213.136719 256.558594 " clip-rule="nonzero"/></clipPath><clipPath id="aa3c1d3fb6"><path d="M 215.953125 234.199219 L 247.90625 234.199219 L 247.90625 262.113281 L 215.953125 262.113281 Z M 215.953125 234.199219 " clip-rule="nonzero"/></clipPath><clipPath id="6eee9eed0f"><path d="M 231.90625 234.199219 L 247.859375 262.113281 L 215.953125 262.113281 Z M 231.90625 234.199219 " clip-rule="nonzero"/></clipPath></defs><g clip-path="url(#1a75d5edc4)"><path fill="#ffffff" d="M 0.5 0 L 1023.5 0 L 1023.5 340 L 0.5 340 Z M 0.5 0 " fill-opacity="1" fill-rule="nonzero"/><path fill="#ffffff" d="M 0.5 0 L 1023.5 0 L 1023.5 340 L 0.5 340 Z M 0.5 0 " fill-opacity="1" fill-rule="nonzero"/></g><g clip-path="url(#949dc564ce)"><g clip-path="url(#fd0f1b3fb5)"><path fill="#a60404" d="M -14.476562 77.980469 L 17.472656 77.980469 L 17.472656 105.894531 L -14.476562 105.894531 Z M -14.476562 77.980469 " fill-opacity="1" fill-rule="nonzero"/></g></g><g clip-path="url(#deaad5cd72)"><g clip-path="url(#07b3ec9b52)"><path fill="#a60404" d="M 4.648438 72.425781 L 36.597656 72.425781 L 36.597656 100.339844 L 4.648438 100.339844 Z M 4.648438 72.425781 " fill-opacity="1" fill-rule="nonzero"/></g></g><g clip-path="url(#add1258eef)"><g clip-path="url(#26e671798f)"><path fill="#a60404" d="M 23.773438 77.980469 L 55.722656 77.980469 L 55.722656 105.894531 L 23.773438 105.894531 Z M 23.773438 77.980469 " fill-opacity="1" fill-rule="nonzero"/></g></g><g clip-path="url(#9f3ce62005)"><g clip-path="url(#87981558ea)"><path fill="#a60404" d="M 42.898438 72.425781 L 74.847656 72.425781 L 74.847656 100.339844 L 42.898438 100.339844 Z M 42.898438 72.425781 " fill-opacity="1" fill-rule="nonzero"/></g></g><g clip-path="url(#e001063bb2)"><g clip-path="url(#53ac2a01e9)"><path fill="#a60404" d="M 62.023438 77.980469 L 93.976562 77.980469 L 93.976562 105.894531 L 62.023438 105.894531 Z M 62.023438 77.980469 " fill-opacity="1" fill-rule="nonzero"/></g></g><g clip-path="url(#4ba25952b5)"><g clip-path="url(#9fc0c3dc7c)"><path fill="#a60404" d="M 81.148438 72.425781 L 113.101562 72.425781 L 113.101562 100.339844 L 81.148438 100.339844 Z M 81.148438 72.425781 " fill-opacity="1" fill-rule="nonzero"/></g></g><g clip-path="url(#da798f1a41)"><g clip-path="url(#ec954d43ba)"><path fill="#cc5200" d="M 100.277344 77.980469 L 132.226562 77.980469 L 132.226562 105.894531 L 100.277344 105.894531 Z M 100.277344 77.980469 " fill-opacity="1" fill-rule="nonzero"/></g></g><g clip-path="url(#2eb0b352b8)"><g clip-path="url(#843360610d)"><path fill="#a60404" d="M 119.402344 72.425781 L 151.351562 72.425781 L 151.351562 100.339844 L 119.402344 100.339844 Z M 119.402344 72.425781 " fill-opacity="1" fill-rule="nonzero"/></g></g><g clip-path="url(#a05dbaf5ca)"><g clip-path="url(#f4be0fa462)"><path fill="#a60404" d="M 138.167969 77.980469 L 170.121094 77.980469 L 170.121094 105.894531 L 138.167969 105.894531 Z M 138.167969 77.980469 " fill-opacity="1" fill-rule="nonzero"/></g></g><g clip-path="url(#11862d3255)"><g clip-path="url(#3491edb518)"><path fill="#a60404" d="M -14.121094 33.402344 L 17.828125 33.402344 L 17.828125 61.316406 L -14.121094 61.316406 Z M -14.121094 33.402344 " fill-opacity="1" fill-rule="nonzero"/></g></g><g clip-path="url(#6f8a2f78f7)"><g clip-path="url(#2c49564e12)"><path fill="#cc5200" d="M 5.003906 38.957031 L 36.953125 38.957031 L 36.953125 66.871094 L 5.003906 66.871094 Z M 5.003906 38.957031 " fill-opacity="1" fill-rule="nonzero"/></g></g><g clip-path="url(#c1f8ff0bbe)"><g clip-path="url(#85191db157)"><path fill="#a60404" d="M 24.128906 33.402344 L 56.082031 33.402344 L 56.082031 61.316406 L 24.128906 61.316406 Z M 24.128906 33.402344 " fill-opacity="1" fill-rule="nonzero"/></g></g><g clip-path="url(#c570e6d2a8)"><g clip-path="url(#b7cff1e30f)"><path fill="#a60404" d="M 43.253906 38.957031 L 75.207031 38.957031 L 75.207031 66.871094 L 43.253906 66.871094 Z M 43.253906 38.957031 " fill-opacity="1" fill-rule="nonzero"/></g></g><g clip-path="url(#d388217882)"><g clip-path="url(#d9b5e37af1)"><path fill="#a60404" d="M 62.382812 33.402344 L 94.332031 33.402344 L 94.332031 61.316406 L 62.382812 61.316406 Z M 62.382812 33.402344 " fill-opacity="1" fill-rule="nonzero"/></g></g><g clip-path="url(#0c2d1cb1d0)"><g clip-path="url(#9a1ebd3353)"><path fill="#a60404" d="M 81.507812 38.957031 L 113.457031 38.957031 L 113.457031 66.871094 L 81.507812 66.871094 Z M 81.507812 38.957031 " fill-opacity="1" fill-rule="nonzero"/></g></g><g clip-path="url(#1ddfdfe0d4)"><g clip-path="url(#a485edc094)"><path fill="#a60404" d="M 100.632812 33.402344 L 132.582031 33.402344 L 132.582031 61.316406 L 100.632812 61.316406 Z M 100.632812 33.402344 " fill-opacity="1" fill-rule="nonzero"/></g></g><g clip-path="url(#b6638b0c4a)"><g clip-path="url(#b1b23621e3)"><path fill="#a60404" d="M 119.402344 38.957031 L 151.351562 38.957031 L 151.351562 66.871094 L 119.402344 66.871094 Z M 119.402344 38.957031 " fill-opacity="1" fill-rule="nonzero"/></g></g><g clip-path="url(#613f0e7962)"><g clip-path="url(#ea80c8bc63)"><path fill="#a60404" d="M -14.296875 0.246094 L 17.652344 0.246094 L 17.652344 28.160156 L -14.296875 28.160156 Z M -14.296875 0.246094 " fill-opacity="1" fill-rule="nonzero"/></g></g><g clip-path="url(#a40fb62b8d)"><g clip-path="url(#8e0ba0fca5)"><path fill="#a60404" d="M 4.828125 -5.308594 L 36.777344 -5.308594 L 36.777344 22.605469 L 4.828125 22.605469 Z M 4.828125 -5.308594 " fill-opacity="1" fill-rule="nonzero"/></g></g><g clip-path="url(#83c0874d6a)"><g clip-path="url(#20b3041c2e)"><path fill="#a60404" d="M 23.953125 0.246094 L 55.902344 0.246094 L 55.902344 28.160156 L 23.953125 28.160156 Z M 23.953125 0.246094 " fill-opacity="1" fill-rule="nonzero"/></g></g><g clip-path="url(#27f97532e8)"><g clip-path="url(#7fef8ddc20)"><path fill="#a60404" d="M 43.078125 -5.308594 L 75.027344 -5.308594 L 75.027344 22.605469 L 43.078125 22.605469 Z M 43.078125 -5.308594 " fill-opacity="1" fill-rule="nonzero"/></g></g><g clip-path="url(#cae9c4bcf1)"><g clip-path="url(#76dd5fa179)"><path fill="#cc5200" d="M 62.203125 0.246094 L 94.152344 0.246094 L 94.152344 28.160156 L 62.203125 28.160156 Z M 62.203125 0.246094 " fill-opacity="1" fill-rule="nonzero"/></g></g><g clip-path="url(#dfe2ebc3d3)"><g clip-path="url(#70e10d5041)"><path fill="#a60404" d="M 81.328125 -5.308594 L 113.277344 -5.308594 L 113.277344 22.605469 L 81.328125 22.605469 Z M 81.328125 -5.308594 " fill-opacity="1" fill-rule="nonzero"/></g></g><g clip-path="url(#cb5b090de6)"><g clip-path="url(#5f3b3c5818)"><path fill="#a60404" d="M 100.097656 0.246094 L 132.046875 0.246094 L 132.046875 28.160156 L 100.097656 28.160156 Z M 100.097656 0.246094 " fill-opacity="1" fill-rule="nonzero"/></g></g><g clip-path="url(#9176a644f8)"><g clip-path="url(#d2ef0ef758)"><path fill="#a60404" d="M -13.515625 188.871094 L 18.433594 188.871094 L 18.433594 216.785156 L -13.515625 216.785156 Z M -13.515625 188.871094 " fill-opacity="1" fill-rule="nonzero"/></g></g><g clip-path="url(#0d2b0ea15f)"><g clip-path="url(#fa990a6339)"><path fill="#a60404" d="M 5.609375 194.425781 L 37.558594 194.425781 L 37.558594 222.339844 L 5.609375 222.339844 Z M 5.609375 194.425781 " fill-opacity="1" fill-rule="nonzero"/></g></g><g clip-path="url(#db510fc46a)"><g clip-path="url(#3a45eaf47d)"><path fill="#a60404" d="M 24.734375 188.871094 L 56.6875 188.871094 L 56.6875 216.785156 L 24.734375 216.785156 Z M 24.734375 188.871094 " fill-opacity="1" fill-rule="nonzero"/></g></g><g clip-path="url(#f3d9dd09b5)"><g clip-path="url(#ad5e0a99ef)"><path fill="#a60404" d="M 43.859375 194.425781 L 75.8125 194.425781 L 75.8125 222.339844 L 43.859375 222.339844 Z M 43.859375 194.425781 " fill-opacity="1" fill-rule="nonzero"/></g></g><g clip-path="url(#783815362b)"><g clip-path="url(#4dfa93c41c)"><path fill="#a60404" d="M 62.988281 188.871094 L 94.9375 188.871094 L 94.9375 216.785156 L 62.988281 216.785156 Z M 62.988281 188.871094 " fill-opacity="1" fill-rule="nonzero"/></g></g><g clip-path="url(#4958591ad3)"><g clip-path="url(#d4f2478a43)"><path fill="#cc5200" d="M 82.113281 194.425781 L 114.0625 194.425781 L 114.0625 222.339844 L 82.113281 222.339844 Z M 82.113281 194.425781 " fill-opacity="1" fill-rule="nonzero"/></g></g><g clip-path="url(#535eced0a8)"><g clip-path="url(#ac4ea6a5fe)"><path fill="#a60404" d="M 101.238281 188.871094 L 133.1875 188.871094 L 133.1875 216.785156 L 101.238281 216.785156 Z M 101.238281 188.871094 " fill-opacity="1" fill-rule="nonzero"/></g></g><g clip-path="url(#63e963f93b)"><g clip-path="url(#80da4f62c2)"><path fill="#a60404" d="M 120.007812 194.425781 L 151.957031 194.425781 L 151.957031 222.339844 L 120.007812 222.339844 Z M 120.007812 194.425781 " fill-opacity="1" fill-rule="nonzero"/></g></g><g clip-path="url(#ddde6735b1)"><g clip-path="url(#f42e2fc2e7)"><path fill="#cc5200" d="M -13.160156 155.402344 L 18.792969 155.402344 L 18.792969 183.316406 L -13.160156 183.316406 Z M -13.160156 155.402344 " fill-opacity="1" fill-rule="nonzero"/></g></g><g clip-path="url(#b9bd2f182c)"><g clip-path="url(#115a5ec5e3)"><path fill="#2e2459" d="M 5.964844 149.847656 L 37.917969 149.847656 L 37.917969 177.765625 L 5.964844 177.765625 Z M 5.964844 149.847656 " fill-opacity="1" fill-rule="nonzero"/></g></g><g clip-path="url(#0734727271)"><g clip-path="url(#30e068e8e8)"><path fill="#a60404" d="M 25.09375 155.402344 L 57.042969 155.402344 L 57.042969 183.316406 L 25.09375 183.316406 Z M 25.09375 155.402344 " fill-opacity="1" fill-rule="nonzero"/></g></g><g clip-path="url(#3859ec3fd6)"><g clip-path="url(#e815d58433)"><path fill="#a60404" d="M 44.21875 149.847656 L 76.167969 149.847656 L 76.167969 177.765625 L 44.21875 177.765625 Z M 44.21875 149.847656 " fill-opacity="1" fill-rule="nonzero"/></g></g><g clip-path="url(#933f7e3fad)"><g clip-path="url(#1cc39692e8)"><path fill="#a60404" d="M 63.34375 155.402344 L 95.292969 155.402344 L 95.292969 183.316406 L 63.34375 183.316406 Z M 63.34375 155.402344 " fill-opacity="1" fill-rule="nonzero"/></g></g><g clip-path="url(#fb0ed8a70f)"><g clip-path="url(#a20e7f1834)"><path fill="#a60404" d="M 82.46875 149.847656 L 114.417969 149.847656 L 114.417969 177.765625 L 82.46875 177.765625 Z M 82.46875 149.847656 " fill-opacity="1" fill-rule="nonzero"/></g></g><g clip-path="url(#7a653b4219)"><g clip-path="url(#865f0b9e8d)"><path fill="#a60404" d="M 101.238281 155.402344 L 133.1875 155.402344 L 133.1875 183.316406 L 101.238281 183.316406 Z M 101.238281 155.402344 " fill-opacity="1" fill-rule="nonzero"/></g></g><g clip-path="url(#6d66d522f1)"><g clip-path="url(#f7a8be4496)"><path fill="#a60404" d="M 5.789062 116.691406 L 37.738281 116.691406 L 37.738281 144.605469 L 5.789062 144.605469 Z M 5.789062 116.691406 " fill-opacity="1" fill-rule="nonzero"/></g></g><g clip-path="url(#470c44414f)"><g clip-path="url(#9433c1ed84)"><path fill="#a60404" d="M 24.914062 111.136719 L 56.863281 111.136719 L 56.863281 139.050781 L 24.914062 139.050781 Z M 24.914062 111.136719 " fill-opacity="1" fill-rule="nonzero"/></g></g><g clip-path="url(#cdd75c3b4d)"><g clip-path="url(#f2addc59a6)"><path fill="#cc5200" d="M 44.039062 116.691406 L 75.988281 116.691406 L 75.988281 144.605469 L 44.039062 144.605469 Z M 44.039062 116.691406 " fill-opacity="1" fill-rule="nonzero"/></g></g><g clip-path="url(#4838a2a071)"><g clip-path="url(#46f1629b70)"><path fill="#a60404" d="M 63.164062 111.136719 L 95.113281 111.136719 L 95.113281 139.050781 L 63.164062 139.050781 Z M 63.164062 111.136719 " fill-opacity="1" fill-rule="nonzero"/></g></g><g clip-path="url(#3a8d3694f7)"><g clip-path="url(#64b369f409)"><path fill="#a60404" d="M 81.933594 116.691406 L 113.882812 116.691406 L 113.882812 144.605469 L 81.933594 144.605469 Z M 81.933594 116.691406 " fill-opacity="1" fill-rule="nonzero"/></g></g><g clip-path="url(#db57b320f7)"><g clip-path="url(#e4ecd25c39)"><path fill="#a60404" d="M -13.941406 310.871094 L 18.007812 310.871094 L 18.007812 338.789062 L -13.941406 338.789062 Z M -13.941406 310.871094 " fill-opacity="1" fill-rule="nonzero"/></g></g><g clip-path="url(#c2d1d88f37)"><g clip-path="url(#7e8a7c1ee8)"><path fill="#a60404" d="M 5.183594 305.320312 L 37.132812 305.320312 L 37.132812 333.234375 L 5.183594 333.234375 Z M 5.183594 305.320312 " fill-opacity="1" fill-rule="nonzero"/></g></g><g clip-path="url(#d9b0d5aa04)"><g clip-path="url(#a9558db7c4)"><path fill="#2e2459" d="M 24.308594 310.871094 L 56.257812 310.871094 L 56.257812 338.789062 L 24.308594 338.789062 Z M 24.308594 310.871094 " fill-opacity="1" fill-rule="nonzero"/></g></g><g clip-path="url(#23d59d6a21)"><g clip-path="url(#e85caed58c)"><path fill="#a60404" d="M 43.433594 305.320312 L 75.382812 305.320312 L 75.382812 333.234375 L 43.433594 333.234375 Z M 43.433594 305.320312 " fill-opacity="1" fill-rule="nonzero"/></g></g><g clip-path="url(#1a4c9093ce)"><g clip-path="url(#b8a9efb063)"><path fill="#a60404" d="M 62.558594 310.871094 L 94.507812 310.871094 L 94.507812 338.789062 L 62.558594 338.789062 Z M 62.558594 310.871094 " fill-opacity="1" fill-rule="nonzero"/></g></g><g clip-path="url(#89cd61a891)"><g clip-path="url(#73d82bd725)"><path fill="#a60404" d="M 81.683594 305.320312 L 113.632812 305.320312 L 113.632812 333.234375 L 81.683594 333.234375 Z M 81.683594 305.320312 " fill-opacity="1" fill-rule="nonzero"/></g></g><g clip-path="url(#f50f930777)"><g clip-path="url(#bc450dc050)"><path fill="#cc5200" d="M 100.808594 310.871094 L 132.761719 310.871094 L 132.761719 338.789062 L 100.808594 338.789062 Z M 100.808594 310.871094 " fill-opacity="1" fill-rule="nonzero"/></g></g><g clip-path="url(#b8a69ee2c6)"><g clip-path="url(#fa833f5870)"><path fill="#a60404" d="M 119.933594 305.320312 L 151.886719 305.320312 L 151.886719 333.234375 L 119.933594 333.234375 Z M 119.933594 305.320312 " fill-opacity="1" fill-rule="nonzero"/></g></g><g clip-path="url(#829fad610c)"><g clip-path="url(#eee55bb29a)"><path fill="#a60404" d="M 138.703125 310.871094 L 170.652344 310.871094 L 170.652344 338.789062 L 138.703125 338.789062 Z M 138.703125 310.871094 " fill-opacity="1" fill-rule="nonzero"/></g></g><g clip-path="url(#779ed8806f)"><g clip-path="url(#2d2d6f1fb6)"><path fill="#a60404" d="M -13.585938 266.296875 L 18.363281 266.296875 L 18.363281 294.210938 L -13.585938 294.210938 Z M -13.585938 266.296875 " fill-opacity="1" fill-rule="nonzero"/></g></g><g clip-path="url(#60ec70f2a3)"><g clip-path="url(#383b350639)"><path fill="#cc5200" d="M 5.539062 271.847656 L 37.488281 271.847656 L 37.488281 299.765625 L 5.539062 299.765625 Z M 5.539062 271.847656 " fill-opacity="1" fill-rule="nonzero"/></g></g><g clip-path="url(#6ac44324af)"><g clip-path="url(#431f534087)"><path fill="#a60404" d="M 24.664062 266.296875 L 56.613281 266.296875 L 56.613281 294.210938 L 24.664062 294.210938 Z M 24.664062 266.296875 " fill-opacity="1" fill-rule="nonzero"/></g></g><g clip-path="url(#9a860200ba)"><g clip-path="url(#a5a84df3fd)"><path fill="#a60404" d="M 43.789062 271.847656 L 75.738281 271.847656 L 75.738281 299.765625 L 43.789062 299.765625 Z M 43.789062 271.847656 " fill-opacity="1" fill-rule="nonzero"/></g></g><g clip-path="url(#e059a322b2)"><g clip-path="url(#a60c46c184)"><path fill="#a60404" d="M 62.914062 266.296875 L 94.867188 266.296875 L 94.867188 294.210938 L 62.914062 294.210938 Z M 62.914062 266.296875 " fill-opacity="1" fill-rule="nonzero"/></g></g><g clip-path="url(#4e5b914015)"><g clip-path="url(#a3dc7ea981)"><path fill="#a60404" d="M 82.039062 271.847656 L 113.992188 271.847656 L 113.992188 299.765625 L 82.039062 299.765625 Z M 82.039062 271.847656 " fill-opacity="1" fill-rule="nonzero"/></g></g><g clip-path="url(#cd31c92897)"><g clip-path="url(#08f929a3b7)"><path fill="#a60404" d="M 101.167969 266.296875 L 133.117188 266.296875 L 133.117188 294.210938 L 101.167969 294.210938 Z M 101.167969 266.296875 " fill-opacity="1" fill-rule="nonzero"/></g></g><g clip-path="url(#0d2cc43710)"><g clip-path="url(#e686c08765)"><path fill="#a60404" d="M 119.933594 271.847656 L 151.886719 271.847656 L 151.886719 299.765625 L 119.933594 299.765625 Z M 119.933594 271.847656 " fill-opacity="1" fill-rule="nonzero"/></g></g><g clip-path="url(#400f0538a3)"><g clip-path="url(#73335c987d)"><path fill="#a60404" d="M -13.765625 233.136719 L 18.1875 233.136719 L 18.1875 261.054688 L -13.765625 261.054688 Z M -13.765625 233.136719 " fill-opacity="1" fill-rule="nonzero"/></g></g><g clip-path="url(#e9b41fab4b)"><g clip-path="url(#e55569c94a)"><path fill="#171219" d="M 5.363281 227.582031 L 37.3125 227.582031 L 37.3125 255.5 L 5.363281 255.5 Z M 5.363281 227.582031 " fill-opacity="1" fill-rule="nonzero"/></g></g><g clip-path="url(#dcd233e27c)"><g clip-path="url(#c8588517c1)"><path fill="#a60404" d="M 24.488281 233.136719 L 56.4375 233.136719 L 56.4375 261.054688 L 24.488281 261.054688 Z M 24.488281 233.136719 " fill-opacity="1" fill-rule="nonzero"/></g></g><g clip-path="url(#b34843be6a)"><g clip-path="url(#5787afea66)"><path fill="#a60404" d="M 43.613281 227.582031 L 75.5625 227.582031 L 75.5625 255.5 L 43.613281 255.5 Z M 43.613281 227.582031 " fill-opacity="1" fill-rule="nonzero"/></g></g><g clip-path="url(#ecb3a0288f)"><g clip-path="url(#4ace617c0b)"><path fill="#cc5200" d="M 62.738281 233.136719 L 94.6875 233.136719 L 94.6875 261.054688 L 62.738281 261.054688 Z M 62.738281 233.136719 " fill-opacity="1" fill-rule="nonzero"/></g></g><g clip-path="url(#9b7bce8073)"><g clip-path="url(#0dfd126f78)"><path fill="#a60404" d="M 81.863281 227.582031 L 113.8125 227.582031 L 113.8125 255.5 L 81.863281 255.5 Z M 81.863281 227.582031 " fill-opacity="1" fill-rule="nonzero"/></g></g><g clip-path="url(#388c2b3eac)"><g clip-path="url(#07ccaf82c2)"><path fill="#a60404" d="M 100.632812 233.136719 L 132.582031 233.136719 L 132.582031 261.054688 L 100.632812 261.054688 Z M 100.632812 233.136719 " fill-opacity="1" fill-rule="nonzero"/></g></g><g clip-path="url(#55b7807da6)"><g clip-path="url(#7aaa2b7c3c)"><path fill="#a60404" d="M -13.335938 111.136719 L 18.613281 111.136719 L 18.613281 139.050781 L -13.335938 139.050781 Z M -13.335938 111.136719 " fill-opacity="1" fill-rule="nonzero"/></g></g><g clip-path="url(#b8b56e4c0e)"><g clip-path="url(#af04244dac)"><path fill="#a60404" d="M 140.058594 189.183594 L 172.007812 189.183594 L 172.007812 217.097656 L 140.058594 217.097656 Z M 140.058594 189.183594 " fill-opacity="1" fill-rule="nonzero"/></g></g><g clip-path="url(#05354b8f38)"><g clip-path="url(#a5e3cd7d52)"><path fill="#a60404" d="M 158.828125 194.738281 L 190.777344 194.738281 L 190.777344 222.652344 L 158.828125 222.652344 Z M 158.828125 194.738281 " fill-opacity="1" fill-rule="nonzero"/></g></g><g clip-path="url(#d2d56e76ef)"><g clip-path="url(#1d903a241f)"><path fill="#171219" d="M 121.289062 150.160156 L 153.238281 150.160156 L 153.238281 178.074219 L 121.289062 178.074219 Z M 121.289062 150.160156 " fill-opacity="1" fill-rule="nonzero"/></g></g><g clip-path="url(#0cdad3d735)"><g clip-path="url(#5a5ccf705c)"><path fill="#a60404" d="M 140.058594 155.714844 L 172.007812 155.714844 L 172.007812 183.628906 L 140.058594 183.628906 Z M 140.058594 155.714844 " fill-opacity="1" fill-rule="nonzero"/></g></g><g clip-path="url(#b7a6feb8d7)"><g clip-path="url(#592e33fc35)"><path fill="#a60404" d="M 101.984375 111.449219 L 133.9375 111.449219 L 133.9375 139.363281 L 101.984375 139.363281 Z M 101.984375 111.449219 " fill-opacity="1" fill-rule="nonzero"/></g></g><g clip-path="url(#956f260b1a)"><g clip-path="url(#554da0d485)"><path fill="#a60404" d="M 120.753906 117.003906 L 152.703125 117.003906 L 152.703125 144.917969 L 120.753906 144.917969 Z M 120.753906 117.003906 " fill-opacity="1" fill-rule="nonzero"/></g></g><g clip-path="url(#a92743810f)"><g clip-path="url(#655637a3da)"><path fill="#2e2459" d="M 177.953125 189.183594 L 209.902344 189.183594 L 209.902344 217.097656 L 177.953125 217.097656 Z M 177.953125 189.183594 " fill-opacity="1" fill-rule="nonzero"/></g></g><g clip-path="url(#5879d865c2)"><g clip-path="url(#25815a7007)"><path fill="#a60404" d="M 196.722656 194.738281 L 228.671875 194.738281 L 228.671875 222.652344 L 196.722656 222.652344 Z M 196.722656 194.738281 " fill-opacity="1" fill-rule="nonzero"/></g></g><g clip-path="url(#6e7f35cd53)"><g clip-path="url(#c01bdd057a)"><path fill="#a60404" d="M 159.183594 150.160156 L 191.132812 150.160156 L 191.132812 178.074219 L 159.183594 178.074219 Z M 159.183594 150.160156 " fill-opacity="1" fill-rule="nonzero"/></g></g><g clip-path="url(#162679a020)"><g clip-path="url(#483b52e007)"><path fill="#a60404" d="M 177.953125 155.714844 L 209.902344 155.714844 L 209.902344 183.628906 L 177.953125 183.628906 Z M 177.953125 155.714844 " fill-opacity="1" fill-rule="nonzero"/></g></g><g clip-path="url(#3f3afd188a)"><g clip-path="url(#4643869f27)"><path fill="#a60404" d="M 139.878906 111.449219 L 171.832031 111.449219 L 171.832031 139.363281 L 139.878906 139.363281 Z M 139.878906 111.449219 " fill-opacity="1" fill-rule="nonzero"/></g></g><g clip-path="url(#1271ec1c17)"><g clip-path="url(#91abfcf762)"><path fill="#a60404" d="M 158.648438 117.003906 L 190.597656 117.003906 L 190.597656 144.917969 L 158.648438 144.917969 Z M 158.648438 117.003906 " fill-opacity="1" fill-rule="nonzero"/></g></g><g clip-path="url(#827fbdb5d9)"><g clip-path="url(#f608758481)"><path fill="#a60404" d="M 158.757812 306.378906 L 190.707031 306.378906 L 190.707031 334.292969 L 158.757812 334.292969 Z M 158.757812 306.378906 " fill-opacity="1" fill-rule="nonzero"/></g></g><g clip-path="url(#3d478968a3)"><g clip-path="url(#dc0752ebc1)"><path fill="#a60404" d="M 177.882812 311.933594 L 209.832031 311.933594 L 209.832031 339.847656 L 177.882812 339.847656 Z M 177.882812 311.933594 " fill-opacity="1" fill-rule="nonzero"/></g></g><g clip-path="url(#87b03a9d63)"><g clip-path="url(#ed1abe6ed7)"><path fill="#a60404" d="M 197.007812 306.378906 L 228.957031 306.378906 L 228.957031 334.292969 L 197.007812 334.292969 Z M 197.007812 306.378906 " fill-opacity="1" fill-rule="nonzero"/></g></g><g clip-path="url(#789709290e)"><g clip-path="url(#abfdded322)"><path fill="#cc5200" d="M 216.132812 311.933594 L 248.082031 311.933594 L 248.082031 339.847656 L 216.132812 339.847656 Z M 216.132812 311.933594 " fill-opacity="1" fill-rule="nonzero"/></g></g><g clip-path="url(#b716df1794)"><g clip-path="url(#d7d2f1bd91)"><path fill="#a60404" d="M 235.257812 306.378906 L 267.207031 306.378906 L 267.207031 334.292969 L 235.257812 334.292969 Z M 235.257812 306.378906 " fill-opacity="1" fill-rule="nonzero"/></g></g><g clip-path="url(#aacf57c59c)"><g clip-path="url(#84f2602358)"><path fill="#a60404" d="M 254.027344 311.933594 L 285.976562 311.933594 L 285.976562 339.847656 L 254.027344 339.847656 Z M 254.027344 311.933594 " fill-opacity="1" fill-rule="nonzero"/></g></g><g clip-path="url(#ece5e87c04)"><g clip-path="url(#8f4089ba4c)"><path fill="#a60404" d="M 139.988281 267.355469 L 171.9375 267.355469 L 171.9375 295.269531 L 139.988281 295.269531 Z M 139.988281 267.355469 " fill-opacity="1" fill-rule="nonzero"/></g></g><g clip-path="url(#4dfcb0d09a)"><g clip-path="url(#208c740611)"><path fill="#2e2459" d="M 159.113281 272.910156 L 191.0625 272.910156 L 191.0625 300.824219 L 159.113281 300.824219 Z M 159.113281 272.910156 " fill-opacity="1" fill-rule="nonzero"/></g></g><g clip-path="url(#4fccf8d7b0)"><g clip-path="url(#ac6cdacb89)"><path fill="#a60404" d="M 178.238281 267.355469 L 210.1875 267.355469 L 210.1875 295.269531 L 178.238281 295.269531 Z M 178.238281 267.355469 " fill-opacity="1" fill-rule="nonzero"/></g></g><g clip-path="url(#b99e77ea0c)"><g clip-path="url(#e00ac212f6)"><path fill="#a60404" d="M 197.363281 272.910156 L 229.3125 272.910156 L 229.3125 300.824219 L 197.363281 300.824219 Z M 197.363281 272.910156 " fill-opacity="1" fill-rule="nonzero"/></g></g><g clip-path="url(#9b281ff7f1)"><g clip-path="url(#4b8ad36af2)"><path fill="#a60404" d="M 216.488281 267.355469 L 248.4375 267.355469 L 248.4375 295.269531 L 216.488281 295.269531 Z M 216.488281 267.355469 " fill-opacity="1" fill-rule="nonzero"/></g></g><g clip-path="url(#f828cc2e45)"><g clip-path="url(#1751517772)"><path fill="#a60404" d="M 235.257812 272.910156 L 267.207031 272.910156 L 267.207031 300.824219 L 235.257812 300.824219 Z M 235.257812 272.910156 " fill-opacity="1" fill-rule="nonzero"/></g></g><g clip-path="url(#a032eb03c5)"><g clip-path="url(#9c9cc6f8e2)"><path fill="#a60404" d="M 120.683594 228.644531 L 152.632812 228.644531 L 152.632812 256.558594 L 120.683594 256.558594 Z M 120.683594 228.644531 " fill-opacity="1" fill-rule="nonzero"/></g></g><g clip-path="url(#b28bfe857c)"><g clip-path="url(#26dc7364e7)"><path fill="#a60404" d="M 139.808594 234.199219 L 171.757812 234.199219 L 171.757812 262.113281 L 139.808594 262.113281 Z M 139.808594 234.199219 " fill-opacity="1" fill-rule="nonzero"/></g></g><g clip-path="url(#fa3e8d0f7c)"><g clip-path="url(#d219aa1581)"><path fill="#a60404" d="M 158.933594 228.644531 L 190.882812 228.644531 L 190.882812 256.558594 L 158.933594 256.558594 Z M 158.933594 228.644531 " fill-opacity="1" fill-rule="nonzero"/></g></g><g clip-path="url(#2cd6f1e4e6)"><g clip-path="url(#5447e7c2b5)"><path fill="#cc5200" d="M 178.058594 234.199219 L 210.011719 234.199219 L 210.011719 262.113281 L 178.058594 262.113281 Z M 178.058594 234.199219 " fill-opacity="1" fill-rule="nonzero"/></g></g><g clip-path="url(#a38671d6bc)"><g clip-path="url(#5b8c93ae3a)"><path fill="#a60404" d="M 197.183594 228.644531 L 229.136719 228.644531 L 229.136719 256.558594 L 197.183594 256.558594 Z M 197.183594 228.644531 " fill-opacity="1" fill-rule="nonzero"/></g></g><g clip-path="url(#aa3c1d3fb6)"><g clip-path="url(#6eee9eed0f)"><path fill="#a60404" d="M 215.953125 234.199219 L 247.90625 234.199219 L 247.90625 262.113281 L 215.953125 262.113281 Z M 215.953125 234.199219 " fill-opacity="1" fill-rule="nonzero"/></g></g></svg>