<svg xmlns="http://www.w3.org/2000/svg" xmlns:xlink="http://www.w3.org/1999/xlink" width="1366" zoomAndPan="magnify" viewBox="0 0 1024.5 340.49999" height="454" preserveAspectRatio="xMidYMid meet" version="1.0"><defs><clipPath id="9f281b1550"><path d="M 0.5 0 L 1023.5 0 L 1023.5 340 L 0.5 340 Z M 0.5 0 " clip-rule="nonzero"/></clipPath><clipPath id="01355402e4"><path d="M 0.5 0 L 1023.5 0 L 1023.5 108.644531 L 0.5 108.644531 Z M 0.5 0 " clip-rule="nonzero"/></clipPath><clipPath id="37d3a0d639"><path d="M 0.5 77.980469 L 17.472656 77.980469 L 17.472656 105.894531 L 0.5 105.894531 Z M 0.5 77.980469 " clip-rule="nonzero"/></clipPath><clipPath id="455ac97599"><path d="M 1.476562 77.980469 L 17.425781 105.894531 L -14.476562 105.894531 Z M 1.476562 77.980469 " clip-rule="nonzero"/></clipPath><clipPath id="035576ac62"><path d="M 4.648438 72.425781 L 36.597656 72.425781 L 36.597656 100.339844 L 4.648438 100.339844 Z M 4.648438 72.425781 " clip-rule="nonzero"/></clipPath><clipPath id="c4a8e4945d"><path d="M 20.601562 100.339844 L 36.550781 72.425781 L 4.648438 72.425781 Z M 20.601562 100.339844 " clip-rule="nonzero"/></clipPath><clipPath id="3b83f48b4a"><path d="M 23.773438 77.980469 L 55.722656 77.980469 L 55.722656 105.894531 L 23.773438 105.894531 Z M 23.773438 77.980469 " clip-rule="nonzero"/></clipPath><clipPath id="ea3495feef"><path d="M 39.726562 77.980469 L 55.675781 105.894531 L 23.773438 105.894531 Z M 39.726562 77.980469 " clip-rule="nonzero"/></clipPath><clipPath id="c4764b782b"><path d="M 42.898438 72.425781 L 74.847656 72.425781 L 74.847656 100.339844 L 42.898438 100.339844 Z M 42.898438 72.425781 " clip-rule="nonzero"/></clipPath><clipPath id="48c6ef005d"><path d="M 58.851562 100.339844 L 74.800781 72.425781 L 42.898438 72.425781 Z M 58.851562 100.339844 " clip-rule="nonzero"/></clipPath><clipPath id="cbdb879376"><path d="M 62.023438 77.980469 L 93.976562 77.980469 L 93.976562 105.894531 L 62.023438 105.894531 Z M 62.023438 77.980469 " clip-rule="nonzero"/></clipPath><clipPath id="f253dd753a"><path d="M 77.976562 77.980469 L 93.929688 105.894531 L 62.023438 105.894531 Z M 77.976562 77.980469 " clip-rule="nonzero"/></clipPath><clipPath id="3c8d845752"><path d="M 81.148438 72.425781 L 113.101562 72.425781 L 113.101562 100.339844 L 81.148438 100.339844 Z M 81.148438 72.425781 " clip-rule="nonzero"/></clipPath><clipPath id="86e6d37a34"><path d="M 97.101562 100.339844 L 113.054688 72.425781 L 81.148438 72.425781 Z M 97.101562 100.339844 " clip-rule="nonzero"/></clipPath><clipPath id="306bb3af7d"><path d="M 100.277344 77.980469 L 132.226562 77.980469 L 132.226562 105.894531 L 100.277344 105.894531 Z M 100.277344 77.980469 " clip-rule="nonzero"/></clipPath><clipPath id="b0049cec5d"><path d="M 116.226562 77.980469 L 132.179688 105.894531 L 100.277344 105.894531 Z M 116.226562 77.980469 " clip-rule="nonzero"/></clipPath><clipPath id="2320eb10f6"><path d="M 119.402344 72.425781 L 151.351562 72.425781 L 151.351562 100.339844 L 119.402344 100.339844 Z M 119.402344 72.425781 " clip-rule="nonzero"/></clipPath><clipPath id="9233ed4020"><path d="M 135.351562 100.339844 L 151.304688 72.425781 L 119.402344 72.425781 Z M 135.351562 100.339844 " clip-rule="nonzero"/></clipPath><clipPath id="07f1364581"><path d="M 138.167969 77.980469 L 170.121094 77.980469 L 170.121094 105.894531 L 138.167969 105.894531 Z M 138.167969 77.980469 " clip-rule="nonzero"/></clipPath><clipPath id="f2a95fc7f4"><path d="M 154.121094 77.980469 L 170.074219 105.894531 L 138.167969 105.894531 Z M 154.121094 77.980469 " clip-rule="nonzero"/></clipPath><clipPath id="e7b6a24546"><path d="M 0.5 33.402344 L 17.828125 33.402344 L 17.828125 61.316406 L 0.5 61.316406 Z M 0.5 33.402344 " clip-rule="nonzero"/></clipPath><clipPath id="649c03c2f0"><path d="M 1.832031 61.316406 L 17.78125 33.402344 L -14.121094 33.402344 Z M 1.832031 61.316406 " clip-rule="nonzero"/></clipPath><clipPath id="d7c9c5d6f5"><path d="M 5.003906 38.957031 L 36.953125 38.957031 L 36.953125 66.871094 L 5.003906 66.871094 Z M 5.003906 38.957031 " clip-rule="nonzero"/></clipPath><clipPath id="e1705f1c1a"><path d="M 20.957031 38.957031 L 36.910156 66.871094 L 5.003906 66.871094 Z M 20.957031 38.957031 " clip-rule="nonzero"/></clipPath><clipPath id="a5c8ddfe07"><path d="M 24.128906 33.402344 L 56.082031 33.402344 L 56.082031 61.316406 L 24.128906 61.316406 Z M 24.128906 33.402344 " clip-rule="nonzero"/></clipPath><clipPath id="d44382cb78"><path d="M 40.082031 61.316406 L 56.035156 33.402344 L 24.128906 33.402344 Z M 40.082031 61.316406 " clip-rule="nonzero"/></clipPath><clipPath id="bbf2f08c8b"><path d="M 43.253906 38.957031 L 75.207031 38.957031 L 75.207031 66.871094 L 43.253906 66.871094 Z M 43.253906 38.957031 " clip-rule="nonzero"/></clipPath><clipPath id="746bf4da8a"><path d="M 59.207031 38.957031 L 75.160156 66.871094 L 43.253906 66.871094 Z M 59.207031 38.957031 " clip-rule="nonzero"/></clipPath><clipPath id="79c552d705"><path d="M 62.382812 33.402344 L 94.332031 33.402344 L 94.332031 61.316406 L 62.382812 61.316406 Z M 62.382812 33.402344 " clip-rule="nonzero"/></clipPath><clipPath id="29764162c6"><path d="M 78.332031 61.316406 L 94.285156 33.402344 L 62.382812 33.402344 Z M 78.332031 61.316406 " clip-rule="nonzero"/></clipPath><clipPath id="fc2b9d1de1"><path d="M 81.507812 38.957031 L 113.457031 38.957031 L 113.457031 66.871094 L 81.507812 66.871094 Z M 81.507812 38.957031 " clip-rule="nonzero"/></clipPath><clipPath id="4efb13f923"><path d="M 97.457031 38.957031 L 113.410156 66.871094 L 81.507812 66.871094 Z M 97.457031 38.957031 " clip-rule="nonzero"/></clipPath><clipPath id="a87927d18f"><path d="M 100.632812 33.402344 L 132.582031 33.402344 L 132.582031 61.316406 L 100.632812 61.316406 Z M 100.632812 33.402344 " clip-rule="nonzero"/></clipPath><clipPath id="4b883bd9a3"><path d="M 116.582031 61.316406 L 132.535156 33.402344 L 100.632812 33.402344 Z M 116.582031 61.316406 " clip-rule="nonzero"/></clipPath><clipPath id="eb36926cef"><path d="M 119.402344 38.957031 L 151.351562 38.957031 L 151.351562 66.871094 L 119.402344 66.871094 Z M 119.402344 38.957031 " clip-rule="nonzero"/></clipPath><clipPath id="a619142b60"><path d="M 135.351562 38.957031 L 151.304688 66.871094 L 119.402344 66.871094 Z M 135.351562 38.957031 " clip-rule="nonzero"/></clipPath><clipPath id="30798d744c"><path d="M 0.5 0.246094 L 17.652344 0.246094 L 17.652344 28.160156 L 0.5 28.160156 Z M 0.5 0.246094 " clip-rule="nonzero"/></clipPath><clipPath id="3524f73a5f"><path d="M 1.652344 0.246094 L 17.605469 28.160156 L -14.296875 28.160156 Z M 1.652344 0.246094 " clip-rule="nonzero"/></clipPath><clipPath id="f1a2ff1be4"><path d="M 4.828125 0 L 36.777344 0 L 36.777344 22.605469 L 4.828125 22.605469 Z M 4.828125 0 " clip-rule="nonzero"/></clipPath><clipPath id="be64e38e94"><path d="M 20.777344 22.605469 L 36.730469 -5.308594 L 4.828125 -5.308594 Z M 20.777344 22.605469 " clip-rule="nonzero"/></clipPath><clipPath id="c044b085d1"><path d="M 23.953125 0.246094 L 55.902344 0.246094 L 55.902344 28.160156 L 23.953125 28.160156 Z M 23.953125 0.246094 " clip-rule="nonzero"/></clipPath><clipPath id="022f5ed0b2"><path d="M 39.902344 0.246094 L 55.855469 28.160156 L 23.953125 28.160156 Z M 39.902344 0.246094 " clip-rule="nonzero"/></clipPath><clipPath id="1c148c2994"><path d="M 43.078125 0 L 75 0 L 75 22.605469 L 43.078125 22.605469 Z M 43.078125 0 " clip-rule="nonzero"/></clipPath><clipPath id="640e7c189b"><path d="M 59.027344 22.605469 L 74.980469 -5.308594 L 43.078125 -5.308594 Z M 59.027344 22.605469 " clip-rule="nonzero"/></clipPath><clipPath id="eb4c766057"><path d="M 62.203125 0.246094 L 94.152344 0.246094 L 94.152344 28.160156 L 62.203125 28.160156 Z M 62.203125 0.246094 " clip-rule="nonzero"/></clipPath><clipPath id="d040f059ec"><path d="M 78.15625 0.246094 L 94.105469 28.160156 L 62.203125 28.160156 Z M 78.15625 0.246094 " clip-rule="nonzero"/></clipPath><clipPath id="3ac599ae7f"><path d="M 81.328125 0 L 113.277344 0 L 113.277344 22.605469 L 81.328125 22.605469 Z M 81.328125 0 " clip-rule="nonzero"/></clipPath><clipPath id="29c7097846"><path d="M 97.28125 22.605469 L 113.230469 -5.308594 L 81.328125 -5.308594 Z M 97.28125 22.605469 " clip-rule="nonzero"/></clipPath><clipPath id="89eb194a3c"><path d="M 100.097656 0.246094 L 132 0.246094 L 132 28.160156 L 100.097656 28.160156 Z M 100.097656 0.246094 " clip-rule="nonzero"/></clipPath><clipPath id="fda4761327"><path d="M 116.050781 0.246094 L 132 28.160156 L 100.097656 28.160156 Z M 116.050781 0.246094 " clip-rule="nonzero"/></clipPath><clipPath id="e7d862221d"><path d="M 0.5 188.871094 L 18.433594 188.871094 L 18.433594 216.785156 L 0.5 216.785156 Z M 0.5 188.871094 " clip-rule="nonzero"/></clipPath><clipPath id="401eb36983"><path d="M 2.4375 216.785156 L 18.386719 188.871094 L -13.515625 188.871094 Z M 2.4375 216.785156 " clip-rule="nonzero"/></clipPath><clipPath id="7f3fad995d"><path d="M 5.609375 194.425781 L 37.558594 194.425781 L 37.558594 222.339844 L 5.609375 222.339844 Z M 5.609375 194.425781 " clip-rule="nonzero"/></clipPath><clipPath id="c04890bc4b"><path d="M 21.5625 194.425781 L 37.511719 222.339844 L 5.609375 222.339844 Z M 21.5625 194.425781 " clip-rule="nonzero"/></clipPath><clipPath id="7e93ac1163"><path d="M 24.734375 188.871094 L 56.6875 188.871094 L 56.6875 216.785156 L 24.734375 216.785156 Z M 24.734375 188.871094 " clip-rule="nonzero"/></clipPath><clipPath id="8b617e8f0f"><path d="M 40.6875 216.785156 L 56.640625 188.871094 L 24.734375 188.871094 Z M 40.6875 216.785156 " clip-rule="nonzero"/></clipPath><clipPath id="c51f1c76f4"><path d="M 43.859375 194.425781 L 75.8125 194.425781 L 75.8125 222.339844 L 43.859375 222.339844 Z M 43.859375 194.425781 " clip-rule="nonzero"/></clipPath><clipPath id="c9fc1d4aed"><path d="M 59.8125 194.425781 L 75.765625 222.339844 L 43.859375 222.339844 Z M 59.8125 194.425781 " clip-rule="nonzero"/></clipPath><clipPath id="6e962b5cd1"><path d="M 62.988281 188.871094 L 94.9375 188.871094 L 94.9375 216.785156 L 62.988281 216.785156 Z M 62.988281 188.871094 " clip-rule="nonzero"/></clipPath><clipPath id="7d1479e80a"><path d="M 78.9375 216.785156 L 94.890625 188.871094 L 62.988281 188.871094 Z M 78.9375 216.785156 " clip-rule="nonzero"/></clipPath><clipPath id="1cf48ecf72"><path d="M 82.113281 194.425781 L 114.0625 194.425781 L 114.0625 222.339844 L 82.113281 222.339844 Z M 82.113281 194.425781 " clip-rule="nonzero"/></clipPath><clipPath id="7bb41adbca"><path d="M 98.0625 194.425781 L 114.015625 222.339844 L 82.113281 222.339844 Z M 98.0625 194.425781 " clip-rule="nonzero"/></clipPath><clipPath id="305c0ab120"><path d="M 101.238281 188.871094 L 133.1875 188.871094 L 133.1875 216.785156 L 101.238281 216.785156 Z M 101.238281 188.871094 " clip-rule="nonzero"/></clipPath><clipPath id="289b7652d2"><path d="M 117.1875 216.785156 L 133.140625 188.871094 L 101.238281 188.871094 Z M 117.1875 216.785156 " clip-rule="nonzero"/></clipPath><clipPath id="8d6c6fc31b"><path d="M 120.007812 194.425781 L 151.957031 194.425781 L 151.957031 222.339844 L 120.007812 222.339844 Z M 120.007812 194.425781 " clip-rule="nonzero"/></clipPath><clipPath id="5c2e9883b8"><path d="M 135.957031 194.425781 L 151.910156 222.339844 L 120.007812 222.339844 Z M 135.957031 194.425781 " clip-rule="nonzero"/></clipPath><clipPath id="edb30afad3"><path d="M 0.5 155.402344 L 18.792969 155.402344 L 18.792969 183.316406 L 0.5 183.316406 Z M 0.5 155.402344 " clip-rule="nonzero"/></clipPath><clipPath id="3b6d5fe0c9"><path d="M 2.792969 155.402344 L 18.746094 183.316406 L -13.160156 183.316406 Z M 2.792969 155.402344 " clip-rule="nonzero"/></clipPath><clipPath id="36373aa20f"><path d="M 5.964844 149.847656 L 37.917969 149.847656 L 37.917969 177.761719 L 5.964844 177.761719 Z M 5.964844 149.847656 " clip-rule="nonzero"/></clipPath><clipPath id="975b870d88"><path d="M 21.917969 177.761719 L 37.871094 149.847656 L 5.964844 149.847656 Z M 21.917969 177.761719 " clip-rule="nonzero"/></clipPath><clipPath id="2752ef5c62"><path d="M 25.09375 155.402344 L 57 155.402344 L 57 183.316406 L 25.09375 183.316406 Z M 25.09375 155.402344 " clip-rule="nonzero"/></clipPath><clipPath id="ee5ac9d577"><path d="M 41.042969 155.402344 L 56.996094 183.316406 L 25.09375 183.316406 Z M 41.042969 155.402344 " clip-rule="nonzero"/></clipPath><clipPath id="304b9db044"><path d="M 44.21875 149.847656 L 76.167969 149.847656 L 76.167969 177.761719 L 44.21875 177.761719 Z M 44.21875 149.847656 " clip-rule="nonzero"/></clipPath><clipPath id="74ce712c47"><path d="M 60.167969 177.761719 L 76.121094 149.847656 L 44.21875 149.847656 Z M 60.167969 177.761719 " clip-rule="nonzero"/></clipPath><clipPath id="3a39487d8f"><path d="M 63.34375 155.402344 L 95.292969 155.402344 L 95.292969 183.316406 L 63.34375 183.316406 Z M 63.34375 155.402344 " clip-rule="nonzero"/></clipPath><clipPath id="1345a9a64b"><path d="M 79.292969 155.402344 L 95.246094 183.316406 L 63.34375 183.316406 Z M 79.292969 155.402344 " clip-rule="nonzero"/></clipPath><clipPath id="b48eff6195"><path d="M 82.46875 149.847656 L 114.417969 149.847656 L 114.417969 177.761719 L 82.46875 177.761719 Z M 82.46875 149.847656 " clip-rule="nonzero"/></clipPath><clipPath id="406b7b2b14"><path d="M 98.417969 177.761719 L 114.371094 149.847656 L 82.46875 149.847656 Z M 98.417969 177.761719 " clip-rule="nonzero"/></clipPath><clipPath id="2096e2ccaa"><path d="M 101.238281 155.402344 L 133.1875 155.402344 L 133.1875 183.316406 L 101.238281 183.316406 Z M 101.238281 155.402344 " clip-rule="nonzero"/></clipPath><clipPath id="ab86672a3b"><path d="M 117.1875 155.402344 L 133.140625 183.316406 L 101.238281 183.316406 Z M 117.1875 155.402344 " clip-rule="nonzero"/></clipPath><clipPath id="501d1304bb"><path d="M 5.789062 116.691406 L 37.738281 116.691406 L 37.738281 144.605469 L 5.789062 144.605469 Z M 5.789062 116.691406 " clip-rule="nonzero"/></clipPath><clipPath id="c3884caf05"><path d="M 21.738281 116.691406 L 37.691406 144.605469 L 5.789062 144.605469 Z M 21.738281 116.691406 " clip-rule="nonzero"/></clipPath><clipPath id="0a802a327c"><path d="M 24.914062 111.136719 L 56.863281 111.136719 L 56.863281 139.050781 L 24.914062 139.050781 Z M 24.914062 111.136719 " clip-rule="nonzero"/></clipPath><clipPath id="62d7296b84"><path d="M 40.867188 139.050781 L 56.816406 111.136719 L 24.914062 111.136719 Z M 40.867188 139.050781 " clip-rule="nonzero"/></clipPath><clipPath id="28a1f3e0b7"><path d="M 44.039062 116.691406 L 75.988281 116.691406 L 75.988281 144.605469 L 44.039062 144.605469 Z M 44.039062 116.691406 " clip-rule="nonzero"/></clipPath><clipPath id="d94d03ac58"><path d="M 59.992188 116.691406 L 75.941406 144.605469 L 44.039062 144.605469 Z M 59.992188 116.691406 " clip-rule="nonzero"/></clipPath><clipPath id="6a0a6ccb27"><path d="M 63.164062 111.136719 L 95.113281 111.136719 L 95.113281 139.050781 L 63.164062 139.050781 Z M 63.164062 111.136719 " clip-rule="nonzero"/></clipPath><clipPath id="45ace040f1"><path d="M 79.117188 139.050781 L 95.066406 111.136719 L 63.164062 111.136719 Z M 79.117188 139.050781 " clip-rule="nonzero"/></clipPath><clipPath id="84e31d7570"><path d="M 81.933594 116.691406 L 113.882812 116.691406 L 113.882812 144.605469 L 81.933594 144.605469 Z M 81.933594 116.691406 " clip-rule="nonzero"/></clipPath><clipPath id="2e392aa876"><path d="M 97.886719 116.691406 L 113.835938 144.605469 L 81.933594 144.605469 Z M 97.886719 116.691406 " clip-rule="nonzero"/></clipPath><clipPath id="bb7800baa9"><path d="M 0.5 310.871094 L 18 310.871094 L 18 338.789062 L 0.5 338.789062 Z M 0.5 310.871094 " clip-rule="nonzero"/></clipPath><clipPath id="8c5d364f13"><path d="M 2.007812 310.871094 L 17.960938 338.789062 L -13.941406 338.789062 Z M 2.007812 310.871094 " clip-rule="nonzero"/></clipPath><clipPath id="7b028c3e25"><path d="M 5.183594 305.320312 L 37.132812 305.320312 L 37.132812 333.234375 L 5.183594 333.234375 Z M 5.183594 305.320312 " clip-rule="nonzero"/></clipPath><clipPath id="45b6898b00"><path d="M 21.136719 333.234375 L 37.085938 305.320312 L 5.183594 305.320312 Z M 21.136719 333.234375 " clip-rule="nonzero"/></clipPath><clipPath id="b8e5c1fdb3"><path d="M 24.308594 310.871094 L 56.257812 310.871094 L 56.257812 338.789062 L 24.308594 338.789062 Z M 24.308594 310.871094 " clip-rule="nonzero"/></clipPath><clipPath id="6031991e25"><path d="M 40.261719 310.871094 L 56.210938 338.789062 L 24.308594 338.789062 Z M 40.261719 310.871094 " clip-rule="nonzero"/></clipPath><clipPath id="ac6ee001c8"><path d="M 43.433594 305.320312 L 75.382812 305.320312 L 75.382812 333.234375 L 43.433594 333.234375 Z M 43.433594 305.320312 " clip-rule="nonzero"/></clipPath><clipPath id="dcdb733849"><path d="M 59.386719 333.234375 L 75.335938 305.320312 L 43.433594 305.320312 Z M 59.386719 333.234375 " clip-rule="nonzero"/></clipPath><clipPath id="88286615d9"><path d="M 62.558594 310.871094 L 94.507812 310.871094 L 94.507812 338.789062 L 62.558594 338.789062 Z M 62.558594 310.871094 " clip-rule="nonzero"/></clipPath><clipPath id="e2f8c3b209"><path d="M 78.511719 310.871094 L 94.460938 338.789062 L 62.558594 338.789062 Z M 78.511719 310.871094 " clip-rule="nonzero"/></clipPath><clipPath id="e32ce6bd27"><path d="M 81.683594 305.320312 L 113.632812 305.320312 L 113.632812 333.234375 L 81.683594 333.234375 Z M 81.683594 305.320312 " clip-rule="nonzero"/></clipPath><clipPath id="449771ee19"><path d="M 97.636719 333.234375 L 113.585938 305.320312 L 81.683594 305.320312 Z M 97.636719 333.234375 " clip-rule="nonzero"/></clipPath><clipPath id="705f6e51a5"><path d="M 100.808594 310.871094 L 132.757812 310.871094 L 132.757812 338.789062 L 100.808594 338.789062 Z M 100.808594 310.871094 " clip-rule="nonzero"/></clipPath><clipPath id="2154fa582e"><path d="M 116.761719 310.871094 L 132.714844 338.789062 L 100.808594 338.789062 Z M 116.761719 310.871094 " clip-rule="nonzero"/></clipPath><clipPath id="4905d63d1d"><path d="M 119.933594 305.320312 L 151.886719 305.320312 L 151.886719 333.234375 L 119.933594 333.234375 Z M 119.933594 305.320312 " clip-rule="nonzero"/></clipPath><clipPath id="b2f2e86c5e"><path d="M 135.886719 333.234375 L 151.839844 305.320312 L 119.933594 305.320312 Z M 135.886719 333.234375 " clip-rule="nonzero"/></clipPath><clipPath id="032334ce07"><path d="M 138.703125 310.871094 L 170.652344 310.871094 L 170.652344 338.789062 L 138.703125 338.789062 Z M 138.703125 310.871094 " clip-rule="nonzero"/></clipPath><clipPath id="1424ef7a7b"><path d="M 154.65625 310.871094 L 170.605469 338.789062 L 138.703125 338.789062 Z M 154.65625 310.871094 " clip-rule="nonzero"/></clipPath><clipPath id="6674590a36"><path d="M 0.5 266.296875 L 18.363281 266.296875 L 18.363281 294.210938 L 0.5 294.210938 Z M 0.5 266.296875 " clip-rule="nonzero"/></clipPath><clipPath id="cb1ed90c12"><path d="M 2.367188 294.210938 L 18.316406 266.296875 L -13.585938 266.296875 Z M 2.367188 294.210938 " clip-rule="nonzero"/></clipPath><clipPath id="ff74958b23"><path d="M 5.539062 271.847656 L 37.488281 271.847656 L 37.488281 299.765625 L 5.539062 299.765625 Z M 5.539062 271.847656 " clip-rule="nonzero"/></clipPath><clipPath id="a0b7728993"><path d="M 21.492188 271.847656 L 37.441406 299.765625 L 5.539062 299.765625 Z M 21.492188 271.847656 " clip-rule="nonzero"/></clipPath><clipPath id="2667e1741c"><path d="M 24.664062 266.296875 L 56.613281 266.296875 L 56.613281 294.210938 L 24.664062 294.210938 Z M 24.664062 266.296875 " clip-rule="nonzero"/></clipPath><clipPath id="a8d5242178"><path d="M 40.617188 294.210938 L 56.566406 266.296875 L 24.664062 266.296875 Z M 40.617188 294.210938 " clip-rule="nonzero"/></clipPath><clipPath id="4675821c24"><path d="M 43.789062 271.847656 L 75.738281 271.847656 L 75.738281 299.765625 L 43.789062 299.765625 Z M 43.789062 271.847656 " clip-rule="nonzero"/></clipPath><clipPath id="2c9ae33b1e"><path d="M 59.742188 271.847656 L 75.695312 299.765625 L 43.789062 299.765625 Z M 59.742188 271.847656 " clip-rule="nonzero"/></clipPath><clipPath id="18b0c5fc7f"><path d="M 62.914062 266.296875 L 94.867188 266.296875 L 94.867188 294.210938 L 62.914062 294.210938 Z M 62.914062 266.296875 " clip-rule="nonzero"/></clipPath><clipPath id="11bc2b79cc"><path d="M 78.867188 294.210938 L 94.820312 266.296875 L 62.914062 266.296875 Z M 78.867188 294.210938 " clip-rule="nonzero"/></clipPath><clipPath id="1ee4b07b71"><path d="M 82.039062 271.847656 L 113.992188 271.847656 L 113.992188 299.765625 L 82.039062 299.765625 Z M 82.039062 271.847656 " clip-rule="nonzero"/></clipPath><clipPath id="7c1aaa05fd"><path d="M 97.992188 271.847656 L 113.945312 299.765625 L 82.039062 299.765625 Z M 97.992188 271.847656 " clip-rule="nonzero"/></clipPath><clipPath id="822a3c56ea"><path d="M 101.167969 266.296875 L 133.117188 266.296875 L 133.117188 294.210938 L 101.167969 294.210938 Z M 101.167969 266.296875 " clip-rule="nonzero"/></clipPath><clipPath id="889a0385d2"><path d="M 117.117188 294.210938 L 133.070312 266.296875 L 101.167969 266.296875 Z M 117.117188 294.210938 " clip-rule="nonzero"/></clipPath><clipPath id="cf904a58c2"><path d="M 119.933594 271.847656 L 151.886719 271.847656 L 151.886719 299.765625 L 119.933594 299.765625 Z M 119.933594 271.847656 " clip-rule="nonzero"/></clipPath><clipPath id="4eee2fb30c"><path d="M 135.886719 271.847656 L 151.839844 299.765625 L 119.933594 299.765625 Z M 135.886719 271.847656 " clip-rule="nonzero"/></clipPath><clipPath id="dd21419df2"><path d="M 0.5 233.136719 L 18.1875 233.136719 L 18.1875 261.054688 L 0.5 261.054688 Z M 0.5 233.136719 " clip-rule="nonzero"/></clipPath><clipPath id="eb96ccedfa"><path d="M 2.1875 233.136719 L 18.140625 261.054688 L -13.765625 261.054688 Z M 2.1875 233.136719 " clip-rule="nonzero"/></clipPath><clipPath id="9a77b48ceb"><path d="M 5.363281 227.582031 L 37.3125 227.582031 L 37.3125 255.5 L 5.363281 255.5 Z M 5.363281 227.582031 " clip-rule="nonzero"/></clipPath><clipPath id="7a33d9f408"><path d="M 21.3125 255.5 L 37.265625 227.582031 L 5.363281 227.582031 Z M 21.3125 255.5 " clip-rule="nonzero"/></clipPath><clipPath id="83f23744d9"><path d="M 24.488281 233.136719 L 56.4375 233.136719 L 56.4375 261.054688 L 24.488281 261.054688 Z M 24.488281 233.136719 " clip-rule="nonzero"/></clipPath><clipPath id="fa4154c2b4"><path d="M 40.4375 233.136719 L 56.390625 261.054688 L 24.488281 261.054688 Z M 40.4375 233.136719 " clip-rule="nonzero"/></clipPath><clipPath id="0ee9d31fb3"><path d="M 43.613281 227.582031 L 75.5625 227.582031 L 75.5625 255.5 L 43.613281 255.5 Z M 43.613281 227.582031 " clip-rule="nonzero"/></clipPath><clipPath id="354ea3079c"><path d="M 59.5625 255.5 L 75.515625 227.582031 L 43.613281 227.582031 Z M 59.5625 255.5 " clip-rule="nonzero"/></clipPath><clipPath id="65ec888c1f"><path d="M 62.738281 233.136719 L 94.6875 233.136719 L 94.6875 261.054688 L 62.738281 261.054688 Z M 62.738281 233.136719 " clip-rule="nonzero"/></clipPath><clipPath id="02d717c1f0"><path d="M 78.6875 233.136719 L 94.640625 261.054688 L 62.738281 261.054688 Z M 78.6875 233.136719 " clip-rule="nonzero"/></clipPath><clipPath id="6f19c86f0b"><path d="M 81.863281 227.582031 L 113.8125 227.582031 L 113.8125 255.5 L 81.863281 255.5 Z M 81.863281 227.582031 " clip-rule="nonzero"/></clipPath><clipPath id="8faef4030c"><path d="M 97.8125 255.5 L 113.765625 227.582031 L 81.863281 227.582031 Z M 97.8125 255.5 " clip-rule="nonzero"/></clipPath><clipPath id="5395a65ff2"><path d="M 100.632812 233.136719 L 132.582031 233.136719 L 132.582031 261.054688 L 100.632812 261.054688 Z M 100.632812 233.136719 " clip-rule="nonzero"/></clipPath><clipPath id="a8ddc9cbef"><path d="M 116.582031 233.136719 L 132.535156 261.054688 L 100.632812 261.054688 Z M 116.582031 233.136719 " clip-rule="nonzero"/></clipPath><clipPath id="96e27afc85"><path d="M 0.5 111.136719 L 18.613281 111.136719 L 18.613281 139.050781 L 0.5 139.050781 Z M 0.5 111.136719 " clip-rule="nonzero"/></clipPath><clipPath id="aa5bf51b07"><path d="M 2.613281 139.050781 L 18.566406 111.136719 L -13.335938 111.136719 Z M 2.613281 139.050781 " clip-rule="nonzero"/></clipPath><clipPath id="424c1df300"><path d="M 140.058594 189.183594 L 172 189.183594 L 172 217.097656 L 140.058594 217.097656 Z M 140.058594 189.183594 " clip-rule="nonzero"/></clipPath><clipPath id="188602fdd7"><path d="M 156.011719 217.097656 L 171.960938 189.183594 L 140.058594 189.183594 Z M 156.011719 217.097656 " clip-rule="nonzero"/></clipPath><clipPath id="102f3cc118"><path d="M 158.828125 194.738281 L 190.777344 194.738281 L 190.777344 222.652344 L 158.828125 222.652344 Z M 158.828125 194.738281 " clip-rule="nonzero"/></clipPath><clipPath id="0c3c514e0c"><path d="M 174.777344 194.738281 L 190.730469 222.652344 L 158.828125 222.652344 Z M 174.777344 194.738281 " clip-rule="nonzero"/></clipPath><clipPath id="f521c45827"><path d="M 121.289062 150.160156 L 153.238281 150.160156 L 153.238281 178.074219 L 121.289062 178.074219 Z M 121.289062 150.160156 " clip-rule="nonzero"/></clipPath><clipPath id="61a3786c70"><path d="M 137.242188 178.074219 L 153.191406 150.160156 L 121.289062 150.160156 Z M 137.242188 178.074219 " clip-rule="nonzero"/></clipPath><clipPath id="473da59c2d"><path d="M 140.058594 155.714844 L 172 155.714844 L 172 183.628906 L 140.058594 183.628906 Z M 140.058594 155.714844 " clip-rule="nonzero"/></clipPath><clipPath id="f817b4d3ad"><path d="M 156.011719 155.714844 L 171.960938 183.628906 L 140.058594 183.628906 Z M 156.011719 155.714844 " clip-rule="nonzero"/></clipPath><clipPath id="d781943afd"><path d="M 101.984375 111.449219 L 133.9375 111.449219 L 133.9375 139.363281 L 101.984375 139.363281 Z M 101.984375 111.449219 " clip-rule="nonzero"/></clipPath><clipPath id="27debbb414"><path d="M 117.9375 139.363281 L 133.890625 111.449219 L 101.984375 111.449219 Z M 117.9375 139.363281 " clip-rule="nonzero"/></clipPath><clipPath id="1fb4713164"><path d="M 120.753906 117.003906 L 152.703125 117.003906 L 152.703125 144.917969 L 120.753906 144.917969 Z M 120.753906 117.003906 " clip-rule="nonzero"/></clipPath><clipPath id="82fb56fcd1"><path d="M 136.707031 117.003906 L 152.65625 144.917969 L 120.753906 144.917969 Z M 136.707031 117.003906 " clip-rule="nonzero"/></clipPath><clipPath id="e26a1dee42"><path d="M 177.953125 189.183594 L 209.902344 189.183594 L 209.902344 217.097656 L 177.953125 217.097656 Z M 177.953125 189.183594 " clip-rule="nonzero"/></clipPath><clipPath id="06dfd3963f"><path d="M 193.90625 217.097656 L 209.855469 189.183594 L 177.953125 189.183594 Z M 193.90625 217.097656 " clip-rule="nonzero"/></clipPath><clipPath id="1f6951450c"><path d="M 196.722656 194.738281 L 228.671875 194.738281 L 228.671875 222.652344 L 196.722656 222.652344 Z M 196.722656 194.738281 " clip-rule="nonzero"/></clipPath><clipPath id="269a6e64fc"><path d="M 212.671875 194.738281 L 228.625 222.652344 L 196.722656 222.652344 Z M 212.671875 194.738281 " clip-rule="nonzero"/></clipPath><clipPath id="ca4e17544c"><path d="M 159.183594 150.160156 L 191.132812 150.160156 L 191.132812 178.074219 L 159.183594 178.074219 Z M 159.183594 150.160156 " clip-rule="nonzero"/></clipPath><clipPath id="4d1bc1ae5e"><path d="M 175.136719 178.074219 L 191.085938 150.160156 L 159.183594 150.160156 Z M 175.136719 178.074219 " clip-rule="nonzero"/></clipPath><clipPath id="948e449121"><path d="M 177.953125 155.714844 L 209.902344 155.714844 L 209.902344 183.628906 L 177.953125 183.628906 Z M 177.953125 155.714844 " clip-rule="nonzero"/></clipPath><clipPath id="ecf7c44158"><path d="M 193.90625 155.714844 L 209.855469 183.628906 L 177.953125 183.628906 Z M 193.90625 155.714844 " clip-rule="nonzero"/></clipPath><clipPath id="775d2afef1"><path d="M 139.878906 111.449219 L 171.832031 111.449219 L 171.832031 139.363281 L 139.878906 139.363281 Z M 139.878906 111.449219 " clip-rule="nonzero"/></clipPath><clipPath id="9784643e7e"><path d="M 155.832031 139.363281 L 171.785156 111.449219 L 139.878906 111.449219 Z M 155.832031 139.363281 " clip-rule="nonzero"/></clipPath><clipPath id="5434cebeb3"><path d="M 158.648438 117.003906 L 190.597656 117.003906 L 190.597656 144.917969 L 158.648438 144.917969 Z M 158.648438 117.003906 " clip-rule="nonzero"/></clipPath><clipPath id="c1cdde9d54"><path d="M 174.601562 117.003906 L 190.550781 144.917969 L 158.648438 144.917969 Z M 174.601562 117.003906 " clip-rule="nonzero"/></clipPath><clipPath id="4c0fe16f10"><path d="M 158.757812 306.378906 L 190.707031 306.378906 L 190.707031 334.292969 L 158.757812 334.292969 Z M 158.757812 306.378906 " clip-rule="nonzero"/></clipPath><clipPath id="d35f28a86f"><path d="M 174.707031 334.292969 L 190.660156 306.378906 L 158.757812 306.378906 Z M 174.707031 334.292969 " clip-rule="nonzero"/></clipPath><clipPath id="a41b586a21"><path d="M 177.882812 311.933594 L 209.832031 311.933594 L 209.832031 339.847656 L 177.882812 339.847656 Z M 177.882812 311.933594 " clip-rule="nonzero"/></clipPath><clipPath id="056b68fb88"><path d="M 193.832031 311.933594 L 209.785156 339.847656 L 177.882812 339.847656 Z M 193.832031 311.933594 " clip-rule="nonzero"/></clipPath><clipPath id="2f027690a8"><path d="M 197.007812 306.378906 L 228.957031 306.378906 L 228.957031 334.292969 L 197.007812 334.292969 Z M 197.007812 306.378906 " clip-rule="nonzero"/></clipPath><clipPath id="289731c22f"><path d="M 212.957031 334.292969 L 228.910156 306.378906 L 197.007812 306.378906 Z M 212.957031 334.292969 " clip-rule="nonzero"/></clipPath><clipPath id="eacd0334d3"><path d="M 216.132812 311.933594 L 248.082031 311.933594 L 248.082031 339.847656 L 216.132812 339.847656 Z M 216.132812 311.933594 " clip-rule="nonzero"/></clipPath><clipPath id="55bbf7436b"><path d="M 232.085938 311.933594 L 248.035156 339.847656 L 216.132812 339.847656 Z M 232.085938 311.933594 " clip-rule="nonzero"/></clipPath><clipPath id="9b39f56d41"><path d="M 235.257812 306.378906 L 267.207031 306.378906 L 267.207031 334.292969 L 235.257812 334.292969 Z M 235.257812 306.378906 " clip-rule="nonzero"/></clipPath><clipPath id="ee5fa443ee"><path d="M 251.210938 334.292969 L 267.160156 306.378906 L 235.257812 306.378906 Z M 251.210938 334.292969 " clip-rule="nonzero"/></clipPath><clipPath id="9523fc233e"><path d="M 254.027344 311.933594 L 285.976562 311.933594 L 285.976562 339.847656 L 254.027344 339.847656 Z M 254.027344 311.933594 " clip-rule="nonzero"/></clipPath><clipPath id="f24e5934cf"><path d="M 269.980469 311.933594 L 285.929688 339.847656 L 254.027344 339.847656 Z M 269.980469 311.933594 " clip-rule="nonzero"/></clipPath><clipPath id="8a320c72c3"><path d="M 139.988281 267.355469 L 171.9375 267.355469 L 171.9375 295.269531 L 139.988281 295.269531 Z M 139.988281 267.355469 " clip-rule="nonzero"/></clipPath><clipPath id="b52f1d06ff"><path d="M 155.9375 295.269531 L 171.890625 267.355469 L 139.988281 267.355469 Z M 155.9375 295.269531 " clip-rule="nonzero"/></clipPath><clipPath id="d863ddfacc"><path d="M 159.113281 272.910156 L 191.0625 272.910156 L 191.0625 300.824219 L 159.113281 300.824219 Z M 159.113281 272.910156 " clip-rule="nonzero"/></clipPath><clipPath id="749fc0bbcc"><path d="M 175.066406 272.910156 L 191.015625 300.824219 L 159.113281 300.824219 Z M 175.066406 272.910156 " clip-rule="nonzero"/></clipPath><clipPath id="1ae0de6f43"><path d="M 178.238281 267.355469 L 210.1875 267.355469 L 210.1875 295.269531 L 178.238281 295.269531 Z M 178.238281 267.355469 " clip-rule="nonzero"/></clipPath><clipPath id="5af6f1c17a"><path d="M 194.191406 295.269531 L 210.140625 267.355469 L 178.238281 267.355469 Z M 194.191406 295.269531 " clip-rule="nonzero"/></clipPath><clipPath id="87eb18640d"><path d="M 197.363281 272.910156 L 229.3125 272.910156 L 229.3125 300.824219 L 197.363281 300.824219 Z M 197.363281 272.910156 " clip-rule="nonzero"/></clipPath><clipPath id="defc667cea"><path d="M 213.316406 272.910156 L 229.265625 300.824219 L 197.363281 300.824219 Z M 213.316406 272.910156 " clip-rule="nonzero"/></clipPath><clipPath id="eaed25d191"><path d="M 216.488281 267.355469 L 248.4375 267.355469 L 248.4375 295.269531 L 216.488281 295.269531 Z M 216.488281 267.355469 " clip-rule="nonzero"/></clipPath><clipPath id="59488e109b"><path d="M 232.441406 295.269531 L 248.390625 267.355469 L 216.488281 267.355469 Z M 232.441406 295.269531 " clip-rule="nonzero"/></clipPath><clipPath id="c81cc6e068"><path d="M 235.257812 272.910156 L 267.207031 272.910156 L 267.207031 300.824219 L 235.257812 300.824219 Z M 235.257812 272.910156 " clip-rule="nonzero"/></clipPath><clipPath id="c1e5284237"><path d="M 251.210938 272.910156 L 267.160156 300.824219 L 235.257812 300.824219 Z M 251.210938 272.910156 " clip-rule="nonzero"/></clipPath><clipPath id="d5cc4ac036"><path d="M 120.683594 228.644531 L 152.632812 228.644531 L 152.632812 256.558594 L 120.683594 256.558594 Z M 120.683594 228.644531 " clip-rule="nonzero"/></clipPath><clipPath id="d4b451030f"><path d="M 136.636719 256.558594 L 152.585938 228.644531 L 120.683594 228.644531 Z M 136.636719 256.558594 " clip-rule="nonzero"/></clipPath><clipPath id="e7419052d5"><path d="M 139.808594 234.199219 L 171.757812 234.199219 L 171.757812 262.113281 L 139.808594 262.113281 Z M 139.808594 234.199219 " clip-rule="nonzero"/></clipPath><clipPath id="54cf3b9345"><path d="M 155.761719 234.199219 L 171.710938 262.113281 L 139.808594 262.113281 Z M 155.761719 234.199219 " clip-rule="nonzero"/></clipPath><clipPath id="7776192820"><path d="M 158.933594 228.644531 L 190.882812 228.644531 L 190.882812 256.558594 L 158.933594 256.558594 Z M 158.933594 228.644531 " clip-rule="nonzero"/></clipPath><clipPath id="3035ccbe4d"><path d="M 174.886719 256.558594 L 190.839844 228.644531 L 158.933594 228.644531 Z M 174.886719 256.558594 " clip-rule="nonzero"/></clipPath><clipPath id="2d1275bcbc"><path d="M 178.058594 234.199219 L 210 234.199219 L 210 262.113281 L 178.058594 262.113281 Z M 178.058594 234.199219 " clip-rule="nonzero"/></clipPath><clipPath id="6eae6887b0"><path d="M 194.011719 234.199219 L 209.964844 262.113281 L 178.058594 262.113281 Z M 194.011719 234.199219 " clip-rule="nonzero"/></clipPath><clipPath id="c068fb7594"><path d="M 197.183594 228.644531 L 229.136719 228.644531 L 229.136719 256.558594 L 197.183594 256.558594 Z M 197.183594 228.644531 " clip-rule="nonzero"/></clipPath><clipPath id="8ee075d7e3"><path d="M 213.136719 256.558594 L 229.089844 228.644531 L 197.183594 228.644531 Z M 213.136719 256.558594 " clip-rule="nonzero"/></clipPath><clipPath id="3461c88544"><path d="M 215.953125 234.199219 L 247.90625 234.199219 L 247.90625 262.113281 L 215.953125 262.113281 Z M 215.953125 234.199219 " clip-rule="nonzero"/></clipPath><clipPath id="54ba1f8f97"><path d="M 231.90625 234.199219 L 247.859375 262.113281 L 215.953125 262.113281 Z M 231.90625 234.199219 " clip-rule="nonzero"/></clipPath></defs><g clip-path="url(#9f281b1550)"><path fill="#ffffff" d="M 0.5 0 L 1023.5 0 L 1023.5 340 L 0.5 340 Z M 0.5 0 " fill-opacity="1" fill-rule="nonzero"/><path fill="#ffffff" d="M 0.5 0 L 1023.5 0 L 1023.5 340 L 0.5 340 Z M 0.5 0 " fill-opacity="1" fill-rule="nonzero"/></g><g clip-path="url(#01355402e4)"><path fill="#2a2e45" d="M 0.5 0 L 1023.699219 0 L 1023.699219 108.644531 L 0.5 108.644531 Z M 0.5 0 " fill-opacity="1" fill-rule="nonzero"/></g><g clip-path="url(#37d3a0d639)"><g clip-path="url(#455ac97599)"><path fill="#a60404" d="M -14.476562 77.980469 L 17.472656 77.980469 L 17.472656 105.894531 L -14.476562 105.894531 Z M -14.476562 77.980469 " fill-opacity="1" fill-rule="nonzero"/></g></g><g clip-path="url(#035576ac62)"><g clip-path="url(#c4a8e4945d)"><path fill="#a60404" d="M 4.648438 72.425781 L 36.597656 72.425781 L 36.597656 100.339844 L 4.648438 100.339844 Z M 4.648438 72.425781 " fill-opacity="1" fill-rule="nonzero"/></g></g><g clip-path="url(#3b83f48b4a)"><g clip-path="url(#ea3495feef)"><path fill="#a60404" d="M 23.773438 77.980469 L 55.722656 77.980469 L 55.722656 105.894531 L 23.773438 105.894531 Z M 23.773438 77.980469 " fill-opacity="1" fill-rule="nonzero"/></g></g><g clip-path="url(#c4764b782b)"><g clip-path="url(#48c6ef005d)"><path fill="#a60404" d="M 42.898438 72.425781 L 74.847656 72.425781 L 74.847656 100.339844 L 42.898438 100.339844 Z M 42.898438 72.425781 " fill-opacity="1" fill-rule="nonzero"/></g></g><g clip-path="url(#cbdb879376)"><g clip-path="url(#f253dd753a)"><path fill="#a60404" d="M 62.023438 77.980469 L 93.976562 77.980469 L 93.976562 105.894531 L 62.023438 105.894531 Z M 62.023438 77.980469 " fill-opacity="1" fill-rule="nonzero"/></g></g><g clip-path="url(#3c8d845752)"><g clip-path="url(#86e6d37a34)"><path fill="#a60404" d="M 81.148438 72.425781 L 113.101562 72.425781 L 113.101562 100.339844 L 81.148438 100.339844 Z M 81.148438 72.425781 " fill-opacity="1" fill-rule="nonzero"/></g></g><g clip-path="url(#306bb3af7d)"><g clip-path="url(#b0049cec5d)"><path fill="#cc5200" d="M 100.277344 77.980469 L 132.226562 77.980469 L 132.226562 105.894531 L 100.277344 105.894531 Z M 100.277344 77.980469 " fill-opacity="1" fill-rule="nonzero"/></g></g><g clip-path="url(#2320eb10f6)"><g clip-path="url(#9233ed4020)"><path fill="#a60404" d="M 119.402344 72.425781 L 151.351562 72.425781 L 151.351562 100.339844 L 119.402344 100.339844 Z M 119.402344 72.425781 " fill-opacity="1" fill-rule="nonzero"/></g></g><g clip-path="url(#07f1364581)"><g clip-path="url(#f2a95fc7f4)"><path fill="#a60404" d="M 138.167969 77.980469 L 170.121094 77.980469 L 170.121094 105.894531 L 138.167969 105.894531 Z M 138.167969 77.980469 " fill-opacity="1" fill-rule="nonzero"/></g></g><g clip-path="url(#e7b6a24546)"><g clip-path="url(#649c03c2f0)"><path fill="#a60404" d="M -14.121094 33.402344 L 17.828125 33.402344 L 17.828125 61.316406 L -14.121094 61.316406 Z M -14.121094 33.402344 " fill-opacity="1" fill-rule="nonzero"/></g></g><g clip-path="url(#d7c9c5d6f5)"><g clip-path="url(#e1705f1c1a)"><path fill="#cc5200" d="M 5.003906 38.957031 L 36.953125 38.957031 L 36.953125 66.871094 L 5.003906 66.871094 Z M 5.003906 38.957031 " fill-opacity="1" fill-rule="nonzero"/></g></g><g clip-path="url(#a5c8ddfe07)"><g clip-path="url(#d44382cb78)"><path fill="#a60404" d="M 24.128906 33.402344 L 56.082031 33.402344 L 56.082031 61.316406 L 24.128906 61.316406 Z M 24.128906 33.402344 " fill-opacity="1" fill-rule="nonzero"/></g></g><g clip-path="url(#bbf2f08c8b)"><g clip-path="url(#746bf4da8a)"><path fill="#a60404" d="M 43.253906 38.957031 L 75.207031 38.957031 L 75.207031 66.871094 L 43.253906 66.871094 Z M 43.253906 38.957031 " fill-opacity="1" fill-rule="nonzero"/></g></g><g clip-path="url(#79c552d705)"><g clip-path="url(#29764162c6)"><path fill="#a60404" d="M 62.382812 33.402344 L 94.332031 33.402344 L 94.332031 61.316406 L 62.382812 61.316406 Z M 62.382812 33.402344 " fill-opacity="1" fill-rule="nonzero"/></g></g><g clip-path="url(#fc2b9d1de1)"><g clip-path="url(#4efb13f923)"><path fill="#a60404" d="M 81.507812 38.957031 L 113.457031 38.957031 L 113.457031 66.871094 L 81.507812 66.871094 Z M 81.507812 38.957031 " fill-opacity="1" fill-rule="nonzero"/></g></g><g clip-path="url(#a87927d18f)"><g clip-path="url(#4b883bd9a3)"><path fill="#a60404" d="M 100.632812 33.402344 L 132.582031 33.402344 L 132.582031 61.316406 L 100.632812 61.316406 Z M 100.632812 33.402344 " fill-opacity="1" fill-rule="nonzero"/></g></g><g clip-path="url(#eb36926cef)"><g clip-path="url(#a619142b60)"><path fill="#a60404" d="M 119.402344 38.957031 L 151.351562 38.957031 L 151.351562 66.871094 L 119.402344 66.871094 Z M 119.402344 38.957031 " fill-opacity="1" fill-rule="nonzero"/></g></g><g clip-path="url(#30798d744c)"><g clip-path="url(#3524f73a5f)"><path fill="#a60404" d="M -14.296875 0.246094 L 17.652344 0.246094 L 17.652344 28.160156 L -14.296875 28.160156 Z M -14.296875 0.246094 " fill-opacity="1" fill-rule="nonzero"/></g></g><g clip-path="url(#f1a2ff1be4)"><g clip-path="url(#be64e38e94)"><path fill="#a60404" d="M 4.828125 -5.308594 L 36.777344 -5.308594 L 36.777344 22.605469 L 4.828125 22.605469 Z M 4.828125 -5.308594 " fill-opacity="1" fill-rule="nonzero"/></g></g><g clip-path="url(#c044b085d1)"><g clip-path="url(#022f5ed0b2)"><path fill="#a60404" d="M 23.953125 0.246094 L 55.902344 0.246094 L 55.902344 28.160156 L 23.953125 28.160156 Z M 23.953125 0.246094 " fill-opacity="1" fill-rule="nonzero"/></g></g><g clip-path="url(#1c148c2994)"><g clip-path="url(#640e7c189b)"><path fill="#a60404" d="M 43.078125 -5.308594 L 75.027344 -5.308594 L 75.027344 22.605469 L 43.078125 22.605469 Z M 43.078125 -5.308594 " fill-opacity="1" fill-rule="nonzero"/></g></g><g clip-path="url(#eb4c766057)"><g clip-path="url(#d040f059ec)"><path fill="#cc5200" d="M 62.203125 0.246094 L 94.152344 0.246094 L 94.152344 28.160156 L 62.203125 28.160156 Z M 62.203125 0.246094 " fill-opacity="1" fill-rule="nonzero"/></g></g><g clip-path="url(#3ac599ae7f)"><g clip-path="url(#29c7097846)"><path fill="#a60404" d="M 81.328125 -5.308594 L 113.277344 -5.308594 L 113.277344 22.605469 L 81.328125 22.605469 Z M 81.328125 -5.308594 " fill-opacity="1" fill-rule="nonzero"/></g></g><g clip-path="url(#89eb194a3c)"><g clip-path="url(#fda4761327)"><path fill="#a60404" d="M 100.097656 0.246094 L 132.046875 0.246094 L 132.046875 28.160156 L 100.097656 28.160156 Z M 100.097656 0.246094 " fill-opacity="1" fill-rule="nonzero"/></g></g><g clip-path="url(#e7d862221d)"><g clip-path="url(#401eb36983)"><path fill="#a60404" d="M -13.515625 188.871094 L 18.433594 188.871094 L 18.433594 216.785156 L -13.515625 216.785156 Z M -13.515625 188.871094 " fill-opacity="1" fill-rule="nonzero"/></g></g><g clip-path="url(#7f3fad995d)"><g clip-path="url(#c04890bc4b)"><path fill="#a60404" d="M 5.609375 194.425781 L 37.558594 194.425781 L 37.558594 222.339844 L 5.609375 222.339844 Z M 5.609375 194.425781 " fill-opacity="1" fill-rule="nonzero"/></g></g><g clip-path="url(#7e93ac1163)"><g clip-path="url(#8b617e8f0f)"><path fill="#a60404" d="M 24.734375 188.871094 L 56.6875 188.871094 L 56.6875 216.785156 L 24.734375 216.785156 Z M 24.734375 188.871094 " fill-opacity="1" fill-rule="nonzero"/></g></g><g clip-path="url(#c51f1c76f4)"><g clip-path="url(#c9fc1d4aed)"><path fill="#a60404" d="M 43.859375 194.425781 L 75.8125 194.425781 L 75.8125 222.339844 L 43.859375 222.339844 Z M 43.859375 194.425781 " fill-opacity="1" fill-rule="nonzero"/></g></g><g clip-path="url(#6e962b5cd1)"><g clip-path="url(#7d1479e80a)"><path fill="#a60404" d="M 62.988281 188.871094 L 94.9375 188.871094 L 94.9375 216.785156 L 62.988281 216.785156 Z M 62.988281 188.871094 " fill-opacity="1" fill-rule="nonzero"/></g></g><g clip-path="url(#1cf48ecf72)"><g clip-path="url(#7bb41adbca)"><path fill="#cc5200" d="M 82.113281 194.425781 L 114.0625 194.425781 L 114.0625 222.339844 L 82.113281 222.339844 Z M 82.113281 194.425781 " fill-opacity="1" fill-rule="nonzero"/></g></g><g clip-path="url(#305c0ab120)"><g clip-path="url(#289b7652d2)"><path fill="#a60404" d="M 101.238281 188.871094 L 133.1875 188.871094 L 133.1875 216.785156 L 101.238281 216.785156 Z M 101.238281 188.871094 " fill-opacity="1" fill-rule="nonzero"/></g></g><g clip-path="url(#8d6c6fc31b)"><g clip-path="url(#5c2e9883b8)"><path fill="#a60404" d="M 120.007812 194.425781 L 151.957031 194.425781 L 151.957031 222.339844 L 120.007812 222.339844 Z M 120.007812 194.425781 " fill-opacity="1" fill-rule="nonzero"/></g></g><g clip-path="url(#edb30afad3)"><g clip-path="url(#3b6d5fe0c9)"><path fill="#cc5200" d="M -13.160156 155.402344 L 18.792969 155.402344 L 18.792969 183.316406 L -13.160156 183.316406 Z M -13.160156 155.402344 " fill-opacity="1" fill-rule="nonzero"/></g></g><g clip-path="url(#36373aa20f)"><g clip-path="url(#975b870d88)"><path fill="#2e2459" d="M 5.964844 149.847656 L 37.917969 149.847656 L 37.917969 177.765625 L 5.964844 177.765625 Z M 5.964844 149.847656 " fill-opacity="1" fill-rule="nonzero"/></g></g><g clip-path="url(#2752ef5c62)"><g clip-path="url(#ee5ac9d577)"><path fill="#a60404" d="M 25.09375 155.402344 L 57.042969 155.402344 L 57.042969 183.316406 L 25.09375 183.316406 Z M 25.09375 155.402344 " fill-opacity="1" fill-rule="nonzero"/></g></g><g clip-path="url(#304b9db044)"><g clip-path="url(#74ce712c47)"><path fill="#a60404" d="M 44.21875 149.847656 L 76.167969 149.847656 L 76.167969 177.765625 L 44.21875 177.765625 Z M 44.21875 149.847656 " fill-opacity="1" fill-rule="nonzero"/></g></g><g clip-path="url(#3a39487d8f)"><g clip-path="url(#1345a9a64b)"><path fill="#a60404" d="M 63.34375 155.402344 L 95.292969 155.402344 L 95.292969 183.316406 L 63.34375 183.316406 Z M 63.34375 155.402344 " fill-opacity="1" fill-rule="nonzero"/></g></g><g clip-path="url(#b48eff6195)"><g clip-path="url(#406b7b2b14)"><path fill="#a60404" d="M 82.46875 149.847656 L 114.417969 149.847656 L 114.417969 177.765625 L 82.46875 177.765625 Z M 82.46875 149.847656 " fill-opacity="1" fill-rule="nonzero"/></g></g><g clip-path="url(#2096e2ccaa)"><g clip-path="url(#ab86672a3b)"><path fill="#a60404" d="M 101.238281 155.402344 L 133.1875 155.402344 L 133.1875 183.316406 L 101.238281 183.316406 Z M 101.238281 155.402344 " fill-opacity="1" fill-rule="nonzero"/></g></g><g clip-path="url(#501d1304bb)"><g clip-path="url(#c3884caf05)"><path fill="#a60404" d="M 5.789062 116.691406 L 37.738281 116.691406 L 37.738281 144.605469 L 5.789062 144.605469 Z M 5.789062 116.691406 " fill-opacity="1" fill-rule="nonzero"/></g></g><g clip-path="url(#0a802a327c)"><g clip-path="url(#62d7296b84)"><path fill="#a60404" d="M 24.914062 111.136719 L 56.863281 111.136719 L 56.863281 139.050781 L 24.914062 139.050781 Z M 24.914062 111.136719 " fill-opacity="1" fill-rule="nonzero"/></g></g><g clip-path="url(#28a1f3e0b7)"><g clip-path="url(#d94d03ac58)"><path fill="#cc5200" d="M 44.039062 116.691406 L 75.988281 116.691406 L 75.988281 144.605469 L 44.039062 144.605469 Z M 44.039062 116.691406 " fill-opacity="1" fill-rule="nonzero"/></g></g><g clip-path="url(#6a0a6ccb27)"><g clip-path="url(#45ace040f1)"><path fill="#a60404" d="M 63.164062 111.136719 L 95.113281 111.136719 L 95.113281 139.050781 L 63.164062 139.050781 Z M 63.164062 111.136719 " fill-opacity="1" fill-rule="nonzero"/></g></g><g clip-path="url(#84e31d7570)"><g clip-path="url(#2e392aa876)"><path fill="#a60404" d="M 81.933594 116.691406 L 113.882812 116.691406 L 113.882812 144.605469 L 81.933594 144.605469 Z M 81.933594 116.691406 " fill-opacity="1" fill-rule="nonzero"/></g></g><g clip-path="url(#bb7800baa9)"><g clip-path="url(#8c5d364f13)"><path fill="#a60404" d="M -13.941406 310.871094 L 18.007812 310.871094 L 18.007812 338.789062 L -13.941406 338.789062 Z M -13.941406 310.871094 " fill-opacity="1" fill-rule="nonzero"/></g></g><g clip-path="url(#7b028c3e25)"><g clip-path="url(#45b6898b00)"><path fill="#a60404" d="M 5.183594 305.320312 L 37.132812 305.320312 L 37.132812 333.234375 L 5.183594 333.234375 Z M 5.183594 305.320312 " fill-opacity="1" fill-rule="nonzero"/></g></g><g clip-path="url(#b8e5c1fdb3)"><g clip-path="url(#6031991e25)"><path fill="#2e2459" d="M 24.308594 310.871094 L 56.257812 310.871094 L 56.257812 338.789062 L 24.308594 338.789062 Z M 24.308594 310.871094 " fill-opacity="1" fill-rule="nonzero"/></g></g><g clip-path="url(#ac6ee001c8)"><g clip-path="url(#dcdb733849)"><path fill="#a60404" d="M 43.433594 305.320312 L 75.382812 305.320312 L 75.382812 333.234375 L 43.433594 333.234375 Z M 43.433594 305.320312 " fill-opacity="1" fill-rule="nonzero"/></g></g><g clip-path="url(#88286615d9)"><g clip-path="url(#e2f8c3b209)"><path fill="#a60404" d="M 62.558594 310.871094 L 94.507812 310.871094 L 94.507812 338.789062 L 62.558594 338.789062 Z M 62.558594 310.871094 " fill-opacity="1" fill-rule="nonzero"/></g></g><g clip-path="url(#e32ce6bd27)"><g clip-path="url(#449771ee19)"><path fill="#a60404" d="M 81.683594 305.320312 L 113.632812 305.320312 L 113.632812 333.234375 L 81.683594 333.234375 Z M 81.683594 305.320312 " fill-opacity="1" fill-rule="nonzero"/></g></g><g clip-path="url(#705f6e51a5)"><g clip-path="url(#2154fa582e)"><path fill="#cc5200" d="M 100.808594 310.871094 L 132.761719 310.871094 L 132.761719 338.789062 L 100.808594 338.789062 Z M 100.808594 310.871094 " fill-opacity="1" fill-rule="nonzero"/></g></g><g clip-path="url(#4905d63d1d)"><g clip-path="url(#b2f2e86c5e)"><path fill="#a60404" d="M 119.933594 305.320312 L 151.886719 305.320312 L 151.886719 333.234375 L 119.933594 333.234375 Z M 119.933594 305.320312 " fill-opacity="1" fill-rule="nonzero"/></g></g><g clip-path="url(#032334ce07)"><g clip-path="url(#1424ef7a7b)"><path fill="#a60404" d="M 138.703125 310.871094 L 170.652344 310.871094 L 170.652344 338.789062 L 138.703125 338.789062 Z M 138.703125 310.871094 " fill-opacity="1" fill-rule="nonzero"/></g></g><g clip-path="url(#6674590a36)"><g clip-path="url(#cb1ed90c12)"><path fill="#a60404" d="M -13.585938 266.296875 L 18.363281 266.296875 L 18.363281 294.210938 L -13.585938 294.210938 Z M -13.585938 266.296875 " fill-opacity="1" fill-rule="nonzero"/></g></g><g clip-path="url(#ff74958b23)"><g clip-path="url(#a0b7728993)"><path fill="#cc5200" d="M 5.539062 271.847656 L 37.488281 271.847656 L 37.488281 299.765625 L 5.539062 299.765625 Z M 5.539062 271.847656 " fill-opacity="1" fill-rule="nonzero"/></g></g><g clip-path="url(#2667e1741c)"><g clip-path="url(#a8d5242178)"><path fill="#a60404" d="M 24.664062 266.296875 L 56.613281 266.296875 L 56.613281 294.210938 L 24.664062 294.210938 Z M 24.664062 266.296875 " fill-opacity="1" fill-rule="nonzero"/></g></g><g clip-path="url(#4675821c24)"><g clip-path="url(#2c9ae33b1e)"><path fill="#a60404" d="M 43.789062 271.847656 L 75.738281 271.847656 L 75.738281 299.765625 L 43.789062 299.765625 Z M 43.789062 271.847656 " fill-opacity="1" fill-rule="nonzero"/></g></g><g clip-path="url(#18b0c5fc7f)"><g clip-path="url(#11bc2b79cc)"><path fill="#a60404" d="M 62.914062 266.296875 L 94.867188 266.296875 L 94.867188 294.210938 L 62.914062 294.210938 Z M 62.914062 266.296875 " fill-opacity="1" fill-rule="nonzero"/></g></g><g clip-path="url(#1ee4b07b71)"><g clip-path="url(#7c1aaa05fd)"><path fill="#a60404" d="M 82.039062 271.847656 L 113.992188 271.847656 L 113.992188 299.765625 L 82.039062 299.765625 Z M 82.039062 271.847656 " fill-opacity="1" fill-rule="nonzero"/></g></g><g clip-path="url(#822a3c56ea)"><g clip-path="url(#889a0385d2)"><path fill="#a60404" d="M 101.167969 266.296875 L 133.117188 266.296875 L 133.117188 294.210938 L 101.167969 294.210938 Z M 101.167969 266.296875 " fill-opacity="1" fill-rule="nonzero"/></g></g><g clip-path="url(#cf904a58c2)"><g clip-path="url(#4eee2fb30c)"><path fill="#a60404" d="M 119.933594 271.847656 L 151.886719 271.847656 L 151.886719 299.765625 L 119.933594 299.765625 Z M 119.933594 271.847656 " fill-opacity="1" fill-rule="nonzero"/></g></g><g clip-path="url(#dd21419df2)"><g clip-path="url(#eb96ccedfa)"><path fill="#a60404" d="M -13.765625 233.136719 L 18.1875 233.136719 L 18.1875 261.054688 L -13.765625 261.054688 Z M -13.765625 233.136719 " fill-opacity="1" fill-rule="nonzero"/></g></g><g clip-path="url(#9a77b48ceb)"><g clip-path="url(#7a33d9f408)"><path fill="#171219" d="M 5.363281 227.582031 L 37.3125 227.582031 L 37.3125 255.5 L 5.363281 255.5 Z M 5.363281 227.582031 " fill-opacity="1" fill-rule="nonzero"/></g></g><g clip-path="url(#83f23744d9)"><g clip-path="url(#fa4154c2b4)"><path fill="#a60404" d="M 24.488281 233.136719 L 56.4375 233.136719 L 56.4375 261.054688 L 24.488281 261.054688 Z M 24.488281 233.136719 " fill-opacity="1" fill-rule="nonzero"/></g></g><g clip-path="url(#0ee9d31fb3)"><g clip-path="url(#354ea3079c)"><path fill="#a60404" d="M 43.613281 227.582031 L 75.5625 227.582031 L 75.5625 255.5 L 43.613281 255.5 Z M 43.613281 227.582031 " fill-opacity="1" fill-rule="nonzero"/></g></g><g clip-path="url(#65ec888c1f)"><g clip-path="url(#02d717c1f0)"><path fill="#cc5200" d="M 62.738281 233.136719 L 94.6875 233.136719 L 94.6875 261.054688 L 62.738281 261.054688 Z M 62.738281 233.136719 " fill-opacity="1" fill-rule="nonzero"/></g></g><g clip-path="url(#6f19c86f0b)"><g clip-path="url(#8faef4030c)"><path fill="#a60404" d="M 81.863281 227.582031 L 113.8125 227.582031 L 113.8125 255.5 L 81.863281 255.5 Z M 81.863281 227.582031 " fill-opacity="1" fill-rule="nonzero"/></g></g><g clip-path="url(#5395a65ff2)"><g clip-path="url(#a8ddc9cbef)"><path fill="#a60404" d="M 100.632812 233.136719 L 132.582031 233.136719 L 132.582031 261.054688 L 100.632812 261.054688 Z M 100.632812 233.136719 " fill-opacity="1" fill-rule="nonzero"/></g></g><g clip-path="url(#96e27afc85)"><g clip-path="url(#aa5bf51b07)"><path fill="#a60404" d="M -13.335938 111.136719 L 18.613281 111.136719 L 18.613281 139.050781 L -13.335938 139.050781 Z M -13.335938 111.136719 " fill-opacity="1" fill-rule="nonzero"/></g></g><g clip-path="url(#424c1df300)"><g clip-path="url(#188602fdd7)"><path fill="#a60404" d="M 140.058594 189.183594 L 172.007812 189.183594 L 172.007812 217.097656 L 140.058594 217.097656 Z M 140.058594 189.183594 " fill-opacity="1" fill-rule="nonzero"/></g></g><g clip-path="url(#102f3cc118)"><g clip-path="url(#0c3c514e0c)"><path fill="#a60404" d="M 158.828125 194.738281 L 190.777344 194.738281 L 190.777344 222.652344 L 158.828125 222.652344 Z M 158.828125 194.738281 " fill-opacity="1" fill-rule="nonzero"/></g></g><g clip-path="url(#f521c45827)"><g clip-path="url(#61a3786c70)"><path fill="#171219" d="M 121.289062 150.160156 L 153.238281 150.160156 L 153.238281 178.074219 L 121.289062 178.074219 Z M 121.289062 150.160156 " fill-opacity="1" fill-rule="nonzero"/></g></g><g clip-path="url(#473da59c2d)"><g clip-path="url(#f817b4d3ad)"><path fill="#a60404" d="M 140.058594 155.714844 L 172.007812 155.714844 L 172.007812 183.628906 L 140.058594 183.628906 Z M 140.058594 155.714844 " fill-opacity="1" fill-rule="nonzero"/></g></g><g clip-path="url(#d781943afd)"><g clip-path="url(#27debbb414)"><path fill="#a60404" d="M 101.984375 111.449219 L 133.9375 111.449219 L 133.9375 139.363281 L 101.984375 139.363281 Z M 101.984375 111.449219 " fill-opacity="1" fill-rule="nonzero"/></g></g><g clip-path="url(#1fb4713164)"><g clip-path="url(#82fb56fcd1)"><path fill="#a60404" d="M 120.753906 117.003906 L 152.703125 117.003906 L 152.703125 144.917969 L 120.753906 144.917969 Z M 120.753906 117.003906 " fill-opacity="1" fill-rule="nonzero"/></g></g><g clip-path="url(#e26a1dee42)"><g clip-path="url(#06dfd3963f)"><path fill="#2e2459" d="M 177.953125 189.183594 L 209.902344 189.183594 L 209.902344 217.097656 L 177.953125 217.097656 Z M 177.953125 189.183594 " fill-opacity="1" fill-rule="nonzero"/></g></g><g clip-path="url(#1f6951450c)"><g clip-path="url(#269a6e64fc)"><path fill="#a60404" d="M 196.722656 194.738281 L 228.671875 194.738281 L 228.671875 222.652344 L 196.722656 222.652344 Z M 196.722656 194.738281 " fill-opacity="1" fill-rule="nonzero"/></g></g><g clip-path="url(#ca4e17544c)"><g clip-path="url(#4d1bc1ae5e)"><path fill="#a60404" d="M 159.183594 150.160156 L 191.132812 150.160156 L 191.132812 178.074219 L 159.183594 178.074219 Z M 159.183594 150.160156 " fill-opacity="1" fill-rule="nonzero"/></g></g><g clip-path="url(#948e449121)"><g clip-path="url(#ecf7c44158)"><path fill="#a60404" d="M 177.953125 155.714844 L 209.902344 155.714844 L 209.902344 183.628906 L 177.953125 183.628906 Z M 177.953125 155.714844 " fill-opacity="1" fill-rule="nonzero"/></g></g><g clip-path="url(#775d2afef1)"><g clip-path="url(#9784643e7e)"><path fill="#a60404" d="M 139.878906 111.449219 L 171.832031 111.449219 L 171.832031 139.363281 L 139.878906 139.363281 Z M 139.878906 111.449219 " fill-opacity="1" fill-rule="nonzero"/></g></g><g clip-path="url(#5434cebeb3)"><g clip-path="url(#c1cdde9d54)"><path fill="#a60404" d="M 158.648438 117.003906 L 190.597656 117.003906 L 190.597656 144.917969 L 158.648438 144.917969 Z M 158.648438 117.003906 " fill-opacity="1" fill-rule="nonzero"/></g></g><g clip-path="url(#4c0fe16f10)"><g clip-path="url(#d35f28a86f)"><path fill="#a60404" d="M 158.757812 306.378906 L 190.707031 306.378906 L 190.707031 334.292969 L 158.757812 334.292969 Z M 158.757812 306.378906 " fill-opacity="1" fill-rule="nonzero"/></g></g><g clip-path="url(#a41b586a21)"><g clip-path="url(#056b68fb88)"><path fill="#a60404" d="M 177.882812 311.933594 L 209.832031 311.933594 L 209.832031 339.847656 L 177.882812 339.847656 Z M 177.882812 311.933594 " fill-opacity="1" fill-rule="nonzero"/></g></g><g clip-path="url(#2f027690a8)"><g clip-path="url(#289731c22f)"><path fill="#a60404" d="M 197.007812 306.378906 L 228.957031 306.378906 L 228.957031 334.292969 L 197.007812 334.292969 Z M 197.007812 306.378906 " fill-opacity="1" fill-rule="nonzero"/></g></g><g clip-path="url(#eacd0334d3)"><g clip-path="url(#55bbf7436b)"><path fill="#cc5200" d="M 216.132812 311.933594 L 248.082031 311.933594 L 248.082031 339.847656 L 216.132812 339.847656 Z M 216.132812 311.933594 " fill-opacity="1" fill-rule="nonzero"/></g></g><g clip-path="url(#9b39f56d41)"><g clip-path="url(#ee5fa443ee)"><path fill="#a60404" d="M 235.257812 306.378906 L 267.207031 306.378906 L 267.207031 334.292969 L 235.257812 334.292969 Z M 235.257812 306.378906 " fill-opacity="1" fill-rule="nonzero"/></g></g><g clip-path="url(#9523fc233e)"><g clip-path="url(#f24e5934cf)"><path fill="#a60404" d="M 254.027344 311.933594 L 285.976562 311.933594 L 285.976562 339.847656 L 254.027344 339.847656 Z M 254.027344 311.933594 " fill-opacity="1" fill-rule="nonzero"/></g></g><g clip-path="url(#8a320c72c3)"><g clip-path="url(#b52f1d06ff)"><path fill="#a60404" d="M 139.988281 267.355469 L 171.9375 267.355469 L 171.9375 295.269531 L 139.988281 295.269531 Z M 139.988281 267.355469 " fill-opacity="1" fill-rule="nonzero"/></g></g><g clip-path="url(#d863ddfacc)"><g clip-path="url(#749fc0bbcc)"><path fill="#2e2459" d="M 159.113281 272.910156 L 191.0625 272.910156 L 191.0625 300.824219 L 159.113281 300.824219 Z M 159.113281 272.910156 " fill-opacity="1" fill-rule="nonzero"/></g></g><g clip-path="url(#1ae0de6f43)"><g clip-path="url(#5af6f1c17a)"><path fill="#a60404" d="M 178.238281 267.355469 L 210.1875 267.355469 L 210.1875 295.269531 L 178.238281 295.269531 Z M 178.238281 267.355469 " fill-opacity="1" fill-rule="nonzero"/></g></g><g clip-path="url(#87eb18640d)"><g clip-path="url(#defc667cea)"><path fill="#a60404" d="M 197.363281 272.910156 L 229.3125 272.910156 L 229.3125 300.824219 L 197.363281 300.824219 Z M 197.363281 272.910156 " fill-opacity="1" fill-rule="nonzero"/></g></g><g clip-path="url(#eaed25d191)"><g clip-path="url(#59488e109b)"><path fill="#a60404" d="M 216.488281 267.355469 L 248.4375 267.355469 L 248.4375 295.269531 L 216.488281 295.269531 Z M 216.488281 267.355469 " fill-opacity="1" fill-rule="nonzero"/></g></g><g clip-path="url(#c81cc6e068)"><g clip-path="url(#c1e5284237)"><path fill="#a60404" d="M 235.257812 272.910156 L 267.207031 272.910156 L 267.207031 300.824219 L 235.257812 300.824219 Z M 235.257812 272.910156 " fill-opacity="1" fill-rule="nonzero"/></g></g><g clip-path="url(#d5cc4ac036)"><g clip-path="url(#d4b451030f)"><path fill="#a60404" d="M 120.683594 228.644531 L 152.632812 228.644531 L 152.632812 256.558594 L 120.683594 256.558594 Z M 120.683594 228.644531 " fill-opacity="1" fill-rule="nonzero"/></g></g><g clip-path="url(#e7419052d5)"><g clip-path="url(#54cf3b9345)"><path fill="#a60404" d="M 139.808594 234.199219 L 171.757812 234.199219 L 171.757812 262.113281 L 139.808594 262.113281 Z M 139.808594 234.199219 " fill-opacity="1" fill-rule="nonzero"/></g></g><g clip-path="url(#7776192820)"><g clip-path="url(#3035ccbe4d)"><path fill="#a60404" d="M 158.933594 228.644531 L 190.882812 228.644531 L 190.882812 256.558594 L 158.933594 256.558594 Z M 158.933594 228.644531 " fill-opacity="1" fill-rule="nonzero"/></g></g><g clip-path="url(#2d1275bcbc)"><g clip-path="url(#6eae6887b0)"><path fill="#cc5200" d="M 178.058594 234.199219 L 210.011719 234.199219 L 210.011719 262.113281 L 178.058594 262.113281 Z M 178.058594 234.199219 " fill-opacity="1" fill-rule="nonzero"/></g></g><g clip-path="url(#c068fb7594)"><g clip-path="url(#8ee075d7e3)"><path fill="#a60404" d="M 197.183594 228.644531 L 229.136719 228.644531 L 229.136719 256.558594 L 197.183594 256.558594 Z M 197.183594 228.644531 " fill-opacity="1" fill-rule="nonzero"/></g></g><g clip-path="url(#3461c88544)"><g clip-path="url(#54ba1f8f97)"><path fill="#a60404" d="M 215.953125 234.199219 L 247.90625 234.199219 L 247.90625 262.113281 L 215.953125 262.113281 Z M 215.953125 234.199219 " fill-opacity="1" fill-rule="nonzero"/></g></g></svg>