<svg xmlns="http://www.w3.org/2000/svg" xmlns:xlink="http://www.w3.org/1999/xlink" width="306" zoomAndPan="magnify" viewBox="0 0 229.5 184.499994" height="246" preserveAspectRatio="xMidYMid meet" version="1.0"><defs><clipPath id="5849c1911f"><path d="M 58.710938 0.621094 L 90.621094 0.621094 L 90.621094 28.503906 L 58.710938 28.503906 Z M 58.710938 0.621094 " clip-rule="nonzero"/></clipPath><clipPath id="fd1ae8b388"><path d="M 74.640625 28.503906 L 90.574219 0.621094 L 58.710938 0.621094 Z M 74.640625 28.503906 " clip-rule="nonzero"/></clipPath><clipPath id="53c361a646"><path d="M 78.746094 0.3125 L 110.65625 0.3125 L 110.65625 28.191406 L 78.746094 28.191406 Z M 78.746094 0.3125 " clip-rule="nonzero"/></clipPath><clipPath id="ee3764cd72"><path d="M 94.679688 0.3125 L 110.609375 28.191406 L 78.746094 28.191406 Z M 94.679688 0.3125 " clip-rule="nonzero"/></clipPath><clipPath id="ba6d01d717"><path d="M 98.316406 0.3125 L 130.226562 0.3125 L 130.226562 28.191406 L 98.316406 28.191406 Z M 98.316406 0.3125 " clip-rule="nonzero"/></clipPath><clipPath id="6a87915293"><path d="M 114.246094 28.191406 L 130.179688 0.3125 L 98.316406 0.3125 Z M 114.246094 28.191406 " clip-rule="nonzero"/></clipPath><clipPath id="24752a6978"><path d="M 118.222656 0.3125 L 150.132812 0.3125 L 150.132812 28.191406 L 118.222656 28.191406 Z M 118.222656 0.3125 " clip-rule="nonzero"/></clipPath><clipPath id="788abc69c4"><path d="M 134.15625 0.3125 L 150.085938 28.191406 L 118.222656 28.191406 Z M 134.15625 0.3125 " clip-rule="nonzero"/></clipPath><clipPath id="a635d63aaf"><path d="M 137.660156 0.621094 L 169.570312 0.621094 L 169.570312 28.503906 L 137.660156 28.503906 Z M 137.660156 0.621094 " clip-rule="nonzero"/></clipPath><clipPath id="83de9d9907"><path d="M 153.589844 28.503906 L 169.523438 0.621094 L 137.660156 0.621094 Z M 153.589844 28.503906 " clip-rule="nonzero"/></clipPath><clipPath id="ee7da51c56"><path d="M 157.566406 0.621094 L 189.476562 0.621094 L 189.476562 28.503906 L 157.566406 28.503906 Z M 157.566406 0.621094 " clip-rule="nonzero"/></clipPath><clipPath id="84a61b4792"><path d="M 173.5 0.621094 L 189.429688 28.503906 L 157.566406 28.503906 Z M 173.5 0.621094 " clip-rule="nonzero"/></clipPath><clipPath id="ee70cd207b"><path d="M 58.710938 62.898438 L 90.621094 62.898438 L 90.621094 90.777344 L 58.710938 90.777344 Z M 58.710938 62.898438 " clip-rule="nonzero"/></clipPath><clipPath id="d4401388eb"><path d="M 74.640625 90.777344 L 90.574219 62.898438 L 58.710938 62.898438 Z M 74.640625 90.777344 " clip-rule="nonzero"/></clipPath><clipPath id="b48b75a66f"><path d="M 78.746094 62.585938 L 110.65625 62.585938 L 110.65625 90.46875 L 78.746094 90.46875 Z M 78.746094 62.585938 " clip-rule="nonzero"/></clipPath><clipPath id="d8f02e81f1"><path d="M 94.679688 62.585938 L 110.609375 90.46875 L 78.746094 90.46875 Z M 94.679688 62.585938 " clip-rule="nonzero"/></clipPath><clipPath id="0ec6eda90e"><path d="M 98.316406 62.585938 L 130.226562 62.585938 L 130.226562 90.46875 L 98.316406 90.46875 Z M 98.316406 62.585938 " clip-rule="nonzero"/></clipPath><clipPath id="5935480702"><path d="M 114.246094 90.46875 L 130.179688 62.585938 L 98.316406 62.585938 Z M 114.246094 90.46875 " clip-rule="nonzero"/></clipPath><clipPath id="b98b974b4a"><path d="M 118.222656 62.585938 L 150.132812 62.585938 L 150.132812 90.46875 L 118.222656 90.46875 Z M 118.222656 62.585938 " clip-rule="nonzero"/></clipPath><clipPath id="b79dab2545"><path d="M 134.15625 62.585938 L 150.085938 90.46875 L 118.222656 90.46875 Z M 134.15625 62.585938 " clip-rule="nonzero"/></clipPath><clipPath id="785f165e52"><path d="M 137.660156 62.898438 L 169.570312 62.898438 L 169.570312 90.777344 L 137.660156 90.777344 Z M 137.660156 62.898438 " clip-rule="nonzero"/></clipPath><clipPath id="5fff16d2af"><path d="M 153.589844 90.777344 L 169.523438 62.898438 L 137.660156 62.898438 Z M 153.589844 90.777344 " clip-rule="nonzero"/></clipPath><clipPath id="822e52f8f8"><path d="M 157.566406 62.898438 L 189.476562 62.898438 L 189.476562 90.777344 L 157.566406 90.777344 Z M 157.566406 62.898438 " clip-rule="nonzero"/></clipPath><clipPath id="c7ae67a4ec"><path d="M 173.5 62.898438 L 189.429688 90.777344 L 157.566406 90.777344 Z M 173.5 62.898438 " clip-rule="nonzero"/></clipPath><clipPath id="b906087ba6"><path d="M 177 62.898438 L 208.910156 62.898438 L 208.910156 90.777344 L 177 90.777344 Z M 177 62.898438 " clip-rule="nonzero"/></clipPath><clipPath id="af72bf12b7"><path d="M 192.933594 90.777344 L 208.867188 62.898438 L 177 62.898438 Z M 192.933594 90.777344 " clip-rule="nonzero"/></clipPath><clipPath id="be3fd38cf7"><path d="M 196.910156 62.898438 L 228.820312 62.898438 L 228.820312 90.777344 L 196.910156 90.777344 Z M 196.910156 62.898438 " clip-rule="nonzero"/></clipPath><clipPath id="ece7fd70de"><path d="M 212.84375 62.898438 L 228.773438 90.777344 L 196.910156 90.777344 Z M 212.84375 62.898438 " clip-rule="nonzero"/></clipPath><clipPath id="41adb9b3ca"><path d="M 58.710938 31.496094 L 90.621094 31.496094 L 90.621094 59.375 L 58.710938 59.375 Z M 58.710938 31.496094 " clip-rule="nonzero"/></clipPath><clipPath id="9e7e6b3a87"><path d="M 74.640625 31.496094 L 90.574219 59.375 L 58.710938 59.375 Z M 74.640625 31.496094 " clip-rule="nonzero"/></clipPath><clipPath id="95d0cfb597"><path d="M 78.746094 31.496094 L 110.65625 31.496094 L 110.65625 59.375 L 78.746094 59.375 Z M 78.746094 31.496094 " clip-rule="nonzero"/></clipPath><clipPath id="1567c34f6c"><path d="M 94.679688 59.375 L 110.609375 31.496094 L 78.746094 31.496094 Z M 94.679688 59.375 " clip-rule="nonzero"/></clipPath><clipPath id="44e0f2b929"><path d="M 98.316406 31.496094 L 130.226562 31.496094 L 130.226562 59.375 L 98.316406 59.375 Z M 98.316406 31.496094 " clip-rule="nonzero"/></clipPath><clipPath id="245340a5b2"><path d="M 114.246094 31.496094 L 130.179688 59.375 L 98.316406 59.375 Z M 114.246094 31.496094 " clip-rule="nonzero"/></clipPath><clipPath id="7dae5039fb"><path d="M 118.222656 31.496094 L 150.132812 31.496094 L 150.132812 59.375 L 118.222656 59.375 Z M 118.222656 31.496094 " clip-rule="nonzero"/></clipPath><clipPath id="55a9dd6aa9"><path d="M 134.15625 59.375 L 150.085938 31.496094 L 118.222656 31.496094 Z M 134.15625 59.375 " clip-rule="nonzero"/></clipPath><clipPath id="a0ed0fe2da"><path d="M 137.660156 31.496094 L 169.570312 31.496094 L 169.570312 59.375 L 137.660156 59.375 Z M 137.660156 31.496094 " clip-rule="nonzero"/></clipPath><clipPath id="1f66488682"><path d="M 153.589844 31.496094 L 169.523438 59.375 L 137.660156 59.375 Z M 153.589844 31.496094 " clip-rule="nonzero"/></clipPath><clipPath id="90d7227403"><path d="M 157.566406 31.496094 L 189.476562 31.496094 L 189.476562 59.375 L 157.566406 59.375 Z M 157.566406 31.496094 " clip-rule="nonzero"/></clipPath><clipPath id="cf2dff8a29"><path d="M 173.5 59.375 L 189.429688 31.496094 L 157.566406 31.496094 Z M 173.5 59.375 " clip-rule="nonzero"/></clipPath><clipPath id="f60402cd3e"><path d="M 177 31.496094 L 208.910156 31.496094 L 208.910156 59.375 L 177 59.375 Z M 177 31.496094 " clip-rule="nonzero"/></clipPath><clipPath id="781b9c81f2"><path d="M 192.933594 31.496094 L 208.867188 59.375 L 177 59.375 Z M 192.933594 31.496094 " clip-rule="nonzero"/></clipPath><clipPath id="fa3e77dc35"><path d="M 58.710938 125.175781 L 90.621094 125.175781 L 90.621094 153.054688 L 58.710938 153.054688 Z M 58.710938 125.175781 " clip-rule="nonzero"/></clipPath><clipPath id="1576976bb6"><path d="M 74.640625 153.054688 L 90.574219 125.175781 L 58.710938 125.175781 Z M 74.640625 153.054688 " clip-rule="nonzero"/></clipPath><clipPath id="7018c66227"><path d="M 78.746094 124.863281 L 110.65625 124.863281 L 110.65625 152.742188 L 78.746094 152.742188 Z M 78.746094 124.863281 " clip-rule="nonzero"/></clipPath><clipPath id="46916a63b7"><path d="M 94.679688 124.863281 L 110.609375 152.742188 L 78.746094 152.742188 Z M 94.679688 124.863281 " clip-rule="nonzero"/></clipPath><clipPath id="8b1f51ec10"><path d="M 98.316406 124.863281 L 130.226562 124.863281 L 130.226562 152.742188 L 98.316406 152.742188 Z M 98.316406 124.863281 " clip-rule="nonzero"/></clipPath><clipPath id="213c043895"><path d="M 114.246094 152.742188 L 130.179688 124.863281 L 98.316406 124.863281 Z M 114.246094 152.742188 " clip-rule="nonzero"/></clipPath><clipPath id="db39c92b28"><path d="M 118.222656 124.863281 L 150.132812 124.863281 L 150.132812 152.742188 L 118.222656 152.742188 Z M 118.222656 124.863281 " clip-rule="nonzero"/></clipPath><clipPath id="4e5a9bb465"><path d="M 134.15625 124.863281 L 150.085938 152.742188 L 118.222656 152.742188 Z M 134.15625 124.863281 " clip-rule="nonzero"/></clipPath><clipPath id="03339eeed6"><path d="M 137.660156 125.175781 L 169.570312 125.175781 L 169.570312 153.054688 L 137.660156 153.054688 Z M 137.660156 125.175781 " clip-rule="nonzero"/></clipPath><clipPath id="47449e5cb7"><path d="M 153.589844 153.054688 L 169.523438 125.175781 L 137.660156 125.175781 Z M 153.589844 153.054688 " clip-rule="nonzero"/></clipPath><clipPath id="464d9de1e4"><path d="M 157.566406 125.175781 L 189.476562 125.175781 L 189.476562 153.054688 L 157.566406 153.054688 Z M 157.566406 125.175781 " clip-rule="nonzero"/></clipPath><clipPath id="6ac66c1350"><path d="M 173.5 125.175781 L 189.429688 153.054688 L 157.566406 153.054688 Z M 173.5 125.175781 " clip-rule="nonzero"/></clipPath><clipPath id="fa526a77af"><path d="M 177 125.175781 L 208.910156 125.175781 L 208.910156 153.054688 L 177 153.054688 Z M 177 125.175781 " clip-rule="nonzero"/></clipPath><clipPath id="b03a99f3c5"><path d="M 192.933594 153.054688 L 208.867188 125.175781 L 177 125.175781 Z M 192.933594 153.054688 " clip-rule="nonzero"/></clipPath><clipPath id="cd8bf0aca5"><path d="M 58.710938 93.769531 L 90.621094 93.769531 L 90.621094 121.652344 L 58.710938 121.652344 Z M 58.710938 93.769531 " clip-rule="nonzero"/></clipPath><clipPath id="34ae21c44b"><path d="M 74.640625 93.769531 L 90.574219 121.652344 L 58.710938 121.652344 Z M 74.640625 93.769531 " clip-rule="nonzero"/></clipPath><clipPath id="95968ee806"><path d="M 78.746094 93.769531 L 110.65625 93.769531 L 110.65625 121.652344 L 78.746094 121.652344 Z M 78.746094 93.769531 " clip-rule="nonzero"/></clipPath><clipPath id="1fd7221c88"><path d="M 94.679688 121.652344 L 110.609375 93.769531 L 78.746094 93.769531 Z M 94.679688 121.652344 " clip-rule="nonzero"/></clipPath><clipPath id="eba996fba5"><path d="M 98.316406 93.769531 L 130.226562 93.769531 L 130.226562 121.652344 L 98.316406 121.652344 Z M 98.316406 93.769531 " clip-rule="nonzero"/></clipPath><clipPath id="76c0ba024f"><path d="M 114.246094 93.769531 L 130.179688 121.652344 L 98.316406 121.652344 Z M 114.246094 93.769531 " clip-rule="nonzero"/></clipPath><clipPath id="5d1922b837"><path d="M 118.222656 93.769531 L 150.132812 93.769531 L 150.132812 121.652344 L 118.222656 121.652344 Z M 118.222656 93.769531 " clip-rule="nonzero"/></clipPath><clipPath id="e31bad7af5"><path d="M 134.15625 121.652344 L 150.085938 93.769531 L 118.222656 93.769531 Z M 134.15625 121.652344 " clip-rule="nonzero"/></clipPath><clipPath id="fb9c10c7ea"><path d="M 137.660156 93.769531 L 169.570312 93.769531 L 169.570312 121.652344 L 137.660156 121.652344 Z M 137.660156 93.769531 " clip-rule="nonzero"/></clipPath><clipPath id="518c1e895a"><path d="M 153.589844 93.769531 L 169.523438 121.652344 L 137.660156 121.652344 Z M 153.589844 93.769531 " clip-rule="nonzero"/></clipPath><clipPath id="4a940490ca"><path d="M 157.566406 93.769531 L 189.476562 93.769531 L 189.476562 121.652344 L 157.566406 121.652344 Z M 157.566406 93.769531 " clip-rule="nonzero"/></clipPath><clipPath id="7789363168"><path d="M 173.5 121.652344 L 189.429688 93.769531 L 157.566406 93.769531 Z M 173.5 121.652344 " clip-rule="nonzero"/></clipPath><clipPath id="0d78fb06d2"><path d="M 177 93.769531 L 208.910156 93.769531 L 208.910156 121.652344 L 177 121.652344 Z M 177 93.769531 " clip-rule="nonzero"/></clipPath><clipPath id="5a39f937ac"><path d="M 192.933594 93.769531 L 208.867188 121.652344 L 177 121.652344 Z M 192.933594 93.769531 " clip-rule="nonzero"/></clipPath><clipPath id="22aa5075ab"><path d="M 58.710938 156.046875 L 90.621094 156.046875 L 90.621094 183.925781 L 58.710938 183.925781 Z M 58.710938 156.046875 " clip-rule="nonzero"/></clipPath><clipPath id="90962bd1a2"><path d="M 74.640625 156.046875 L 90.574219 183.925781 L 58.710938 183.925781 Z M 74.640625 156.046875 " clip-rule="nonzero"/></clipPath><clipPath id="3048ed4d26"><path d="M 78.746094 156.046875 L 110.65625 156.046875 L 110.65625 183.925781 L 78.746094 183.925781 Z M 78.746094 156.046875 " clip-rule="nonzero"/></clipPath><clipPath id="c9a2e360c7"><path d="M 94.679688 183.925781 L 110.609375 156.046875 L 78.746094 156.046875 Z M 94.679688 183.925781 " clip-rule="nonzero"/></clipPath><clipPath id="1c66d2de9f"><path d="M 98.316406 156.046875 L 130.226562 156.046875 L 130.226562 183.925781 L 98.316406 183.925781 Z M 98.316406 156.046875 " clip-rule="nonzero"/></clipPath><clipPath id="ce9119053a"><path d="M 114.246094 156.046875 L 130.179688 183.925781 L 98.316406 183.925781 Z M 114.246094 156.046875 " clip-rule="nonzero"/></clipPath><clipPath id="0fce7ebb20"><path d="M 118.222656 156.046875 L 150.132812 156.046875 L 150.132812 183.925781 L 118.222656 183.925781 Z M 118.222656 156.046875 " clip-rule="nonzero"/></clipPath><clipPath id="5d2c357c4c"><path d="M 134.15625 183.925781 L 150.085938 156.046875 L 118.222656 156.046875 Z M 134.15625 183.925781 " clip-rule="nonzero"/></clipPath><clipPath id="7cf03b642e"><path d="M 137.660156 156.046875 L 169.570312 156.046875 L 169.570312 183.925781 L 137.660156 183.925781 Z M 137.660156 156.046875 " clip-rule="nonzero"/></clipPath><clipPath id="d86cb179d0"><path d="M 153.589844 156.046875 L 169.523438 183.925781 L 137.660156 183.925781 Z M 153.589844 156.046875 " clip-rule="nonzero"/></clipPath><clipPath id="3a72233654"><path d="M 157.566406 156.046875 L 189.476562 156.046875 L 189.476562 183.925781 L 157.566406 183.925781 Z M 157.566406 156.046875 " clip-rule="nonzero"/></clipPath><clipPath id="6577619afc"><path d="M 173.5 183.925781 L 189.429688 156.046875 L 157.566406 156.046875 Z M 173.5 183.925781 " clip-rule="nonzero"/></clipPath><clipPath id="da1888fe58"><path d="M 196.671875 93.769531 L 228.582031 93.769531 L 228.582031 121.652344 L 196.671875 121.652344 Z M 196.671875 93.769531 " clip-rule="nonzero"/></clipPath><clipPath id="d89817f184"><path d="M 212.605469 121.652344 L 228.535156 93.769531 L 196.671875 93.769531 Z M 212.605469 121.652344 " clip-rule="nonzero"/></clipPath><clipPath id="b989807320"><path d="M 39.402344 0 L 71.316406 0 L 71.316406 27.878906 L 39.402344 27.878906 Z M 39.402344 0 " clip-rule="nonzero"/></clipPath><clipPath id="492dea966a"><path d="M 55.335938 0 L 71.269531 27.878906 L 39.402344 27.878906 Z M 55.335938 0 " clip-rule="nonzero"/></clipPath><clipPath id="2dd9521573"><path d="M 19.367188 62.585938 L 51.277344 62.585938 L 51.277344 90.46875 L 19.367188 90.46875 Z M 19.367188 62.585938 " clip-rule="nonzero"/></clipPath><clipPath id="03d292550a"><path d="M 35.296875 90.46875 L 51.230469 62.585938 L 19.367188 62.585938 Z M 35.296875 90.46875 " clip-rule="nonzero"/></clipPath><clipPath id="eff193e26a"><path d="M 39.402344 62.277344 L 71.316406 62.277344 L 71.316406 90.15625 L 39.402344 90.15625 Z M 39.402344 62.277344 " clip-rule="nonzero"/></clipPath><clipPath id="2e0f198e6a"><path d="M 55.335938 62.277344 L 71.269531 90.15625 L 39.402344 90.15625 Z M 55.335938 62.277344 " clip-rule="nonzero"/></clipPath><clipPath id="0b137a5beb"><path d="M 19.367188 31.183594 L 51.277344 31.183594 L 51.277344 59.066406 L 19.367188 59.066406 Z M 19.367188 31.183594 " clip-rule="nonzero"/></clipPath><clipPath id="c03f9db7ee"><path d="M 35.296875 31.183594 L 51.230469 59.066406 L 19.367188 59.066406 Z M 35.296875 31.183594 " clip-rule="nonzero"/></clipPath><clipPath id="41b0e8f58a"><path d="M 39.402344 31.183594 L 71.316406 31.183594 L 71.316406 59.066406 L 39.402344 59.066406 Z M 39.402344 31.183594 " clip-rule="nonzero"/></clipPath><clipPath id="78bd26a198"><path d="M 55.335938 59.066406 L 71.269531 31.183594 L 39.402344 31.183594 Z M 55.335938 59.066406 " clip-rule="nonzero"/></clipPath><clipPath id="12f559adb9"><path d="M 19.367188 124.863281 L 51.277344 124.863281 L 51.277344 152.742188 L 19.367188 152.742188 Z M 19.367188 124.863281 " clip-rule="nonzero"/></clipPath><clipPath id="f834590b71"><path d="M 35.296875 152.742188 L 51.230469 124.863281 L 19.367188 124.863281 Z M 35.296875 152.742188 " clip-rule="nonzero"/></clipPath><clipPath id="72e16d287b"><path d="M 39.402344 124.550781 L 71.316406 124.550781 L 71.316406 152.433594 L 39.402344 152.433594 Z M 39.402344 124.550781 " clip-rule="nonzero"/></clipPath><clipPath id="8a56282cd7"><path d="M 55.335938 124.550781 L 71.269531 152.433594 L 39.402344 152.433594 Z M 55.335938 124.550781 " clip-rule="nonzero"/></clipPath><clipPath id="cd96339b5e"><path d="M 19.367188 93.460938 L 51.277344 93.460938 L 51.277344 121.339844 L 19.367188 121.339844 Z M 19.367188 93.460938 " clip-rule="nonzero"/></clipPath><clipPath id="03d6786ad3"><path d="M 35.296875 93.460938 L 51.230469 121.339844 L 19.367188 121.339844 Z M 35.296875 93.460938 " clip-rule="nonzero"/></clipPath><clipPath id="f09b4f19e3"><path d="M 39.402344 93.460938 L 71.316406 93.460938 L 71.316406 121.339844 L 39.402344 121.339844 Z M 39.402344 93.460938 " clip-rule="nonzero"/></clipPath><clipPath id="6b7f3e8698"><path d="M 55.335938 121.339844 L 71.269531 93.460938 L 39.402344 93.460938 Z M 55.335938 121.339844 " clip-rule="nonzero"/></clipPath><clipPath id="a362c317bc"><path d="M 39.402344 155.734375 L 71.316406 155.734375 L 71.316406 183.617188 L 39.402344 183.617188 Z M 39.402344 155.734375 " clip-rule="nonzero"/></clipPath><clipPath id="329769954a"><path d="M 55.335938 183.617188 L 71.269531 155.734375 L 39.402344 155.734375 Z M 55.335938 183.617188 " clip-rule="nonzero"/></clipPath><clipPath id="0a7eac1420"><path d="M 0.0625 61.964844 L 31.972656 61.964844 L 31.972656 89.84375 L 0.0625 89.84375 Z M 0.0625 61.964844 " clip-rule="nonzero"/></clipPath><clipPath id="2ec9ba8500"><path d="M 15.992188 61.964844 L 31.925781 89.84375 L 0.0625 89.84375 Z M 15.992188 61.964844 " clip-rule="nonzero"/></clipPath><clipPath id="2d5057178c"><path d="M 0.0625 93.148438 L 31.972656 93.148438 L 31.972656 121.027344 L 0.0625 121.027344 Z M 0.0625 93.148438 " clip-rule="nonzero"/></clipPath><clipPath id="8840d73acc"><path d="M 15.992188 121.027344 L 31.925781 93.148438 L 0.0625 93.148438 Z M 15.992188 121.027344 " clip-rule="nonzero"/></clipPath></defs><g clip-path="url(#5849c1911f)"><g clip-path="url(#fd1ae8b388)"><path fill="#a60404" d="M 58.710938 0.621094 L 90.621094 0.621094 L 90.621094 28.503906 L 58.710938 28.503906 Z M 58.710938 0.621094 " fill-opacity="1" fill-rule="nonzero"/></g></g><g clip-path="url(#53c361a646)"><g clip-path="url(#ee3764cd72)"><path fill="#cc5200" d="M 78.746094 0.3125 L 110.65625 0.3125 L 110.65625 28.191406 L 78.746094 28.191406 Z M 78.746094 0.3125 " fill-opacity="1" fill-rule="nonzero"/></g></g><g clip-path="url(#ba6d01d717)"><g clip-path="url(#6a87915293)"><path fill="#a60404" d="M 98.316406 0.3125 L 130.226562 0.3125 L 130.226562 28.191406 L 98.316406 28.191406 Z M 98.316406 0.3125 " fill-opacity="1" fill-rule="nonzero"/></g></g><g clip-path="url(#24752a6978)"><g clip-path="url(#788abc69c4)"><path fill="#a60404" d="M 118.222656 0.3125 L 150.132812 0.3125 L 150.132812 28.191406 L 118.222656 28.191406 Z M 118.222656 0.3125 " fill-opacity="1" fill-rule="nonzero"/></g></g><g clip-path="url(#a635d63aaf)"><g clip-path="url(#83de9d9907)"><path fill="#a60404" d="M 137.660156 0.621094 L 169.570312 0.621094 L 169.570312 28.503906 L 137.660156 28.503906 Z M 137.660156 0.621094 " fill-opacity="1" fill-rule="nonzero"/></g></g><g clip-path="url(#ee7da51c56)"><g clip-path="url(#84a61b4792)"><path fill="#a60404" d="M 157.566406 0.621094 L 189.476562 0.621094 L 189.476562 28.503906 L 157.566406 28.503906 Z M 157.566406 0.621094 " fill-opacity="1" fill-rule="nonzero"/></g></g><g clip-path="url(#ee70cd207b)"><g clip-path="url(#d4401388eb)"><path fill="#a60404" d="M 58.710938 62.898438 L 90.621094 62.898438 L 90.621094 90.777344 L 58.710938 90.777344 Z M 58.710938 62.898438 " fill-opacity="1" fill-rule="nonzero"/></g></g><g clip-path="url(#b48b75a66f)"><g clip-path="url(#d8f02e81f1)"><path fill="#cc5200" d="M 78.746094 62.585938 L 110.65625 62.585938 L 110.65625 90.46875 L 78.746094 90.46875 Z M 78.746094 62.585938 " fill-opacity="1" fill-rule="nonzero"/></g></g><g clip-path="url(#0ec6eda90e)"><g clip-path="url(#5935480702)"><path fill="#a60404" d="M 98.316406 62.585938 L 130.226562 62.585938 L 130.226562 90.46875 L 98.316406 90.46875 Z M 98.316406 62.585938 " fill-opacity="1" fill-rule="nonzero"/></g></g><g clip-path="url(#b98b974b4a)"><g clip-path="url(#b79dab2545)"><path fill="#a60404" d="M 118.222656 62.585938 L 150.132812 62.585938 L 150.132812 90.46875 L 118.222656 90.46875 Z M 118.222656 62.585938 " fill-opacity="1" fill-rule="nonzero"/></g></g><g clip-path="url(#785f165e52)"><g clip-path="url(#5fff16d2af)"><path fill="#a60404" d="M 137.660156 62.898438 L 169.570312 62.898438 L 169.570312 90.777344 L 137.660156 90.777344 Z M 137.660156 62.898438 " fill-opacity="1" fill-rule="nonzero"/></g></g><g clip-path="url(#822e52f8f8)"><g clip-path="url(#c7ae67a4ec)"><path fill="#a60404" d="M 157.566406 62.898438 L 189.476562 62.898438 L 189.476562 90.777344 L 157.566406 90.777344 Z M 157.566406 62.898438 " fill-opacity="1" fill-rule="nonzero"/></g></g><g clip-path="url(#b906087ba6)"><g clip-path="url(#af72bf12b7)"><path fill="#a60404" d="M 177 62.898438 L 208.910156 62.898438 L 208.910156 90.777344 L 177 90.777344 Z M 177 62.898438 " fill-opacity="1" fill-rule="nonzero"/></g></g><g clip-path="url(#be3fd38cf7)"><g clip-path="url(#ece7fd70de)"><path fill="#a60404" d="M 196.910156 62.898438 L 228.820312 62.898438 L 228.820312 90.777344 L 196.910156 90.777344 Z M 196.910156 62.898438 " fill-opacity="1" fill-rule="nonzero"/></g></g><g clip-path="url(#41adb9b3ca)"><g clip-path="url(#9e7e6b3a87)"><path fill="#a60404" d="M 58.710938 31.496094 L 90.621094 31.496094 L 90.621094 59.375 L 58.710938 59.375 Z M 58.710938 31.496094 " fill-opacity="1" fill-rule="nonzero"/></g></g><g clip-path="url(#95d0cfb597)"><g clip-path="url(#1567c34f6c)"><path fill="#a60404" d="M 78.746094 31.496094 L 110.65625 31.496094 L 110.65625 59.375 L 78.746094 59.375 Z M 78.746094 31.496094 " fill-opacity="1" fill-rule="nonzero"/></g></g><g clip-path="url(#44e0f2b929)"><g clip-path="url(#245340a5b2)"><path fill="#a60404" d="M 98.316406 31.496094 L 130.226562 31.496094 L 130.226562 59.375 L 98.316406 59.375 Z M 98.316406 31.496094 " fill-opacity="1" fill-rule="nonzero"/></g></g><g clip-path="url(#7dae5039fb)"><g clip-path="url(#55a9dd6aa9)"><path fill="#a60404" d="M 118.222656 31.496094 L 150.132812 31.496094 L 150.132812 59.375 L 118.222656 59.375 Z M 118.222656 31.496094 " fill-opacity="1" fill-rule="nonzero"/></g></g><g clip-path="url(#a0ed0fe2da)"><g clip-path="url(#1f66488682)"><path fill="#cc5200" d="M 137.660156 31.496094 L 169.570312 31.496094 L 169.570312 59.375 L 137.660156 59.375 Z M 137.660156 31.496094 " fill-opacity="1" fill-rule="nonzero"/></g></g><g clip-path="url(#90d7227403)"><g clip-path="url(#cf2dff8a29)"><path fill="#a60404" d="M 157.566406 31.496094 L 189.476562 31.496094 L 189.476562 59.375 L 157.566406 59.375 Z M 157.566406 31.496094 " fill-opacity="1" fill-rule="nonzero"/></g></g><g clip-path="url(#f60402cd3e)"><g clip-path="url(#781b9c81f2)"><path fill="#a60404" d="M 177 31.496094 L 208.910156 31.496094 L 208.910156 59.375 L 177 59.375 Z M 177 31.496094 " fill-opacity="1" fill-rule="nonzero"/></g></g><g clip-path="url(#fa3e77dc35)"><g clip-path="url(#1576976bb6)"><path fill="#a60404" d="M 58.710938 125.175781 L 90.621094 125.175781 L 90.621094 153.054688 L 58.710938 153.054688 Z M 58.710938 125.175781 " fill-opacity="1" fill-rule="nonzero"/></g></g><g clip-path="url(#7018c66227)"><g clip-path="url(#46916a63b7)"><path fill="#cc5200" d="M 78.746094 124.863281 L 110.65625 124.863281 L 110.65625 152.742188 L 78.746094 152.742188 Z M 78.746094 124.863281 " fill-opacity="1" fill-rule="nonzero"/></g></g><g clip-path="url(#8b1f51ec10)"><g clip-path="url(#213c043895)"><path fill="#a60404" d="M 98.316406 124.863281 L 130.226562 124.863281 L 130.226562 152.742188 L 98.316406 152.742188 Z M 98.316406 124.863281 " fill-opacity="1" fill-rule="nonzero"/></g></g><g clip-path="url(#db39c92b28)"><g clip-path="url(#4e5a9bb465)"><path fill="#a60404" d="M 118.222656 124.863281 L 150.132812 124.863281 L 150.132812 152.742188 L 118.222656 152.742188 Z M 118.222656 124.863281 " fill-opacity="1" fill-rule="nonzero"/></g></g><g clip-path="url(#03339eeed6)"><g clip-path="url(#47449e5cb7)"><path fill="#a60404" d="M 137.660156 125.175781 L 169.570312 125.175781 L 169.570312 153.054688 L 137.660156 153.054688 Z M 137.660156 125.175781 " fill-opacity="1" fill-rule="nonzero"/></g></g><g clip-path="url(#464d9de1e4)"><g clip-path="url(#6ac66c1350)"><path fill="#a60404" d="M 157.566406 125.175781 L 189.476562 125.175781 L 189.476562 153.054688 L 157.566406 153.054688 Z M 157.566406 125.175781 " fill-opacity="1" fill-rule="nonzero"/></g></g><g clip-path="url(#fa526a77af)"><g clip-path="url(#b03a99f3c5)"><path fill="#a60404" d="M 177 125.175781 L 208.910156 125.175781 L 208.910156 153.054688 L 177 153.054688 Z M 177 125.175781 " fill-opacity="1" fill-rule="nonzero"/></g></g><g clip-path="url(#cd8bf0aca5)"><g clip-path="url(#34ae21c44b)"><path fill="#a60404" d="M 58.710938 93.769531 L 90.621094 93.769531 L 90.621094 121.652344 L 58.710938 121.652344 Z M 58.710938 93.769531 " fill-opacity="1" fill-rule="nonzero"/></g></g><g clip-path="url(#95968ee806)"><g clip-path="url(#1fd7221c88)"><path fill="#a60404" d="M 78.746094 93.769531 L 110.65625 93.769531 L 110.65625 121.652344 L 78.746094 121.652344 Z M 78.746094 93.769531 " fill-opacity="1" fill-rule="nonzero"/></g></g><g clip-path="url(#eba996fba5)"><g clip-path="url(#76c0ba024f)"><path fill="#a60404" d="M 98.316406 93.769531 L 130.226562 93.769531 L 130.226562 121.652344 L 98.316406 121.652344 Z M 98.316406 93.769531 " fill-opacity="1" fill-rule="nonzero"/></g></g><g clip-path="url(#5d1922b837)"><g clip-path="url(#e31bad7af5)"><path fill="#a60404" d="M 118.222656 93.769531 L 150.132812 93.769531 L 150.132812 121.652344 L 118.222656 121.652344 Z M 118.222656 93.769531 " fill-opacity="1" fill-rule="nonzero"/></g></g><g clip-path="url(#fb9c10c7ea)"><g clip-path="url(#518c1e895a)"><path fill="#cc5200" d="M 137.660156 93.769531 L 169.570312 93.769531 L 169.570312 121.652344 L 137.660156 121.652344 Z M 137.660156 93.769531 " fill-opacity="1" fill-rule="nonzero"/></g></g><g clip-path="url(#4a940490ca)"><g clip-path="url(#7789363168)"><path fill="#a60404" d="M 157.566406 93.769531 L 189.476562 93.769531 L 189.476562 121.652344 L 157.566406 121.652344 Z M 157.566406 93.769531 " fill-opacity="1" fill-rule="nonzero"/></g></g><g clip-path="url(#0d78fb06d2)"><g clip-path="url(#5a39f937ac)"><path fill="#a60404" d="M 177 93.769531 L 208.910156 93.769531 L 208.910156 121.652344 L 177 121.652344 Z M 177 93.769531 " fill-opacity="1" fill-rule="nonzero"/></g></g><g clip-path="url(#22aa5075ab)"><g clip-path="url(#90962bd1a2)"><path fill="#a60404" d="M 58.710938 156.046875 L 90.621094 156.046875 L 90.621094 183.925781 L 58.710938 183.925781 Z M 58.710938 156.046875 " fill-opacity="1" fill-rule="nonzero"/></g></g><g clip-path="url(#3048ed4d26)"><g clip-path="url(#c9a2e360c7)"><path fill="#a60404" d="M 78.746094 156.046875 L 110.65625 156.046875 L 110.65625 183.925781 L 78.746094 183.925781 Z M 78.746094 156.046875 " fill-opacity="1" fill-rule="nonzero"/></g></g><g clip-path="url(#1c66d2de9f)"><g clip-path="url(#ce9119053a)"><path fill="#a60404" d="M 98.316406 156.046875 L 130.226562 156.046875 L 130.226562 183.925781 L 98.316406 183.925781 Z M 98.316406 156.046875 " fill-opacity="1" fill-rule="nonzero"/></g></g><g clip-path="url(#0fce7ebb20)"><g clip-path="url(#5d2c357c4c)"><path fill="#a60404" d="M 118.222656 156.046875 L 150.132812 156.046875 L 150.132812 183.925781 L 118.222656 183.925781 Z M 118.222656 156.046875 " fill-opacity="1" fill-rule="nonzero"/></g></g><g clip-path="url(#7cf03b642e)"><g clip-path="url(#d86cb179d0)"><path fill="#cc5200" d="M 137.660156 156.046875 L 169.570312 156.046875 L 169.570312 183.925781 L 137.660156 183.925781 Z M 137.660156 156.046875 " fill-opacity="1" fill-rule="nonzero"/></g></g><g clip-path="url(#3a72233654)"><g clip-path="url(#6577619afc)"><path fill="#a60404" d="M 157.566406 156.046875 L 189.476562 156.046875 L 189.476562 183.925781 L 157.566406 183.925781 Z M 157.566406 156.046875 " fill-opacity="1" fill-rule="nonzero"/></g></g><g clip-path="url(#da1888fe58)"><g clip-path="url(#d89817f184)"><path fill="#a60404" d="M 196.671875 93.769531 L 228.582031 93.769531 L 228.582031 121.652344 L 196.671875 121.652344 Z M 196.671875 93.769531 " fill-opacity="1" fill-rule="nonzero"/></g></g><g clip-path="url(#b989807320)"><g clip-path="url(#492dea966a)"><path fill="#cc5200" d="M 39.402344 0 L 71.316406 0 L 71.316406 27.878906 L 39.402344 27.878906 Z M 39.402344 0 " fill-opacity="1" fill-rule="nonzero"/></g></g><g clip-path="url(#2dd9521573)"><g clip-path="url(#03d292550a)"><path fill="#a60404" d="M 19.367188 62.585938 L 51.277344 62.585938 L 51.277344 90.46875 L 19.367188 90.46875 Z M 19.367188 62.585938 " fill-opacity="1" fill-rule="nonzero"/></g></g><g clip-path="url(#eff193e26a)"><g clip-path="url(#2e0f198e6a)"><path fill="#cc5200" d="M 39.402344 62.277344 L 71.316406 62.277344 L 71.316406 90.15625 L 39.402344 90.15625 Z M 39.402344 62.277344 " fill-opacity="1" fill-rule="nonzero"/></g></g><g clip-path="url(#0b137a5beb)"><g clip-path="url(#c03f9db7ee)"><path fill="#a60404" d="M 19.367188 31.183594 L 51.277344 31.183594 L 51.277344 59.066406 L 19.367188 59.066406 Z M 19.367188 31.183594 " fill-opacity="1" fill-rule="nonzero"/></g></g><g clip-path="url(#41b0e8f58a)"><g clip-path="url(#78bd26a198)"><path fill="#a60404" d="M 39.402344 31.183594 L 71.316406 31.183594 L 71.316406 59.066406 L 39.402344 59.066406 Z M 39.402344 31.183594 " fill-opacity="1" fill-rule="nonzero"/></g></g><g clip-path="url(#12f559adb9)"><g clip-path="url(#f834590b71)"><path fill="#a60404" d="M 19.367188 124.863281 L 51.277344 124.863281 L 51.277344 152.742188 L 19.367188 152.742188 Z M 19.367188 124.863281 " fill-opacity="1" fill-rule="nonzero"/></g></g><g clip-path="url(#72e16d287b)"><g clip-path="url(#8a56282cd7)"><path fill="#cc5200" d="M 39.402344 124.550781 L 71.316406 124.550781 L 71.316406 152.433594 L 39.402344 152.433594 Z M 39.402344 124.550781 " fill-opacity="1" fill-rule="nonzero"/></g></g><g clip-path="url(#cd96339b5e)"><g clip-path="url(#03d6786ad3)"><path fill="#a60404" d="M 19.367188 93.460938 L 51.277344 93.460938 L 51.277344 121.339844 L 19.367188 121.339844 Z M 19.367188 93.460938 " fill-opacity="1" fill-rule="nonzero"/></g></g><g clip-path="url(#f09b4f19e3)"><g clip-path="url(#6b7f3e8698)"><path fill="#a60404" d="M 39.402344 93.460938 L 71.316406 93.460938 L 71.316406 121.339844 L 39.402344 121.339844 Z M 39.402344 93.460938 " fill-opacity="1" fill-rule="nonzero"/></g></g><g clip-path="url(#a362c317bc)"><g clip-path="url(#329769954a)"><path fill="#a60404" d="M 39.402344 155.734375 L 71.316406 155.734375 L 71.316406 183.617188 L 39.402344 183.617188 Z M 39.402344 155.734375 " fill-opacity="1" fill-rule="nonzero"/></g></g><g clip-path="url(#0a7eac1420)"><g clip-path="url(#2ec9ba8500)"><path fill="#cc5200" d="M 0.0625 61.964844 L 31.972656 61.964844 L 31.972656 89.84375 L 0.0625 89.84375 Z M 0.0625 61.964844 " fill-opacity="1" fill-rule="nonzero"/></g></g><g clip-path="url(#2d5057178c)"><g clip-path="url(#8840d73acc)"><path fill="#a60404" d="M 0.0625 93.148438 L 31.972656 93.148438 L 31.972656 121.027344 L 0.0625 121.027344 Z M 0.0625 93.148438 " fill-opacity="1" fill-rule="nonzero"/></g></g></svg>