<svg xmlns="http://www.w3.org/2000/svg" xmlns:xlink="http://www.w3.org/1999/xlink" width="1366" zoomAndPan="magnify" viewBox="0 0 1024.5 354.749987" height="473" preserveAspectRatio="xMidYMid meet" version="1.0"><defs><clipPath id="6b80427259"><path d="M 0.109375 0 L 1023.890625 0 L 1023.890625 354.5 L 0.109375 354.5 Z M 0.109375 0 " clip-rule="nonzero"/></clipPath><clipPath id="ed85d42ed8"><path d="M 1012.6875 5.726562 L 1023.890625 5.726562 L 1023.890625 33.664062 L 1012.6875 33.664062 Z M 1012.6875 5.726562 " clip-rule="nonzero"/></clipPath><clipPath id="d58ff34a82"><path d="M 1028.699219 33.664062 L 1012.734375 5.726562 L 1044.660156 5.726562 Z M 1028.699219 33.664062 " clip-rule="nonzero"/></clipPath><clipPath id="a91bb81807"><path d="M 993.546875 11.285156 L 1023.890625 11.285156 L 1023.890625 39.222656 L 993.546875 39.222656 Z M 993.546875 11.285156 " clip-rule="nonzero"/></clipPath><clipPath id="d08f0ea805"><path d="M 1009.558594 11.285156 L 993.59375 39.222656 L 1025.523438 39.222656 Z M 1009.558594 11.285156 " clip-rule="nonzero"/></clipPath><clipPath id="2765248ef8"><path d="M 974.40625 5.726562 L 1006.382812 5.726562 L 1006.382812 33.664062 L 974.40625 33.664062 Z M 974.40625 5.726562 " clip-rule="nonzero"/></clipPath><clipPath id="409bc675b7"><path d="M 990.417969 33.664062 L 974.453125 5.726562 L 1006.382812 5.726562 Z M 990.417969 33.664062 " clip-rule="nonzero"/></clipPath><clipPath id="8cfd260e5e"><path d="M 955.269531 11.285156 L 987.242188 11.285156 L 987.242188 39.222656 L 955.269531 39.222656 Z M 955.269531 11.285156 " clip-rule="nonzero"/></clipPath><clipPath id="77514500a0"><path d="M 971.277344 11.285156 L 955.316406 39.222656 L 987.242188 39.222656 Z M 971.277344 11.285156 " clip-rule="nonzero"/></clipPath><clipPath id="32e3f83301"><path d="M 936.128906 5.726562 L 968.101562 5.726562 L 968.101562 33.664062 L 936.128906 33.664062 Z M 936.128906 5.726562 " clip-rule="nonzero"/></clipPath><clipPath id="1be36e18a4"><path d="M 952.136719 33.664062 L 936.175781 5.726562 L 968.101562 5.726562 Z M 952.136719 33.664062 " clip-rule="nonzero"/></clipPath><clipPath id="3af120aa3b"><path d="M 917 11.285156 L 948.960938 11.285156 L 948.960938 39.222656 L 917 39.222656 Z M 917 11.285156 " clip-rule="nonzero"/></clipPath><clipPath id="bcf6021818"><path d="M 933 11.285156 L 917.035156 39.222656 L 948.960938 39.222656 Z M 933 11.285156 " clip-rule="nonzero"/></clipPath><clipPath id="584b94b78d"><path d="M 897.847656 5.726562 L 929.824219 5.726562 L 929.824219 33.664062 L 897.847656 33.664062 Z M 897.847656 5.726562 " clip-rule="nonzero"/></clipPath><clipPath id="3046ef5fa4"><path d="M 913.859375 33.664062 L 897.894531 5.726562 L 929.824219 5.726562 Z M 913.859375 33.664062 " clip-rule="nonzero"/></clipPath><clipPath id="041709d05e"><path d="M 878.707031 11.285156 L 910.683594 11.285156 L 910.683594 39.222656 L 878.707031 39.222656 Z M 878.707031 11.285156 " clip-rule="nonzero"/></clipPath><clipPath id="40fe1b92d4"><path d="M 894.71875 11.285156 L 878.753906 39.222656 L 910.683594 39.222656 Z M 894.71875 11.285156 " clip-rule="nonzero"/></clipPath><clipPath id="45f02e8d71"><path d="M 859.925781 5.726562 L 891.898438 5.726562 L 891.898438 33.664062 L 859.925781 33.664062 Z M 859.925781 5.726562 " clip-rule="nonzero"/></clipPath><clipPath id="9e1d9c7a8b"><path d="M 875.933594 33.664062 L 859.972656 5.726562 L 891.898438 5.726562 Z M 875.933594 33.664062 " clip-rule="nonzero"/></clipPath><clipPath id="1113170999"><path d="M 954.910156 44.78125 L 986.886719 44.78125 L 986.886719 72.71875 L 954.910156 72.71875 Z M 954.910156 44.78125 " clip-rule="nonzero"/></clipPath><clipPath id="cb127b3cbb"><path d="M 970.921875 72.71875 L 954.957031 44.78125 L 986.886719 44.78125 Z M 970.921875 72.71875 " clip-rule="nonzero"/></clipPath><clipPath id="9f021f3348"><path d="M 935.769531 50.339844 L 967.746094 50.339844 L 967.746094 78.277344 L 935.769531 78.277344 Z M 935.769531 50.339844 " clip-rule="nonzero"/></clipPath><clipPath id="796bb3d9df"><path d="M 951.78125 50.339844 L 935.816406 78.277344 L 967.746094 78.277344 Z M 951.78125 50.339844 " clip-rule="nonzero"/></clipPath><clipPath id="d6a2f29433"><path d="M 840 11.285156 L 871.9375 11.285156 L 871.9375 39.222656 L 840 39.222656 Z M 840 11.285156 " clip-rule="nonzero"/></clipPath><clipPath id="3de7076088"><path d="M 855.976562 11.285156 L 840.011719 39.222656 L 871.9375 39.222656 Z M 855.976562 11.285156 " clip-rule="nonzero"/></clipPath><clipPath id="53c5303051"><path d="M 820.71875 5.726562 L 852.691406 5.726562 L 852.691406 33.664062 L 820.71875 33.664062 Z M 820.71875 5.726562 " clip-rule="nonzero"/></clipPath><clipPath id="4d548fb5a1"><path d="M 836.726562 33.664062 L 820.765625 5.726562 L 852.691406 5.726562 Z M 836.726562 33.664062 " clip-rule="nonzero"/></clipPath><clipPath id="ce53b17f21"><path d="M 801.683594 11.285156 L 833.660156 11.285156 L 833.660156 39.222656 L 801.683594 39.222656 Z M 801.683594 11.285156 " clip-rule="nonzero"/></clipPath><clipPath id="839b6358f6"><path d="M 817.695312 11.285156 L 801.730469 39.222656 L 833.660156 39.222656 Z M 817.695312 11.285156 " clip-rule="nonzero"/></clipPath><clipPath id="ab4bfd8d14"><path d="M 782.4375 5.726562 L 814.410156 5.726562 L 814.410156 33.664062 L 782.4375 33.664062 Z M 782.4375 5.726562 " clip-rule="nonzero"/></clipPath><clipPath id="cd86eebedc"><path d="M 798.449219 33.664062 L 782.484375 5.726562 L 814.410156 5.726562 Z M 798.449219 33.664062 " clip-rule="nonzero"/></clipPath><clipPath id="439042ea3d"><path d="M 763.40625 11.285156 L 795.378906 11.285156 L 795.378906 39.222656 L 763.40625 39.222656 Z M 763.40625 11.285156 " clip-rule="nonzero"/></clipPath><clipPath id="1242399313"><path d="M 779.414062 11.285156 L 763.453125 39.222656 L 795.378906 39.222656 Z M 779.414062 11.285156 " clip-rule="nonzero"/></clipPath><clipPath id="b623f00e33"><path d="M 744.515625 5.726562 L 776.488281 5.726562 L 776.488281 33.664062 L 744.515625 33.664062 Z M 744.515625 5.726562 " clip-rule="nonzero"/></clipPath><clipPath id="dea39b4bde"><path d="M 760.523438 33.664062 L 744.5625 5.726562 L 776.488281 5.726562 Z M 760.523438 33.664062 " clip-rule="nonzero"/></clipPath><clipPath id="2d6f890b9c"><path d="M 725.375 11.285156 L 757.347656 11.285156 L 757.347656 39.222656 L 725.375 39.222656 Z M 725.375 11.285156 " clip-rule="nonzero"/></clipPath><clipPath id="6cd7e2d26c"><path d="M 741.386719 11.285156 L 725.421875 39.222656 L 757.347656 39.222656 Z M 741.386719 11.285156 " clip-rule="nonzero"/></clipPath><clipPath id="bd9139b87b"><path d="M 706.234375 5.726562 L 738.207031 5.726562 L 738.207031 33.664062 L 706.234375 33.664062 Z M 706.234375 5.726562 " clip-rule="nonzero"/></clipPath><clipPath id="8793fe4d57"><path d="M 722.246094 33.664062 L 706.28125 5.726562 L 738.207031 5.726562 Z M 722.246094 33.664062 " clip-rule="nonzero"/></clipPath><clipPath id="53942be6d0"><path d="M 687.09375 11.285156 L 719.070312 11.285156 L 719.070312 39.222656 L 687.09375 39.222656 Z M 687.09375 11.285156 " clip-rule="nonzero"/></clipPath><clipPath id="bf605f56ce"><path d="M 703.105469 11.285156 L 687.140625 39.222656 L 719.070312 39.222656 Z M 703.105469 11.285156 " clip-rule="nonzero"/></clipPath><clipPath id="90afe463fd"><path d="M 668 5.726562 L 699.929688 5.726562 L 699.929688 33.664062 L 668 33.664062 Z M 668 5.726562 " clip-rule="nonzero"/></clipPath><clipPath id="850461d894"><path d="M 683.964844 33.664062 L 668 5.726562 L 699.929688 5.726562 Z M 683.964844 33.664062 " clip-rule="nonzero"/></clipPath><clipPath id="fa2d602cd6"><path d="M 648.816406 11.285156 L 680.789062 11.285156 L 680.789062 39.222656 L 648.816406 39.222656 Z M 648.816406 11.285156 " clip-rule="nonzero"/></clipPath><clipPath id="a5c2ddaa74"><path d="M 664.824219 11.285156 L 648.863281 39.222656 L 680.789062 39.222656 Z M 664.824219 11.285156 " clip-rule="nonzero"/></clipPath><clipPath id="8b15e7cb88"><path d="M 629.675781 5.726562 L 661.648438 5.726562 L 661.648438 33.664062 L 629.675781 33.664062 Z M 629.675781 5.726562 " clip-rule="nonzero"/></clipPath><clipPath id="8953009068"><path d="M 645.683594 33.664062 L 629.722656 5.726562 L 661.648438 5.726562 Z M 645.683594 33.664062 " clip-rule="nonzero"/></clipPath><clipPath id="0f5e54c1fe"><path d="M 610.535156 11.285156 L 642.507812 11.285156 L 642.507812 39.222656 L 610.535156 39.222656 Z M 610.535156 11.285156 " clip-rule="nonzero"/></clipPath><clipPath id="ef77e9adc8"><path d="M 626.546875 11.285156 L 610.582031 39.222656 L 642.507812 39.222656 Z M 626.546875 11.285156 " clip-rule="nonzero"/></clipPath><clipPath id="46bb62b258"><path d="M 591.75 5.726562 L 623.726562 5.726562 L 623.726562 33.664062 L 591.75 33.664062 Z M 591.75 5.726562 " clip-rule="nonzero"/></clipPath><clipPath id="6d2b9b31d1"><path d="M 607.761719 33.664062 L 591.796875 5.726562 L 623.726562 5.726562 Z M 607.761719 33.664062 " clip-rule="nonzero"/></clipPath><clipPath id="60c8cf428c"><path d="M 571.789062 11.285156 L 603.765625 11.285156 L 603.765625 39.222656 L 571.789062 39.222656 Z M 571.789062 11.285156 " clip-rule="nonzero"/></clipPath><clipPath id="5a0fbf9636"><path d="M 587.800781 11.285156 L 571.835938 39.222656 L 603.765625 39.222656 Z M 587.800781 11.285156 " clip-rule="nonzero"/></clipPath><clipPath id="6eba9c7efe"><path d="M 552.328125 5.726562 L 584.304688 5.726562 L 584.304688 33.664062 L 552.328125 33.664062 Z M 552.328125 5.726562 " clip-rule="nonzero"/></clipPath><clipPath id="333532f08b"><path d="M 568.339844 33.664062 L 552.375 5.726562 L 584.304688 5.726562 Z M 568.339844 33.664062 " clip-rule="nonzero"/></clipPath><clipPath id="d8228c3cf0"><path d="M 533.511719 11.285156 L 565.484375 11.285156 L 565.484375 39.222656 L 533.511719 39.222656 Z M 533.511719 11.285156 " clip-rule="nonzero"/></clipPath><clipPath id="f571778ee9"><path d="M 549.523438 11.285156 L 533.558594 39.222656 L 565.484375 39.222656 Z M 549.523438 11.285156 " clip-rule="nonzero"/></clipPath><clipPath id="000bb1d7c3"><path d="M 514.050781 5.726562 L 546.023438 5.726562 L 546.023438 33.664062 L 514.050781 33.664062 Z M 514.050781 5.726562 " clip-rule="nonzero"/></clipPath><clipPath id="778da1a813"><path d="M 530.058594 33.664062 L 514.097656 5.726562 L 546.023438 5.726562 Z M 530.058594 33.664062 " clip-rule="nonzero"/></clipPath><clipPath id="3cef862062"><path d="M 495.230469 11.285156 L 527.207031 11.285156 L 527.207031 39.222656 L 495.230469 39.222656 Z M 495.230469 11.285156 " clip-rule="nonzero"/></clipPath><clipPath id="7ddc25a9e0"><path d="M 511.242188 11.285156 L 495.277344 39.222656 L 527.207031 39.222656 Z M 511.242188 11.285156 " clip-rule="nonzero"/></clipPath><clipPath id="145420aa3b"><path d="M 476.125 5.726562 L 508.101562 5.726562 L 508.101562 33.664062 L 476.125 33.664062 Z M 476.125 5.726562 " clip-rule="nonzero"/></clipPath><clipPath id="9eca73bab6"><path d="M 492.136719 33.664062 L 476.171875 5.726562 L 508.101562 5.726562 Z M 492.136719 33.664062 " clip-rule="nonzero"/></clipPath><clipPath id="424a84a268"><path d="M 457.199219 11.285156 L 489.175781 11.285156 L 489.175781 39.222656 L 457.199219 39.222656 Z M 457.199219 11.285156 " clip-rule="nonzero"/></clipPath><clipPath id="5de6e71873"><path d="M 473.210938 11.285156 L 457.246094 39.222656 L 489.175781 39.222656 Z M 473.210938 11.285156 " clip-rule="nonzero"/></clipPath><clipPath id="543ac7a64a"><path d="M 438.0625 5.726562 L 470.035156 5.726562 L 470.035156 33.664062 L 438.0625 33.664062 Z M 438.0625 5.726562 " clip-rule="nonzero"/></clipPath><clipPath id="9b73f86ff6"><path d="M 454.070312 33.664062 L 438.109375 5.726562 L 470.035156 5.726562 Z M 454.070312 33.664062 " clip-rule="nonzero"/></clipPath><clipPath id="9a05ff7803"><path d="M 418.921875 11.285156 L 450.894531 11.285156 L 450.894531 39.222656 L 418.921875 39.222656 Z M 418.921875 11.285156 " clip-rule="nonzero"/></clipPath><clipPath id="f414c73a7e"><path d="M 434.929688 11.285156 L 418.96875 39.222656 L 450.894531 39.222656 Z M 434.929688 11.285156 " clip-rule="nonzero"/></clipPath><clipPath id="a79c1e1355"><path d="M 399.78125 5.726562 L 431.753906 5.726562 L 431.753906 33.664062 L 399.78125 33.664062 Z M 399.78125 5.726562 " clip-rule="nonzero"/></clipPath><clipPath id="c60b4fb1f7"><path d="M 415.792969 33.664062 L 399.828125 5.726562 L 431.753906 5.726562 Z M 415.792969 33.664062 " clip-rule="nonzero"/></clipPath><clipPath id="266e6a6d46"><path d="M 380.640625 11.285156 L 412.617188 11.285156 L 412.617188 39.222656 L 380.640625 39.222656 Z M 380.640625 11.285156 " clip-rule="nonzero"/></clipPath><clipPath id="c855fec29e"><path d="M 396.652344 11.285156 L 380.6875 39.222656 L 412.617188 39.222656 Z M 396.652344 11.285156 " clip-rule="nonzero"/></clipPath><clipPath id="b8488f7de5"><path d="M 361.5 5.726562 L 393.476562 5.726562 L 393.476562 33.664062 L 361.5 33.664062 Z M 361.5 5.726562 " clip-rule="nonzero"/></clipPath><clipPath id="b9a5363077"><path d="M 377.511719 33.664062 L 361.546875 5.726562 L 393.476562 5.726562 Z M 377.511719 33.664062 " clip-rule="nonzero"/></clipPath><clipPath id="634f434009"><path d="M 342.359375 11.285156 L 374.335938 11.285156 L 374.335938 39.222656 L 342.359375 39.222656 Z M 342.359375 11.285156 " clip-rule="nonzero"/></clipPath><clipPath id="ea4c83f2f0"><path d="M 358.371094 11.285156 L 342.40625 39.222656 L 374.335938 39.222656 Z M 358.371094 11.285156 " clip-rule="nonzero"/></clipPath><clipPath id="40b0ad05ae"><path d="M 323.578125 5.726562 L 355.550781 5.726562 L 355.550781 33.664062 L 323.578125 33.664062 Z M 323.578125 5.726562 " clip-rule="nonzero"/></clipPath><clipPath id="b5539e4879"><path d="M 339.589844 33.664062 L 323.625 5.726562 L 355.550781 5.726562 Z M 339.589844 33.664062 " clip-rule="nonzero"/></clipPath><clipPath id="a7aa1dce02"><path d="M 303.511719 10.226562 L 335.484375 10.226562 L 335.484375 38.160156 L 303.511719 38.160156 Z M 303.511719 10.226562 " clip-rule="nonzero"/></clipPath><clipPath id="3f3254897c"><path d="M 319.519531 10.226562 L 303.558594 38.160156 L 335.484375 38.160156 Z M 319.519531 10.226562 " clip-rule="nonzero"/></clipPath><clipPath id="c0581534ca"><path d="M 284.371094 5.726562 L 316.34375 5.726562 L 316.34375 33.664062 L 284.371094 33.664062 Z M 284.371094 5.726562 " clip-rule="nonzero"/></clipPath><clipPath id="bf30e7b0ca"><path d="M 300.378906 33.664062 L 284.417969 5.726562 L 316.34375 5.726562 Z M 300.378906 33.664062 " clip-rule="nonzero"/></clipPath><clipPath id="39e83ceb0c"><path d="M 265.230469 10.226562 L 297.203125 10.226562 L 297.203125 38.160156 L 265.230469 38.160156 Z M 265.230469 10.226562 " clip-rule="nonzero"/></clipPath><clipPath id="8743ac11ba"><path d="M 281.242188 10.226562 L 265.277344 38.160156 L 297.203125 38.160156 Z M 281.242188 10.226562 " clip-rule="nonzero"/></clipPath><clipPath id="96fd1b451f"><path d="M 246.089844 5.726562 L 278.066406 5.726562 L 278.066406 33.664062 L 246.089844 33.664062 Z M 246.089844 5.726562 " clip-rule="nonzero"/></clipPath><clipPath id="81a2e27dfb"><path d="M 262.101562 33.664062 L 246.136719 5.726562 L 278.066406 5.726562 Z M 262.101562 33.664062 " clip-rule="nonzero"/></clipPath><clipPath id="ad7a8a89ae"><path d="M 226.949219 10.226562 L 258.925781 10.226562 L 258.925781 38.160156 L 226.949219 38.160156 Z M 226.949219 10.226562 " clip-rule="nonzero"/></clipPath><clipPath id="bc8e14c8bc"><path d="M 242.960938 10.226562 L 226.996094 38.160156 L 258.925781 38.160156 Z M 242.960938 10.226562 " clip-rule="nonzero"/></clipPath><clipPath id="11e2706243"><path d="M 208.167969 5.726562 L 240.140625 5.726562 L 240.140625 33.664062 L 208.167969 33.664062 Z M 208.167969 5.726562 " clip-rule="nonzero"/></clipPath><clipPath id="88d715e53b"><path d="M 224.175781 33.664062 L 208.214844 5.726562 L 240.140625 5.726562 Z M 224.175781 33.664062 " clip-rule="nonzero"/></clipPath><clipPath id="6c48bbdd78"><path d="M 189.027344 11.285156 L 221 11.285156 L 221 39.222656 L 189.027344 39.222656 Z M 189.027344 11.285156 " clip-rule="nonzero"/></clipPath><clipPath id="8fa626b08b"><path d="M 205.039062 11.285156 L 189.074219 39.222656 L 221 39.222656 Z M 205.039062 11.285156 " clip-rule="nonzero"/></clipPath><clipPath id="d07f5df2da"><path d="M 169.886719 5.726562 L 201.863281 5.726562 L 201.863281 33.664062 L 169.886719 33.664062 Z M 169.886719 5.726562 " clip-rule="nonzero"/></clipPath><clipPath id="8820f3dea1"><path d="M 185.898438 33.664062 L 169.933594 5.726562 L 201.863281 5.726562 Z M 185.898438 33.664062 " clip-rule="nonzero"/></clipPath><clipPath id="dc5674d58a"><path d="M 150.746094 11.285156 L 182.722656 11.285156 L 182.722656 39.222656 L 150.746094 39.222656 Z M 150.746094 11.285156 " clip-rule="nonzero"/></clipPath><clipPath id="9e458df9f0"><path d="M 166.757812 11.285156 L 150.792969 39.222656 L 182.722656 39.222656 Z M 166.757812 11.285156 " clip-rule="nonzero"/></clipPath><clipPath id="e75532eb22"><path d="M 131.609375 5.726562 L 163.582031 5.726562 L 163.582031 33.664062 L 131.609375 33.664062 Z M 131.609375 5.726562 " clip-rule="nonzero"/></clipPath><clipPath id="f6bcf88824"><path d="M 147.617188 33.664062 L 131.652344 5.726562 L 163.582031 5.726562 Z M 147.617188 33.664062 " clip-rule="nonzero"/></clipPath><clipPath id="6878b8d871"><path d="M 112.46875 11.285156 L 144.441406 11.285156 L 144.441406 39.222656 L 112.46875 39.222656 Z M 112.46875 11.285156 " clip-rule="nonzero"/></clipPath><clipPath id="bc685b50d2"><path d="M 128.476562 11.285156 L 112.515625 39.222656 L 144.441406 39.222656 Z M 128.476562 11.285156 " clip-rule="nonzero"/></clipPath><clipPath id="2b9247b3a5"><path d="M 93.328125 5.726562 L 125.300781 5.726562 L 125.300781 33.664062 L 93.328125 33.664062 Z M 93.328125 5.726562 " clip-rule="nonzero"/></clipPath><clipPath id="90c185873f"><path d="M 109.339844 33.664062 L 93.375 5.726562 L 125.300781 5.726562 Z M 109.339844 33.664062 " clip-rule="nonzero"/></clipPath><clipPath id="0941567f43"><path d="M 74.1875 11.285156 L 106.160156 11.285156 L 106.160156 39.222656 L 74.1875 39.222656 Z M 74.1875 11.285156 " clip-rule="nonzero"/></clipPath><clipPath id="78cf1e786b"><path d="M 90.199219 11.285156 L 74.234375 39.222656 L 106.160156 39.222656 Z M 90.199219 11.285156 " clip-rule="nonzero"/></clipPath><clipPath id="c5a682f68a"><path d="M 55.40625 5.726562 L 87.378906 5.726562 L 87.378906 33.664062 L 55.40625 33.664062 Z M 55.40625 5.726562 " clip-rule="nonzero"/></clipPath><clipPath id="c351e0e1a7"><path d="M 71.414062 33.664062 L 55.449219 5.726562 L 87.378906 5.726562 Z M 71.414062 33.664062 " clip-rule="nonzero"/></clipPath><clipPath id="e28152cb98"><path d="M 35.335938 10.226562 L 67.3125 10.226562 L 67.3125 38.160156 L 35.335938 38.160156 Z M 35.335938 10.226562 " clip-rule="nonzero"/></clipPath><clipPath id="a83448a66f"><path d="M 51.347656 10.226562 L 35.382812 38.160156 L 67.3125 38.160156 Z M 51.347656 10.226562 " clip-rule="nonzero"/></clipPath><clipPath id="a4c4f6c980"><path d="M 16 5.726562 L 47.957031 5.726562 L 47.957031 33.664062 L 16 33.664062 Z M 16 5.726562 " clip-rule="nonzero"/></clipPath><clipPath id="16927a11ef"><path d="M 31.992188 33.664062 L 16.027344 5.726562 L 47.957031 5.726562 Z M 31.992188 33.664062 " clip-rule="nonzero"/></clipPath><clipPath id="bad3b80e85"><path d="M 0.109375 10.226562 L 29.03125 10.226562 L 29.03125 38.160156 L 0.109375 38.160156 Z M 0.109375 10.226562 " clip-rule="nonzero"/></clipPath><clipPath id="e8a2d3b202"><path d="M 13.066406 10.226562 L -2.894531 38.160156 L 29.03125 38.160156 Z M 13.066406 10.226562 " clip-rule="nonzero"/></clipPath><clipPath id="76042125bd"><path d="M 0.109375 5.726562 L 9.675781 5.726562 L 9.675781 33.664062 L 0.109375 33.664062 Z M 0.109375 5.726562 " clip-rule="nonzero"/></clipPath><clipPath id="31c79e1361"><path d="M -6.289062 33.664062 L -22.25 5.726562 L 9.675781 5.726562 Z M -6.289062 33.664062 " clip-rule="nonzero"/></clipPath><clipPath id="d3fafa99df"><path d="M 897.917969 50.339844 L 929.894531 50.339844 L 929.894531 78.277344 L 897.917969 78.277344 Z M 897.917969 50.339844 " clip-rule="nonzero"/></clipPath><clipPath id="02ba44b6b6"><path d="M 913.929688 50.339844 L 897.964844 78.277344 L 929.894531 78.277344 Z M 913.929688 50.339844 " clip-rule="nonzero"/></clipPath><clipPath id="7c82a2bd02"><path d="M 878.777344 44.78125 L 910.753906 44.78125 L 910.753906 72.71875 L 878.777344 72.71875 Z M 878.777344 44.78125 " clip-rule="nonzero"/></clipPath><clipPath id="784762c713"><path d="M 894.789062 72.71875 L 878.824219 44.78125 L 910.753906 44.78125 Z M 894.789062 72.71875 " clip-rule="nonzero"/></clipPath><clipPath id="73980d37bd"><path d="M 859.640625 50.339844 L 891.613281 50.339844 L 891.613281 78.277344 L 859.640625 78.277344 Z M 859.640625 50.339844 " clip-rule="nonzero"/></clipPath><clipPath id="3011d26f5a"><path d="M 875.648438 50.339844 L 859.6875 78.277344 L 891.613281 78.277344 Z M 875.648438 50.339844 " clip-rule="nonzero"/></clipPath><clipPath id="a5ce1efa1e"><path d="M 763.367188 44.78125 L 795.34375 44.78125 L 795.34375 72.71875 L 763.367188 72.71875 Z M 763.367188 44.78125 " clip-rule="nonzero"/></clipPath><clipPath id="28347c23fb"><path d="M 779.378906 72.71875 L 763.414062 44.78125 L 795.34375 44.78125 Z M 779.378906 72.71875 " clip-rule="nonzero"/></clipPath><clipPath id="bac13abf28"><path d="M 744.335938 50.339844 L 776.308594 50.339844 L 776.308594 78.277344 L 744.335938 78.277344 Z M 744.335938 50.339844 " clip-rule="nonzero"/></clipPath><clipPath id="9499b7865e"><path d="M 760.347656 50.339844 L 744.382812 78.277344 L 776.308594 78.277344 Z M 760.347656 50.339844 " clip-rule="nonzero"/></clipPath><clipPath id="144edea8fc"><path d="M 687.164062 44.78125 L 719.140625 44.78125 L 719.140625 72.71875 L 687.164062 72.71875 Z M 687.164062 44.78125 " clip-rule="nonzero"/></clipPath><clipPath id="9c10123c70"><path d="M 703.175781 72.71875 L 687.210938 44.78125 L 719.140625 44.78125 Z M 703.175781 72.71875 " clip-rule="nonzero"/></clipPath><clipPath id="dafd217d7d"><path d="M 648.886719 44.78125 L 680.859375 44.78125 L 680.859375 72.71875 L 648.886719 72.71875 Z M 648.886719 44.78125 " clip-rule="nonzero"/></clipPath><clipPath id="91840d1c54"><path d="M 664.894531 72.71875 L 648.933594 44.78125 L 680.859375 44.78125 Z M 664.894531 72.71875 " clip-rule="nonzero"/></clipPath><clipPath id="1aa37b7c90"><path d="M 629.746094 50.339844 L 661.71875 50.339844 L 661.71875 78.277344 L 629.746094 78.277344 Z M 629.746094 50.339844 " clip-rule="nonzero"/></clipPath><clipPath id="fb79edfac0"><path d="M 645.757812 50.339844 L 629.792969 78.277344 L 661.71875 78.277344 Z M 645.757812 50.339844 " clip-rule="nonzero"/></clipPath><clipPath id="6395cc591a"><path d="M 552.722656 50.339844 L 584.695312 50.339844 L 584.695312 78.277344 L 552.722656 78.277344 Z M 552.722656 50.339844 " clip-rule="nonzero"/></clipPath><clipPath id="347df5acbe"><path d="M 568.734375 50.339844 L 552.769531 78.277344 L 584.695312 78.277344 Z M 568.734375 50.339844 " clip-rule="nonzero"/></clipPath><clipPath id="36f6834a5f"><path d="M 533.261719 44.78125 L 565.234375 44.78125 L 565.234375 72.71875 L 533.261719 72.71875 Z M 533.261719 44.78125 " clip-rule="nonzero"/></clipPath><clipPath id="6f1109b2e8"><path d="M 549.269531 72.71875 L 533.308594 44.78125 L 565.234375 44.78125 Z M 549.269531 72.71875 " clip-rule="nonzero"/></clipPath><clipPath id="37a9b06adc"><path d="M 514.441406 50.339844 L 546.417969 50.339844 L 546.417969 78.277344 L 514.441406 78.277344 Z M 514.441406 50.339844 " clip-rule="nonzero"/></clipPath><clipPath id="4ba189fe0c"><path d="M 530.453125 50.339844 L 514.488281 78.277344 L 546.417969 78.277344 Z M 530.453125 50.339844 " clip-rule="nonzero"/></clipPath><clipPath id="0ceef4526c"><path d="M 476.164062 50.339844 L 508.136719 50.339844 L 508.136719 78.277344 L 476.164062 78.277344 Z M 476.164062 50.339844 " clip-rule="nonzero"/></clipPath><clipPath id="6eab5c77a9"><path d="M 492.171875 50.339844 L 476.210938 78.277344 L 508.136719 78.277344 Z M 492.171875 50.339844 " clip-rule="nonzero"/></clipPath><clipPath id="6eb6d1675f"><path d="M 419 44.78125 L 450.964844 44.78125 L 450.964844 72.71875 L 419 72.71875 Z M 419 44.78125 " clip-rule="nonzero"/></clipPath><clipPath id="ef8598ed80"><path d="M 435.003906 72.71875 L 419.039062 44.78125 L 450.964844 44.78125 Z M 435.003906 72.71875 " clip-rule="nonzero"/></clipPath><clipPath id="ad546e439e"><path d="M 399.851562 50.339844 L 431.828125 50.339844 L 431.828125 78.277344 L 399.851562 78.277344 Z M 399.851562 50.339844 " clip-rule="nonzero"/></clipPath><clipPath id="1043bddbc9"><path d="M 415.863281 50.339844 L 399.898438 78.277344 L 431.828125 78.277344 Z M 415.863281 50.339844 " clip-rule="nonzero"/></clipPath><clipPath id="cdbe0ad0cc"><path d="M 342.433594 44.78125 L 374.40625 44.78125 L 374.40625 72.71875 L 342.433594 72.71875 Z M 342.433594 44.78125 " clip-rule="nonzero"/></clipPath><clipPath id="75ea654cc1"><path d="M 358.441406 72.71875 L 342.480469 44.78125 L 374.40625 44.78125 Z M 358.441406 72.71875 " clip-rule="nonzero"/></clipPath><clipPath id="80fc4d8233"><path d="M 323.292969 50.339844 L 355.265625 50.339844 L 355.265625 78.277344 L 323.292969 78.277344 Z M 323.292969 50.339844 " clip-rule="nonzero"/></clipPath><clipPath id="3c15d4cd92"><path d="M 339.304688 50.339844 L 323.339844 78.277344 L 355.265625 78.277344 Z M 339.304688 50.339844 " clip-rule="nonzero"/></clipPath><clipPath id="5dc03ce2c9"><path d="M 304.507812 44.78125 L 336.484375 44.78125 L 336.484375 72.71875 L 304.507812 72.71875 Z M 304.507812 44.78125 " clip-rule="nonzero"/></clipPath><clipPath id="a04e8e16f3"><path d="M 320.519531 72.71875 L 304.554688 44.78125 L 336.484375 44.78125 Z M 320.519531 72.71875 " clip-rule="nonzero"/></clipPath><clipPath id="62391993ea"><path d="M 265.300781 44.78125 L 297.277344 44.78125 L 297.277344 72.71875 L 265.300781 72.71875 Z M 265.300781 44.78125 " clip-rule="nonzero"/></clipPath><clipPath id="4726543db4"><path d="M 281.3125 72.71875 L 265.347656 44.78125 L 297.277344 44.78125 Z M 281.3125 72.71875 " clip-rule="nonzero"/></clipPath><clipPath id="9a106b3a5b"><path d="M 207.882812 49.277344 L 239.855469 49.277344 L 239.855469 77.214844 L 207.882812 77.214844 Z M 207.882812 49.277344 " clip-rule="nonzero"/></clipPath><clipPath id="09c3fdf30a"><path d="M 223.890625 49.277344 L 207.929688 77.214844 L 239.855469 77.214844 Z M 223.890625 49.277344 " clip-rule="nonzero"/></clipPath><clipPath id="c755737088"><path d="M 189.097656 44.78125 L 221.074219 44.78125 L 221.074219 72.71875 L 189.097656 72.71875 Z M 189.097656 44.78125 " clip-rule="nonzero"/></clipPath><clipPath id="dfe569892c"><path d="M 205.109375 72.71875 L 189.144531 44.78125 L 221.074219 44.78125 Z M 205.109375 72.71875 " clip-rule="nonzero"/></clipPath><clipPath id="885d4fad39"><path d="M 112.539062 44.78125 L 144.511719 44.78125 L 144.511719 72.71875 L 112.539062 72.71875 Z M 112.539062 44.78125 " clip-rule="nonzero"/></clipPath><clipPath id="88ed498e82"><path d="M 128.550781 72.71875 L 112.585938 44.78125 L 144.511719 44.78125 Z M 128.550781 72.71875 " clip-rule="nonzero"/></clipPath><clipPath id="31a0dc262a"><path d="M 93.398438 50.339844 L 125.371094 50.339844 L 125.371094 78.277344 L 93.398438 78.277344 Z M 93.398438 50.339844 " clip-rule="nonzero"/></clipPath><clipPath id="6ef0d3111a"><path d="M 109.410156 50.339844 L 93.445312 78.277344 L 125.371094 78.277344 Z M 109.410156 50.339844 " clip-rule="nonzero"/></clipPath><clipPath id="4a9ce21d57"><path d="M 74.257812 44.78125 L 106.234375 44.78125 L 106.234375 72.71875 L 74.257812 72.71875 Z M 74.257812 44.78125 " clip-rule="nonzero"/></clipPath><clipPath id="279c8d3188"><path d="M 90.269531 72.71875 L 74.304688 44.78125 L 106.234375 44.78125 Z M 90.269531 72.71875 " clip-rule="nonzero"/></clipPath><clipPath id="bc658269f2"><path d="M 55.117188 50.339844 L 87.09375 50.339844 L 87.09375 78.277344 L 55.117188 78.277344 Z M 55.117188 50.339844 " clip-rule="nonzero"/></clipPath><clipPath id="4d44b75f74"><path d="M 71.128906 50.339844 L 55.164062 78.277344 L 87.09375 78.277344 Z M 71.128906 50.339844 " clip-rule="nonzero"/></clipPath><clipPath id="583a1ae62d"><path d="M 0.109375 44.78125 L 28.886719 44.78125 L 28.886719 72.71875 L 0.109375 72.71875 Z M 0.109375 44.78125 " clip-rule="nonzero"/></clipPath><clipPath id="ede77b82c1"><path d="M 12.921875 72.71875 L -3.039062 44.78125 L 28.886719 44.78125 Z M 12.921875 72.71875 " clip-rule="nonzero"/></clipPath><clipPath id="b83e4d35c3"><path d="M 0.109375 49.277344 L 9.960938 49.277344 L 9.960938 77.214844 L 0.109375 77.214844 Z M 0.109375 49.277344 " clip-rule="nonzero"/></clipPath><clipPath id="a69e608e2c"><path d="M -6 49.277344 L -21.964844 77.214844 L 9.960938 77.214844 Z M -6 49.277344 " clip-rule="nonzero"/></clipPath></defs><g clip-path="url(#6b80427259)"><path fill="#ffffff" d="M 0.109375 0 L 1023.890625 0 L 1023.890625 354.5 L 0.109375 354.5 Z M 0.109375 0 " fill-opacity="1" fill-rule="nonzero"/><path fill="#ffffff" d="M 0.109375 0 L 1023.890625 0 L 1023.890625 354.5 L 0.109375 354.5 Z M 0.109375 0 " fill-opacity="1" fill-rule="nonzero"/></g><g clip-path="url(#ed85d42ed8)"><g clip-path="url(#d58ff34a82)"><path fill="#a60404" d="M 1044.660156 33.664062 L 1012.6875 33.664062 L 1012.6875 5.726562 L 1044.660156 5.726562 Z M 1044.660156 33.664062 " fill-opacity="1" fill-rule="nonzero"/></g></g><g clip-path="url(#a91bb81807)"><g clip-path="url(#d08f0ea805)"><path fill="#a60404" d="M 1025.523438 39.222656 L 993.546875 39.222656 L 993.546875 11.285156 L 1025.523438 11.285156 Z M 1025.523438 39.222656 " fill-opacity="1" fill-rule="nonzero"/></g></g><g clip-path="url(#2765248ef8)"><g clip-path="url(#409bc675b7)"><path fill="#171219" d="M 1006.382812 33.664062 L 974.40625 33.664062 L 974.40625 5.726562 L 1006.382812 5.726562 Z M 1006.382812 33.664062 " fill-opacity="1" fill-rule="nonzero"/></g></g><g clip-path="url(#8cfd260e5e)"><g clip-path="url(#77514500a0)"><path fill="#a60404" d="M 987.242188 39.222656 L 955.269531 39.222656 L 955.269531 11.285156 L 987.242188 11.285156 Z M 987.242188 39.222656 " fill-opacity="1" fill-rule="nonzero"/></g></g><g clip-path="url(#32e3f83301)"><g clip-path="url(#1be36e18a4)"><path fill="#a60404" d="M 968.101562 33.664062 L 936.128906 33.664062 L 936.128906 5.726562 L 968.101562 5.726562 Z M 968.101562 33.664062 " fill-opacity="1" fill-rule="nonzero"/></g></g><g clip-path="url(#3af120aa3b)"><g clip-path="url(#bcf6021818)"><path fill="#a60404" d="M 948.960938 39.222656 L 916.988281 39.222656 L 916.988281 11.285156 L 948.960938 11.285156 Z M 948.960938 39.222656 " fill-opacity="1" fill-rule="nonzero"/></g></g><g clip-path="url(#584b94b78d)"><g clip-path="url(#3046ef5fa4)"><path fill="#cc5200" d="M 929.824219 33.664062 L 897.847656 33.664062 L 897.847656 5.726562 L 929.824219 5.726562 Z M 929.824219 33.664062 " fill-opacity="1" fill-rule="nonzero"/></g></g><g clip-path="url(#041709d05e)"><g clip-path="url(#40fe1b92d4)"><path fill="#a60404" d="M 910.683594 39.222656 L 878.707031 39.222656 L 878.707031 11.285156 L 910.683594 11.285156 Z M 910.683594 39.222656 " fill-opacity="1" fill-rule="nonzero"/></g></g><g clip-path="url(#45f02e8d71)"><g clip-path="url(#9e1d9c7a8b)"><path fill="#a60404" d="M 891.898438 33.664062 L 859.925781 33.664062 L 859.925781 5.726562 L 891.898438 5.726562 Z M 891.898438 33.664062 " fill-opacity="1" fill-rule="nonzero"/></g></g><g clip-path="url(#1113170999)"><g clip-path="url(#cb127b3cbb)"><path fill="#a60404" d="M 986.886719 72.71875 L 954.910156 72.71875 L 954.910156 44.78125 L 986.886719 44.78125 Z M 986.886719 72.71875 " fill-opacity="1" fill-rule="nonzero"/></g></g><g clip-path="url(#9f021f3348)"><g clip-path="url(#796bb3d9df)"><path fill="#a60404" d="M 967.746094 78.277344 L 935.769531 78.277344 L 935.769531 50.339844 L 967.746094 50.339844 Z M 967.746094 78.277344 " fill-opacity="1" fill-rule="nonzero"/></g></g><g clip-path="url(#d6a2f29433)"><g clip-path="url(#3de7076088)"><path fill="#3a437b" d="M 871.9375 39.222656 L 839.964844 39.222656 L 839.964844 11.285156 L 871.9375 11.285156 Z M 871.9375 39.222656 " fill-opacity="1" fill-rule="nonzero"/></g></g><g clip-path="url(#53c5303051)"><g clip-path="url(#4d548fb5a1)"><path fill="#a60404" d="M 852.691406 33.664062 L 820.71875 33.664062 L 820.71875 5.726562 L 852.691406 5.726562 Z M 852.691406 33.664062 " fill-opacity="1" fill-rule="nonzero"/></g></g><g clip-path="url(#ce53b17f21)"><g clip-path="url(#839b6358f6)"><path fill="#a60404" d="M 833.660156 39.222656 L 801.683594 39.222656 L 801.683594 11.285156 L 833.660156 11.285156 Z M 833.660156 39.222656 " fill-opacity="1" fill-rule="nonzero"/></g></g><g clip-path="url(#ab4bfd8d14)"><g clip-path="url(#cd86eebedc)"><path fill="#cc5200" d="M 814.410156 33.664062 L 782.4375 33.664062 L 782.4375 5.726562 L 814.410156 5.726562 Z M 814.410156 33.664062 " fill-opacity="1" fill-rule="nonzero"/></g></g><g clip-path="url(#439042ea3d)"><g clip-path="url(#1242399313)"><path fill="#a60404" d="M 795.378906 39.222656 L 763.40625 39.222656 L 763.40625 11.285156 L 795.378906 11.285156 Z M 795.378906 39.222656 " fill-opacity="1" fill-rule="nonzero"/></g></g><g clip-path="url(#b623f00e33)"><g clip-path="url(#dea39b4bde)"><path fill="#a60404" d="M 776.488281 33.664062 L 744.515625 33.664062 L 744.515625 5.726562 L 776.488281 5.726562 Z M 776.488281 33.664062 " fill-opacity="1" fill-rule="nonzero"/></g></g><g clip-path="url(#2d6f890b9c)"><g clip-path="url(#6cd7e2d26c)"><path fill="#9aa8c1" d="M 757.347656 39.222656 L 725.375 39.222656 L 725.375 11.285156 L 757.347656 11.285156 Z M 757.347656 39.222656 " fill-opacity="1" fill-rule="nonzero"/></g></g><g clip-path="url(#bd9139b87b)"><g clip-path="url(#8793fe4d57)"><path fill="#cc5200" d="M 738.207031 33.664062 L 706.234375 33.664062 L 706.234375 5.726562 L 738.207031 5.726562 Z M 738.207031 33.664062 " fill-opacity="1" fill-rule="nonzero"/></g></g><g clip-path="url(#53942be6d0)"><g clip-path="url(#bf605f56ce)"><path fill="#a60404" d="M 719.070312 39.222656 L 687.09375 39.222656 L 687.09375 11.285156 L 719.070312 11.285156 Z M 719.070312 39.222656 " fill-opacity="1" fill-rule="nonzero"/></g></g><g clip-path="url(#90afe463fd)"><g clip-path="url(#850461d894)"><path fill="#a60404" d="M 699.929688 33.664062 L 667.953125 33.664062 L 667.953125 5.726562 L 699.929688 5.726562 Z M 699.929688 33.664062 " fill-opacity="1" fill-rule="nonzero"/></g></g><g clip-path="url(#fa2d602cd6)"><g clip-path="url(#a5c2ddaa74)"><path fill="#a60404" d="M 680.789062 39.222656 L 648.816406 39.222656 L 648.816406 11.285156 L 680.789062 11.285156 Z M 680.789062 39.222656 " fill-opacity="1" fill-rule="nonzero"/></g></g><g clip-path="url(#8b15e7cb88)"><g clip-path="url(#8953009068)"><path fill="#171219" d="M 661.648438 33.664062 L 629.675781 33.664062 L 629.675781 5.726562 L 661.648438 5.726562 Z M 661.648438 33.664062 " fill-opacity="1" fill-rule="nonzero"/></g></g><g clip-path="url(#0f5e54c1fe)"><g clip-path="url(#ef77e9adc8)"><path fill="#cc5200" d="M 642.507812 39.222656 L 610.535156 39.222656 L 610.535156 11.285156 L 642.507812 11.285156 Z M 642.507812 39.222656 " fill-opacity="1" fill-rule="nonzero"/></g></g><g clip-path="url(#46bb62b258)"><g clip-path="url(#6d2b9b31d1)"><path fill="#a60404" d="M 623.726562 33.664062 L 591.75 33.664062 L 591.75 5.726562 L 623.726562 5.726562 Z M 623.726562 33.664062 " fill-opacity="1" fill-rule="nonzero"/></g></g><g clip-path="url(#60c8cf428c)"><g clip-path="url(#5a0fbf9636)"><path fill="#a60404" d="M 603.765625 39.222656 L 571.789062 39.222656 L 571.789062 11.285156 L 603.765625 11.285156 Z M 603.765625 39.222656 " fill-opacity="1" fill-rule="nonzero"/></g></g><g clip-path="url(#6eba9c7efe)"><g clip-path="url(#333532f08b)"><path fill="#a60404" d="M 584.304688 33.664062 L 552.328125 33.664062 L 552.328125 5.726562 L 584.304688 5.726562 Z M 584.304688 33.664062 " fill-opacity="1" fill-rule="nonzero"/></g></g><g clip-path="url(#d8228c3cf0)"><g clip-path="url(#f571778ee9)"><path fill="#171219" d="M 565.484375 39.222656 L 533.511719 39.222656 L 533.511719 11.285156 L 565.484375 11.285156 Z M 565.484375 39.222656 " fill-opacity="1" fill-rule="nonzero"/></g></g><g clip-path="url(#000bb1d7c3)"><g clip-path="url(#778da1a813)"><path fill="#a60404" d="M 546.023438 33.664062 L 514.050781 33.664062 L 514.050781 5.726562 L 546.023438 5.726562 Z M 546.023438 33.664062 " fill-opacity="1" fill-rule="nonzero"/></g></g><g clip-path="url(#3cef862062)"><g clip-path="url(#7ddc25a9e0)"><path fill="#a60404" d="M 527.207031 39.222656 L 495.230469 39.222656 L 495.230469 11.285156 L 527.207031 11.285156 Z M 527.207031 39.222656 " fill-opacity="1" fill-rule="nonzero"/></g></g><g clip-path="url(#145420aa3b)"><g clip-path="url(#9eca73bab6)"><path fill="#3a437b" d="M 508.101562 33.664062 L 476.125 33.664062 L 476.125 5.726562 L 508.101562 5.726562 Z M 508.101562 33.664062 " fill-opacity="1" fill-rule="nonzero"/></g></g><g clip-path="url(#424a84a268)"><g clip-path="url(#5de6e71873)"><path fill="#a60404" d="M 489.175781 39.222656 L 457.199219 39.222656 L 457.199219 11.285156 L 489.175781 11.285156 Z M 489.175781 39.222656 " fill-opacity="1" fill-rule="nonzero"/></g></g><g clip-path="url(#543ac7a64a)"><g clip-path="url(#9b73f86ff6)"><path fill="#a60404" d="M 470.035156 33.664062 L 438.0625 33.664062 L 438.0625 5.726562 L 470.035156 5.726562 Z M 470.035156 33.664062 " fill-opacity="1" fill-rule="nonzero"/></g></g><g clip-path="url(#9a05ff7803)"><g clip-path="url(#f414c73a7e)"><path fill="#a60404" d="M 450.894531 39.222656 L 418.921875 39.222656 L 418.921875 11.285156 L 450.894531 11.285156 Z M 450.894531 39.222656 " fill-opacity="1" fill-rule="nonzero"/></g></g><g clip-path="url(#a79c1e1355)"><g clip-path="url(#c60b4fb1f7)"><path fill="#9aa8c1" d="M 431.753906 33.664062 L 399.78125 33.664062 L 399.78125 5.726562 L 431.753906 5.726562 Z M 431.753906 33.664062 " fill-opacity="1" fill-rule="nonzero"/></g></g><g clip-path="url(#266e6a6d46)"><g clip-path="url(#c855fec29e)"><path fill="#a60404" d="M 412.617188 39.222656 L 380.640625 39.222656 L 380.640625 11.285156 L 412.617188 11.285156 Z M 412.617188 39.222656 " fill-opacity="1" fill-rule="nonzero"/></g></g><g clip-path="url(#b8488f7de5)"><g clip-path="url(#b9a5363077)"><path fill="#cc5200" d="M 393.476562 33.664062 L 361.5 33.664062 L 361.5 5.726562 L 393.476562 5.726562 Z M 393.476562 33.664062 " fill-opacity="1" fill-rule="nonzero"/></g></g><g clip-path="url(#634f434009)"><g clip-path="url(#ea4c83f2f0)"><path fill="#a60404" d="M 374.335938 39.222656 L 342.359375 39.222656 L 342.359375 11.285156 L 374.335938 11.285156 Z M 374.335938 39.222656 " fill-opacity="1" fill-rule="nonzero"/></g></g><g clip-path="url(#40b0ad05ae)"><g clip-path="url(#b5539e4879)"><path fill="#a60404" d="M 355.550781 33.664062 L 323.578125 33.664062 L 323.578125 5.726562 L 355.550781 5.726562 Z M 355.550781 33.664062 " fill-opacity="1" fill-rule="nonzero"/></g></g><g clip-path="url(#a7aa1dce02)"><g clip-path="url(#3f3254897c)"><path fill="#3a437b" d="M 335.484375 38.160156 L 303.511719 38.160156 L 303.511719 10.226562 L 335.484375 10.226562 Z M 335.484375 38.160156 " fill-opacity="1" fill-rule="nonzero"/></g></g><g clip-path="url(#c0581534ca)"><g clip-path="url(#bf30e7b0ca)"><path fill="#a60404" d="M 316.34375 33.664062 L 284.371094 33.664062 L 284.371094 5.726562 L 316.34375 5.726562 Z M 316.34375 33.664062 " fill-opacity="1" fill-rule="nonzero"/></g></g><g clip-path="url(#39e83ceb0c)"><g clip-path="url(#8743ac11ba)"><path fill="#a60404" d="M 297.203125 38.160156 L 265.230469 38.160156 L 265.230469 10.226562 L 297.203125 10.226562 Z M 297.203125 38.160156 " fill-opacity="1" fill-rule="nonzero"/></g></g><g clip-path="url(#96fd1b451f)"><g clip-path="url(#81a2e27dfb)"><path fill="#cc5200" d="M 278.066406 33.664062 L 246.089844 33.664062 L 246.089844 5.726562 L 278.066406 5.726562 Z M 278.066406 33.664062 " fill-opacity="1" fill-rule="nonzero"/></g></g><g clip-path="url(#ad7a8a89ae)"><g clip-path="url(#bc8e14c8bc)"><path fill="#a60404" d="M 258.925781 38.160156 L 226.949219 38.160156 L 226.949219 10.226562 L 258.925781 10.226562 Z M 258.925781 38.160156 " fill-opacity="1" fill-rule="nonzero"/></g></g><g clip-path="url(#11e2706243)"><g clip-path="url(#88d715e53b)"><path fill="#a60404" d="M 240.140625 33.664062 L 208.167969 33.664062 L 208.167969 5.726562 L 240.140625 5.726562 Z M 240.140625 33.664062 " fill-opacity="1" fill-rule="nonzero"/></g></g><g clip-path="url(#6c48bbdd78)"><g clip-path="url(#8fa626b08b)"><path fill="#a60404" d="M 221 39.222656 L 189.027344 39.222656 L 189.027344 11.285156 L 221 11.285156 Z M 221 39.222656 " fill-opacity="1" fill-rule="nonzero"/></g></g><g clip-path="url(#d07f5df2da)"><g clip-path="url(#8820f3dea1)"><path fill="#cc5200" d="M 201.863281 33.664062 L 169.886719 33.664062 L 169.886719 5.726562 L 201.863281 5.726562 Z M 201.863281 33.664062 " fill-opacity="1" fill-rule="nonzero"/></g></g><g clip-path="url(#dc5674d58a)"><g clip-path="url(#9e458df9f0)"><path fill="#a60404" d="M 182.722656 39.222656 L 150.746094 39.222656 L 150.746094 11.285156 L 182.722656 11.285156 Z M 182.722656 39.222656 " fill-opacity="1" fill-rule="nonzero"/></g></g><g clip-path="url(#e75532eb22)"><g clip-path="url(#f6bcf88824)"><path fill="#a60404" d="M 163.582031 33.664062 L 131.609375 33.664062 L 131.609375 5.726562 L 163.582031 5.726562 Z M 163.582031 33.664062 " fill-opacity="1" fill-rule="nonzero"/></g></g><g clip-path="url(#6878b8d871)"><g clip-path="url(#bc685b50d2)"><path fill="#171219" d="M 144.441406 39.222656 L 112.46875 39.222656 L 112.46875 11.285156 L 144.441406 11.285156 Z M 144.441406 39.222656 " fill-opacity="1" fill-rule="nonzero"/></g></g><g clip-path="url(#2b9247b3a5)"><g clip-path="url(#90c185873f)"><path fill="#a60404" d="M 125.300781 33.664062 L 93.328125 33.664062 L 93.328125 5.726562 L 125.300781 5.726562 Z M 125.300781 33.664062 " fill-opacity="1" fill-rule="nonzero"/></g></g><g clip-path="url(#0941567f43)"><g clip-path="url(#78cf1e786b)"><path fill="#a60404" d="M 106.160156 39.222656 L 74.1875 39.222656 L 74.1875 11.285156 L 106.160156 11.285156 Z M 106.160156 39.222656 " fill-opacity="1" fill-rule="nonzero"/></g></g><g clip-path="url(#c5a682f68a)"><g clip-path="url(#c351e0e1a7)"><path fill="#a60404" d="M 87.378906 33.664062 L 55.40625 33.664062 L 55.40625 5.726562 L 87.378906 5.726562 Z M 87.378906 33.664062 " fill-opacity="1" fill-rule="nonzero"/></g></g><g clip-path="url(#e28152cb98)"><g clip-path="url(#a83448a66f)"><path fill="#a60404" d="M 67.3125 38.160156 L 35.335938 38.160156 L 35.335938 10.226562 L 67.3125 10.226562 Z M 67.3125 38.160156 " fill-opacity="1" fill-rule="nonzero"/></g></g><g clip-path="url(#a4c4f6c980)"><g clip-path="url(#16927a11ef)"><path fill="#cc5200" d="M 47.957031 33.664062 L 15.980469 33.664062 L 15.980469 5.726562 L 47.957031 5.726562 Z M 47.957031 33.664062 " fill-opacity="1" fill-rule="nonzero"/></g></g><g clip-path="url(#bad3b80e85)"><g clip-path="url(#e8a2d3b202)"><path fill="#a60404" d="M 29.03125 38.160156 L -2.941406 38.160156 L -2.941406 10.226562 L 29.03125 10.226562 Z M 29.03125 38.160156 " fill-opacity="1" fill-rule="nonzero"/></g></g><g clip-path="url(#76042125bd)"><g clip-path="url(#31c79e1361)"><path fill="#a60404" d="M 9.675781 33.664062 L -22.296875 33.664062 L -22.296875 5.726562 L 9.675781 5.726562 Z M 9.675781 33.664062 " fill-opacity="1" fill-rule="nonzero"/></g></g><g clip-path="url(#d3fafa99df)"><g clip-path="url(#02ba44b6b6)"><path fill="#9aa8c1" d="M 929.894531 78.277344 L 897.917969 78.277344 L 897.917969 50.339844 L 929.894531 50.339844 Z M 929.894531 78.277344 " fill-opacity="1" fill-rule="nonzero"/></g></g><g clip-path="url(#7c82a2bd02)"><g clip-path="url(#784762c713)"><path fill="#cc5200" d="M 910.753906 72.71875 L 878.78125 72.71875 L 878.78125 44.78125 L 910.753906 44.78125 Z M 910.753906 72.71875 " fill-opacity="1" fill-rule="nonzero"/></g></g><g clip-path="url(#73980d37bd)"><g clip-path="url(#3011d26f5a)"><path fill="#a60404" d="M 891.613281 78.277344 L 859.640625 78.277344 L 859.640625 50.339844 L 891.613281 50.339844 Z M 891.613281 78.277344 " fill-opacity="1" fill-rule="nonzero"/></g></g><g clip-path="url(#a5ce1efa1e)"><g clip-path="url(#28347c23fb)"><path fill="#cc5200" d="M 795.34375 72.71875 L 763.367188 72.71875 L 763.367188 44.78125 L 795.34375 44.78125 Z M 795.34375 72.71875 " fill-opacity="1" fill-rule="nonzero"/></g></g><g clip-path="url(#bac13abf28)"><g clip-path="url(#9499b7865e)"><path fill="#a60404" d="M 776.308594 78.277344 L 744.335938 78.277344 L 744.335938 50.339844 L 776.308594 50.339844 Z M 776.308594 78.277344 " fill-opacity="1" fill-rule="nonzero"/></g></g><g clip-path="url(#144edea8fc)"><g clip-path="url(#9c10123c70)"><path fill="#cc5200" d="M 719.140625 72.71875 L 687.164062 72.71875 L 687.164062 44.78125 L 719.140625 44.78125 Z M 719.140625 72.71875 " fill-opacity="1" fill-rule="nonzero"/></g></g><g clip-path="url(#dafd217d7d)"><g clip-path="url(#91840d1c54)"><path fill="#a60404" d="M 680.859375 72.71875 L 648.886719 72.71875 L 648.886719 44.78125 L 680.859375 44.78125 Z M 680.859375 72.71875 " fill-opacity="1" fill-rule="nonzero"/></g></g><g clip-path="url(#1aa37b7c90)"><g clip-path="url(#fb79edfac0)"><path fill="#a60404" d="M 661.71875 78.277344 L 629.746094 78.277344 L 629.746094 50.339844 L 661.71875 50.339844 Z M 661.71875 78.277344 " fill-opacity="1" fill-rule="nonzero"/></g></g><g clip-path="url(#6395cc591a)"><g clip-path="url(#347df5acbe)"><path fill="#9aa8c1" d="M 584.695312 78.277344 L 552.722656 78.277344 L 552.722656 50.339844 L 584.695312 50.339844 Z M 584.695312 78.277344 " fill-opacity="1" fill-rule="nonzero"/></g></g><g clip-path="url(#36f6834a5f)"><g clip-path="url(#6f1109b2e8)"><path fill="#a60404" d="M 565.234375 72.71875 L 533.261719 72.71875 L 533.261719 44.78125 L 565.234375 44.78125 Z M 565.234375 72.71875 " fill-opacity="1" fill-rule="nonzero"/></g></g><g clip-path="url(#37a9b06adc)"><g clip-path="url(#4ba189fe0c)"><path fill="#a60404" d="M 546.417969 78.277344 L 514.441406 78.277344 L 514.441406 50.339844 L 546.417969 50.339844 Z M 546.417969 78.277344 " fill-opacity="1" fill-rule="nonzero"/></g></g><g clip-path="url(#0ceef4526c)"><g clip-path="url(#6eab5c77a9)"><path fill="#cc5200" d="M 508.136719 78.277344 L 476.164062 78.277344 L 476.164062 50.339844 L 508.136719 50.339844 Z M 508.136719 78.277344 " fill-opacity="1" fill-rule="nonzero"/></g></g><g clip-path="url(#6eb6d1675f)"><g clip-path="url(#ef8598ed80)"><path fill="#a60404" d="M 450.964844 72.71875 L 418.992188 72.71875 L 418.992188 44.78125 L 450.964844 44.78125 Z M 450.964844 72.71875 " fill-opacity="1" fill-rule="nonzero"/></g></g><g clip-path="url(#ad546e439e)"><g clip-path="url(#1043bddbc9)"><path fill="#a60404" d="M 431.828125 78.277344 L 399.851562 78.277344 L 399.851562 50.339844 L 431.828125 50.339844 Z M 431.828125 78.277344 " fill-opacity="1" fill-rule="nonzero"/></g></g><g clip-path="url(#cdbe0ad0cc)"><g clip-path="url(#75ea654cc1)"><path fill="#cc5200" d="M 374.40625 72.71875 L 342.433594 72.71875 L 342.433594 44.78125 L 374.40625 44.78125 Z M 374.40625 72.71875 " fill-opacity="1" fill-rule="nonzero"/></g></g><g clip-path="url(#80fc4d8233)"><g clip-path="url(#3c15d4cd92)"><path fill="#a60404" d="M 355.265625 78.277344 L 323.292969 78.277344 L 323.292969 50.339844 L 355.265625 50.339844 Z M 355.265625 78.277344 " fill-opacity="1" fill-rule="nonzero"/></g></g><g clip-path="url(#5dc03ce2c9)"><g clip-path="url(#a04e8e16f3)"><path fill="#a60404" d="M 336.484375 72.71875 L 304.507812 72.71875 L 304.507812 44.78125 L 336.484375 44.78125 Z M 336.484375 72.71875 " fill-opacity="1" fill-rule="nonzero"/></g></g><g clip-path="url(#62391993ea)"><g clip-path="url(#4726543db4)"><path fill="#a60404" d="M 297.277344 72.71875 L 265.300781 72.71875 L 265.300781 44.78125 L 297.277344 44.78125 Z M 297.277344 72.71875 " fill-opacity="1" fill-rule="nonzero"/></g></g><g clip-path="url(#9a106b3a5b)"><g clip-path="url(#09c3fdf30a)"><path fill="#a60404" d="M 239.855469 77.214844 L 207.882812 77.214844 L 207.882812 49.277344 L 239.855469 49.277344 Z M 239.855469 77.214844 " fill-opacity="1" fill-rule="nonzero"/></g></g><g clip-path="url(#c755737088)"><g clip-path="url(#dfe569892c)"><path fill="#9aa8c1" d="M 221.074219 72.71875 L 189.097656 72.71875 L 189.097656 44.78125 L 221.074219 44.78125 Z M 221.074219 72.71875 " fill-opacity="1" fill-rule="nonzero"/></g></g><g clip-path="url(#885d4fad39)"><g clip-path="url(#88ed498e82)"><path fill="#a60404" d="M 144.511719 72.71875 L 112.539062 72.71875 L 112.539062 44.78125 L 144.511719 44.78125 Z M 144.511719 72.71875 " fill-opacity="1" fill-rule="nonzero"/></g></g><g clip-path="url(#31a0dc262a)"><g clip-path="url(#6ef0d3111a)"><path fill="#a60404" d="M 125.371094 78.277344 L 93.398438 78.277344 L 93.398438 50.339844 L 125.371094 50.339844 Z M 125.371094 78.277344 " fill-opacity="1" fill-rule="nonzero"/></g></g><g clip-path="url(#4a9ce21d57)"><g clip-path="url(#279c8d3188)"><path fill="#a60404" d="M 106.234375 72.71875 L 74.257812 72.71875 L 74.257812 44.78125 L 106.234375 44.78125 Z M 106.234375 72.71875 " fill-opacity="1" fill-rule="nonzero"/></g></g><g clip-path="url(#bc658269f2)"><g clip-path="url(#4d44b75f74)"><path fill="#3a437b" d="M 87.09375 78.277344 L 55.117188 78.277344 L 55.117188 50.339844 L 87.09375 50.339844 Z M 87.09375 78.277344 " fill-opacity="1" fill-rule="nonzero"/></g></g><g clip-path="url(#583a1ae62d)"><g clip-path="url(#ede77b82c1)"><path fill="#a60404" d="M 28.886719 72.71875 L -3.085938 72.71875 L -3.085938 44.78125 L 28.886719 44.78125 Z M 28.886719 72.71875 " fill-opacity="1" fill-rule="nonzero"/></g></g><g clip-path="url(#b83e4d35c3)"><g clip-path="url(#a69e608e2c)"><path fill="#a60404" d="M 9.960938 77.214844 L -22.011719 77.214844 L -22.011719 49.277344 L 9.960938 49.277344 Z M 9.960938 77.214844 " fill-opacity="1" fill-rule="nonzero"/></g></g></svg>