<svg xmlns="http://www.w3.org/2000/svg" xmlns:xlink="http://www.w3.org/1999/xlink" width="1366" zoomAndPan="magnify" viewBox="0 0 1024.5 83.999999" height="112" preserveAspectRatio="xMidYMid meet" version="1.0"><defs><clipPath id="ccff6f6735"><path d="M 1012.796875 5.75 L 1024 5.75 L 1024 33.691406 L 1012.796875 33.691406 Z M 1012.796875 5.75 " clip-rule="nonzero"/></clipPath><clipPath id="f460df51b2"><path d="M 1028.808594 33.691406 L 1012.84375 5.75 L 1044.777344 5.75 Z M 1028.808594 33.691406 " clip-rule="nonzero"/></clipPath><clipPath id="c41a5aff6b"><path d="M 993.652344 11.308594 L 1024 11.308594 L 1024 39.25 L 993.652344 39.25 Z M 993.652344 11.308594 " clip-rule="nonzero"/></clipPath><clipPath id="1da5da9fbd"><path d="M 1009.667969 11.308594 L 993.699219 39.25 L 1025.632812 39.25 Z M 1009.667969 11.308594 " clip-rule="nonzero"/></clipPath><clipPath id="48afee3588"><path d="M 974.507812 5.75 L 1006.488281 5.75 L 1006.488281 33.691406 L 974.507812 33.691406 Z M 974.507812 5.75 " clip-rule="nonzero"/></clipPath><clipPath id="d1652614b2"><path d="M 990.523438 33.691406 L 974.554688 5.75 L 1006.488281 5.75 Z M 990.523438 33.691406 " clip-rule="nonzero"/></clipPath><clipPath id="e776aafcca"><path d="M 955.363281 11.308594 L 987.34375 11.308594 L 987.34375 39.25 L 955.363281 39.25 Z M 955.363281 11.308594 " clip-rule="nonzero"/></clipPath><clipPath id="a8b9def573"><path d="M 971.378906 11.308594 L 955.410156 39.25 L 987.34375 39.25 Z M 971.378906 11.308594 " clip-rule="nonzero"/></clipPath><clipPath id="f01094a9d6"><path d="M 936.21875 5.75 L 968.199219 5.75 L 968.199219 33.691406 L 936.21875 33.691406 Z M 936.21875 5.75 " clip-rule="nonzero"/></clipPath><clipPath id="21722c91f7"><path d="M 952.234375 33.691406 L 936.265625 5.75 L 968.199219 5.75 Z M 952.234375 33.691406 " clip-rule="nonzero"/></clipPath><clipPath id="ca145c8b50"><path d="M 917.074219 11.308594 L 949.058594 11.308594 L 949.058594 39.25 L 917.074219 39.25 Z M 917.074219 11.308594 " clip-rule="nonzero"/></clipPath><clipPath id="d625f92855"><path d="M 933.089844 11.308594 L 917.121094 39.25 L 949.058594 39.25 Z M 933.089844 11.308594 " clip-rule="nonzero"/></clipPath><clipPath id="ab91c1fa08"><path d="M 897.933594 5.75 L 929.914062 5.75 L 929.914062 33.691406 L 897.933594 33.691406 Z M 897.933594 5.75 " clip-rule="nonzero"/></clipPath><clipPath id="a7f8789586"><path d="M 913.945312 33.691406 L 897.976562 5.75 L 929.914062 5.75 Z M 913.945312 33.691406 " clip-rule="nonzero"/></clipPath><clipPath id="6c5e4b51ee"><path d="M 878.789062 11.308594 L 910.769531 11.308594 L 910.769531 39.25 L 878.789062 39.25 Z M 878.789062 11.308594 " clip-rule="nonzero"/></clipPath><clipPath id="cf5fefd1c1"><path d="M 894.800781 11.308594 L 878.835938 39.25 L 910.769531 39.25 Z M 894.800781 11.308594 " clip-rule="nonzero"/></clipPath><clipPath id="510946900f"><path d="M 860 5.75 L 891.980469 5.75 L 891.980469 33.691406 L 860 33.691406 Z M 860 5.75 " clip-rule="nonzero"/></clipPath><clipPath id="87d3bb8748"><path d="M 876.015625 33.691406 L 860.046875 5.75 L 891.980469 5.75 Z M 876.015625 33.691406 " clip-rule="nonzero"/></clipPath><clipPath id="2f5f9220c1"><path d="M 955.007812 44.8125 L 986.988281 44.8125 L 986.988281 72.753906 L 955.007812 72.753906 Z M 955.007812 44.8125 " clip-rule="nonzero"/></clipPath><clipPath id="d435e56e4e"><path d="M 971.019531 72.753906 L 955.054688 44.8125 L 986.988281 44.8125 Z M 971.019531 72.753906 " clip-rule="nonzero"/></clipPath><clipPath id="fd29981961"><path d="M 935.863281 50.371094 L 967.84375 50.371094 L 967.84375 78.3125 L 935.863281 78.3125 Z M 935.863281 50.371094 " clip-rule="nonzero"/></clipPath><clipPath id="d9e38a6603"><path d="M 951.878906 50.371094 L 935.910156 78.3125 L 967.84375 78.3125 Z M 951.878906 50.371094 " clip-rule="nonzero"/></clipPath><clipPath id="06a4765208"><path d="M 840.035156 11.308594 L 872.015625 11.308594 L 872.015625 39.25 L 840.035156 39.25 Z M 840.035156 11.308594 " clip-rule="nonzero"/></clipPath><clipPath id="1a895698d0"><path d="M 856.050781 11.308594 L 840.082031 39.25 L 872.015625 39.25 Z M 856.050781 11.308594 " clip-rule="nonzero"/></clipPath><clipPath id="f786b57c95"><path d="M 820.785156 5.75 L 852.765625 5.75 L 852.765625 33.691406 L 820.785156 33.691406 Z M 820.785156 5.75 " clip-rule="nonzero"/></clipPath><clipPath id="1e464672d9"><path d="M 836.796875 33.691406 L 820.832031 5.75 L 852.765625 5.75 Z M 836.796875 33.691406 " clip-rule="nonzero"/></clipPath><clipPath id="ac64967840"><path d="M 801.746094 11.308594 L 833.730469 11.308594 L 833.730469 39.25 L 801.746094 39.25 Z M 801.746094 11.308594 " clip-rule="nonzero"/></clipPath><clipPath id="27a67c1aa5"><path d="M 817.761719 11.308594 L 801.792969 39.25 L 833.730469 39.25 Z M 817.761719 11.308594 " clip-rule="nonzero"/></clipPath><clipPath id="fbbc522574"><path d="M 782.496094 5.75 L 814.476562 5.75 L 814.476562 33.691406 L 782.496094 33.691406 Z M 782.496094 5.75 " clip-rule="nonzero"/></clipPath><clipPath id="bfc1f66f02"><path d="M 798.511719 33.691406 L 782.542969 5.75 L 814.476562 5.75 Z M 798.511719 33.691406 " clip-rule="nonzero"/></clipPath><clipPath id="44dafbdedd"><path d="M 763.460938 11.308594 L 795.441406 11.308594 L 795.441406 39.25 L 763.460938 39.25 Z M 763.460938 11.308594 " clip-rule="nonzero"/></clipPath><clipPath id="559f079712"><path d="M 779.472656 11.308594 L 763.507812 39.25 L 795.441406 39.25 Z M 779.472656 11.308594 " clip-rule="nonzero"/></clipPath><clipPath id="090148d81d"><path d="M 744.566406 5.75 L 776.546875 5.75 L 776.546875 33.691406 L 744.566406 33.691406 Z M 744.566406 5.75 " clip-rule="nonzero"/></clipPath><clipPath id="ae8185312c"><path d="M 760.578125 33.691406 L 744.609375 5.75 L 776.546875 5.75 Z M 760.578125 33.691406 " clip-rule="nonzero"/></clipPath><clipPath id="9b027bbacf"><path d="M 725.421875 11.308594 L 757.402344 11.308594 L 757.402344 39.25 L 725.421875 39.25 Z M 725.421875 11.308594 " clip-rule="nonzero"/></clipPath><clipPath id="93250a3737"><path d="M 741.433594 11.308594 L 725.46875 39.25 L 757.402344 39.25 Z M 741.433594 11.308594 " clip-rule="nonzero"/></clipPath><clipPath id="21e9020def"><path d="M 706.277344 5.75 L 738.257812 5.75 L 738.257812 33.691406 L 706.277344 33.691406 Z M 706.277344 5.75 " clip-rule="nonzero"/></clipPath><clipPath id="d7e13eb189"><path d="M 722.289062 33.691406 L 706.324219 5.75 L 738.257812 5.75 Z M 722.289062 33.691406 " clip-rule="nonzero"/></clipPath><clipPath id="751a40c1f8"><path d="M 687.132812 11.308594 L 719.113281 11.308594 L 719.113281 39.25 L 687.132812 39.25 Z M 687.132812 11.308594 " clip-rule="nonzero"/></clipPath><clipPath id="afc380fa9d"><path d="M 703.144531 11.308594 L 687.179688 39.25 L 719.113281 39.25 Z M 703.144531 11.308594 " clip-rule="nonzero"/></clipPath><clipPath id="14e9066ce6"><path d="M 668 5.75 L 699.96875 5.75 L 699.96875 33.691406 L 668 33.691406 Z M 668 5.75 " clip-rule="nonzero"/></clipPath><clipPath id="1cf2f84402"><path d="M 684.003906 33.691406 L 668.035156 5.75 L 699.96875 5.75 Z M 684.003906 33.691406 " clip-rule="nonzero"/></clipPath><clipPath id="5035804448"><path d="M 648.84375 11.308594 L 680.824219 11.308594 L 680.824219 39.25 L 648.84375 39.25 Z M 648.84375 11.308594 " clip-rule="nonzero"/></clipPath><clipPath id="e18a08f70e"><path d="M 664.859375 11.308594 L 648.890625 39.25 L 680.824219 39.25 Z M 664.859375 11.308594 " clip-rule="nonzero"/></clipPath><clipPath id="3493c482ab"><path d="M 629.699219 5.75 L 661.679688 5.75 L 661.679688 33.691406 L 629.699219 33.691406 Z M 629.699219 5.75 " clip-rule="nonzero"/></clipPath><clipPath id="de5be7c5dc"><path d="M 645.714844 33.691406 L 629.746094 5.75 L 661.679688 5.75 Z M 645.714844 33.691406 " clip-rule="nonzero"/></clipPath><clipPath id="2e07d2fa88"><path d="M 610.554688 11.308594 L 642.539062 11.308594 L 642.539062 39.25 L 610.554688 39.25 Z M 610.554688 11.308594 " clip-rule="nonzero"/></clipPath><clipPath id="a9bd736227"><path d="M 626.570312 11.308594 L 610.601562 39.25 L 642.539062 39.25 Z M 626.570312 11.308594 " clip-rule="nonzero"/></clipPath><clipPath id="cab06cd33a"><path d="M 591.769531 5.75 L 623.75 5.75 L 623.75 33.691406 L 591.769531 33.691406 Z M 591.769531 5.75 " clip-rule="nonzero"/></clipPath><clipPath id="8ea7266041"><path d="M 607.78125 33.691406 L 591.816406 5.75 L 623.75 5.75 Z M 607.78125 33.691406 " clip-rule="nonzero"/></clipPath><clipPath id="98d2bfd37c"><path d="M 571.804688 11.308594 L 603.785156 11.308594 L 603.785156 39.25 L 571.804688 39.25 Z M 571.804688 11.308594 " clip-rule="nonzero"/></clipPath><clipPath id="54f5632cb3"><path d="M 587.816406 11.308594 L 571.851562 39.25 L 603.785156 39.25 Z M 587.816406 11.308594 " clip-rule="nonzero"/></clipPath><clipPath id="9b89ec5714"><path d="M 552.335938 5.75 L 584.320312 5.75 L 584.320312 33.691406 L 552.335938 33.691406 Z M 552.335938 5.75 " clip-rule="nonzero"/></clipPath><clipPath id="1d243c70d0"><path d="M 568.351562 33.691406 L 552.382812 5.75 L 584.320312 5.75 Z M 568.351562 33.691406 " clip-rule="nonzero"/></clipPath><clipPath id="3ba7f1a8bd"><path d="M 533.515625 11.308594 L 565.496094 11.308594 L 565.496094 39.25 L 533.515625 39.25 Z M 533.515625 11.308594 " clip-rule="nonzero"/></clipPath><clipPath id="f04bd94973"><path d="M 549.53125 11.308594 L 533.5625 39.25 L 565.496094 39.25 Z M 549.53125 11.308594 " clip-rule="nonzero"/></clipPath><clipPath id="053d631938"><path d="M 514.050781 5.75 L 546.03125 5.75 L 546.03125 33.691406 L 514.050781 33.691406 Z M 514.050781 5.75 " clip-rule="nonzero"/></clipPath><clipPath id="10a1d3839e"><path d="M 530.0625 33.691406 L 514.097656 5.75 L 546.03125 5.75 Z M 530.0625 33.691406 " clip-rule="nonzero"/></clipPath><clipPath id="7f3b3c8703"><path d="M 495.226562 11.308594 L 527.207031 11.308594 L 527.207031 39.25 L 495.226562 39.25 Z M 495.226562 11.308594 " clip-rule="nonzero"/></clipPath><clipPath id="58c0a12aa8"><path d="M 511.242188 11.308594 L 495.273438 39.25 L 527.207031 39.25 Z M 511.242188 11.308594 " clip-rule="nonzero"/></clipPath><clipPath id="879383e768"><path d="M 476.117188 5.75 L 508.097656 5.75 L 508.097656 33.691406 L 476.117188 33.691406 Z M 476.117188 5.75 " clip-rule="nonzero"/></clipPath><clipPath id="1965603bd5"><path d="M 492.132812 33.691406 L 476.164062 5.75 L 508.097656 5.75 Z M 492.132812 33.691406 " clip-rule="nonzero"/></clipPath><clipPath id="7154a26ce8"><path d="M 457.1875 11.308594 L 489.171875 11.308594 L 489.171875 39.25 L 457.1875 39.25 Z M 457.1875 11.308594 " clip-rule="nonzero"/></clipPath><clipPath id="03c0397953"><path d="M 473.203125 11.308594 L 457.234375 39.25 L 489.171875 39.25 Z M 473.203125 11.308594 " clip-rule="nonzero"/></clipPath><clipPath id="d49eb191cf"><path d="M 438.042969 5.75 L 470.027344 5.75 L 470.027344 33.691406 L 438.042969 33.691406 Z M 438.042969 5.75 " clip-rule="nonzero"/></clipPath><clipPath id="00f1b61f63"><path d="M 454.058594 33.691406 L 438.089844 5.75 L 470.027344 5.75 Z M 454.058594 33.691406 " clip-rule="nonzero"/></clipPath><clipPath id="dd520da76d"><path d="M 418.902344 11.308594 L 450.882812 11.308594 L 450.882812 39.25 L 418.902344 39.25 Z M 418.902344 11.308594 " clip-rule="nonzero"/></clipPath><clipPath id="794291b215"><path d="M 434.914062 11.308594 L 418.949219 39.25 L 450.882812 39.25 Z M 434.914062 11.308594 " clip-rule="nonzero"/></clipPath><clipPath id="23e89cd9b6"><path d="M 399.757812 5.75 L 431.738281 5.75 L 431.738281 33.691406 L 399.757812 33.691406 Z M 399.757812 5.75 " clip-rule="nonzero"/></clipPath><clipPath id="4858e32876"><path d="M 415.769531 33.691406 L 399.804688 5.75 L 431.738281 5.75 Z M 415.769531 33.691406 " clip-rule="nonzero"/></clipPath><clipPath id="aa0cd32b81"><path d="M 380.613281 11.308594 L 412.59375 11.308594 L 412.59375 39.25 L 380.613281 39.25 Z M 380.613281 11.308594 " clip-rule="nonzero"/></clipPath><clipPath id="0dd8d72a0d"><path d="M 396.625 11.308594 L 380.660156 39.25 L 412.59375 39.25 Z M 396.625 11.308594 " clip-rule="nonzero"/></clipPath><clipPath id="187d819fca"><path d="M 361.46875 5.75 L 393.449219 5.75 L 393.449219 33.691406 L 361.46875 33.691406 Z M 361.46875 5.75 " clip-rule="nonzero"/></clipPath><clipPath id="09400ab651"><path d="M 377.484375 33.691406 L 361.515625 5.75 L 393.449219 5.75 Z M 377.484375 33.691406 " clip-rule="nonzero"/></clipPath><clipPath id="a357d7ce3c"><path d="M 342.324219 11.308594 L 374.304688 11.308594 L 374.304688 39.25 L 342.324219 39.25 Z M 342.324219 11.308594 " clip-rule="nonzero"/></clipPath><clipPath id="295a430b01"><path d="M 358.339844 11.308594 L 342.371094 39.25 L 374.304688 39.25 Z M 358.339844 11.308594 " clip-rule="nonzero"/></clipPath><clipPath id="42f3a3827a"><path d="M 323.535156 5.75 L 355.519531 5.75 L 355.519531 33.691406 L 323.535156 33.691406 Z M 323.535156 5.75 " clip-rule="nonzero"/></clipPath><clipPath id="7c35eac7ca"><path d="M 339.550781 33.691406 L 323.582031 5.75 L 355.519531 5.75 Z M 339.550781 33.691406 " clip-rule="nonzero"/></clipPath><clipPath id="2827cc9398"><path d="M 303.464844 10.246094 L 335.445312 10.246094 L 335.445312 38.191406 L 303.464844 38.191406 Z M 303.464844 10.246094 " clip-rule="nonzero"/></clipPath><clipPath id="0070531ca7"><path d="M 319.480469 10.246094 L 303.511719 38.191406 L 335.445312 38.191406 Z M 319.480469 10.246094 " clip-rule="nonzero"/></clipPath><clipPath id="3e7f69efe0"><path d="M 284.320312 5.75 L 316.300781 5.75 L 316.300781 33.691406 L 284.320312 33.691406 Z M 284.320312 5.75 " clip-rule="nonzero"/></clipPath><clipPath id="ca6786601b"><path d="M 300.335938 33.691406 L 284.367188 5.75 L 316.300781 5.75 Z M 300.335938 33.691406 " clip-rule="nonzero"/></clipPath><clipPath id="c0d8e9ecd0"><path d="M 265.175781 10.246094 L 297.15625 10.246094 L 297.15625 38.191406 L 265.175781 38.191406 Z M 265.175781 10.246094 " clip-rule="nonzero"/></clipPath><clipPath id="f6d509685b"><path d="M 281.191406 10.246094 L 265.222656 38.191406 L 297.15625 38.191406 Z M 281.191406 10.246094 " clip-rule="nonzero"/></clipPath><clipPath id="5b3061b398"><path d="M 246.03125 5.75 L 278.015625 5.75 L 278.015625 33.691406 L 246.03125 33.691406 Z M 246.03125 5.75 " clip-rule="nonzero"/></clipPath><clipPath id="d9055a502f"><path d="M 262.046875 33.691406 L 246.078125 5.75 L 278.015625 5.75 Z M 262.046875 33.691406 " clip-rule="nonzero"/></clipPath><clipPath id="5813331a24"><path d="M 226.890625 10.246094 L 258.871094 10.246094 L 258.871094 38.191406 L 226.890625 38.191406 Z M 226.890625 10.246094 " clip-rule="nonzero"/></clipPath><clipPath id="c7afdc7061"><path d="M 242.902344 10.246094 L 226.933594 38.191406 L 258.871094 38.191406 Z M 242.902344 10.246094 " clip-rule="nonzero"/></clipPath><clipPath id="a5b8d7c533"><path d="M 208.101562 5.75 L 240.082031 5.75 L 240.082031 33.691406 L 208.101562 33.691406 Z M 208.101562 5.75 " clip-rule="nonzero"/></clipPath><clipPath id="c9e2d653fa"><path d="M 224.117188 33.691406 L 208.148438 5.75 L 240.082031 5.75 Z M 224.117188 33.691406 " clip-rule="nonzero"/></clipPath><clipPath id="4b0b86fed6"><path d="M 189 11.308594 L 220.9375 11.308594 L 220.9375 39.25 L 189 39.25 Z M 189 11.308594 " clip-rule="nonzero"/></clipPath><clipPath id="be28bfa9a8"><path d="M 204.972656 11.308594 L 189.003906 39.25 L 220.9375 39.25 Z M 204.972656 11.308594 " clip-rule="nonzero"/></clipPath><clipPath id="f7046bfac0"><path d="M 169.8125 5.75 L 201.792969 5.75 L 201.792969 33.691406 L 169.8125 33.691406 Z M 169.8125 5.75 " clip-rule="nonzero"/></clipPath><clipPath id="5ca6095b17"><path d="M 185.828125 33.691406 L 169.859375 5.75 L 201.792969 5.75 Z M 185.828125 33.691406 " clip-rule="nonzero"/></clipPath><clipPath id="ee0ec96537"><path d="M 150.667969 11.308594 L 182.648438 11.308594 L 182.648438 39.25 L 150.667969 39.25 Z M 150.667969 11.308594 " clip-rule="nonzero"/></clipPath><clipPath id="9e3424cb3c"><path d="M 166.683594 11.308594 L 150.714844 39.25 L 182.648438 39.25 Z M 166.683594 11.308594 " clip-rule="nonzero"/></clipPath><clipPath id="cfa54250af"><path d="M 131.523438 5.75 L 163.507812 5.75 L 163.507812 33.691406 L 131.523438 33.691406 Z M 131.523438 5.75 " clip-rule="nonzero"/></clipPath><clipPath id="d34a535180"><path d="M 147.539062 33.691406 L 131.570312 5.75 L 163.507812 5.75 Z M 147.539062 33.691406 " clip-rule="nonzero"/></clipPath><clipPath id="f7ce102182"><path d="M 112.382812 11.308594 L 144.363281 11.308594 L 144.363281 39.25 L 112.382812 39.25 Z M 112.382812 11.308594 " clip-rule="nonzero"/></clipPath><clipPath id="768e873c50"><path d="M 128.394531 11.308594 L 112.425781 39.25 L 144.363281 39.25 Z M 128.394531 11.308594 " clip-rule="nonzero"/></clipPath><clipPath id="55f2c2927b"><path d="M 93.238281 5.75 L 125.21875 5.75 L 125.21875 33.691406 L 93.238281 33.691406 Z M 93.238281 5.75 " clip-rule="nonzero"/></clipPath><clipPath id="f767461c47"><path d="M 109.25 33.691406 L 93.285156 5.75 L 125.21875 5.75 Z M 109.25 33.691406 " clip-rule="nonzero"/></clipPath><clipPath id="40950b6bc3"><path d="M 74.09375 11.308594 L 106.074219 11.308594 L 106.074219 39.25 L 74.09375 39.25 Z M 74.09375 11.308594 " clip-rule="nonzero"/></clipPath><clipPath id="ee92eb6c1b"><path d="M 90.105469 11.308594 L 74.140625 39.25 L 106.074219 39.25 Z M 90.105469 11.308594 " clip-rule="nonzero"/></clipPath><clipPath id="1a772a3a50"><path d="M 55.304688 5.75 L 87.285156 5.75 L 87.285156 33.691406 L 55.304688 33.691406 Z M 55.304688 5.75 " clip-rule="nonzero"/></clipPath><clipPath id="8a06667426"><path d="M 71.320312 33.691406 L 55.351562 5.75 L 87.285156 5.75 Z M 71.320312 33.691406 " clip-rule="nonzero"/></clipPath><clipPath id="d5b557927f"><path d="M 35.234375 10.246094 L 67.214844 10.246094 L 67.214844 38.191406 L 35.234375 38.191406 Z M 35.234375 10.246094 " clip-rule="nonzero"/></clipPath><clipPath id="22e10fe4df"><path d="M 51.246094 10.246094 L 35.28125 38.191406 L 67.214844 38.191406 Z M 51.246094 10.246094 " clip-rule="nonzero"/></clipPath><clipPath id="53288f5711"><path d="M 15.875 5.75 L 47.855469 5.75 L 47.855469 33.691406 L 15.875 33.691406 Z M 15.875 5.75 " clip-rule="nonzero"/></clipPath><clipPath id="1fa294dca1"><path d="M 31.886719 33.691406 L 15.921875 5.75 L 47.855469 5.75 Z M 31.886719 33.691406 " clip-rule="nonzero"/></clipPath><clipPath id="c80f9b1994"><path d="M 0 10.246094 L 28.925781 10.246094 L 28.925781 38.191406 L 0 38.191406 Z M 0 10.246094 " clip-rule="nonzero"/></clipPath><clipPath id="0071d764d3"><path d="M 12.960938 10.246094 L -3.007812 38.191406 L 28.925781 38.191406 Z M 12.960938 10.246094 " clip-rule="nonzero"/></clipPath><clipPath id="356a778150"><path d="M 0 5.75 L 9.566406 5.75 L 9.566406 33.691406 L 0 33.691406 Z M 0 5.75 " clip-rule="nonzero"/></clipPath><clipPath id="1ff2b6fe71"><path d="M -6.398438 33.691406 L -22.367188 5.75 L 9.566406 5.75 Z M -6.398438 33.691406 " clip-rule="nonzero"/></clipPath><clipPath id="bb43cca6ca"><path d="M 898.003906 50.371094 L 929.984375 50.371094 L 929.984375 78.3125 L 898.003906 78.3125 Z M 898.003906 50.371094 " clip-rule="nonzero"/></clipPath><clipPath id="ce2d53db87"><path d="M 914.015625 50.371094 L 898.050781 78.3125 L 929.984375 78.3125 Z M 914.015625 50.371094 " clip-rule="nonzero"/></clipPath><clipPath id="457d995535"><path d="M 878.859375 44.8125 L 910.839844 44.8125 L 910.839844 72.753906 L 878.859375 72.753906 Z M 878.859375 44.8125 " clip-rule="nonzero"/></clipPath><clipPath id="0ef7379f6d"><path d="M 894.871094 72.753906 L 878.90625 44.8125 L 910.839844 44.8125 Z M 894.871094 72.753906 " clip-rule="nonzero"/></clipPath><clipPath id="904f469284"><path d="M 859.714844 50.371094 L 891.695312 50.371094 L 891.695312 78.3125 L 859.714844 78.3125 Z M 859.714844 50.371094 " clip-rule="nonzero"/></clipPath><clipPath id="35b40999b9"><path d="M 875.730469 50.371094 L 859.761719 78.3125 L 891.695312 78.3125 Z M 875.730469 50.371094 " clip-rule="nonzero"/></clipPath><clipPath id="76965d33c8"><path d="M 763.421875 44.8125 L 795.402344 44.8125 L 795.402344 72.753906 L 763.421875 72.753906 Z M 763.421875 44.8125 " clip-rule="nonzero"/></clipPath><clipPath id="9442b6bdad"><path d="M 779.4375 72.753906 L 763.46875 44.8125 L 795.402344 44.8125 Z M 779.4375 72.753906 " clip-rule="nonzero"/></clipPath><clipPath id="46404ddece"><path d="M 744.386719 50.371094 L 776.367188 50.371094 L 776.367188 78.3125 L 744.386719 78.3125 Z M 744.386719 50.371094 " clip-rule="nonzero"/></clipPath><clipPath id="f9a6b6076c"><path d="M 760.398438 50.371094 L 744.433594 78.3125 L 776.367188 78.3125 Z M 760.398438 50.371094 " clip-rule="nonzero"/></clipPath><clipPath id="fa2b21fa4f"><path d="M 687.203125 44.8125 L 719.183594 44.8125 L 719.183594 72.753906 L 687.203125 72.753906 Z M 687.203125 44.8125 " clip-rule="nonzero"/></clipPath><clipPath id="17f98a7512"><path d="M 703.21875 72.753906 L 687.25 44.8125 L 719.183594 44.8125 Z M 703.21875 72.753906 " clip-rule="nonzero"/></clipPath><clipPath id="02066d10ee"><path d="M 648.914062 44.8125 L 680.894531 44.8125 L 680.894531 72.753906 L 648.914062 72.753906 Z M 648.914062 44.8125 " clip-rule="nonzero"/></clipPath><clipPath id="47ffa0a6fc"><path d="M 664.929688 72.753906 L 648.960938 44.8125 L 680.894531 44.8125 Z M 664.929688 72.753906 " clip-rule="nonzero"/></clipPath><clipPath id="8806d40923"><path d="M 629.769531 50.371094 L 661.753906 50.371094 L 661.753906 78.3125 L 629.769531 78.3125 Z M 629.769531 50.371094 " clip-rule="nonzero"/></clipPath><clipPath id="dc134569b4"><path d="M 645.785156 50.371094 L 629.816406 78.3125 L 661.753906 78.3125 Z M 645.785156 50.371094 " clip-rule="nonzero"/></clipPath><clipPath id="d8550c004c"><path d="M 552.730469 50.371094 L 584.710938 50.371094 L 584.710938 78.3125 L 552.730469 78.3125 Z M 552.730469 50.371094 " clip-rule="nonzero"/></clipPath><clipPath id="20d964f776"><path d="M 568.746094 50.371094 L 552.777344 78.3125 L 584.710938 78.3125 Z M 568.746094 50.371094 " clip-rule="nonzero"/></clipPath><clipPath id="f47b8efc3a"><path d="M 533.265625 44.8125 L 565.246094 44.8125 L 565.246094 72.753906 L 533.265625 72.753906 Z M 533.265625 44.8125 " clip-rule="nonzero"/></clipPath><clipPath id="dda0167983"><path d="M 549.277344 72.753906 L 533.3125 44.8125 L 565.246094 44.8125 Z M 549.277344 72.753906 " clip-rule="nonzero"/></clipPath><clipPath id="b91b8194a2"><path d="M 514.441406 50.371094 L 546.425781 50.371094 L 546.425781 78.3125 L 514.441406 78.3125 Z M 514.441406 50.371094 " clip-rule="nonzero"/></clipPath><clipPath id="4e03e78b57"><path d="M 530.457031 50.371094 L 514.488281 78.3125 L 546.425781 78.3125 Z M 530.457031 50.371094 " clip-rule="nonzero"/></clipPath><clipPath id="05d6126e9b"><path d="M 476.15625 50.371094 L 508.136719 50.371094 L 508.136719 78.3125 L 476.15625 78.3125 Z M 476.15625 50.371094 " clip-rule="nonzero"/></clipPath><clipPath id="b9cf67bf21"><path d="M 492.167969 50.371094 L 476.203125 78.3125 L 508.136719 78.3125 Z M 492.167969 50.371094 " clip-rule="nonzero"/></clipPath><clipPath id="c80fb1c5d4"><path d="M 419 44.8125 L 450.953125 44.8125 L 450.953125 72.753906 L 419 72.753906 Z M 419 44.8125 " clip-rule="nonzero"/></clipPath><clipPath id="8e6bbceac3"><path d="M 434.984375 72.753906 L 419.019531 44.8125 L 450.953125 44.8125 Z M 434.984375 72.753906 " clip-rule="nonzero"/></clipPath><clipPath id="88537a357d"><path d="M 399.828125 50.371094 L 431.808594 50.371094 L 431.808594 78.3125 L 399.828125 78.3125 Z M 399.828125 50.371094 " clip-rule="nonzero"/></clipPath><clipPath id="87bd9415b6"><path d="M 415.839844 50.371094 L 399.875 78.3125 L 431.808594 78.3125 Z M 415.839844 50.371094 " clip-rule="nonzero"/></clipPath><clipPath id="29c8b464d1"><path d="M 342.394531 44.8125 L 374.375 44.8125 L 374.375 72.753906 L 342.394531 72.753906 Z M 342.394531 44.8125 " clip-rule="nonzero"/></clipPath><clipPath id="fac4d3b283"><path d="M 358.410156 72.753906 L 342.441406 44.8125 L 374.375 44.8125 Z M 358.410156 72.753906 " clip-rule="nonzero"/></clipPath><clipPath id="cb7fa6769f"><path d="M 323.25 50.371094 L 355.234375 50.371094 L 355.234375 78.3125 L 323.25 78.3125 Z M 323.25 50.371094 " clip-rule="nonzero"/></clipPath><clipPath id="864214790d"><path d="M 339.265625 50.371094 L 323.296875 78.3125 L 355.234375 78.3125 Z M 339.265625 50.371094 " clip-rule="nonzero"/></clipPath><clipPath id="f8cb878212"><path d="M 304.464844 44.8125 L 336.445312 44.8125 L 336.445312 72.753906 L 304.464844 72.753906 Z M 304.464844 44.8125 " clip-rule="nonzero"/></clipPath><clipPath id="e0eeaf3eb0"><path d="M 320.476562 72.753906 L 304.511719 44.8125 L 336.445312 44.8125 Z M 320.476562 72.753906 " clip-rule="nonzero"/></clipPath><clipPath id="54366cb3ab"><path d="M 265.246094 44.8125 L 297.230469 44.8125 L 297.230469 72.753906 L 265.246094 72.753906 Z M 265.246094 44.8125 " clip-rule="nonzero"/></clipPath><clipPath id="c544e2b391"><path d="M 281.261719 72.753906 L 265.292969 44.8125 L 297.230469 44.8125 Z M 281.261719 72.753906 " clip-rule="nonzero"/></clipPath><clipPath id="b607393fc2"><path d="M 207.816406 49.308594 L 239.796875 49.308594 L 239.796875 77.25 L 207.816406 77.25 Z M 207.816406 49.308594 " clip-rule="nonzero"/></clipPath><clipPath id="7e8aac6df5"><path d="M 223.828125 49.308594 L 207.863281 77.25 L 239.796875 77.25 Z M 223.828125 49.308594 " clip-rule="nonzero"/></clipPath><clipPath id="00e8a9c325"><path d="M 189.027344 44.8125 L 221.007812 44.8125 L 221.007812 72.753906 L 189.027344 72.753906 Z M 189.027344 44.8125 " clip-rule="nonzero"/></clipPath><clipPath id="6e6685713e"><path d="M 205.042969 72.753906 L 189.074219 44.8125 L 221.007812 44.8125 Z M 205.042969 72.753906 " clip-rule="nonzero"/></clipPath><clipPath id="972a00235d"><path d="M 112.453125 44.8125 L 144.433594 44.8125 L 144.433594 72.753906 L 112.453125 72.753906 Z M 112.453125 44.8125 " clip-rule="nonzero"/></clipPath><clipPath id="3c08ff15d1"><path d="M 128.464844 72.753906 L 112.5 44.8125 L 144.433594 44.8125 Z M 128.464844 72.753906 " clip-rule="nonzero"/></clipPath><clipPath id="3059906117"><path d="M 93.308594 50.371094 L 125.289062 50.371094 L 125.289062 78.3125 L 93.308594 78.3125 Z M 93.308594 50.371094 " clip-rule="nonzero"/></clipPath><clipPath id="62a391d9d3"><path d="M 109.320312 50.371094 L 93.355469 78.3125 L 125.289062 78.3125 Z M 109.320312 50.371094 " clip-rule="nonzero"/></clipPath><clipPath id="bddb1da36c"><path d="M 74.164062 44.8125 L 106.144531 44.8125 L 106.144531 72.753906 L 74.164062 72.753906 Z M 74.164062 44.8125 " clip-rule="nonzero"/></clipPath><clipPath id="c294a05099"><path d="M 90.179688 72.753906 L 74.210938 44.8125 L 106.144531 44.8125 Z M 90.179688 72.753906 " clip-rule="nonzero"/></clipPath><clipPath id="f96d767a53"><path d="M 55.019531 50.371094 L 87 50.371094 L 87 78.3125 L 55.019531 78.3125 Z M 55.019531 50.371094 " clip-rule="nonzero"/></clipPath><clipPath id="42df012b81"><path d="M 71.035156 50.371094 L 55.066406 78.3125 L 87 78.3125 Z M 71.035156 50.371094 " clip-rule="nonzero"/></clipPath><clipPath id="3724e9271c"><path d="M 0 44.8125 L 28.78125 44.8125 L 28.78125 72.753906 L 0 72.753906 Z M 0 44.8125 " clip-rule="nonzero"/></clipPath><clipPath id="b8ad4cadf7"><path d="M 12.816406 72.753906 L -3.152344 44.8125 L 28.78125 44.8125 Z M 12.816406 72.753906 " clip-rule="nonzero"/></clipPath><clipPath id="5ad47bfdab"><path d="M 0 49.308594 L 9.851562 49.308594 L 9.851562 77.25 L 0 77.25 Z M 0 49.308594 " clip-rule="nonzero"/></clipPath><clipPath id="da7e6e553e"><path d="M -6.113281 49.308594 L -22.082031 77.25 L 9.851562 77.25 Z M -6.113281 49.308594 " clip-rule="nonzero"/></clipPath></defs><g clip-path="url(#ccff6f6735)"><g clip-path="url(#f460df51b2)"><path fill="#a60404" d="M 1044.777344 33.691406 L 1012.796875 33.691406 L 1012.796875 5.75 L 1044.777344 5.75 Z M 1044.777344 33.691406 " fill-opacity="1" fill-rule="nonzero"/></g></g><g clip-path="url(#c41a5aff6b)"><g clip-path="url(#1da5da9fbd)"><path fill="#a60404" d="M 1025.632812 39.25 L 993.652344 39.25 L 993.652344 11.308594 L 1025.632812 11.308594 Z M 1025.632812 39.25 " fill-opacity="1" fill-rule="nonzero"/></g></g><g clip-path="url(#48afee3588)"><g clip-path="url(#d1652614b2)"><path fill="#171219" d="M 1006.488281 33.691406 L 974.507812 33.691406 L 974.507812 5.75 L 1006.488281 5.75 Z M 1006.488281 33.691406 " fill-opacity="1" fill-rule="nonzero"/></g></g><g clip-path="url(#e776aafcca)"><g clip-path="url(#a8b9def573)"><path fill="#a60404" d="M 987.34375 39.25 L 955.363281 39.25 L 955.363281 11.308594 L 987.34375 11.308594 Z M 987.34375 39.25 " fill-opacity="1" fill-rule="nonzero"/></g></g><g clip-path="url(#f01094a9d6)"><g clip-path="url(#21722c91f7)"><path fill="#a60404" d="M 968.199219 33.691406 L 936.21875 33.691406 L 936.21875 5.75 L 968.199219 5.75 Z M 968.199219 33.691406 " fill-opacity="1" fill-rule="nonzero"/></g></g><g clip-path="url(#ca145c8b50)"><g clip-path="url(#d625f92855)"><path fill="#a60404" d="M 949.058594 39.25 L 917.074219 39.25 L 917.074219 11.308594 L 949.058594 11.308594 Z M 949.058594 39.25 " fill-opacity="1" fill-rule="nonzero"/></g></g><g clip-path="url(#ab91c1fa08)"><g clip-path="url(#a7f8789586)"><path fill="#cc5200" d="M 929.914062 33.691406 L 897.933594 33.691406 L 897.933594 5.75 L 929.914062 5.75 Z M 929.914062 33.691406 " fill-opacity="1" fill-rule="nonzero"/></g></g><g clip-path="url(#6c5e4b51ee)"><g clip-path="url(#cf5fefd1c1)"><path fill="#a60404" d="M 910.769531 39.25 L 878.789062 39.25 L 878.789062 11.308594 L 910.769531 11.308594 Z M 910.769531 39.25 " fill-opacity="1" fill-rule="nonzero"/></g></g><g clip-path="url(#510946900f)"><g clip-path="url(#87d3bb8748)"><path fill="#a60404" d="M 891.980469 33.691406 L 860 33.691406 L 860 5.75 L 891.980469 5.75 Z M 891.980469 33.691406 " fill-opacity="1" fill-rule="nonzero"/></g></g><g clip-path="url(#2f5f9220c1)"><g clip-path="url(#d435e56e4e)"><path fill="#a60404" d="M 986.988281 72.753906 L 955.007812 72.753906 L 955.007812 44.8125 L 986.988281 44.8125 Z M 986.988281 72.753906 " fill-opacity="1" fill-rule="nonzero"/></g></g><g clip-path="url(#fd29981961)"><g clip-path="url(#d9e38a6603)"><path fill="#a60404" d="M 967.84375 78.3125 L 935.863281 78.3125 L 935.863281 50.371094 L 967.84375 50.371094 Z M 967.84375 78.3125 " fill-opacity="1" fill-rule="nonzero"/></g></g><g clip-path="url(#06a4765208)"><g clip-path="url(#1a895698d0)"><path fill="#3a437b" d="M 872.015625 39.25 L 840.035156 39.25 L 840.035156 11.308594 L 872.015625 11.308594 Z M 872.015625 39.25 " fill-opacity="1" fill-rule="nonzero"/></g></g><g clip-path="url(#f786b57c95)"><g clip-path="url(#1e464672d9)"><path fill="#a60404" d="M 852.765625 33.691406 L 820.785156 33.691406 L 820.785156 5.75 L 852.765625 5.75 Z M 852.765625 33.691406 " fill-opacity="1" fill-rule="nonzero"/></g></g><g clip-path="url(#ac64967840)"><g clip-path="url(#27a67c1aa5)"><path fill="#a60404" d="M 833.730469 39.25 L 801.746094 39.25 L 801.746094 11.308594 L 833.730469 11.308594 Z M 833.730469 39.25 " fill-opacity="1" fill-rule="nonzero"/></g></g><g clip-path="url(#fbbc522574)"><g clip-path="url(#bfc1f66f02)"><path fill="#cc5200" d="M 814.476562 33.691406 L 782.496094 33.691406 L 782.496094 5.75 L 814.476562 5.75 Z M 814.476562 33.691406 " fill-opacity="1" fill-rule="nonzero"/></g></g><g clip-path="url(#44dafbdedd)"><g clip-path="url(#559f079712)"><path fill="#a60404" d="M 795.441406 39.25 L 763.460938 39.25 L 763.460938 11.308594 L 795.441406 11.308594 Z M 795.441406 39.25 " fill-opacity="1" fill-rule="nonzero"/></g></g><g clip-path="url(#090148d81d)"><g clip-path="url(#ae8185312c)"><path fill="#a60404" d="M 776.546875 33.691406 L 744.566406 33.691406 L 744.566406 5.75 L 776.546875 5.75 Z M 776.546875 33.691406 " fill-opacity="1" fill-rule="nonzero"/></g></g><g clip-path="url(#9b027bbacf)"><g clip-path="url(#93250a3737)"><path fill="#9aa8c1" d="M 757.402344 39.25 L 725.421875 39.25 L 725.421875 11.308594 L 757.402344 11.308594 Z M 757.402344 39.25 " fill-opacity="1" fill-rule="nonzero"/></g></g><g clip-path="url(#21e9020def)"><g clip-path="url(#d7e13eb189)"><path fill="#cc5200" d="M 738.257812 33.691406 L 706.277344 33.691406 L 706.277344 5.75 L 738.257812 5.75 Z M 738.257812 33.691406 " fill-opacity="1" fill-rule="nonzero"/></g></g><g clip-path="url(#751a40c1f8)"><g clip-path="url(#afc380fa9d)"><path fill="#a60404" d="M 719.113281 39.25 L 687.132812 39.25 L 687.132812 11.308594 L 719.113281 11.308594 Z M 719.113281 39.25 " fill-opacity="1" fill-rule="nonzero"/></g></g><g clip-path="url(#14e9066ce6)"><g clip-path="url(#1cf2f84402)"><path fill="#a60404" d="M 699.96875 33.691406 L 667.988281 33.691406 L 667.988281 5.75 L 699.96875 5.75 Z M 699.96875 33.691406 " fill-opacity="1" fill-rule="nonzero"/></g></g><g clip-path="url(#5035804448)"><g clip-path="url(#e18a08f70e)"><path fill="#a60404" d="M 680.824219 39.25 L 648.84375 39.25 L 648.84375 11.308594 L 680.824219 11.308594 Z M 680.824219 39.25 " fill-opacity="1" fill-rule="nonzero"/></g></g><g clip-path="url(#3493c482ab)"><g clip-path="url(#de5be7c5dc)"><path fill="#171219" d="M 661.679688 33.691406 L 629.699219 33.691406 L 629.699219 5.75 L 661.679688 5.75 Z M 661.679688 33.691406 " fill-opacity="1" fill-rule="nonzero"/></g></g><g clip-path="url(#2e07d2fa88)"><g clip-path="url(#a9bd736227)"><path fill="#cc5200" d="M 642.539062 39.25 L 610.554688 39.25 L 610.554688 11.308594 L 642.539062 11.308594 Z M 642.539062 39.25 " fill-opacity="1" fill-rule="nonzero"/></g></g><g clip-path="url(#cab06cd33a)"><g clip-path="url(#8ea7266041)"><path fill="#a60404" d="M 623.75 33.691406 L 591.769531 33.691406 L 591.769531 5.75 L 623.75 5.75 Z M 623.75 33.691406 " fill-opacity="1" fill-rule="nonzero"/></g></g><g clip-path="url(#98d2bfd37c)"><g clip-path="url(#54f5632cb3)"><path fill="#a60404" d="M 603.785156 39.25 L 571.804688 39.25 L 571.804688 11.308594 L 603.785156 11.308594 Z M 603.785156 39.25 " fill-opacity="1" fill-rule="nonzero"/></g></g><g clip-path="url(#9b89ec5714)"><g clip-path="url(#1d243c70d0)"><path fill="#a60404" d="M 584.320312 33.691406 L 552.335938 33.691406 L 552.335938 5.75 L 584.320312 5.75 Z M 584.320312 33.691406 " fill-opacity="1" fill-rule="nonzero"/></g></g><g clip-path="url(#3ba7f1a8bd)"><g clip-path="url(#f04bd94973)"><path fill="#171219" d="M 565.496094 39.25 L 533.515625 39.25 L 533.515625 11.308594 L 565.496094 11.308594 Z M 565.496094 39.25 " fill-opacity="1" fill-rule="nonzero"/></g></g><g clip-path="url(#053d631938)"><g clip-path="url(#10a1d3839e)"><path fill="#a60404" d="M 546.03125 33.691406 L 514.050781 33.691406 L 514.050781 5.75 L 546.03125 5.75 Z M 546.03125 33.691406 " fill-opacity="1" fill-rule="nonzero"/></g></g><g clip-path="url(#7f3b3c8703)"><g clip-path="url(#58c0a12aa8)"><path fill="#a60404" d="M 527.207031 39.25 L 495.226562 39.25 L 495.226562 11.308594 L 527.207031 11.308594 Z M 527.207031 39.25 " fill-opacity="1" fill-rule="nonzero"/></g></g><g clip-path="url(#879383e768)"><g clip-path="url(#1965603bd5)"><path fill="#3a437b" d="M 508.097656 33.691406 L 476.117188 33.691406 L 476.117188 5.75 L 508.097656 5.75 Z M 508.097656 33.691406 " fill-opacity="1" fill-rule="nonzero"/></g></g><g clip-path="url(#7154a26ce8)"><g clip-path="url(#03c0397953)"><path fill="#a60404" d="M 489.171875 39.25 L 457.1875 39.25 L 457.1875 11.308594 L 489.171875 11.308594 Z M 489.171875 39.25 " fill-opacity="1" fill-rule="nonzero"/></g></g><g clip-path="url(#d49eb191cf)"><g clip-path="url(#00f1b61f63)"><path fill="#a60404" d="M 470.027344 33.691406 L 438.042969 33.691406 L 438.042969 5.75 L 470.027344 5.75 Z M 470.027344 33.691406 " fill-opacity="1" fill-rule="nonzero"/></g></g><g clip-path="url(#dd520da76d)"><g clip-path="url(#794291b215)"><path fill="#a60404" d="M 450.882812 39.25 L 418.902344 39.25 L 418.902344 11.308594 L 450.882812 11.308594 Z M 450.882812 39.25 " fill-opacity="1" fill-rule="nonzero"/></g></g><g clip-path="url(#23e89cd9b6)"><g clip-path="url(#4858e32876)"><path fill="#9aa8c1" d="M 431.738281 33.691406 L 399.757812 33.691406 L 399.757812 5.75 L 431.738281 5.75 Z M 431.738281 33.691406 " fill-opacity="1" fill-rule="nonzero"/></g></g><g clip-path="url(#aa0cd32b81)"><g clip-path="url(#0dd8d72a0d)"><path fill="#a60404" d="M 412.59375 39.25 L 380.613281 39.25 L 380.613281 11.308594 L 412.59375 11.308594 Z M 412.59375 39.25 " fill-opacity="1" fill-rule="nonzero"/></g></g><g clip-path="url(#187d819fca)"><g clip-path="url(#09400ab651)"><path fill="#cc5200" d="M 393.449219 33.691406 L 361.46875 33.691406 L 361.46875 5.75 L 393.449219 5.75 Z M 393.449219 33.691406 " fill-opacity="1" fill-rule="nonzero"/></g></g><g clip-path="url(#a357d7ce3c)"><g clip-path="url(#295a430b01)"><path fill="#a60404" d="M 374.304688 39.25 L 342.324219 39.25 L 342.324219 11.308594 L 374.304688 11.308594 Z M 374.304688 39.25 " fill-opacity="1" fill-rule="nonzero"/></g></g><g clip-path="url(#42f3a3827a)"><g clip-path="url(#7c35eac7ca)"><path fill="#a60404" d="M 355.519531 33.691406 L 323.535156 33.691406 L 323.535156 5.75 L 355.519531 5.75 Z M 355.519531 33.691406 " fill-opacity="1" fill-rule="nonzero"/></g></g><g clip-path="url(#2827cc9398)"><g clip-path="url(#0070531ca7)"><path fill="#3a437b" d="M 335.445312 38.191406 L 303.464844 38.191406 L 303.464844 10.246094 L 335.445312 10.246094 Z M 335.445312 38.191406 " fill-opacity="1" fill-rule="nonzero"/></g></g><g clip-path="url(#3e7f69efe0)"><g clip-path="url(#ca6786601b)"><path fill="#a60404" d="M 316.300781 33.691406 L 284.320312 33.691406 L 284.320312 5.75 L 316.300781 5.75 Z M 316.300781 33.691406 " fill-opacity="1" fill-rule="nonzero"/></g></g><g clip-path="url(#c0d8e9ecd0)"><g clip-path="url(#f6d509685b)"><path fill="#a60404" d="M 297.15625 38.191406 L 265.175781 38.191406 L 265.175781 10.246094 L 297.15625 10.246094 Z M 297.15625 38.191406 " fill-opacity="1" fill-rule="nonzero"/></g></g><g clip-path="url(#5b3061b398)"><g clip-path="url(#d9055a502f)"><path fill="#cc5200" d="M 278.015625 33.691406 L 246.03125 33.691406 L 246.03125 5.75 L 278.015625 5.75 Z M 278.015625 33.691406 " fill-opacity="1" fill-rule="nonzero"/></g></g><g clip-path="url(#5813331a24)"><g clip-path="url(#c7afdc7061)"><path fill="#a60404" d="M 258.871094 38.191406 L 226.890625 38.191406 L 226.890625 10.246094 L 258.871094 10.246094 Z M 258.871094 38.191406 " fill-opacity="1" fill-rule="nonzero"/></g></g><g clip-path="url(#a5b8d7c533)"><g clip-path="url(#c9e2d653fa)"><path fill="#a60404" d="M 240.082031 33.691406 L 208.101562 33.691406 L 208.101562 5.75 L 240.082031 5.75 Z M 240.082031 33.691406 " fill-opacity="1" fill-rule="nonzero"/></g></g><g clip-path="url(#4b0b86fed6)"><g clip-path="url(#be28bfa9a8)"><path fill="#a60404" d="M 220.9375 39.25 L 188.957031 39.25 L 188.957031 11.308594 L 220.9375 11.308594 Z M 220.9375 39.25 " fill-opacity="1" fill-rule="nonzero"/></g></g><g clip-path="url(#f7046bfac0)"><g clip-path="url(#5ca6095b17)"><path fill="#cc5200" d="M 201.792969 33.691406 L 169.8125 33.691406 L 169.8125 5.75 L 201.792969 5.75 Z M 201.792969 33.691406 " fill-opacity="1" fill-rule="nonzero"/></g></g><g clip-path="url(#ee0ec96537)"><g clip-path="url(#9e3424cb3c)"><path fill="#a60404" d="M 182.648438 39.25 L 150.667969 39.25 L 150.667969 11.308594 L 182.648438 11.308594 Z M 182.648438 39.25 " fill-opacity="1" fill-rule="nonzero"/></g></g><g clip-path="url(#cfa54250af)"><g clip-path="url(#d34a535180)"><path fill="#a60404" d="M 163.507812 33.691406 L 131.523438 33.691406 L 131.523438 5.75 L 163.507812 5.75 Z M 163.507812 33.691406 " fill-opacity="1" fill-rule="nonzero"/></g></g><g clip-path="url(#f7ce102182)"><g clip-path="url(#768e873c50)"><path fill="#171219" d="M 144.363281 39.25 L 112.382812 39.25 L 112.382812 11.308594 L 144.363281 11.308594 Z M 144.363281 39.25 " fill-opacity="1" fill-rule="nonzero"/></g></g><g clip-path="url(#55f2c2927b)"><g clip-path="url(#f767461c47)"><path fill="#a60404" d="M 125.21875 33.691406 L 93.238281 33.691406 L 93.238281 5.75 L 125.21875 5.75 Z M 125.21875 33.691406 " fill-opacity="1" fill-rule="nonzero"/></g></g><g clip-path="url(#40950b6bc3)"><g clip-path="url(#ee92eb6c1b)"><path fill="#a60404" d="M 106.074219 39.25 L 74.09375 39.25 L 74.09375 11.308594 L 106.074219 11.308594 Z M 106.074219 39.25 " fill-opacity="1" fill-rule="nonzero"/></g></g><g clip-path="url(#1a772a3a50)"><g clip-path="url(#8a06667426)"><path fill="#a60404" d="M 87.285156 33.691406 L 55.304688 33.691406 L 55.304688 5.75 L 87.285156 5.75 Z M 87.285156 33.691406 " fill-opacity="1" fill-rule="nonzero"/></g></g><g clip-path="url(#d5b557927f)"><g clip-path="url(#22e10fe4df)"><path fill="#a60404" d="M 67.214844 38.191406 L 35.234375 38.191406 L 35.234375 10.246094 L 67.214844 10.246094 Z M 67.214844 38.191406 " fill-opacity="1" fill-rule="nonzero"/></g></g><g clip-path="url(#53288f5711)"><g clip-path="url(#1fa294dca1)"><path fill="#cc5200" d="M 47.855469 33.691406 L 15.875 33.691406 L 15.875 5.75 L 47.855469 5.75 Z M 47.855469 33.691406 " fill-opacity="1" fill-rule="nonzero"/></g></g><g clip-path="url(#c80f9b1994)"><g clip-path="url(#0071d764d3)"><path fill="#a60404" d="M 28.925781 38.191406 L -3.054688 38.191406 L -3.054688 10.246094 L 28.925781 10.246094 Z M 28.925781 38.191406 " fill-opacity="1" fill-rule="nonzero"/></g></g><g clip-path="url(#356a778150)"><g clip-path="url(#1ff2b6fe71)"><path fill="#a60404" d="M 9.566406 33.691406 L -22.414062 33.691406 L -22.414062 5.75 L 9.566406 5.75 Z M 9.566406 33.691406 " fill-opacity="1" fill-rule="nonzero"/></g></g><g clip-path="url(#bb43cca6ca)"><g clip-path="url(#ce2d53db87)"><path fill="#9aa8c1" d="M 929.984375 78.3125 L 898.003906 78.3125 L 898.003906 50.371094 L 929.984375 50.371094 Z M 929.984375 78.3125 " fill-opacity="1" fill-rule="nonzero"/></g></g><g clip-path="url(#457d995535)"><g clip-path="url(#0ef7379f6d)"><path fill="#cc5200" d="M 910.839844 72.753906 L 878.859375 72.753906 L 878.859375 44.8125 L 910.839844 44.8125 Z M 910.839844 72.753906 " fill-opacity="1" fill-rule="nonzero"/></g></g><g clip-path="url(#904f469284)"><g clip-path="url(#35b40999b9)"><path fill="#a60404" d="M 891.695312 78.3125 L 859.714844 78.3125 L 859.714844 50.371094 L 891.695312 50.371094 Z M 891.695312 78.3125 " fill-opacity="1" fill-rule="nonzero"/></g></g><g clip-path="url(#76965d33c8)"><g clip-path="url(#9442b6bdad)"><path fill="#cc5200" d="M 795.402344 72.753906 L 763.421875 72.753906 L 763.421875 44.8125 L 795.402344 44.8125 Z M 795.402344 72.753906 " fill-opacity="1" fill-rule="nonzero"/></g></g><g clip-path="url(#46404ddece)"><g clip-path="url(#f9a6b6076c)"><path fill="#a60404" d="M 776.367188 78.3125 L 744.386719 78.3125 L 744.386719 50.371094 L 776.367188 50.371094 Z M 776.367188 78.3125 " fill-opacity="1" fill-rule="nonzero"/></g></g><g clip-path="url(#fa2b21fa4f)"><g clip-path="url(#17f98a7512)"><path fill="#cc5200" d="M 719.183594 72.753906 L 687.203125 72.753906 L 687.203125 44.8125 L 719.183594 44.8125 Z M 719.183594 72.753906 " fill-opacity="1" fill-rule="nonzero"/></g></g><g clip-path="url(#02066d10ee)"><g clip-path="url(#47ffa0a6fc)"><path fill="#a60404" d="M 680.894531 72.753906 L 648.914062 72.753906 L 648.914062 44.8125 L 680.894531 44.8125 Z M 680.894531 72.753906 " fill-opacity="1" fill-rule="nonzero"/></g></g><g clip-path="url(#8806d40923)"><g clip-path="url(#dc134569b4)"><path fill="#a60404" d="M 661.753906 78.3125 L 629.769531 78.3125 L 629.769531 50.371094 L 661.753906 50.371094 Z M 661.753906 78.3125 " fill-opacity="1" fill-rule="nonzero"/></g></g><g clip-path="url(#d8550c004c)"><g clip-path="url(#20d964f776)"><path fill="#9aa8c1" d="M 584.710938 78.3125 L 552.730469 78.3125 L 552.730469 50.371094 L 584.710938 50.371094 Z M 584.710938 78.3125 " fill-opacity="1" fill-rule="nonzero"/></g></g><g clip-path="url(#f47b8efc3a)"><g clip-path="url(#dda0167983)"><path fill="#a60404" d="M 565.246094 72.753906 L 533.265625 72.753906 L 533.265625 44.8125 L 565.246094 44.8125 Z M 565.246094 72.753906 " fill-opacity="1" fill-rule="nonzero"/></g></g><g clip-path="url(#b91b8194a2)"><g clip-path="url(#4e03e78b57)"><path fill="#a60404" d="M 546.425781 78.3125 L 514.441406 78.3125 L 514.441406 50.371094 L 546.425781 50.371094 Z M 546.425781 78.3125 " fill-opacity="1" fill-rule="nonzero"/></g></g><g clip-path="url(#05d6126e9b)"><g clip-path="url(#b9cf67bf21)"><path fill="#cc5200" d="M 508.136719 78.3125 L 476.15625 78.3125 L 476.15625 50.371094 L 508.136719 50.371094 Z M 508.136719 78.3125 " fill-opacity="1" fill-rule="nonzero"/></g></g><g clip-path="url(#c80fb1c5d4)"><g clip-path="url(#8e6bbceac3)"><path fill="#a60404" d="M 450.953125 72.753906 L 418.972656 72.753906 L 418.972656 44.8125 L 450.953125 44.8125 Z M 450.953125 72.753906 " fill-opacity="1" fill-rule="nonzero"/></g></g><g clip-path="url(#88537a357d)"><g clip-path="url(#87bd9415b6)"><path fill="#a60404" d="M 431.808594 78.3125 L 399.828125 78.3125 L 399.828125 50.371094 L 431.808594 50.371094 Z M 431.808594 78.3125 " fill-opacity="1" fill-rule="nonzero"/></g></g><g clip-path="url(#29c8b464d1)"><g clip-path="url(#fac4d3b283)"><path fill="#cc5200" d="M 374.375 72.753906 L 342.394531 72.753906 L 342.394531 44.8125 L 374.375 44.8125 Z M 374.375 72.753906 " fill-opacity="1" fill-rule="nonzero"/></g></g><g clip-path="url(#cb7fa6769f)"><g clip-path="url(#864214790d)"><path fill="#a60404" d="M 355.234375 78.3125 L 323.25 78.3125 L 323.25 50.371094 L 355.234375 50.371094 Z M 355.234375 78.3125 " fill-opacity="1" fill-rule="nonzero"/></g></g><g clip-path="url(#f8cb878212)"><g clip-path="url(#e0eeaf3eb0)"><path fill="#a60404" d="M 336.445312 72.753906 L 304.464844 72.753906 L 304.464844 44.8125 L 336.445312 44.8125 Z M 336.445312 72.753906 " fill-opacity="1" fill-rule="nonzero"/></g></g><g clip-path="url(#54366cb3ab)"><g clip-path="url(#c544e2b391)"><path fill="#a60404" d="M 297.230469 72.753906 L 265.246094 72.753906 L 265.246094 44.8125 L 297.230469 44.8125 Z M 297.230469 72.753906 " fill-opacity="1" fill-rule="nonzero"/></g></g><g clip-path="url(#b607393fc2)"><g clip-path="url(#7e8aac6df5)"><path fill="#a60404" d="M 239.796875 77.25 L 207.816406 77.25 L 207.816406 49.308594 L 239.796875 49.308594 Z M 239.796875 77.25 " fill-opacity="1" fill-rule="nonzero"/></g></g><g clip-path="url(#00e8a9c325)"><g clip-path="url(#6e6685713e)"><path fill="#9aa8c1" d="M 221.007812 72.753906 L 189.027344 72.753906 L 189.027344 44.8125 L 221.007812 44.8125 Z M 221.007812 72.753906 " fill-opacity="1" fill-rule="nonzero"/></g></g><g clip-path="url(#972a00235d)"><g clip-path="url(#3c08ff15d1)"><path fill="#a60404" d="M 144.433594 72.753906 L 112.453125 72.753906 L 112.453125 44.8125 L 144.433594 44.8125 Z M 144.433594 72.753906 " fill-opacity="1" fill-rule="nonzero"/></g></g><g clip-path="url(#3059906117)"><g clip-path="url(#62a391d9d3)"><path fill="#a60404" d="M 125.289062 78.3125 L 93.308594 78.3125 L 93.308594 50.371094 L 125.289062 50.371094 Z M 125.289062 78.3125 " fill-opacity="1" fill-rule="nonzero"/></g></g><g clip-path="url(#bddb1da36c)"><g clip-path="url(#c294a05099)"><path fill="#a60404" d="M 106.144531 72.753906 L 74.164062 72.753906 L 74.164062 44.8125 L 106.144531 44.8125 Z M 106.144531 72.753906 " fill-opacity="1" fill-rule="nonzero"/></g></g><g clip-path="url(#f96d767a53)"><g clip-path="url(#42df012b81)"><path fill="#3a437b" d="M 87 78.3125 L 55.019531 78.3125 L 55.019531 50.371094 L 87 50.371094 Z M 87 78.3125 " fill-opacity="1" fill-rule="nonzero"/></g></g><g clip-path="url(#3724e9271c)"><g clip-path="url(#b8ad4cadf7)"><path fill="#a60404" d="M 28.78125 72.753906 L -3.199219 72.753906 L -3.199219 44.8125 L 28.78125 44.8125 Z M 28.78125 72.753906 " fill-opacity="1" fill-rule="nonzero"/></g></g><g clip-path="url(#5ad47bfdab)"><g clip-path="url(#da7e6e553e)"><path fill="#a60404" d="M 9.851562 77.25 L -22.128906 77.25 L -22.128906 49.308594 L 9.851562 49.308594 Z M 9.851562 77.25 " fill-opacity="1" fill-rule="nonzero"/></g></g></svg>