<svg xmlns="http://www.w3.org/2000/svg" xmlns:xlink="http://www.w3.org/1999/xlink" width="1366" zoomAndPan="magnify" viewBox="0 0 1024.5 340.49999" height="454" preserveAspectRatio="xMidYMid meet" version="1.0"><defs><clipPath id="e7c68866aa"><path d="M 1007.390625 233.945312 L 1023.5 233.945312 L 1023.5 261.863281 L 1007.390625 261.863281 Z M 1007.390625 233.945312 " clip-rule="nonzero"/></clipPath><clipPath id="a093634b4d"><path d="M 1023.390625 261.863281 L 1007.4375 233.945312 L 1039.34375 233.945312 Z M 1023.390625 261.863281 " clip-rule="nonzero"/></clipPath><clipPath id="d72903b183"><path d="M 988.265625 239.5 L 1020.21875 239.5 L 1020.21875 267.417969 L 988.265625 267.417969 Z M 988.265625 239.5 " clip-rule="nonzero"/></clipPath><clipPath id="182a745731"><path d="M 1004.265625 239.5 L 988.3125 267.417969 L 1020.21875 267.417969 Z M 1004.265625 239.5 " clip-rule="nonzero"/></clipPath><clipPath id="a6c7bb2bd0"><path d="M 969.140625 233.945312 L 1001.089844 233.945312 L 1001.089844 261.863281 L 969.140625 261.863281 Z M 969.140625 233.945312 " clip-rule="nonzero"/></clipPath><clipPath id="e945e7157f"><path d="M 985.140625 261.863281 L 969.1875 233.945312 L 1001.089844 233.945312 Z M 985.140625 261.863281 " clip-rule="nonzero"/></clipPath><clipPath id="c930f2ec39"><path d="M 950.015625 239.5 L 981.964844 239.5 L 981.964844 267.417969 L 950.015625 267.417969 Z M 950.015625 239.5 " clip-rule="nonzero"/></clipPath><clipPath id="457b8f350c"><path d="M 966.015625 239.5 L 950.0625 267.417969 L 981.964844 267.417969 Z M 966.015625 239.5 " clip-rule="nonzero"/></clipPath><clipPath id="59a104b52c"><path d="M 930.890625 233.945312 L 962.839844 233.945312 L 962.839844 261.863281 L 930.890625 261.863281 Z M 930.890625 233.945312 " clip-rule="nonzero"/></clipPath><clipPath id="7b056901d7"><path d="M 946.890625 261.863281 L 930.9375 233.945312 L 962.839844 233.945312 Z M 946.890625 261.863281 " clip-rule="nonzero"/></clipPath><clipPath id="f71c22cec6"><path d="M 911.765625 239.5 L 943.714844 239.5 L 943.714844 267.417969 L 911.765625 267.417969 Z M 911.765625 239.5 " clip-rule="nonzero"/></clipPath><clipPath id="a624d44468"><path d="M 927.765625 239.5 L 911.8125 267.417969 L 943.714844 267.417969 Z M 927.765625 239.5 " clip-rule="nonzero"/></clipPath><clipPath id="1065c2374a"><path d="M 892.640625 233.945312 L 924.589844 233.945312 L 924.589844 261.863281 L 892.640625 261.863281 Z M 892.640625 233.945312 " clip-rule="nonzero"/></clipPath><clipPath id="5b571bc217"><path d="M 908.640625 261.863281 L 892.6875 233.945312 L 924.589844 233.945312 Z M 908.640625 261.863281 " clip-rule="nonzero"/></clipPath><clipPath id="674163f41f"><path d="M 873.515625 239.5 L 905.464844 239.5 L 905.464844 267.417969 L 873.515625 267.417969 Z M 873.515625 239.5 " clip-rule="nonzero"/></clipPath><clipPath id="f802249014"><path d="M 889.511719 239.5 L 873.5625 267.417969 L 905.464844 267.417969 Z M 889.511719 239.5 " clip-rule="nonzero"/></clipPath><clipPath id="b5631f5b88"><path d="M 854.746094 233.945312 L 886.695312 233.945312 L 886.695312 261.863281 L 854.746094 261.863281 Z M 854.746094 233.945312 " clip-rule="nonzero"/></clipPath><clipPath id="7011277ab0"><path d="M 870.746094 261.863281 L 854.792969 233.945312 L 886.695312 233.945312 Z M 870.746094 261.863281 " clip-rule="nonzero"/></clipPath><clipPath id="58874bd801"><path d="M 1007.035156 278.523438 L 1023.5 278.523438 L 1023.5 306.441406 L 1007.035156 306.441406 Z M 1007.035156 278.523438 " clip-rule="nonzero"/></clipPath><clipPath id="2b130877d8"><path d="M 1023.035156 278.523438 L 1007.082031 306.441406 L 1038.984375 306.441406 Z M 1023.035156 278.523438 " clip-rule="nonzero"/></clipPath><clipPath id="2b1a127f46"><path d="M 987.910156 272.96875 L 1019.859375 272.96875 L 1019.859375 300.886719 L 987.910156 300.886719 Z M 987.910156 272.96875 " clip-rule="nonzero"/></clipPath><clipPath id="73853867bd"><path d="M 1003.910156 300.886719 L 987.957031 272.96875 L 1019.859375 272.96875 Z M 1003.910156 300.886719 " clip-rule="nonzero"/></clipPath><clipPath id="7c0a4b860f"><path d="M 968.785156 278.523438 L 1000.734375 278.523438 L 1000.734375 306.441406 L 968.785156 306.441406 Z M 968.785156 278.523438 " clip-rule="nonzero"/></clipPath><clipPath id="e5bff59902"><path d="M 984.785156 278.523438 L 968.832031 306.441406 L 1000.734375 306.441406 Z M 984.785156 278.523438 " clip-rule="nonzero"/></clipPath><clipPath id="da1e852742"><path d="M 949.660156 272.96875 L 981.609375 272.96875 L 981.609375 300.886719 L 949.660156 300.886719 Z M 949.660156 272.96875 " clip-rule="nonzero"/></clipPath><clipPath id="51faffbae9"><path d="M 965.660156 300.886719 L 949.707031 272.96875 L 981.609375 272.96875 Z M 965.660156 300.886719 " clip-rule="nonzero"/></clipPath><clipPath id="cb4ad1d133"><path d="M 930.535156 278.523438 L 962.484375 278.523438 L 962.484375 306.441406 L 930.535156 306.441406 Z M 930.535156 278.523438 " clip-rule="nonzero"/></clipPath><clipPath id="5d1a4eccc8"><path d="M 946.535156 278.523438 L 930.582031 306.441406 L 962.484375 306.441406 Z M 946.535156 278.523438 " clip-rule="nonzero"/></clipPath><clipPath id="c0579f4a37"><path d="M 911.410156 272.96875 L 943.359375 272.96875 L 943.359375 300.886719 L 911.410156 300.886719 Z M 911.410156 272.96875 " clip-rule="nonzero"/></clipPath><clipPath id="7ce5bd4ff6"><path d="M 927.40625 300.886719 L 911.457031 272.96875 L 943.359375 272.96875 Z M 927.40625 300.886719 " clip-rule="nonzero"/></clipPath><clipPath id="05c5612283"><path d="M 892.285156 278.523438 L 924.234375 278.523438 L 924.234375 306.441406 L 892.285156 306.441406 Z M 892.285156 278.523438 " clip-rule="nonzero"/></clipPath><clipPath id="1d8008e104"><path d="M 908.28125 278.523438 L 892.332031 306.441406 L 924.234375 306.441406 Z M 908.28125 278.523438 " clip-rule="nonzero"/></clipPath><clipPath id="bb9d55c9ad"><path d="M 873.515625 272.96875 L 905.464844 272.96875 L 905.464844 300.886719 L 873.515625 300.886719 Z M 873.515625 272.96875 " clip-rule="nonzero"/></clipPath><clipPath id="0259015ecd"><path d="M 889.511719 300.886719 L 873.5625 272.96875 L 905.464844 272.96875 Z M 889.511719 300.886719 " clip-rule="nonzero"/></clipPath><clipPath id="3ca7c55cb4"><path d="M 1007.214844 311.683594 L 1023.5 311.683594 L 1023.5 339.597656 L 1007.214844 339.597656 Z M 1007.214844 311.683594 " clip-rule="nonzero"/></clipPath><clipPath id="0086da4fa1"><path d="M 1023.210938 339.597656 L 1007.261719 311.683594 L 1039.164062 311.683594 Z M 1023.210938 339.597656 " clip-rule="nonzero"/></clipPath><clipPath id="5048ebf76f"><path d="M 988.089844 317.234375 L 1020.039062 317.234375 L 1020.039062 340 L 988.089844 340 Z M 988.089844 317.234375 " clip-rule="nonzero"/></clipPath><clipPath id="a01cc50923"><path d="M 1004.085938 317.234375 L 988.136719 345.152344 L 1020.039062 345.152344 Z M 1004.085938 317.234375 " clip-rule="nonzero"/></clipPath><clipPath id="aef5f15f4f"><path d="M 969 311.683594 L 1000.914062 311.683594 L 1000.914062 339.597656 L 969 339.597656 Z M 969 311.683594 " clip-rule="nonzero"/></clipPath><clipPath id="7f3ac5cb2f"><path d="M 984.960938 339.597656 L 969.011719 311.683594 L 1000.914062 311.683594 Z M 984.960938 339.597656 " clip-rule="nonzero"/></clipPath><clipPath id="b92d6de5ac"><path d="M 949.839844 317.234375 L 981.789062 317.234375 L 981.789062 340 L 949.839844 340 Z M 949.839844 317.234375 " clip-rule="nonzero"/></clipPath><clipPath id="8256b93738"><path d="M 965.835938 317.234375 L 949.886719 345.152344 L 981.789062 345.152344 Z M 965.835938 317.234375 " clip-rule="nonzero"/></clipPath><clipPath id="155fffb4fe"><path d="M 930.714844 311.683594 L 962.664062 311.683594 L 962.664062 339.597656 L 930.714844 339.597656 Z M 930.714844 311.683594 " clip-rule="nonzero"/></clipPath><clipPath id="f88453ada8"><path d="M 946.710938 339.597656 L 930.757812 311.683594 L 962.664062 311.683594 Z M 946.710938 339.597656 " clip-rule="nonzero"/></clipPath><clipPath id="bb413f45ef"><path d="M 911.585938 317.234375 L 943.539062 317.234375 L 943.539062 340 L 911.585938 340 Z M 911.585938 317.234375 " clip-rule="nonzero"/></clipPath><clipPath id="26412a10b3"><path d="M 927.585938 317.234375 L 911.632812 345.152344 L 943.539062 345.152344 Z M 927.585938 317.234375 " clip-rule="nonzero"/></clipPath><clipPath id="5e2657a89b"><path d="M 892.820312 311.683594 L 924.769531 311.683594 L 924.769531 339.597656 L 892.820312 339.597656 Z M 892.820312 311.683594 " clip-rule="nonzero"/></clipPath><clipPath id="e053bb7da6"><path d="M 908.816406 339.597656 L 892.867188 311.683594 L 924.769531 311.683594 Z M 908.816406 339.597656 " clip-rule="nonzero"/></clipPath><clipPath id="78678ccff4"><path d="M 1006.429688 123.054688 L 1023.5 123.054688 L 1023.5 150.96875 L 1006.429688 150.96875 Z M 1006.429688 123.054688 " clip-rule="nonzero"/></clipPath><clipPath id="cead2c2022"><path d="M 1022.429688 123.054688 L 1006.476562 150.96875 L 1038.378906 150.96875 Z M 1022.429688 123.054688 " clip-rule="nonzero"/></clipPath><clipPath id="1a06c1509e"><path d="M 987.304688 117.5 L 1019.253906 117.5 L 1019.253906 145.414062 L 987.304688 145.414062 Z M 987.304688 117.5 " clip-rule="nonzero"/></clipPath><clipPath id="05ae49d97c"><path d="M 1003.304688 145.414062 L 987.351562 117.5 L 1019.253906 117.5 Z M 1003.304688 145.414062 " clip-rule="nonzero"/></clipPath><clipPath id="e14926f9b1"><path d="M 968.179688 123.054688 L 1000.128906 123.054688 L 1000.128906 150.96875 L 968.179688 150.96875 Z M 968.179688 123.054688 " clip-rule="nonzero"/></clipPath><clipPath id="c7d2cda474"><path d="M 984.179688 123.054688 L 968.226562 150.96875 L 1000.128906 150.96875 Z M 984.179688 123.054688 " clip-rule="nonzero"/></clipPath><clipPath id="e26a1f0d06"><path d="M 949.054688 117.5 L 981.003906 117.5 L 981.003906 145.414062 L 949.054688 145.414062 Z M 949.054688 117.5 " clip-rule="nonzero"/></clipPath><clipPath id="a99d196328"><path d="M 965.054688 145.414062 L 949.101562 117.5 L 981.003906 117.5 Z M 965.054688 145.414062 " clip-rule="nonzero"/></clipPath><clipPath id="cf79459aae"><path d="M 929.929688 123.054688 L 961.878906 123.054688 L 961.878906 150.96875 L 929.929688 150.96875 Z M 929.929688 123.054688 " clip-rule="nonzero"/></clipPath><clipPath id="70d3476662"><path d="M 945.929688 123.054688 L 929.976562 150.96875 L 961.878906 150.96875 Z M 945.929688 123.054688 " clip-rule="nonzero"/></clipPath><clipPath id="090eb22a41"><path d="M 910.804688 117.5 L 942.753906 117.5 L 942.753906 145.414062 L 910.804688 145.414062 Z M 910.804688 117.5 " clip-rule="nonzero"/></clipPath><clipPath id="e28529873d"><path d="M 926.800781 145.414062 L 910.851562 117.5 L 942.753906 117.5 Z M 926.800781 145.414062 " clip-rule="nonzero"/></clipPath><clipPath id="a2049d999d"><path d="M 891.679688 123.054688 L 923.628906 123.054688 L 923.628906 150.96875 L 891.679688 150.96875 Z M 891.679688 123.054688 " clip-rule="nonzero"/></clipPath><clipPath id="91cac6a730"><path d="M 907.675781 123.054688 L 891.726562 150.96875 L 923.628906 150.96875 Z M 907.675781 123.054688 " clip-rule="nonzero"/></clipPath><clipPath id="2c65387915"><path d="M 872.910156 117.5 L 904.859375 117.5 L 904.859375 145.414062 L 872.910156 145.414062 Z M 872.910156 117.5 " clip-rule="nonzero"/></clipPath><clipPath id="61a140da43"><path d="M 888.90625 145.414062 L 872.957031 117.5 L 904.859375 117.5 Z M 888.90625 145.414062 " clip-rule="nonzero"/></clipPath><clipPath id="4d8f9ec7ef"><path d="M 1006.074219 156.523438 L 1023.5 156.523438 L 1023.5 184.4375 L 1006.074219 184.4375 Z M 1006.074219 156.523438 " clip-rule="nonzero"/></clipPath><clipPath id="d416225e3e"><path d="M 1022.074219 184.4375 L 1006.121094 156.523438 L 1038.023438 156.523438 Z M 1022.074219 184.4375 " clip-rule="nonzero"/></clipPath><clipPath id="39b8b57dfe"><path d="M 986.949219 162.078125 L 1018.898438 162.078125 L 1018.898438 189.992188 L 986.949219 189.992188 Z M 986.949219 162.078125 " clip-rule="nonzero"/></clipPath><clipPath id="a722bce2ee"><path d="M 1002.949219 162.078125 L 986.996094 189.992188 L 1018.898438 189.992188 Z M 1002.949219 162.078125 " clip-rule="nonzero"/></clipPath><clipPath id="6a5c62a785"><path d="M 967.824219 156.523438 L 999.773438 156.523438 L 999.773438 184.4375 L 967.824219 184.4375 Z M 967.824219 156.523438 " clip-rule="nonzero"/></clipPath><clipPath id="f2e9b204f0"><path d="M 983.820312 184.4375 L 967.871094 156.523438 L 999.773438 156.523438 Z M 983.820312 184.4375 " clip-rule="nonzero"/></clipPath><clipPath id="ae8fd12a7c"><path d="M 948.699219 162.078125 L 980.648438 162.078125 L 980.648438 189.992188 L 948.699219 189.992188 Z M 948.699219 162.078125 " clip-rule="nonzero"/></clipPath><clipPath id="89023efce1"><path d="M 964.695312 162.078125 L 948.746094 189.992188 L 980.648438 189.992188 Z M 964.695312 162.078125 " clip-rule="nonzero"/></clipPath><clipPath id="7ff2a5d53d"><path d="M 929.574219 156.523438 L 961.523438 156.523438 L 961.523438 184.4375 L 929.574219 184.4375 Z M 929.574219 156.523438 " clip-rule="nonzero"/></clipPath><clipPath id="96be1595a8"><path d="M 945.570312 184.4375 L 929.621094 156.523438 L 961.523438 156.523438 Z M 945.570312 184.4375 " clip-rule="nonzero"/></clipPath><clipPath id="2ecb58e102"><path d="M 910.449219 162.078125 L 942.398438 162.078125 L 942.398438 189.992188 L 910.449219 189.992188 Z M 910.449219 162.078125 " clip-rule="nonzero"/></clipPath><clipPath id="89c27fb867"><path d="M 926.445312 162.078125 L 910.496094 189.992188 L 942.398438 189.992188 Z M 926.445312 162.078125 " clip-rule="nonzero"/></clipPath><clipPath id="37db515278"><path d="M 891.679688 156.523438 L 923.628906 156.523438 L 923.628906 184.4375 L 891.679688 184.4375 Z M 891.679688 156.523438 " clip-rule="nonzero"/></clipPath><clipPath id="2e73f3200a"><path d="M 907.675781 184.4375 L 891.726562 156.523438 L 923.628906 156.523438 Z M 907.675781 184.4375 " clip-rule="nonzero"/></clipPath><clipPath id="45f585c477"><path d="M 987.128906 195.234375 L 1019.078125 195.234375 L 1019.078125 223.152344 L 987.128906 223.152344 Z M 987.128906 195.234375 " clip-rule="nonzero"/></clipPath><clipPath id="2c553eea15"><path d="M 1003.125 223.152344 L 987.175781 195.234375 L 1019.078125 195.234375 Z M 1003.125 223.152344 " clip-rule="nonzero"/></clipPath><clipPath id="e43538af2e"><path d="M 968 200.789062 L 999.953125 200.789062 L 999.953125 228.703125 L 968 228.703125 Z M 968 200.789062 " clip-rule="nonzero"/></clipPath><clipPath id="d420c4aac1"><path d="M 984 200.789062 L 968.046875 228.703125 L 999.953125 228.703125 Z M 984 200.789062 " clip-rule="nonzero"/></clipPath><clipPath id="342d16af4e"><path d="M 948.875 195.234375 L 980.828125 195.234375 L 980.828125 223.152344 L 948.875 223.152344 Z M 948.875 195.234375 " clip-rule="nonzero"/></clipPath><clipPath id="b9989286bf"><path d="M 964.875 223.152344 L 948.921875 195.234375 L 980.828125 195.234375 Z M 964.875 223.152344 " clip-rule="nonzero"/></clipPath><clipPath id="fb86debe26"><path d="M 929.75 200.789062 L 961.703125 200.789062 L 961.703125 228.703125 L 929.75 228.703125 Z M 929.75 200.789062 " clip-rule="nonzero"/></clipPath><clipPath id="121d43ce2b"><path d="M 945.75 200.789062 L 929.796875 228.703125 L 961.703125 228.703125 Z M 945.75 200.789062 " clip-rule="nonzero"/></clipPath><clipPath id="d7dedb0da5"><path d="M 911 195.234375 L 942.933594 195.234375 L 942.933594 223.152344 L 911 223.152344 Z M 911 195.234375 " clip-rule="nonzero"/></clipPath><clipPath id="8fc069919b"><path d="M 926.980469 223.152344 L 911.027344 195.234375 L 942.933594 195.234375 Z M 926.980469 223.152344 " clip-rule="nonzero"/></clipPath><clipPath id="089066c76f"><path d="M 1006.859375 1.054688 L 1023.5 1.054688 L 1023.5 28.96875 L 1006.859375 28.96875 Z M 1006.859375 1.054688 " clip-rule="nonzero"/></clipPath><clipPath id="c4aad9e2e8"><path d="M 1022.855469 28.96875 L 1006.90625 1.054688 L 1038.808594 1.054688 Z M 1022.855469 28.96875 " clip-rule="nonzero"/></clipPath><clipPath id="8c278326ef"><path d="M 987.734375 6.609375 L 1019.683594 6.609375 L 1019.683594 34.523438 L 987.734375 34.523438 Z M 987.734375 6.609375 " clip-rule="nonzero"/></clipPath><clipPath id="0d8dcfbf8e"><path d="M 1003.730469 6.609375 L 987.78125 34.523438 L 1019.683594 34.523438 Z M 1003.730469 6.609375 " clip-rule="nonzero"/></clipPath><clipPath id="01bb769cae"><path d="M 968.605469 1.054688 L 1000.558594 1.054688 L 1000.558594 28.96875 L 968.605469 28.96875 Z M 968.605469 1.054688 " clip-rule="nonzero"/></clipPath><clipPath id="b26420bade"><path d="M 984.605469 28.96875 L 968.652344 1.054688 L 1000.558594 1.054688 Z M 984.605469 28.96875 " clip-rule="nonzero"/></clipPath><clipPath id="57c96b3d68"><path d="M 949.480469 6.609375 L 981.433594 6.609375 L 981.433594 34.523438 L 949.480469 34.523438 Z M 949.480469 6.609375 " clip-rule="nonzero"/></clipPath><clipPath id="3977a42fdd"><path d="M 965.480469 6.609375 L 949.527344 34.523438 L 981.433594 34.523438 Z M 965.480469 6.609375 " clip-rule="nonzero"/></clipPath><clipPath id="e13f333244"><path d="M 930.355469 1.054688 L 962.304688 1.054688 L 962.304688 28.96875 L 930.355469 28.96875 Z M 930.355469 1.054688 " clip-rule="nonzero"/></clipPath><clipPath id="ceec43dc79"><path d="M 946.355469 28.96875 L 930.402344 1.054688 L 962.304688 1.054688 Z M 946.355469 28.96875 " clip-rule="nonzero"/></clipPath><clipPath id="8131614111"><path d="M 911.230469 6.609375 L 943.179688 6.609375 L 943.179688 34.523438 L 911.230469 34.523438 Z M 911.230469 6.609375 " clip-rule="nonzero"/></clipPath><clipPath id="d92300fc33"><path d="M 927.230469 6.609375 L 911.277344 34.523438 L 943.179688 34.523438 Z M 927.230469 6.609375 " clip-rule="nonzero"/></clipPath><clipPath id="3638e5e553"><path d="M 892.105469 1.054688 L 924.054688 1.054688 L 924.054688 28.96875 L 892.105469 28.96875 Z M 892.105469 1.054688 " clip-rule="nonzero"/></clipPath><clipPath id="19980cfa37"><path d="M 908.105469 28.96875 L 892.152344 1.054688 L 924.054688 1.054688 Z M 908.105469 28.96875 " clip-rule="nonzero"/></clipPath><clipPath id="8e78719805"><path d="M 873 6.609375 L 904.929688 6.609375 L 904.929688 34.523438 L 873 34.523438 Z M 873 6.609375 " clip-rule="nonzero"/></clipPath><clipPath id="cfe7b38c77"><path d="M 888.980469 6.609375 L 873.027344 34.523438 L 904.929688 34.523438 Z M 888.980469 6.609375 " clip-rule="nonzero"/></clipPath><clipPath id="c1c1f1df2d"><path d="M 854.210938 1.054688 L 886.160156 1.054688 L 886.160156 28.96875 L 854.210938 28.96875 Z M 854.210938 1.054688 " clip-rule="nonzero"/></clipPath><clipPath id="7da9c046d9"><path d="M 870.210938 28.96875 L 854.257812 1.054688 L 886.160156 1.054688 Z M 870.210938 28.96875 " clip-rule="nonzero"/></clipPath><clipPath id="b71d5f2c1c"><path d="M 1006.5 45.632812 L 1023.5 45.632812 L 1023.5 73.546875 L 1006.5 73.546875 Z M 1006.5 45.632812 " clip-rule="nonzero"/></clipPath><clipPath id="3b31b20785"><path d="M 1022.5 45.632812 L 1006.546875 73.546875 L 1038.453125 73.546875 Z M 1022.5 45.632812 " clip-rule="nonzero"/></clipPath><clipPath id="056fb7005b"><path d="M 987.375 40.078125 L 1019.328125 40.078125 L 1019.328125 67.992188 L 987.375 67.992188 Z M 987.375 40.078125 " clip-rule="nonzero"/></clipPath><clipPath id="f72d6ba1b3"><path d="M 1003.375 67.992188 L 987.421875 40.078125 L 1019.328125 40.078125 Z M 1003.375 67.992188 " clip-rule="nonzero"/></clipPath><clipPath id="d0312716a5"><path d="M 968.25 45.632812 L 1000.199219 45.632812 L 1000.199219 73.546875 L 968.25 73.546875 Z M 968.25 45.632812 " clip-rule="nonzero"/></clipPath><clipPath id="686bd9853d"><path d="M 984.25 45.632812 L 968.296875 73.546875 L 1000.199219 73.546875 Z M 984.25 45.632812 " clip-rule="nonzero"/></clipPath><clipPath id="22907de1fc"><path d="M 949.125 40.078125 L 981.074219 40.078125 L 981.074219 67.992188 L 949.125 67.992188 Z M 949.125 40.078125 " clip-rule="nonzero"/></clipPath><clipPath id="fc80408428"><path d="M 965.125 67.992188 L 949.171875 40.078125 L 981.074219 40.078125 Z M 965.125 67.992188 " clip-rule="nonzero"/></clipPath><clipPath id="eb76042f06"><path d="M 930 45.632812 L 961.949219 45.632812 L 961.949219 73.546875 L 930 73.546875 Z M 930 45.632812 " clip-rule="nonzero"/></clipPath><clipPath id="806ee22e14"><path d="M 946 45.632812 L 930.046875 73.546875 L 961.949219 73.546875 Z M 946 45.632812 " clip-rule="nonzero"/></clipPath><clipPath id="acaad8b951"><path d="M 910.875 40.078125 L 942.824219 40.078125 L 942.824219 67.992188 L 910.875 67.992188 Z M 910.875 40.078125 " clip-rule="nonzero"/></clipPath><clipPath id="d6f02093bd"><path d="M 926.875 67.992188 L 910.921875 40.078125 L 942.824219 40.078125 Z M 926.875 67.992188 " clip-rule="nonzero"/></clipPath><clipPath id="10f978c3a9"><path d="M 891.75 45.632812 L 923.699219 45.632812 L 923.699219 73.546875 L 891.75 73.546875 Z M 891.75 45.632812 " clip-rule="nonzero"/></clipPath><clipPath id="8bdc8f8777"><path d="M 907.75 45.632812 L 891.796875 73.546875 L 923.699219 73.546875 Z M 907.75 45.632812 " clip-rule="nonzero"/></clipPath><clipPath id="8ccf4799b4"><path d="M 873 40.078125 L 904.929688 40.078125 L 904.929688 67.992188 L 873 67.992188 Z M 873 40.078125 " clip-rule="nonzero"/></clipPath><clipPath id="18f09a398e"><path d="M 888.980469 67.992188 L 873.027344 40.078125 L 904.929688 40.078125 Z M 888.980469 67.992188 " clip-rule="nonzero"/></clipPath><clipPath id="1980c3615d"><path d="M 1006.679688 78.789062 L 1023.5 78.789062 L 1023.5 106.703125 L 1006.679688 106.703125 Z M 1006.679688 78.789062 " clip-rule="nonzero"/></clipPath><clipPath id="8fc806fb79"><path d="M 1022.679688 106.703125 L 1006.726562 78.789062 L 1038.628906 78.789062 Z M 1022.679688 106.703125 " clip-rule="nonzero"/></clipPath><clipPath id="062c264c77"><path d="M 987.554688 84.34375 L 1019.503906 84.34375 L 1019.503906 112.257812 L 987.554688 112.257812 Z M 987.554688 84.34375 " clip-rule="nonzero"/></clipPath><clipPath id="dd07ec3969"><path d="M 1003.554688 84.34375 L 987.601562 112.257812 L 1019.503906 112.257812 Z M 1003.554688 84.34375 " clip-rule="nonzero"/></clipPath><clipPath id="03680e44ef"><path d="M 968.429688 78.789062 L 1000.378906 78.789062 L 1000.378906 106.703125 L 968.429688 106.703125 Z M 968.429688 78.789062 " clip-rule="nonzero"/></clipPath><clipPath id="07ed43d142"><path d="M 984.425781 106.703125 L 968.476562 78.789062 L 1000.378906 78.789062 Z M 984.425781 106.703125 " clip-rule="nonzero"/></clipPath><clipPath id="16d2feb2b7"><path d="M 949.304688 84.34375 L 981.253906 84.34375 L 981.253906 112.257812 L 949.304688 112.257812 Z M 949.304688 84.34375 " clip-rule="nonzero"/></clipPath><clipPath id="6f179ff019"><path d="M 965.300781 84.34375 L 949.351562 112.257812 L 981.253906 112.257812 Z M 965.300781 84.34375 " clip-rule="nonzero"/></clipPath><clipPath id="d5a4dc93b2"><path d="M 930.179688 78.789062 L 962.128906 78.789062 L 962.128906 106.703125 L 930.179688 106.703125 Z M 930.179688 78.789062 " clip-rule="nonzero"/></clipPath><clipPath id="c3555ec684"><path d="M 946.175781 106.703125 L 930.226562 78.789062 L 962.128906 78.789062 Z M 946.175781 106.703125 " clip-rule="nonzero"/></clipPath><clipPath id="8890b00185"><path d="M 911.054688 84.34375 L 943.003906 84.34375 L 943.003906 112.257812 L 911.054688 112.257812 Z M 911.054688 84.34375 " clip-rule="nonzero"/></clipPath><clipPath id="5dd59cf61e"><path d="M 927.050781 84.34375 L 911.101562 112.257812 L 943.003906 112.257812 Z M 927.050781 84.34375 " clip-rule="nonzero"/></clipPath><clipPath id="28ecfac426"><path d="M 892.285156 78.789062 L 924.234375 78.789062 L 924.234375 106.703125 L 892.285156 106.703125 Z M 892.285156 78.789062 " clip-rule="nonzero"/></clipPath><clipPath id="0f019be85a"><path d="M 908.28125 106.703125 L 892.332031 78.789062 L 924.234375 78.789062 Z M 908.28125 106.703125 " clip-rule="nonzero"/></clipPath><clipPath id="924807cc63"><path d="M 1006.253906 200.789062 L 1023.5 200.789062 L 1023.5 228.703125 L 1006.253906 228.703125 Z M 1006.253906 200.789062 " clip-rule="nonzero"/></clipPath><clipPath id="0934a7a782"><path d="M 1022.25 200.789062 L 1006.300781 228.703125 L 1038.203125 228.703125 Z M 1022.25 200.789062 " clip-rule="nonzero"/></clipPath><clipPath id="d894451aa9"><path d="M 852.859375 122.742188 L 884.808594 122.742188 L 884.808594 150.65625 L 852.859375 150.65625 Z M 852.859375 122.742188 " clip-rule="nonzero"/></clipPath><clipPath id="2b7b846928"><path d="M 868.855469 122.742188 L 852.902344 150.65625 L 884.808594 150.65625 Z M 868.855469 122.742188 " clip-rule="nonzero"/></clipPath><clipPath id="ace51bf9a4"><path d="M 834.089844 117.1875 L 866.039062 117.1875 L 866.039062 145.105469 L 834.089844 145.105469 Z M 834.089844 117.1875 " clip-rule="nonzero"/></clipPath><clipPath id="30121641b2"><path d="M 850.085938 145.105469 L 834.136719 117.1875 L 866.039062 117.1875 Z M 850.085938 145.105469 " clip-rule="nonzero"/></clipPath><clipPath id="069e34eadc"><path d="M 871.625 161.765625 L 903.578125 161.765625 L 903.578125 189.679688 L 871.625 189.679688 Z M 871.625 161.765625 " clip-rule="nonzero"/></clipPath><clipPath id="6e001fd0f2"><path d="M 887.625 161.765625 L 871.671875 189.679688 L 903.578125 189.679688 Z M 887.625 161.765625 " clip-rule="nonzero"/></clipPath><clipPath id="180a13e8e7"><path d="M 852.859375 156.210938 L 884.808594 156.210938 L 884.808594 184.128906 L 852.859375 184.128906 Z M 852.859375 156.210938 " clip-rule="nonzero"/></clipPath><clipPath id="1792efda09"><path d="M 868.855469 184.128906 L 852.902344 156.210938 L 884.808594 156.210938 Z M 868.855469 184.128906 " clip-rule="nonzero"/></clipPath><clipPath id="5e3bdabd24"><path d="M 890.929688 200.476562 L 922.878906 200.476562 L 922.878906 228.394531 L 890.929688 228.394531 Z M 890.929688 200.476562 " clip-rule="nonzero"/></clipPath><clipPath id="e6445bf7cf"><path d="M 906.929688 200.476562 L 890.976562 228.394531 L 922.878906 228.394531 Z M 906.929688 200.476562 " clip-rule="nonzero"/></clipPath><clipPath id="5b20c478dc"><path d="M 872.160156 194.921875 L 904.109375 194.921875 L 904.109375 222.839844 L 872.160156 222.839844 Z M 872.160156 194.921875 " clip-rule="nonzero"/></clipPath><clipPath id="4360f04352"><path d="M 888.160156 222.839844 L 872.207031 194.921875 L 904.109375 194.921875 Z M 888.160156 222.839844 " clip-rule="nonzero"/></clipPath><clipPath id="da3bb49bdf"><path d="M 815 122.742188 L 846.914062 122.742188 L 846.914062 150.65625 L 815 150.65625 Z M 815 122.742188 " clip-rule="nonzero"/></clipPath><clipPath id="93f07d4f63"><path d="M 830.960938 122.742188 L 815.011719 150.65625 L 846.914062 150.65625 Z M 830.960938 122.742188 " clip-rule="nonzero"/></clipPath><clipPath id="06f5a248c3"><path d="M 796.195312 117.1875 L 828.144531 117.1875 L 828.144531 145.105469 L 796.195312 145.105469 Z M 796.195312 117.1875 " clip-rule="nonzero"/></clipPath><clipPath id="8e906161c7"><path d="M 812.191406 145.105469 L 796.242188 117.1875 L 828.144531 117.1875 Z M 812.191406 145.105469 " clip-rule="nonzero"/></clipPath><clipPath id="12de3495e7"><path d="M 833.730469 161.765625 L 865.683594 161.765625 L 865.683594 189.679688 L 833.730469 189.679688 Z M 833.730469 161.765625 " clip-rule="nonzero"/></clipPath><clipPath id="4720593f06"><path d="M 849.730469 161.765625 L 833.777344 189.679688 L 865.683594 189.679688 Z M 849.730469 161.765625 " clip-rule="nonzero"/></clipPath><clipPath id="0a1ca413de"><path d="M 815 156.210938 L 846.914062 156.210938 L 846.914062 184.128906 L 815 184.128906 Z M 815 156.210938 " clip-rule="nonzero"/></clipPath><clipPath id="f2fe98fe29"><path d="M 830.960938 184.128906 L 815.011719 156.210938 L 846.914062 156.210938 Z M 830.960938 184.128906 " clip-rule="nonzero"/></clipPath><clipPath id="f9b5737ec6"><path d="M 853.035156 200.476562 L 884.984375 200.476562 L 884.984375 228.394531 L 853.035156 228.394531 Z M 853.035156 200.476562 " clip-rule="nonzero"/></clipPath><clipPath id="d8997f10ef"><path d="M 869.035156 200.476562 L 853.082031 228.394531 L 884.984375 228.394531 Z M 869.035156 200.476562 " clip-rule="nonzero"/></clipPath><clipPath id="913f4f469a"><path d="M 834.265625 194.921875 L 866.214844 194.921875 L 866.214844 222.839844 L 834.265625 222.839844 Z M 834.265625 194.921875 " clip-rule="nonzero"/></clipPath><clipPath id="483aee1164"><path d="M 850.265625 222.839844 L 834.3125 194.921875 L 866.214844 194.921875 Z M 850.265625 222.839844 " clip-rule="nonzero"/></clipPath><clipPath id="d2229b40ff"><path d="M 834.160156 5.546875 L 866.109375 5.546875 L 866.109375 33.460938 L 834.160156 33.460938 Z M 834.160156 5.546875 " clip-rule="nonzero"/></clipPath><clipPath id="9704ae2cd6"><path d="M 850.15625 5.546875 L 834.207031 33.460938 L 866.109375 33.460938 Z M 850.15625 5.546875 " clip-rule="nonzero"/></clipPath><clipPath id="3534e9fc20"><path d="M 815.035156 0 L 846.984375 0 L 846.984375 27.910156 L 815.035156 27.910156 Z M 815.035156 0 " clip-rule="nonzero"/></clipPath><clipPath id="d905eb4554"><path d="M 831.03125 27.910156 L 815.082031 -0.0078125 L 846.984375 -0.0078125 Z M 831.03125 27.910156 " clip-rule="nonzero"/></clipPath><clipPath id="be884f1d3d"><path d="M 795.910156 5.546875 L 827.859375 5.546875 L 827.859375 33.460938 L 795.910156 33.460938 Z M 795.910156 5.546875 " clip-rule="nonzero"/></clipPath><clipPath id="716dff6fbe"><path d="M 811.90625 5.546875 L 795.957031 33.460938 L 827.859375 33.460938 Z M 811.90625 5.546875 " clip-rule="nonzero"/></clipPath><clipPath id="0ce473c47b"><path d="M 776.785156 0 L 808.734375 0 L 808.734375 27.910156 L 776.785156 27.910156 Z M 776.785156 0 " clip-rule="nonzero"/></clipPath><clipPath id="a3b0c74b08"><path d="M 792.78125 27.910156 L 776.828125 -0.0078125 L 808.734375 -0.0078125 Z M 792.78125 27.910156 " clip-rule="nonzero"/></clipPath><clipPath id="8340a5fdb6"><path d="M 757.65625 5.546875 L 789.609375 5.546875 L 789.609375 33.460938 L 757.65625 33.460938 Z M 757.65625 5.546875 " clip-rule="nonzero"/></clipPath><clipPath id="b464c8f7c3"><path d="M 773.65625 5.546875 L 757.703125 33.460938 L 789.609375 33.460938 Z M 773.65625 5.546875 " clip-rule="nonzero"/></clipPath><clipPath id="bce573602c"><path d="M 738.890625 0 L 770.839844 0 L 770.839844 27.910156 L 738.890625 27.910156 Z M 738.890625 0 " clip-rule="nonzero"/></clipPath><clipPath id="6365bfe2d0"><path d="M 754.886719 27.910156 L 738.9375 -0.0078125 L 770.839844 -0.0078125 Z M 754.886719 27.910156 " clip-rule="nonzero"/></clipPath><clipPath id="1684819762"><path d="M 852.929688 44.570312 L 884.878906 44.570312 L 884.878906 72.484375 L 852.929688 72.484375 Z M 852.929688 44.570312 " clip-rule="nonzero"/></clipPath><clipPath id="709d98c729"><path d="M 868.925781 44.570312 L 852.976562 72.484375 L 884.878906 72.484375 Z M 868.925781 44.570312 " clip-rule="nonzero"/></clipPath><clipPath id="7f37f33e5f"><path d="M 833.804688 39.015625 L 865.753906 39.015625 L 865.753906 66.929688 L 833.804688 66.929688 Z M 833.804688 39.015625 " clip-rule="nonzero"/></clipPath><clipPath id="fbb910563f"><path d="M 849.800781 66.929688 L 833.851562 39.015625 L 865.753906 39.015625 Z M 849.800781 66.929688 " clip-rule="nonzero"/></clipPath><clipPath id="27ed225ace"><path d="M 814.675781 44.570312 L 846.628906 44.570312 L 846.628906 72.484375 L 814.675781 72.484375 Z M 814.675781 44.570312 " clip-rule="nonzero"/></clipPath><clipPath id="3ee93fef2e"><path d="M 830.675781 44.570312 L 814.722656 72.484375 L 846.628906 72.484375 Z M 830.675781 44.570312 " clip-rule="nonzero"/></clipPath><clipPath id="d27d371fdb"><path d="M 795.550781 39.015625 L 827.503906 39.015625 L 827.503906 66.929688 L 795.550781 66.929688 Z M 795.550781 39.015625 " clip-rule="nonzero"/></clipPath><clipPath id="8d23f3876a"><path d="M 811.550781 66.929688 L 795.597656 39.015625 L 827.503906 39.015625 Z M 811.550781 66.929688 " clip-rule="nonzero"/></clipPath><clipPath id="d7e63d0323"><path d="M 776.425781 44.570312 L 808.375 44.570312 L 808.375 72.484375 L 776.425781 72.484375 Z M 776.425781 44.570312 " clip-rule="nonzero"/></clipPath><clipPath id="128be4c81d"><path d="M 792.425781 44.570312 L 776.472656 72.484375 L 808.375 72.484375 Z M 792.425781 44.570312 " clip-rule="nonzero"/></clipPath><clipPath id="c6237fa0a7"><path d="M 757.65625 39.015625 L 789.609375 39.015625 L 789.609375 66.929688 L 757.65625 66.929688 Z M 757.65625 39.015625 " clip-rule="nonzero"/></clipPath><clipPath id="b760a6404f"><path d="M 773.65625 66.929688 L 757.703125 39.015625 L 789.609375 39.015625 Z M 773.65625 66.929688 " clip-rule="nonzero"/></clipPath><clipPath id="f5e096f974"><path d="M 872.230469 83.28125 L 904.183594 83.28125 L 904.183594 111.199219 L 872.230469 111.199219 Z M 872.230469 83.28125 " clip-rule="nonzero"/></clipPath><clipPath id="b07612793b"><path d="M 888.230469 83.28125 L 872.277344 111.199219 L 904.183594 111.199219 Z M 888.230469 83.28125 " clip-rule="nonzero"/></clipPath><clipPath id="a5c6b23ee4"><path d="M 853.105469 77.726562 L 885.054688 77.726562 L 885.054688 105.644531 L 853.105469 105.644531 Z M 853.105469 77.726562 " clip-rule="nonzero"/></clipPath><clipPath id="25531c8295"><path d="M 869.105469 105.644531 L 853.152344 77.726562 L 885.054688 77.726562 Z M 869.105469 105.644531 " clip-rule="nonzero"/></clipPath><clipPath id="91b0e9cc8f"><path d="M 834 83.28125 L 865.929688 83.28125 L 865.929688 111.199219 L 834 111.199219 Z M 834 83.28125 " clip-rule="nonzero"/></clipPath><clipPath id="2e571d3d7e"><path d="M 849.980469 83.28125 L 834.027344 111.199219 L 865.929688 111.199219 Z M 849.980469 83.28125 " clip-rule="nonzero"/></clipPath><clipPath id="f00649d2ad"><path d="M 814.855469 77.726562 L 846.804688 77.726562 L 846.804688 105.644531 L 814.855469 105.644531 Z M 814.855469 77.726562 " clip-rule="nonzero"/></clipPath><clipPath id="de8983ed4e"><path d="M 830.855469 105.644531 L 814.902344 77.726562 L 846.804688 77.726562 Z M 830.855469 105.644531 " clip-rule="nonzero"/></clipPath><clipPath id="93bea02d72"><path d="M 795.730469 83.28125 L 827.679688 83.28125 L 827.679688 111.199219 L 795.730469 111.199219 Z M 795.730469 83.28125 " clip-rule="nonzero"/></clipPath><clipPath id="b67bc58365"><path d="M 811.730469 83.28125 L 795.777344 111.199219 L 827.679688 111.199219 Z M 811.730469 83.28125 " clip-rule="nonzero"/></clipPath><clipPath id="810e8f8342"><path d="M 777 77.726562 L 808.910156 77.726562 L 808.910156 105.644531 L 777 105.644531 Z M 777 77.726562 " clip-rule="nonzero"/></clipPath><clipPath id="c702768423"><path d="M 792.960938 105.644531 L 777.007812 77.726562 L 808.910156 77.726562 Z M 792.960938 105.644531 " clip-rule="nonzero"/></clipPath></defs><g clip-path="url(#e7c68866aa)"><g clip-path="url(#a093634b4d)"><path fill="#a60404" d="M 1039.34375 261.863281 L 1007.390625 261.863281 L 1007.390625 233.945312 L 1039.34375 233.945312 Z M 1039.34375 261.863281 " fill-opacity="1" fill-rule="nonzero"/></g></g><g clip-path="url(#d72903b183)"><g clip-path="url(#182a745731)"><path fill="#a60404" d="M 1020.21875 267.417969 L 988.265625 267.417969 L 988.265625 239.5 L 1020.21875 239.5 Z M 1020.21875 267.417969 " fill-opacity="1" fill-rule="nonzero"/></g></g><g clip-path="url(#a6c7bb2bd0)"><g clip-path="url(#e945e7157f)"><path fill="#a60404" d="M 1001.089844 261.863281 L 969.140625 261.863281 L 969.140625 233.945312 L 1001.089844 233.945312 Z M 1001.089844 261.863281 " fill-opacity="1" fill-rule="nonzero"/></g></g><g clip-path="url(#c930f2ec39)"><g clip-path="url(#457b8f350c)"><path fill="#a60404" d="M 981.964844 267.417969 L 950.015625 267.417969 L 950.015625 239.5 L 981.964844 239.5 Z M 981.964844 267.417969 " fill-opacity="1" fill-rule="nonzero"/></g></g><g clip-path="url(#59a104b52c)"><g clip-path="url(#7b056901d7)"><path fill="#a60404" d="M 962.839844 261.863281 L 930.890625 261.863281 L 930.890625 233.945312 L 962.839844 233.945312 Z M 962.839844 261.863281 " fill-opacity="1" fill-rule="nonzero"/></g></g><g clip-path="url(#f71c22cec6)"><g clip-path="url(#a624d44468)"><path fill="#a60404" d="M 943.714844 267.417969 L 911.765625 267.417969 L 911.765625 239.5 L 943.714844 239.5 Z M 943.714844 267.417969 " fill-opacity="1" fill-rule="nonzero"/></g></g><g clip-path="url(#1065c2374a)"><g clip-path="url(#5b571bc217)"><path fill="#cc5200" d="M 924.589844 261.863281 L 892.640625 261.863281 L 892.640625 233.945312 L 924.589844 233.945312 Z M 924.589844 261.863281 " fill-opacity="1" fill-rule="nonzero"/></g></g><g clip-path="url(#674163f41f)"><g clip-path="url(#f802249014)"><path fill="#a60404" d="M 905.464844 267.417969 L 873.515625 267.417969 L 873.515625 239.5 L 905.464844 239.5 Z M 905.464844 267.417969 " fill-opacity="1" fill-rule="nonzero"/></g></g><g clip-path="url(#b5631f5b88)"><g clip-path="url(#7011277ab0)"><path fill="#a60404" d="M 886.695312 261.863281 L 854.746094 261.863281 L 854.746094 233.945312 L 886.695312 233.945312 Z M 886.695312 261.863281 " fill-opacity="1" fill-rule="nonzero"/></g></g><g clip-path="url(#58874bd801)"><g clip-path="url(#2b130877d8)"><path fill="#a60404" d="M 1038.984375 306.441406 L 1007.035156 306.441406 L 1007.035156 278.523438 L 1038.984375 278.523438 Z M 1038.984375 306.441406 " fill-opacity="1" fill-rule="nonzero"/></g></g><g clip-path="url(#2b1a127f46)"><g clip-path="url(#73853867bd)"><path fill="#cc5200" d="M 1019.859375 300.886719 L 987.910156 300.886719 L 987.910156 272.96875 L 1019.859375 272.96875 Z M 1019.859375 300.886719 " fill-opacity="1" fill-rule="nonzero"/></g></g><g clip-path="url(#7c0a4b860f)"><g clip-path="url(#e5bff59902)"><path fill="#a60404" d="M 1000.734375 306.441406 L 968.785156 306.441406 L 968.785156 278.523438 L 1000.734375 278.523438 Z M 1000.734375 306.441406 " fill-opacity="1" fill-rule="nonzero"/></g></g><g clip-path="url(#da1e852742)"><g clip-path="url(#51faffbae9)"><path fill="#a60404" d="M 981.609375 300.886719 L 949.660156 300.886719 L 949.660156 272.96875 L 981.609375 272.96875 Z M 981.609375 300.886719 " fill-opacity="1" fill-rule="nonzero"/></g></g><g clip-path="url(#cb4ad1d133)"><g clip-path="url(#5d1a4eccc8)"><path fill="#a60404" d="M 962.484375 306.441406 L 930.535156 306.441406 L 930.535156 278.523438 L 962.484375 278.523438 Z M 962.484375 306.441406 " fill-opacity="1" fill-rule="nonzero"/></g></g><g clip-path="url(#c0579f4a37)"><g clip-path="url(#7ce5bd4ff6)"><path fill="#a60404" d="M 943.359375 300.886719 L 911.410156 300.886719 L 911.410156 272.96875 L 943.359375 272.96875 Z M 943.359375 300.886719 " fill-opacity="1" fill-rule="nonzero"/></g></g><g clip-path="url(#05c5612283)"><g clip-path="url(#1d8008e104)"><path fill="#a60404" d="M 924.234375 306.441406 L 892.285156 306.441406 L 892.285156 278.523438 L 924.234375 278.523438 Z M 924.234375 306.441406 " fill-opacity="1" fill-rule="nonzero"/></g></g><g clip-path="url(#bb9d55c9ad)"><g clip-path="url(#0259015ecd)"><path fill="#a60404" d="M 905.464844 300.886719 L 873.515625 300.886719 L 873.515625 272.96875 L 905.464844 272.96875 Z M 905.464844 300.886719 " fill-opacity="1" fill-rule="nonzero"/></g></g><g clip-path="url(#3ca7c55cb4)"><g clip-path="url(#0086da4fa1)"><path fill="#a60404" d="M 1039.164062 339.597656 L 1007.214844 339.597656 L 1007.214844 311.683594 L 1039.164062 311.683594 Z M 1039.164062 339.597656 " fill-opacity="1" fill-rule="nonzero"/></g></g><g clip-path="url(#5048ebf76f)"><g clip-path="url(#a01cc50923)"><path fill="#a60404" d="M 1020.039062 345.152344 L 988.089844 345.152344 L 988.089844 317.234375 L 1020.039062 317.234375 Z M 1020.039062 345.152344 " fill-opacity="1" fill-rule="nonzero"/></g></g><g clip-path="url(#aef5f15f4f)"><g clip-path="url(#7f3ac5cb2f)"><path fill="#a60404" d="M 1000.914062 339.597656 L 968.964844 339.597656 L 968.964844 311.683594 L 1000.914062 311.683594 Z M 1000.914062 339.597656 " fill-opacity="1" fill-rule="nonzero"/></g></g><g clip-path="url(#b92d6de5ac)"><g clip-path="url(#8256b93738)"><path fill="#a60404" d="M 981.789062 345.152344 L 949.839844 345.152344 L 949.839844 317.234375 L 981.789062 317.234375 Z M 981.789062 345.152344 " fill-opacity="1" fill-rule="nonzero"/></g></g><g clip-path="url(#155fffb4fe)"><g clip-path="url(#f88453ada8)"><path fill="#cc5200" d="M 962.664062 339.597656 L 930.714844 339.597656 L 930.714844 311.683594 L 962.664062 311.683594 Z M 962.664062 339.597656 " fill-opacity="1" fill-rule="nonzero"/></g></g><g clip-path="url(#bb413f45ef)"><g clip-path="url(#26412a10b3)"><path fill="#a60404" d="M 943.539062 345.152344 L 911.585938 345.152344 L 911.585938 317.234375 L 943.539062 317.234375 Z M 943.539062 345.152344 " fill-opacity="1" fill-rule="nonzero"/></g></g><g clip-path="url(#5e2657a89b)"><g clip-path="url(#e053bb7da6)"><path fill="#a60404" d="M 924.769531 339.597656 L 892.820312 339.597656 L 892.820312 311.683594 L 924.769531 311.683594 Z M 924.769531 339.597656 " fill-opacity="1" fill-rule="nonzero"/></g></g><g clip-path="url(#78678ccff4)"><g clip-path="url(#cead2c2022)"><path fill="#a60404" d="M 1038.378906 150.96875 L 1006.429688 150.96875 L 1006.429688 123.054688 L 1038.378906 123.054688 Z M 1038.378906 150.96875 " fill-opacity="1" fill-rule="nonzero"/></g></g><g clip-path="url(#1a06c1509e)"><g clip-path="url(#05ae49d97c)"><path fill="#a60404" d="M 1019.253906 145.414062 L 987.304688 145.414062 L 987.304688 117.5 L 1019.253906 117.5 Z M 1019.253906 145.414062 " fill-opacity="1" fill-rule="nonzero"/></g></g><g clip-path="url(#e14926f9b1)"><g clip-path="url(#c7d2cda474)"><path fill="#a60404" d="M 1000.128906 150.96875 L 968.179688 150.96875 L 968.179688 123.054688 L 1000.128906 123.054688 Z M 1000.128906 150.96875 " fill-opacity="1" fill-rule="nonzero"/></g></g><g clip-path="url(#e26a1f0d06)"><g clip-path="url(#a99d196328)"><path fill="#a60404" d="M 981.003906 145.414062 L 949.054688 145.414062 L 949.054688 117.5 L 981.003906 117.5 Z M 981.003906 145.414062 " fill-opacity="1" fill-rule="nonzero"/></g></g><g clip-path="url(#cf79459aae)"><g clip-path="url(#70d3476662)"><path fill="#a60404" d="M 961.878906 150.96875 L 929.929688 150.96875 L 929.929688 123.054688 L 961.878906 123.054688 Z M 961.878906 150.96875 " fill-opacity="1" fill-rule="nonzero"/></g></g><g clip-path="url(#090eb22a41)"><g clip-path="url(#e28529873d)"><path fill="#cc5200" d="M 942.753906 145.414062 L 910.804688 145.414062 L 910.804688 117.5 L 942.753906 117.5 Z M 942.753906 145.414062 " fill-opacity="1" fill-rule="nonzero"/></g></g><g clip-path="url(#a2049d999d)"><g clip-path="url(#91cac6a730)"><path fill="#a60404" d="M 923.628906 150.96875 L 891.679688 150.96875 L 891.679688 123.054688 L 923.628906 123.054688 Z M 923.628906 150.96875 " fill-opacity="1" fill-rule="nonzero"/></g></g><g clip-path="url(#2c65387915)"><g clip-path="url(#61a140da43)"><path fill="#a60404" d="M 904.859375 145.414062 L 872.910156 145.414062 L 872.910156 117.5 L 904.859375 117.5 Z M 904.859375 145.414062 " fill-opacity="1" fill-rule="nonzero"/></g></g><g clip-path="url(#4d8f9ec7ef)"><g clip-path="url(#d416225e3e)"><path fill="#cc5200" d="M 1038.023438 184.4375 L 1006.074219 184.4375 L 1006.074219 156.523438 L 1038.023438 156.523438 Z M 1038.023438 184.4375 " fill-opacity="1" fill-rule="nonzero"/></g></g><g clip-path="url(#39b8b57dfe)"><g clip-path="url(#a722bce2ee)"><path fill="#2e2459" d="M 1018.898438 189.992188 L 986.949219 189.992188 L 986.949219 162.078125 L 1018.898438 162.078125 Z M 1018.898438 189.992188 " fill-opacity="1" fill-rule="nonzero"/></g></g><g clip-path="url(#6a5c62a785)"><g clip-path="url(#f2e9b204f0)"><path fill="#a60404" d="M 999.773438 184.4375 L 967.824219 184.4375 L 967.824219 156.523438 L 999.773438 156.523438 Z M 999.773438 184.4375 " fill-opacity="1" fill-rule="nonzero"/></g></g><g clip-path="url(#ae8fd12a7c)"><g clip-path="url(#89023efce1)"><path fill="#a60404" d="M 980.648438 189.992188 L 948.699219 189.992188 L 948.699219 162.078125 L 980.648438 162.078125 Z M 980.648438 189.992188 " fill-opacity="1" fill-rule="nonzero"/></g></g><g clip-path="url(#7ff2a5d53d)"><g clip-path="url(#96be1595a8)"><path fill="#a60404" d="M 961.523438 184.4375 L 929.574219 184.4375 L 929.574219 156.523438 L 961.523438 156.523438 Z M 961.523438 184.4375 " fill-opacity="1" fill-rule="nonzero"/></g></g><g clip-path="url(#2ecb58e102)"><g clip-path="url(#89c27fb867)"><path fill="#a60404" d="M 942.398438 189.992188 L 910.449219 189.992188 L 910.449219 162.078125 L 942.398438 162.078125 Z M 942.398438 189.992188 " fill-opacity="1" fill-rule="nonzero"/></g></g><g clip-path="url(#37db515278)"><g clip-path="url(#2e73f3200a)"><path fill="#a60404" d="M 923.628906 184.4375 L 891.679688 184.4375 L 891.679688 156.523438 L 923.628906 156.523438 Z M 923.628906 184.4375 " fill-opacity="1" fill-rule="nonzero"/></g></g><g clip-path="url(#45f585c477)"><g clip-path="url(#2c553eea15)"><path fill="#a60404" d="M 1019.078125 223.152344 L 987.128906 223.152344 L 987.128906 195.234375 L 1019.078125 195.234375 Z M 1019.078125 223.152344 " fill-opacity="1" fill-rule="nonzero"/></g></g><g clip-path="url(#e43538af2e)"><g clip-path="url(#d420c4aac1)"><path fill="#a60404" d="M 999.953125 228.703125 L 968 228.703125 L 968 200.789062 L 999.953125 200.789062 Z M 999.953125 228.703125 " fill-opacity="1" fill-rule="nonzero"/></g></g><g clip-path="url(#342d16af4e)"><g clip-path="url(#b9989286bf)"><path fill="#cc5200" d="M 980.828125 223.152344 L 948.875 223.152344 L 948.875 195.234375 L 980.828125 195.234375 Z M 980.828125 223.152344 " fill-opacity="1" fill-rule="nonzero"/></g></g><g clip-path="url(#fb86debe26)"><g clip-path="url(#121d43ce2b)"><path fill="#a60404" d="M 961.703125 228.703125 L 929.75 228.703125 L 929.75 200.789062 L 961.703125 200.789062 Z M 961.703125 228.703125 " fill-opacity="1" fill-rule="nonzero"/></g></g><g clip-path="url(#d7dedb0da5)"><g clip-path="url(#8fc069919b)"><path fill="#a60404" d="M 942.933594 223.152344 L 910.980469 223.152344 L 910.980469 195.234375 L 942.933594 195.234375 Z M 942.933594 223.152344 " fill-opacity="1" fill-rule="nonzero"/></g></g><g clip-path="url(#089066c76f)"><g clip-path="url(#c4aad9e2e8)"><path fill="#a60404" d="M 1038.808594 28.96875 L 1006.859375 28.96875 L 1006.859375 1.054688 L 1038.808594 1.054688 Z M 1038.808594 28.96875 " fill-opacity="1" fill-rule="nonzero"/></g></g><g clip-path="url(#8c278326ef)"><g clip-path="url(#0d8dcfbf8e)"><path fill="#a60404" d="M 1019.683594 34.523438 L 987.734375 34.523438 L 987.734375 6.609375 L 1019.683594 6.609375 Z M 1019.683594 34.523438 " fill-opacity="1" fill-rule="nonzero"/></g></g><g clip-path="url(#01bb769cae)"><g clip-path="url(#b26420bade)"><path fill="#2e2459" d="M 1000.558594 28.96875 L 968.605469 28.96875 L 968.605469 1.054688 L 1000.558594 1.054688 Z M 1000.558594 28.96875 " fill-opacity="1" fill-rule="nonzero"/></g></g><g clip-path="url(#57c96b3d68)"><g clip-path="url(#3977a42fdd)"><path fill="#a60404" d="M 981.433594 34.523438 L 949.480469 34.523438 L 949.480469 6.609375 L 981.433594 6.609375 Z M 981.433594 34.523438 " fill-opacity="1" fill-rule="nonzero"/></g></g><g clip-path="url(#e13f333244)"><g clip-path="url(#ceec43dc79)"><path fill="#a60404" d="M 962.304688 28.96875 L 930.355469 28.96875 L 930.355469 1.054688 L 962.304688 1.054688 Z M 962.304688 28.96875 " fill-opacity="1" fill-rule="nonzero"/></g></g><g clip-path="url(#8131614111)"><g clip-path="url(#d92300fc33)"><path fill="#a60404" d="M 943.179688 34.523438 L 911.230469 34.523438 L 911.230469 6.609375 L 943.179688 6.609375 Z M 943.179688 34.523438 " fill-opacity="1" fill-rule="nonzero"/></g></g><g clip-path="url(#3638e5e553)"><g clip-path="url(#19980cfa37)"><path fill="#cc5200" d="M 924.054688 28.96875 L 892.105469 28.96875 L 892.105469 1.054688 L 924.054688 1.054688 Z M 924.054688 28.96875 " fill-opacity="1" fill-rule="nonzero"/></g></g><g clip-path="url(#8e78719805)"><g clip-path="url(#cfe7b38c77)"><path fill="#a60404" d="M 904.929688 34.523438 L 872.980469 34.523438 L 872.980469 6.609375 L 904.929688 6.609375 Z M 904.929688 34.523438 " fill-opacity="1" fill-rule="nonzero"/></g></g><g clip-path="url(#c1c1f1df2d)"><g clip-path="url(#7da9c046d9)"><path fill="#a60404" d="M 886.160156 28.96875 L 854.210938 28.96875 L 854.210938 1.054688 L 886.160156 1.054688 Z M 886.160156 28.96875 " fill-opacity="1" fill-rule="nonzero"/></g></g><g clip-path="url(#b71d5f2c1c)"><g clip-path="url(#3b31b20785)"><path fill="#a60404" d="M 1038.453125 73.546875 L 1006.5 73.546875 L 1006.5 45.632812 L 1038.453125 45.632812 Z M 1038.453125 73.546875 " fill-opacity="1" fill-rule="nonzero"/></g></g><g clip-path="url(#056fb7005b)"><g clip-path="url(#f72d6ba1b3)"><path fill="#cc5200" d="M 1019.328125 67.992188 L 987.375 67.992188 L 987.375 40.078125 L 1019.328125 40.078125 Z M 1019.328125 67.992188 " fill-opacity="1" fill-rule="nonzero"/></g></g><g clip-path="url(#d0312716a5)"><g clip-path="url(#686bd9853d)"><path fill="#a60404" d="M 1000.199219 73.546875 L 968.25 73.546875 L 968.25 45.632812 L 1000.199219 45.632812 Z M 1000.199219 73.546875 " fill-opacity="1" fill-rule="nonzero"/></g></g><g clip-path="url(#22907de1fc)"><g clip-path="url(#fc80408428)"><path fill="#a60404" d="M 981.074219 67.992188 L 949.125 67.992188 L 949.125 40.078125 L 981.074219 40.078125 Z M 981.074219 67.992188 " fill-opacity="1" fill-rule="nonzero"/></g></g><g clip-path="url(#eb76042f06)"><g clip-path="url(#806ee22e14)"><path fill="#a60404" d="M 961.949219 73.546875 L 930 73.546875 L 930 45.632812 L 961.949219 45.632812 Z M 961.949219 73.546875 " fill-opacity="1" fill-rule="nonzero"/></g></g><g clip-path="url(#acaad8b951)"><g clip-path="url(#d6f02093bd)"><path fill="#a60404" d="M 942.824219 67.992188 L 910.875 67.992188 L 910.875 40.078125 L 942.824219 40.078125 Z M 942.824219 67.992188 " fill-opacity="1" fill-rule="nonzero"/></g></g><g clip-path="url(#10f978c3a9)"><g clip-path="url(#8bdc8f8777)"><path fill="#a60404" d="M 923.699219 73.546875 L 891.75 73.546875 L 891.75 45.632812 L 923.699219 45.632812 Z M 923.699219 73.546875 " fill-opacity="1" fill-rule="nonzero"/></g></g><g clip-path="url(#8ccf4799b4)"><g clip-path="url(#18f09a398e)"><path fill="#a60404" d="M 904.929688 67.992188 L 872.980469 67.992188 L 872.980469 40.078125 L 904.929688 40.078125 Z M 904.929688 67.992188 " fill-opacity="1" fill-rule="nonzero"/></g></g><g clip-path="url(#1980c3615d)"><g clip-path="url(#8fc806fb79)"><path fill="#a60404" d="M 1038.628906 106.703125 L 1006.679688 106.703125 L 1006.679688 78.789062 L 1038.628906 78.789062 Z M 1038.628906 106.703125 " fill-opacity="1" fill-rule="nonzero"/></g></g><g clip-path="url(#062c264c77)"><g clip-path="url(#dd07ec3969)"><path fill="#171219" d="M 1019.503906 112.257812 L 987.554688 112.257812 L 987.554688 84.34375 L 1019.503906 84.34375 Z M 1019.503906 112.257812 " fill-opacity="1" fill-rule="nonzero"/></g></g><g clip-path="url(#03680e44ef)"><g clip-path="url(#07ed43d142)"><path fill="#a60404" d="M 1000.378906 106.703125 L 968.429688 106.703125 L 968.429688 78.789062 L 1000.378906 78.789062 Z M 1000.378906 106.703125 " fill-opacity="1" fill-rule="nonzero"/></g></g><g clip-path="url(#16d2feb2b7)"><g clip-path="url(#6f179ff019)"><path fill="#a60404" d="M 981.253906 112.257812 L 949.304688 112.257812 L 949.304688 84.34375 L 981.253906 84.34375 Z M 981.253906 112.257812 " fill-opacity="1" fill-rule="nonzero"/></g></g><g clip-path="url(#d5a4dc93b2)"><g clip-path="url(#c3555ec684)"><path fill="#cc5200" d="M 962.128906 106.703125 L 930.179688 106.703125 L 930.179688 78.789062 L 962.128906 78.789062 Z M 962.128906 106.703125 " fill-opacity="1" fill-rule="nonzero"/></g></g><g clip-path="url(#8890b00185)"><g clip-path="url(#5dd59cf61e)"><path fill="#a60404" d="M 943.003906 112.257812 L 911.054688 112.257812 L 911.054688 84.34375 L 943.003906 84.34375 Z M 943.003906 112.257812 " fill-opacity="1" fill-rule="nonzero"/></g></g><g clip-path="url(#28ecfac426)"><g clip-path="url(#0f019be85a)"><path fill="#a60404" d="M 924.234375 106.703125 L 892.285156 106.703125 L 892.285156 78.789062 L 924.234375 78.789062 Z M 924.234375 106.703125 " fill-opacity="1" fill-rule="nonzero"/></g></g><g clip-path="url(#924807cc63)"><g clip-path="url(#0934a7a782)"><path fill="#a60404" d="M 1038.203125 228.703125 L 1006.253906 228.703125 L 1006.253906 200.789062 L 1038.203125 200.789062 Z M 1038.203125 228.703125 " fill-opacity="1" fill-rule="nonzero"/></g></g><g clip-path="url(#d894451aa9)"><g clip-path="url(#2b7b846928)"><path fill="#a60404" d="M 884.808594 150.65625 L 852.859375 150.65625 L 852.859375 122.742188 L 884.808594 122.742188 Z M 884.808594 150.65625 " fill-opacity="1" fill-rule="nonzero"/></g></g><g clip-path="url(#ace51bf9a4)"><g clip-path="url(#30121641b2)"><path fill="#a60404" d="M 866.039062 145.105469 L 834.089844 145.105469 L 834.089844 117.1875 L 866.039062 117.1875 Z M 866.039062 145.105469 " fill-opacity="1" fill-rule="nonzero"/></g></g><g clip-path="url(#069e34eadc)"><g clip-path="url(#6e001fd0f2)"><path fill="#171219" d="M 903.578125 189.679688 L 871.625 189.679688 L 871.625 161.765625 L 903.578125 161.765625 Z M 903.578125 189.679688 " fill-opacity="1" fill-rule="nonzero"/></g></g><g clip-path="url(#180a13e8e7)"><g clip-path="url(#1792efda09)"><path fill="#a60404" d="M 884.808594 184.128906 L 852.859375 184.128906 L 852.859375 156.210938 L 884.808594 156.210938 Z M 884.808594 184.128906 " fill-opacity="1" fill-rule="nonzero"/></g></g><g clip-path="url(#5e3bdabd24)"><g clip-path="url(#e6445bf7cf)"><path fill="#a60404" d="M 922.878906 228.394531 L 890.929688 228.394531 L 890.929688 200.476562 L 922.878906 200.476562 Z M 922.878906 228.394531 " fill-opacity="1" fill-rule="nonzero"/></g></g><g clip-path="url(#5b20c478dc)"><g clip-path="url(#4360f04352)"><path fill="#a60404" d="M 904.109375 222.839844 L 872.160156 222.839844 L 872.160156 194.921875 L 904.109375 194.921875 Z M 904.109375 222.839844 " fill-opacity="1" fill-rule="nonzero"/></g></g><g clip-path="url(#da3bb49bdf)"><g clip-path="url(#93f07d4f63)"><path fill="#2e2459" d="M 846.914062 150.65625 L 814.964844 150.65625 L 814.964844 122.742188 L 846.914062 122.742188 Z M 846.914062 150.65625 " fill-opacity="1" fill-rule="nonzero"/></g></g><g clip-path="url(#06f5a248c3)"><g clip-path="url(#8e906161c7)"><path fill="#a60404" d="M 828.144531 145.105469 L 796.195312 145.105469 L 796.195312 117.1875 L 828.144531 117.1875 Z M 828.144531 145.105469 " fill-opacity="1" fill-rule="nonzero"/></g></g><g clip-path="url(#12de3495e7)"><g clip-path="url(#4720593f06)"><path fill="#a60404" d="M 865.683594 189.679688 L 833.730469 189.679688 L 833.730469 161.765625 L 865.683594 161.765625 Z M 865.683594 189.679688 " fill-opacity="1" fill-rule="nonzero"/></g></g><g clip-path="url(#0a1ca413de)"><g clip-path="url(#f2fe98fe29)"><path fill="#a60404" d="M 846.914062 184.128906 L 814.964844 184.128906 L 814.964844 156.210938 L 846.914062 156.210938 Z M 846.914062 184.128906 " fill-opacity="1" fill-rule="nonzero"/></g></g><g clip-path="url(#f9b5737ec6)"><g clip-path="url(#d8997f10ef)"><path fill="#a60404" d="M 884.984375 228.394531 L 853.035156 228.394531 L 853.035156 200.476562 L 884.984375 200.476562 Z M 884.984375 228.394531 " fill-opacity="1" fill-rule="nonzero"/></g></g><g clip-path="url(#913f4f469a)"><g clip-path="url(#483aee1164)"><path fill="#a60404" d="M 866.214844 222.839844 L 834.265625 222.839844 L 834.265625 194.921875 L 866.214844 194.921875 Z M 866.214844 222.839844 " fill-opacity="1" fill-rule="nonzero"/></g></g><g clip-path="url(#d2229b40ff)"><g clip-path="url(#9704ae2cd6)"><path fill="#a60404" d="M 866.109375 33.460938 L 834.160156 33.460938 L 834.160156 5.546875 L 866.109375 5.546875 Z M 866.109375 33.460938 " fill-opacity="1" fill-rule="nonzero"/></g></g><g clip-path="url(#3534e9fc20)"><g clip-path="url(#d905eb4554)"><path fill="#a60404" d="M 846.984375 27.910156 L 815.035156 27.910156 L 815.035156 -0.0078125 L 846.984375 -0.0078125 Z M 846.984375 27.910156 " fill-opacity="1" fill-rule="nonzero"/></g></g><g clip-path="url(#be884f1d3d)"><g clip-path="url(#716dff6fbe)"><path fill="#a60404" d="M 827.859375 33.460938 L 795.910156 33.460938 L 795.910156 5.546875 L 827.859375 5.546875 Z M 827.859375 33.460938 " fill-opacity="1" fill-rule="nonzero"/></g></g><g clip-path="url(#0ce473c47b)"><g clip-path="url(#a3b0c74b08)"><path fill="#cc5200" d="M 808.734375 27.910156 L 776.785156 27.910156 L 776.785156 -0.0078125 L 808.734375 -0.0078125 Z M 808.734375 27.910156 " fill-opacity="1" fill-rule="nonzero"/></g></g><g clip-path="url(#8340a5fdb6)"><g clip-path="url(#b464c8f7c3)"><path fill="#a60404" d="M 789.609375 33.460938 L 757.65625 33.460938 L 757.65625 5.546875 L 789.609375 5.546875 Z M 789.609375 33.460938 " fill-opacity="1" fill-rule="nonzero"/></g></g><g clip-path="url(#bce573602c)"><g clip-path="url(#6365bfe2d0)"><path fill="#a60404" d="M 770.839844 27.910156 L 738.890625 27.910156 L 738.890625 -0.0078125 L 770.839844 -0.0078125 Z M 770.839844 27.910156 " fill-opacity="1" fill-rule="nonzero"/></g></g><g clip-path="url(#1684819762)"><g clip-path="url(#709d98c729)"><path fill="#a60404" d="M 884.878906 72.484375 L 852.929688 72.484375 L 852.929688 44.570312 L 884.878906 44.570312 Z M 884.878906 72.484375 " fill-opacity="1" fill-rule="nonzero"/></g></g><g clip-path="url(#7f37f33e5f)"><g clip-path="url(#fbb910563f)"><path fill="#2e2459" d="M 865.753906 66.929688 L 833.804688 66.929688 L 833.804688 39.015625 L 865.753906 39.015625 Z M 865.753906 66.929688 " fill-opacity="1" fill-rule="nonzero"/></g></g><g clip-path="url(#27ed225ace)"><g clip-path="url(#3ee93fef2e)"><path fill="#a60404" d="M 846.628906 72.484375 L 814.675781 72.484375 L 814.675781 44.570312 L 846.628906 44.570312 Z M 846.628906 72.484375 " fill-opacity="1" fill-rule="nonzero"/></g></g><g clip-path="url(#d27d371fdb)"><g clip-path="url(#8d23f3876a)"><path fill="#a60404" d="M 827.503906 66.929688 L 795.550781 66.929688 L 795.550781 39.015625 L 827.503906 39.015625 Z M 827.503906 66.929688 " fill-opacity="1" fill-rule="nonzero"/></g></g><g clip-path="url(#d7e63d0323)"><g clip-path="url(#128be4c81d)"><path fill="#a60404" d="M 808.375 72.484375 L 776.425781 72.484375 L 776.425781 44.570312 L 808.375 44.570312 Z M 808.375 72.484375 " fill-opacity="1" fill-rule="nonzero"/></g></g><g clip-path="url(#c6237fa0a7)"><g clip-path="url(#b760a6404f)"><path fill="#a60404" d="M 789.609375 66.929688 L 757.65625 66.929688 L 757.65625 39.015625 L 789.609375 39.015625 Z M 789.609375 66.929688 " fill-opacity="1" fill-rule="nonzero"/></g></g><g clip-path="url(#f5e096f974)"><g clip-path="url(#b07612793b)"><path fill="#a60404" d="M 904.183594 111.199219 L 872.230469 111.199219 L 872.230469 83.28125 L 904.183594 83.28125 Z M 904.183594 111.199219 " fill-opacity="1" fill-rule="nonzero"/></g></g><g clip-path="url(#a5c6b23ee4)"><g clip-path="url(#25531c8295)"><path fill="#a60404" d="M 885.054688 105.644531 L 853.105469 105.644531 L 853.105469 77.726562 L 885.054688 77.726562 Z M 885.054688 105.644531 " fill-opacity="1" fill-rule="nonzero"/></g></g><g clip-path="url(#91b0e9cc8f)"><g clip-path="url(#2e571d3d7e)"><path fill="#a60404" d="M 865.929688 111.199219 L 833.980469 111.199219 L 833.980469 83.28125 L 865.929688 83.28125 Z M 865.929688 111.199219 " fill-opacity="1" fill-rule="nonzero"/></g></g><g clip-path="url(#f00649d2ad)"><g clip-path="url(#de8983ed4e)"><path fill="#cc5200" d="M 846.804688 105.644531 L 814.855469 105.644531 L 814.855469 77.726562 L 846.804688 77.726562 Z M 846.804688 105.644531 " fill-opacity="1" fill-rule="nonzero"/></g></g><g clip-path="url(#93bea02d72)"><g clip-path="url(#b67bc58365)"><path fill="#a60404" d="M 827.679688 111.199219 L 795.730469 111.199219 L 795.730469 83.28125 L 827.679688 83.28125 Z M 827.679688 111.199219 " fill-opacity="1" fill-rule="nonzero"/></g></g><g clip-path="url(#810e8f8342)"><g clip-path="url(#c702768423)"><path fill="#a60404" d="M 808.910156 105.644531 L 776.960938 105.644531 L 776.960938 77.726562 L 808.910156 77.726562 Z M 808.910156 105.644531 " fill-opacity="1" fill-rule="nonzero"/></g></g></svg>