<svg xmlns="http://www.w3.org/2000/svg" xmlns:xlink="http://www.w3.org/1999/xlink" width="1366" zoomAndPan="magnify" viewBox="0 0 1024.5 354.749987" height="473" preserveAspectRatio="xMidYMid meet" version="1.0"><defs><clipPath id="319d6a3df0"><path d="M 1013.222656 238.796875 L 1023.890625 238.796875 L 1023.890625 266.734375 L 1013.222656 266.734375 Z M 1013.222656 238.796875 " clip-rule="nonzero"/></clipPath><clipPath id="298dddc5d5"><path d="M 1029.234375 266.734375 L 1013.269531 238.796875 L 1045.195312 238.796875 Z M 1029.234375 266.734375 " clip-rule="nonzero"/></clipPath><clipPath id="311c3584b8"><path d="M 994.082031 244.355469 L 1023.890625 244.355469 L 1023.890625 272.292969 L 994.082031 272.292969 Z M 994.082031 244.355469 " clip-rule="nonzero"/></clipPath><clipPath id="9aa194c7cd"><path d="M 1010.09375 244.355469 L 994.128906 272.292969 L 1026.058594 272.292969 Z M 1010.09375 244.355469 " clip-rule="nonzero"/></clipPath><clipPath id="32049a261c"><path d="M 974.941406 238.796875 L 1006.917969 238.796875 L 1006.917969 266.734375 L 974.941406 266.734375 Z M 974.941406 238.796875 " clip-rule="nonzero"/></clipPath><clipPath id="ee3dc5ac08"><path d="M 990.953125 266.734375 L 974.988281 238.796875 L 1006.917969 238.796875 Z M 990.953125 266.734375 " clip-rule="nonzero"/></clipPath><clipPath id="102088c170"><path d="M 955.800781 244.355469 L 987.777344 244.355469 L 987.777344 272.292969 L 955.800781 272.292969 Z M 955.800781 244.355469 " clip-rule="nonzero"/></clipPath><clipPath id="cd582b6916"><path d="M 971.8125 244.355469 L 955.847656 272.292969 L 987.777344 272.292969 Z M 971.8125 244.355469 " clip-rule="nonzero"/></clipPath><clipPath id="553f70b147"><path d="M 936.664062 238.796875 L 968.636719 238.796875 L 968.636719 266.734375 L 936.664062 266.734375 Z M 936.664062 238.796875 " clip-rule="nonzero"/></clipPath><clipPath id="0ec2f05115"><path d="M 952.671875 266.734375 L 936.710938 238.796875 L 968.636719 238.796875 Z M 952.671875 266.734375 " clip-rule="nonzero"/></clipPath><clipPath id="c12fc95bfe"><path d="M 917.523438 244.355469 L 949.496094 244.355469 L 949.496094 272.292969 L 917.523438 272.292969 Z M 917.523438 244.355469 " clip-rule="nonzero"/></clipPath><clipPath id="3cc6112ab5"><path d="M 933.535156 244.355469 L 917.570312 272.292969 L 949.496094 272.292969 Z M 933.535156 244.355469 " clip-rule="nonzero"/></clipPath><clipPath id="e9700dd67f"><path d="M 898.382812 238.796875 L 930.355469 238.796875 L 930.355469 266.734375 L 898.382812 266.734375 Z M 898.382812 238.796875 " clip-rule="nonzero"/></clipPath><clipPath id="5d2d66f6e9"><path d="M 914.394531 266.734375 L 898.429688 238.796875 L 930.355469 238.796875 Z M 914.394531 266.734375 " clip-rule="nonzero"/></clipPath><clipPath id="01873ef74c"><path d="M 879.242188 244.355469 L 911.21875 244.355469 L 911.21875 272.292969 L 879.242188 272.292969 Z M 879.242188 244.355469 " clip-rule="nonzero"/></clipPath><clipPath id="c7f4027204"><path d="M 895.253906 244.355469 L 879.289062 272.292969 L 911.21875 272.292969 Z M 895.253906 244.355469 " clip-rule="nonzero"/></clipPath><clipPath id="488ed48cec"><path d="M 860.460938 238.796875 L 892.433594 238.796875 L 892.433594 266.734375 L 860.460938 266.734375 Z M 860.460938 238.796875 " clip-rule="nonzero"/></clipPath><clipPath id="06d151f4e7"><path d="M 876.46875 266.734375 L 860.507812 238.796875 L 892.433594 238.796875 Z M 876.46875 266.734375 " clip-rule="nonzero"/></clipPath><clipPath id="9c4d19eabf"><path d="M 1012.867188 283.410156 L 1023.890625 283.410156 L 1023.890625 311.347656 L 1012.867188 311.347656 Z M 1012.867188 283.410156 " clip-rule="nonzero"/></clipPath><clipPath id="696985ee24"><path d="M 1028.875 283.410156 L 1012.914062 311.347656 L 1044.839844 311.347656 Z M 1028.875 283.410156 " clip-rule="nonzero"/></clipPath><clipPath id="ba95dfb910"><path d="M 993.726562 277.851562 L 1023.890625 277.851562 L 1023.890625 305.789062 L 993.726562 305.789062 Z M 993.726562 277.851562 " clip-rule="nonzero"/></clipPath><clipPath id="0dbfb93b08"><path d="M 1009.738281 305.789062 L 993.773438 277.851562 L 1025.699219 277.851562 Z M 1009.738281 305.789062 " clip-rule="nonzero"/></clipPath><clipPath id="069cd2a1fa"><path d="M 974.585938 283.410156 L 1006.558594 283.410156 L 1006.558594 311.347656 L 974.585938 311.347656 Z M 974.585938 283.410156 " clip-rule="nonzero"/></clipPath><clipPath id="242eebe0c3"><path d="M 990.597656 283.410156 L 974.632812 311.347656 L 1006.558594 311.347656 Z M 990.597656 283.410156 " clip-rule="nonzero"/></clipPath><clipPath id="e24b5668c2"><path d="M 955.445312 277.851562 L 987.421875 277.851562 L 987.421875 305.789062 L 955.445312 305.789062 Z M 955.445312 277.851562 " clip-rule="nonzero"/></clipPath><clipPath id="19e630e673"><path d="M 971.457031 305.789062 L 955.492188 277.851562 L 987.421875 277.851562 Z M 971.457031 305.789062 " clip-rule="nonzero"/></clipPath><clipPath id="08b7f58266"><path d="M 936.304688 283.410156 L 968.28125 283.410156 L 968.28125 311.347656 L 936.304688 311.347656 Z M 936.304688 283.410156 " clip-rule="nonzero"/></clipPath><clipPath id="033bca832e"><path d="M 952.316406 283.410156 L 936.351562 311.347656 L 968.28125 311.347656 Z M 952.316406 283.410156 " clip-rule="nonzero"/></clipPath><clipPath id="92c094d11d"><path d="M 917.167969 277.851562 L 949.140625 277.851562 L 949.140625 305.789062 L 917.167969 305.789062 Z M 917.167969 277.851562 " clip-rule="nonzero"/></clipPath><clipPath id="c8ca4dc875"><path d="M 933.175781 305.789062 L 917.214844 277.851562 L 949.140625 277.851562 Z M 933.175781 305.789062 " clip-rule="nonzero"/></clipPath><clipPath id="37f0caa6c7"><path d="M 898.027344 283.410156 L 930 283.410156 L 930 311.347656 L 898.027344 311.347656 Z M 898.027344 283.410156 " clip-rule="nonzero"/></clipPath><clipPath id="7a5236b2e6"><path d="M 914.035156 283.410156 L 898.074219 311.347656 L 930 311.347656 Z M 914.035156 283.410156 " clip-rule="nonzero"/></clipPath><clipPath id="5234a861f4"><path d="M 879.242188 277.851562 L 911.21875 277.851562 L 911.21875 305.789062 L 879.242188 305.789062 Z M 879.242188 277.851562 " clip-rule="nonzero"/></clipPath><clipPath id="997c055c40"><path d="M 895.253906 305.789062 L 879.289062 277.851562 L 911.21875 277.851562 Z M 895.253906 305.789062 " clip-rule="nonzero"/></clipPath><clipPath id="a6148456e7"><path d="M 1013.042969 316.59375 L 1023.890625 316.59375 L 1023.890625 344.53125 L 1013.042969 344.53125 Z M 1013.042969 316.59375 " clip-rule="nonzero"/></clipPath><clipPath id="5edd2d4726"><path d="M 1029.054688 344.53125 L 1013.089844 316.59375 L 1045.019531 316.59375 Z M 1029.054688 344.53125 " clip-rule="nonzero"/></clipPath><clipPath id="b203e07759"><path d="M 993.90625 322.152344 L 1023.890625 322.152344 L 1023.890625 350.089844 L 993.90625 350.089844 Z M 993.90625 322.152344 " clip-rule="nonzero"/></clipPath><clipPath id="583d94346a"><path d="M 1009.914062 322.152344 L 993.949219 350.089844 L 1025.878906 350.089844 Z M 1009.914062 322.152344 " clip-rule="nonzero"/></clipPath><clipPath id="f88f3cc7b3"><path d="M 974.765625 316.59375 L 1006.738281 316.59375 L 1006.738281 344.53125 L 974.765625 344.53125 Z M 974.765625 316.59375 " clip-rule="nonzero"/></clipPath><clipPath id="808f91521b"><path d="M 990.773438 344.53125 L 974.8125 316.59375 L 1006.738281 316.59375 Z M 990.773438 344.53125 " clip-rule="nonzero"/></clipPath><clipPath id="d860652e74"><path d="M 955.625 322.152344 L 987.597656 322.152344 L 987.597656 350.089844 L 955.625 350.089844 Z M 955.625 322.152344 " clip-rule="nonzero"/></clipPath><clipPath id="9045797d3f"><path d="M 971.636719 322.152344 L 955.671875 350.089844 L 987.597656 350.089844 Z M 971.636719 322.152344 " clip-rule="nonzero"/></clipPath><clipPath id="61dfaacd62"><path d="M 936.484375 316.59375 L 968.457031 316.59375 L 968.457031 344.53125 L 936.484375 344.53125 Z M 936.484375 316.59375 " clip-rule="nonzero"/></clipPath><clipPath id="f228f3fdae"><path d="M 952.496094 344.53125 L 936.53125 316.59375 L 968.457031 316.59375 Z M 952.496094 344.53125 " clip-rule="nonzero"/></clipPath><clipPath id="160122aef0"><path d="M 917.34375 322.152344 L 949.320312 322.152344 L 949.320312 350.089844 L 917.34375 350.089844 Z M 917.34375 322.152344 " clip-rule="nonzero"/></clipPath><clipPath id="5a8e22e68a"><path d="M 933.355469 322.152344 L 917.390625 350.089844 L 949.320312 350.089844 Z M 933.355469 322.152344 " clip-rule="nonzero"/></clipPath><clipPath id="ccc598ad97"><path d="M 898.5625 316.59375 L 930.535156 316.59375 L 930.535156 344.53125 L 898.5625 344.53125 Z M 898.5625 316.59375 " clip-rule="nonzero"/></clipPath><clipPath id="c73fdf26f9"><path d="M 914.570312 344.53125 L 898.609375 316.59375 L 930.535156 316.59375 Z M 914.570312 344.53125 " clip-rule="nonzero"/></clipPath><clipPath id="f34829b862"><path d="M 1012.261719 127.820312 L 1023.890625 127.820312 L 1023.890625 155.757812 L 1012.261719 155.757812 Z M 1012.261719 127.820312 " clip-rule="nonzero"/></clipPath><clipPath id="3c2d1febd1"><path d="M 1028.269531 127.820312 L 1012.308594 155.757812 L 1044.234375 155.757812 Z M 1028.269531 127.820312 " clip-rule="nonzero"/></clipPath><clipPath id="e95d3fb63a"><path d="M 993.121094 122.261719 L 1023.890625 122.261719 L 1023.890625 150.199219 L 993.121094 150.199219 Z M 993.121094 122.261719 " clip-rule="nonzero"/></clipPath><clipPath id="d73403fbe6"><path d="M 1009.128906 150.199219 L 993.167969 122.261719 L 1025.09375 122.261719 Z M 1009.128906 150.199219 " clip-rule="nonzero"/></clipPath><clipPath id="8ea3b12a36"><path d="M 974 127.820312 L 1005.953125 127.820312 L 1005.953125 155.757812 L 974 155.757812 Z M 974 127.820312 " clip-rule="nonzero"/></clipPath><clipPath id="4b143d5888"><path d="M 989.992188 127.820312 L 974.027344 155.757812 L 1005.953125 155.757812 Z M 989.992188 127.820312 " clip-rule="nonzero"/></clipPath><clipPath id="892c5702f0"><path d="M 954.839844 122.261719 L 986.816406 122.261719 L 986.816406 150.199219 L 954.839844 150.199219 Z M 954.839844 122.261719 " clip-rule="nonzero"/></clipPath><clipPath id="9ead6142da"><path d="M 970.851562 150.199219 L 954.886719 122.261719 L 986.816406 122.261719 Z M 970.851562 150.199219 " clip-rule="nonzero"/></clipPath><clipPath id="9a8f8c1338"><path d="M 935.699219 127.820312 L 967.675781 127.820312 L 967.675781 155.757812 L 935.699219 155.757812 Z M 935.699219 127.820312 " clip-rule="nonzero"/></clipPath><clipPath id="f1635172e9"><path d="M 951.710938 127.820312 L 935.746094 155.757812 L 967.675781 155.757812 Z M 951.710938 127.820312 " clip-rule="nonzero"/></clipPath><clipPath id="583a7e0c24"><path d="M 916.558594 122.261719 L 948.535156 122.261719 L 948.535156 150.199219 L 916.558594 150.199219 Z M 916.558594 122.261719 " clip-rule="nonzero"/></clipPath><clipPath id="5abef80258"><path d="M 932.570312 150.199219 L 916.605469 122.261719 L 948.535156 122.261719 Z M 932.570312 150.199219 " clip-rule="nonzero"/></clipPath><clipPath id="b81078f650"><path d="M 897.421875 127.820312 L 929.394531 127.820312 L 929.394531 155.757812 L 897.421875 155.757812 Z M 897.421875 127.820312 " clip-rule="nonzero"/></clipPath><clipPath id="71ff429d18"><path d="M 913.429688 127.820312 L 897.46875 155.757812 L 929.394531 155.757812 Z M 913.429688 127.820312 " clip-rule="nonzero"/></clipPath><clipPath id="fd4e72c96b"><path d="M 878.636719 122.261719 L 910.613281 122.261719 L 910.613281 150.199219 L 878.636719 150.199219 Z M 878.636719 122.261719 " clip-rule="nonzero"/></clipPath><clipPath id="8f3bf7f0b2"><path d="M 894.648438 150.199219 L 878.683594 122.261719 L 910.613281 122.261719 Z M 894.648438 150.199219 " clip-rule="nonzero"/></clipPath><clipPath id="f903e84f78"><path d="M 1011.902344 161.316406 L 1023.890625 161.316406 L 1023.890625 189.253906 L 1011.902344 189.253906 Z M 1011.902344 161.316406 " clip-rule="nonzero"/></clipPath><clipPath id="4020c9ce2a"><path d="M 1027.914062 189.253906 L 1011.949219 161.316406 L 1043.878906 161.316406 Z M 1027.914062 189.253906 " clip-rule="nonzero"/></clipPath><clipPath id="bad9305c1a"><path d="M 992.765625 166.875 L 1023.890625 166.875 L 1023.890625 194.8125 L 992.765625 194.8125 Z M 992.765625 166.875 " clip-rule="nonzero"/></clipPath><clipPath id="07b6b4500b"><path d="M 1008.773438 166.875 L 992.808594 194.8125 L 1024.738281 194.8125 Z M 1008.773438 166.875 " clip-rule="nonzero"/></clipPath><clipPath id="8e5da81c9d"><path d="M 973.625 161.316406 L 1005.597656 161.316406 L 1005.597656 189.253906 L 973.625 189.253906 Z M 973.625 161.316406 " clip-rule="nonzero"/></clipPath><clipPath id="abdc3ac9a4"><path d="M 989.632812 189.253906 L 973.671875 161.316406 L 1005.597656 161.316406 Z M 989.632812 189.253906 " clip-rule="nonzero"/></clipPath><clipPath id="a62353112d"><path d="M 954.484375 166.875 L 986.457031 166.875 L 986.457031 194.8125 L 954.484375 194.8125 Z M 954.484375 166.875 " clip-rule="nonzero"/></clipPath><clipPath id="8aab479840"><path d="M 970.496094 166.875 L 954.53125 194.8125 L 986.457031 194.8125 Z M 970.496094 166.875 " clip-rule="nonzero"/></clipPath><clipPath id="0e120233bd"><path d="M 935.34375 161.316406 L 967.316406 161.316406 L 967.316406 189.253906 L 935.34375 189.253906 Z M 935.34375 161.316406 " clip-rule="nonzero"/></clipPath><clipPath id="6de243e6e0"><path d="M 951.355469 189.253906 L 935.390625 161.316406 L 967.316406 161.316406 Z M 951.355469 189.253906 " clip-rule="nonzero"/></clipPath><clipPath id="49902ff18f"><path d="M 916.203125 166.875 L 948.179688 166.875 L 948.179688 194.8125 L 916.203125 194.8125 Z M 916.203125 166.875 " clip-rule="nonzero"/></clipPath><clipPath id="b597bbfe24"><path d="M 932.214844 166.875 L 916.25 194.8125 L 948.179688 194.8125 Z M 932.214844 166.875 " clip-rule="nonzero"/></clipPath><clipPath id="9a372255d6"><path d="M 897.421875 161.316406 L 929.394531 161.316406 L 929.394531 189.253906 L 897.421875 189.253906 Z M 897.421875 161.316406 " clip-rule="nonzero"/></clipPath><clipPath id="05f2d7efe1"><path d="M 913.429688 189.253906 L 897.46875 161.316406 L 929.394531 161.316406 Z M 913.429688 189.253906 " clip-rule="nonzero"/></clipPath><clipPath id="eb48b9a33c"><path d="M 992.941406 200.058594 L 1023.890625 200.058594 L 1023.890625 227.996094 L 992.941406 227.996094 Z M 992.941406 200.058594 " clip-rule="nonzero"/></clipPath><clipPath id="0224793d7f"><path d="M 1008.953125 227.996094 L 992.988281 200.058594 L 1024.917969 200.058594 Z M 1008.953125 227.996094 " clip-rule="nonzero"/></clipPath><clipPath id="d2a41efaf4"><path d="M 973.800781 205.617188 L 1005.777344 205.617188 L 1005.777344 233.550781 L 973.800781 233.550781 Z M 973.800781 205.617188 " clip-rule="nonzero"/></clipPath><clipPath id="225f337748"><path d="M 989.8125 205.617188 L 973.847656 233.550781 L 1005.777344 233.550781 Z M 989.8125 205.617188 " clip-rule="nonzero"/></clipPath><clipPath id="b6e1bcd4c2"><path d="M 954.664062 200.058594 L 986.636719 200.058594 L 986.636719 227.996094 L 954.664062 227.996094 Z M 954.664062 200.058594 " clip-rule="nonzero"/></clipPath><clipPath id="71480f0b70"><path d="M 970.671875 227.996094 L 954.707031 200.058594 L 986.636719 200.058594 Z M 970.671875 227.996094 " clip-rule="nonzero"/></clipPath><clipPath id="5df2d88fbf"><path d="M 935.523438 205.617188 L 967.496094 205.617188 L 967.496094 233.550781 L 935.523438 233.550781 Z M 935.523438 205.617188 " clip-rule="nonzero"/></clipPath><clipPath id="dabae3f482"><path d="M 951.53125 205.617188 L 935.570312 233.550781 L 967.496094 233.550781 Z M 951.53125 205.617188 " clip-rule="nonzero"/></clipPath><clipPath id="c08f0a1506"><path d="M 916.738281 200.058594 L 948.714844 200.058594 L 948.714844 227.996094 L 916.738281 227.996094 Z M 916.738281 200.058594 " clip-rule="nonzero"/></clipPath><clipPath id="1068577589"><path d="M 932.75 227.996094 L 916.785156 200.058594 L 948.714844 200.058594 Z M 932.75 227.996094 " clip-rule="nonzero"/></clipPath><clipPath id="a2c3998d61"><path d="M 1012.6875 5.726562 L 1023.890625 5.726562 L 1023.890625 33.664062 L 1012.6875 33.664062 Z M 1012.6875 5.726562 " clip-rule="nonzero"/></clipPath><clipPath id="2958614002"><path d="M 1028.699219 33.664062 L 1012.734375 5.726562 L 1044.660156 5.726562 Z M 1028.699219 33.664062 " clip-rule="nonzero"/></clipPath><clipPath id="17cfa71533"><path d="M 993.546875 11.285156 L 1023.890625 11.285156 L 1023.890625 39.222656 L 993.546875 39.222656 Z M 993.546875 11.285156 " clip-rule="nonzero"/></clipPath><clipPath id="2a9a119e97"><path d="M 1009.558594 11.285156 L 993.59375 39.222656 L 1025.523438 39.222656 Z M 1009.558594 11.285156 " clip-rule="nonzero"/></clipPath><clipPath id="cfca1da131"><path d="M 974.40625 5.726562 L 1006.382812 5.726562 L 1006.382812 33.664062 L 974.40625 33.664062 Z M 974.40625 5.726562 " clip-rule="nonzero"/></clipPath><clipPath id="2316e98d48"><path d="M 990.417969 33.664062 L 974.453125 5.726562 L 1006.382812 5.726562 Z M 990.417969 33.664062 " clip-rule="nonzero"/></clipPath><clipPath id="fbf30f291a"><path d="M 955.269531 11.285156 L 987.242188 11.285156 L 987.242188 39.222656 L 955.269531 39.222656 Z M 955.269531 11.285156 " clip-rule="nonzero"/></clipPath><clipPath id="760c8ab056"><path d="M 971.277344 11.285156 L 955.316406 39.222656 L 987.242188 39.222656 Z M 971.277344 11.285156 " clip-rule="nonzero"/></clipPath><clipPath id="28a06213e4"><path d="M 936.128906 5.726562 L 968.101562 5.726562 L 968.101562 33.664062 L 936.128906 33.664062 Z M 936.128906 5.726562 " clip-rule="nonzero"/></clipPath><clipPath id="4ea0e329f8"><path d="M 952.136719 33.664062 L 936.175781 5.726562 L 968.101562 5.726562 Z M 952.136719 33.664062 " clip-rule="nonzero"/></clipPath><clipPath id="778f1be37a"><path d="M 917 11.285156 L 948.960938 11.285156 L 948.960938 39.222656 L 917 39.222656 Z M 917 11.285156 " clip-rule="nonzero"/></clipPath><clipPath id="649dfdce3e"><path d="M 933 11.285156 L 917.035156 39.222656 L 948.960938 39.222656 Z M 933 11.285156 " clip-rule="nonzero"/></clipPath><clipPath id="4fdc0d8c8f"><path d="M 897.847656 5.726562 L 929.824219 5.726562 L 929.824219 33.664062 L 897.847656 33.664062 Z M 897.847656 5.726562 " clip-rule="nonzero"/></clipPath><clipPath id="d413b3b71a"><path d="M 913.859375 33.664062 L 897.894531 5.726562 L 929.824219 5.726562 Z M 913.859375 33.664062 " clip-rule="nonzero"/></clipPath><clipPath id="cbd3aef66f"><path d="M 878.707031 11.285156 L 910.683594 11.285156 L 910.683594 39.222656 L 878.707031 39.222656 Z M 878.707031 11.285156 " clip-rule="nonzero"/></clipPath><clipPath id="02142bba45"><path d="M 894.71875 11.285156 L 878.753906 39.222656 L 910.683594 39.222656 Z M 894.71875 11.285156 " clip-rule="nonzero"/></clipPath><clipPath id="f401080291"><path d="M 859.925781 5.726562 L 891.898438 5.726562 L 891.898438 33.664062 L 859.925781 33.664062 Z M 859.925781 5.726562 " clip-rule="nonzero"/></clipPath><clipPath id="9d69c4fd20"><path d="M 875.933594 33.664062 L 859.972656 5.726562 L 891.898438 5.726562 Z M 875.933594 33.664062 " clip-rule="nonzero"/></clipPath><clipPath id="5c58d43fae"><path d="M 1012.332031 50.339844 L 1023.890625 50.339844 L 1023.890625 78.277344 L 1012.332031 78.277344 Z M 1012.332031 50.339844 " clip-rule="nonzero"/></clipPath><clipPath id="5f4c18de26"><path d="M 1028.339844 50.339844 L 1012.378906 78.277344 L 1044.304688 78.277344 Z M 1028.339844 50.339844 " clip-rule="nonzero"/></clipPath><clipPath id="0cda2706bd"><path d="M 993.191406 44.78125 L 1023.890625 44.78125 L 1023.890625 72.71875 L 993.191406 72.71875 Z M 993.191406 44.78125 " clip-rule="nonzero"/></clipPath><clipPath id="c6b1ffbfa3"><path d="M 1009.203125 72.71875 L 993.238281 44.78125 L 1025.164062 44.78125 Z M 1009.203125 72.71875 " clip-rule="nonzero"/></clipPath><clipPath id="dc42da3dd4"><path d="M 974.050781 50.339844 L 1006.027344 50.339844 L 1006.027344 78.277344 L 974.050781 78.277344 Z M 974.050781 50.339844 " clip-rule="nonzero"/></clipPath><clipPath id="adf41d704d"><path d="M 990.0625 50.339844 L 974.097656 78.277344 L 1006.027344 78.277344 Z M 990.0625 50.339844 " clip-rule="nonzero"/></clipPath><clipPath id="7f8ea36500"><path d="M 954.910156 44.78125 L 986.886719 44.78125 L 986.886719 72.71875 L 954.910156 72.71875 Z M 954.910156 44.78125 " clip-rule="nonzero"/></clipPath><clipPath id="105b445585"><path d="M 970.921875 72.71875 L 954.957031 44.78125 L 986.886719 44.78125 Z M 970.921875 72.71875 " clip-rule="nonzero"/></clipPath><clipPath id="e56ee0abff"><path d="M 935.769531 50.339844 L 967.746094 50.339844 L 967.746094 78.277344 L 935.769531 78.277344 Z M 935.769531 50.339844 " clip-rule="nonzero"/></clipPath><clipPath id="3c05496bfc"><path d="M 951.78125 50.339844 L 935.816406 78.277344 L 967.746094 78.277344 Z M 951.78125 50.339844 " clip-rule="nonzero"/></clipPath><clipPath id="8d3fad8ca7"><path d="M 916.632812 44.78125 L 948.605469 44.78125 L 948.605469 72.71875 L 916.632812 72.71875 Z M 916.632812 44.78125 " clip-rule="nonzero"/></clipPath><clipPath id="01541dacbd"><path d="M 932.640625 72.71875 L 916.679688 44.78125 L 948.605469 44.78125 Z M 932.640625 72.71875 " clip-rule="nonzero"/></clipPath><clipPath id="ee0f08eb6a"><path d="M 897.492188 50.339844 L 929.464844 50.339844 L 929.464844 78.277344 L 897.492188 78.277344 Z M 897.492188 50.339844 " clip-rule="nonzero"/></clipPath><clipPath id="d5c4641eb3"><path d="M 913.503906 50.339844 L 897.539062 78.277344 L 929.464844 78.277344 Z M 913.503906 50.339844 " clip-rule="nonzero"/></clipPath><clipPath id="4e8bc64b34"><path d="M 878.707031 44.78125 L 910.683594 44.78125 L 910.683594 72.71875 L 878.707031 72.71875 Z M 878.707031 44.78125 " clip-rule="nonzero"/></clipPath><clipPath id="847b27ffc6"><path d="M 894.71875 72.71875 L 878.753906 44.78125 L 910.683594 44.78125 Z M 894.71875 72.71875 " clip-rule="nonzero"/></clipPath><clipPath id="654e1e3111"><path d="M 1012.507812 83.523438 L 1023.890625 83.523438 L 1023.890625 111.457031 L 1012.507812 111.457031 Z M 1012.507812 83.523438 " clip-rule="nonzero"/></clipPath><clipPath id="f92f236775"><path d="M 1028.519531 111.457031 L 1012.554688 83.523438 L 1044.484375 83.523438 Z M 1028.519531 111.457031 " clip-rule="nonzero"/></clipPath><clipPath id="9986eb3422"><path d="M 993.371094 89.082031 L 1023.890625 89.082031 L 1023.890625 117.015625 L 993.371094 117.015625 Z M 993.371094 89.082031 " clip-rule="nonzero"/></clipPath><clipPath id="18454597ef"><path d="M 1009.378906 89.082031 L 993.417969 117.015625 L 1025.34375 117.015625 Z M 1009.378906 89.082031 " clip-rule="nonzero"/></clipPath><clipPath id="be6bbda21d"><path d="M 974.230469 83.523438 L 1006.203125 83.523438 L 1006.203125 111.457031 L 974.230469 111.457031 Z M 974.230469 83.523438 " clip-rule="nonzero"/></clipPath><clipPath id="d67cf0ff5a"><path d="M 990.238281 111.457031 L 974.277344 83.523438 L 1006.203125 83.523438 Z M 990.238281 111.457031 " clip-rule="nonzero"/></clipPath><clipPath id="d2c950a736"><path d="M 955.089844 89.082031 L 987.0625 89.082031 L 987.0625 117.015625 L 955.089844 117.015625 Z M 955.089844 89.082031 " clip-rule="nonzero"/></clipPath><clipPath id="fca3669272"><path d="M 971.101562 89.082031 L 955.136719 117.015625 L 987.0625 117.015625 Z M 971.101562 89.082031 " clip-rule="nonzero"/></clipPath><clipPath id="89ab829279"><path d="M 935.949219 83.523438 L 967.925781 83.523438 L 967.925781 111.457031 L 935.949219 111.457031 Z M 935.949219 83.523438 " clip-rule="nonzero"/></clipPath><clipPath id="d09798458a"><path d="M 951.960938 111.457031 L 935.996094 83.523438 L 967.925781 83.523438 Z M 951.960938 111.457031 " clip-rule="nonzero"/></clipPath><clipPath id="08d1bd4b17"><path d="M 916.808594 89.082031 L 948.785156 89.082031 L 948.785156 117.015625 L 916.808594 117.015625 Z M 916.808594 89.082031 " clip-rule="nonzero"/></clipPath><clipPath id="675d8a1e4a"><path d="M 932.820312 89.082031 L 916.855469 117.015625 L 948.785156 117.015625 Z M 932.820312 89.082031 " clip-rule="nonzero"/></clipPath><clipPath id="fb75c318c2"><path d="M 898.027344 83.523438 L 930 83.523438 L 930 111.457031 L 898.027344 111.457031 Z M 898.027344 83.523438 " clip-rule="nonzero"/></clipPath><clipPath id="3684b5452a"><path d="M 914.035156 111.457031 L 898.074219 83.523438 L 930 83.523438 Z M 914.035156 111.457031 " clip-rule="nonzero"/></clipPath><clipPath id="36ed35d918"><path d="M 1012.082031 205.617188 L 1023.890625 205.617188 L 1023.890625 233.550781 L 1012.082031 233.550781 Z M 1012.082031 205.617188 " clip-rule="nonzero"/></clipPath><clipPath id="696da864d5"><path d="M 1028.09375 205.617188 L 1012.128906 233.550781 L 1044.054688 233.550781 Z M 1028.09375 205.617188 " clip-rule="nonzero"/></clipPath><clipPath id="85df5a6c97"><path d="M 858.570312 127.507812 L 890.542969 127.507812 L 890.542969 155.445312 L 858.570312 155.445312 Z M 858.570312 127.507812 " clip-rule="nonzero"/></clipPath><clipPath id="27fba05f97"><path d="M 874.582031 127.507812 L 858.617188 155.445312 L 890.542969 155.445312 Z M 874.582031 127.507812 " clip-rule="nonzero"/></clipPath><clipPath id="9e0d42cc7a"><path d="M 839.785156 121.953125 L 871.761719 121.953125 L 871.761719 149.886719 L 839.785156 149.886719 Z M 839.785156 121.953125 " clip-rule="nonzero"/></clipPath><clipPath id="f2a08644d2"><path d="M 855.796875 149.886719 L 839.832031 121.953125 L 871.761719 121.953125 Z M 855.796875 149.886719 " clip-rule="nonzero"/></clipPath><clipPath id="eda6394c95"><path d="M 877.351562 166.5625 L 909.328125 166.5625 L 909.328125 194.5 L 877.351562 194.5 Z M 877.351562 166.5625 " clip-rule="nonzero"/></clipPath><clipPath id="387209d780"><path d="M 893.363281 166.5625 L 877.398438 194.5 L 909.328125 194.5 Z M 893.363281 166.5625 " clip-rule="nonzero"/></clipPath><clipPath id="057fa8b850"><path d="M 858.570312 161.003906 L 890.542969 161.003906 L 890.542969 188.941406 L 858.570312 188.941406 Z M 858.570312 161.003906 " clip-rule="nonzero"/></clipPath><clipPath id="5ae5a2c41a"><path d="M 874.582031 188.941406 L 858.617188 161.003906 L 890.542969 161.003906 Z M 874.582031 188.941406 " clip-rule="nonzero"/></clipPath><clipPath id="7252e973e3"><path d="M 896.671875 205.304688 L 928.644531 205.304688 L 928.644531 233.242188 L 896.671875 233.242188 Z M 896.671875 205.304688 " clip-rule="nonzero"/></clipPath><clipPath id="f30aeec589"><path d="M 912.683594 205.304688 L 896.71875 233.242188 L 928.644531 233.242188 Z M 912.683594 205.304688 " clip-rule="nonzero"/></clipPath><clipPath id="19d824fa40"><path d="M 877.886719 199.746094 L 909.863281 199.746094 L 909.863281 227.683594 L 877.886719 227.683594 Z M 877.886719 199.746094 " clip-rule="nonzero"/></clipPath><clipPath id="db20803ba2"><path d="M 893.898438 227.683594 L 877.933594 199.746094 L 909.863281 199.746094 Z M 893.898438 227.683594 " clip-rule="nonzero"/></clipPath><clipPath id="ffae6741f9"><path d="M 820.644531 127.507812 L 852.621094 127.507812 L 852.621094 155.445312 L 820.644531 155.445312 Z M 820.644531 127.507812 " clip-rule="nonzero"/></clipPath><clipPath id="610614470d"><path d="M 836.65625 127.507812 L 820.691406 155.445312 L 852.621094 155.445312 Z M 836.65625 127.507812 " clip-rule="nonzero"/></clipPath><clipPath id="31f74c4d75"><path d="M 801.863281 121.953125 L 833.835938 121.953125 L 833.835938 149.886719 L 801.863281 149.886719 Z M 801.863281 121.953125 " clip-rule="nonzero"/></clipPath><clipPath id="598a0dbeaf"><path d="M 817.875 149.886719 L 801.910156 121.953125 L 833.835938 121.953125 Z M 817.875 149.886719 " clip-rule="nonzero"/></clipPath><clipPath id="9cd9440a6d"><path d="M 839.429688 166.5625 L 871.402344 166.5625 L 871.402344 194.5 L 839.429688 194.5 Z M 839.429688 166.5625 " clip-rule="nonzero"/></clipPath><clipPath id="1da06e93df"><path d="M 855.441406 166.5625 L 839.476562 194.5 L 871.402344 194.5 Z M 855.441406 166.5625 " clip-rule="nonzero"/></clipPath><clipPath id="4f491148c8"><path d="M 820.644531 161.003906 L 852.621094 161.003906 L 852.621094 188.941406 L 820.644531 188.941406 Z M 820.644531 161.003906 " clip-rule="nonzero"/></clipPath><clipPath id="f6ac0118e6"><path d="M 836.65625 188.941406 L 820.691406 161.003906 L 852.621094 161.003906 Z M 836.65625 188.941406 " clip-rule="nonzero"/></clipPath><clipPath id="da781e1cac"><path d="M 858.746094 205.304688 L 890.722656 205.304688 L 890.722656 233.242188 L 858.746094 233.242188 Z M 858.746094 205.304688 " clip-rule="nonzero"/></clipPath><clipPath id="675090956b"><path d="M 874.757812 205.304688 L 858.792969 233.242188 L 890.722656 233.242188 Z M 874.757812 205.304688 " clip-rule="nonzero"/></clipPath><clipPath id="ad8b901c45"><path d="M 840 199.746094 L 871.9375 199.746094 L 871.9375 227.683594 L 840 227.683594 Z M 840 199.746094 " clip-rule="nonzero"/></clipPath><clipPath id="edcd58270c"><path d="M 855.976562 227.683594 L 840.011719 199.746094 L 871.9375 199.746094 Z M 855.976562 227.683594 " clip-rule="nonzero"/></clipPath><clipPath id="950c9f5656"><path d="M 839.855469 10.226562 L 871.832031 10.226562 L 871.832031 38.160156 L 839.855469 38.160156 Z M 839.855469 10.226562 " clip-rule="nonzero"/></clipPath><clipPath id="52c77d9349"><path d="M 855.867188 10.226562 L 839.902344 38.160156 L 871.832031 38.160156 Z M 855.867188 10.226562 " clip-rule="nonzero"/></clipPath><clipPath id="d495393f96"><path d="M 820.71875 5.726562 L 852.691406 5.726562 L 852.691406 33.664062 L 820.71875 33.664062 Z M 820.71875 5.726562 " clip-rule="nonzero"/></clipPath><clipPath id="f2f7054c92"><path d="M 836.726562 33.664062 L 820.765625 5.726562 L 852.691406 5.726562 Z M 836.726562 33.664062 " clip-rule="nonzero"/></clipPath><clipPath id="6a5262ddb2"><path d="M 801.578125 10.226562 L 833.550781 10.226562 L 833.550781 38.160156 L 801.578125 38.160156 Z M 801.578125 10.226562 " clip-rule="nonzero"/></clipPath><clipPath id="59af6bc5af"><path d="M 817.589844 10.226562 L 801.625 38.160156 L 833.550781 38.160156 Z M 817.589844 10.226562 " clip-rule="nonzero"/></clipPath><clipPath id="2fb9320df1"><path d="M 782.4375 5.726562 L 814.410156 5.726562 L 814.410156 33.664062 L 782.4375 33.664062 Z M 782.4375 5.726562 " clip-rule="nonzero"/></clipPath><clipPath id="eab9b8573d"><path d="M 798.449219 33.664062 L 782.484375 5.726562 L 814.410156 5.726562 Z M 798.449219 33.664062 " clip-rule="nonzero"/></clipPath><clipPath id="657a4d373b"><path d="M 763.296875 10.226562 L 795.273438 10.226562 L 795.273438 38.160156 L 763.296875 38.160156 Z M 763.296875 10.226562 " clip-rule="nonzero"/></clipPath><clipPath id="275e28f4e8"><path d="M 779.308594 10.226562 L 763.34375 38.160156 L 795.273438 38.160156 Z M 779.308594 10.226562 " clip-rule="nonzero"/></clipPath><clipPath id="cfee392352"><path d="M 744.515625 5.726562 L 776.488281 5.726562 L 776.488281 33.664062 L 744.515625 33.664062 Z M 744.515625 5.726562 " clip-rule="nonzero"/></clipPath><clipPath id="85c7a33aac"><path d="M 760.523438 33.664062 L 744.5625 5.726562 L 776.488281 5.726562 Z M 760.523438 33.664062 " clip-rule="nonzero"/></clipPath><clipPath id="eb43bef501"><path d="M 858.640625 49.277344 L 890.613281 49.277344 L 890.613281 77.214844 L 858.640625 77.214844 Z M 858.640625 49.277344 " clip-rule="nonzero"/></clipPath><clipPath id="3b5730dc67"><path d="M 874.652344 49.277344 L 858.6875 77.214844 L 890.613281 77.214844 Z M 874.652344 49.277344 " clip-rule="nonzero"/></clipPath><clipPath id="96a97c7587"><path d="M 839.5 43.71875 L 871.476562 43.71875 L 871.476562 71.65625 L 839.5 71.65625 Z M 839.5 43.71875 " clip-rule="nonzero"/></clipPath><clipPath id="6d12e11779"><path d="M 855.511719 71.65625 L 839.546875 43.71875 L 871.476562 43.71875 Z M 855.511719 71.65625 " clip-rule="nonzero"/></clipPath><clipPath id="ea081fa16c"><path d="M 820.359375 49.277344 L 852.335938 49.277344 L 852.335938 77.214844 L 820.359375 77.214844 Z M 820.359375 49.277344 " clip-rule="nonzero"/></clipPath><clipPath id="0d2dc671bf"><path d="M 836.371094 49.277344 L 820.40625 77.214844 L 852.335938 77.214844 Z M 836.371094 49.277344 " clip-rule="nonzero"/></clipPath><clipPath id="093f07f9e7"><path d="M 801.222656 43.71875 L 833.195312 43.71875 L 833.195312 71.65625 L 801.222656 71.65625 Z M 801.222656 43.71875 " clip-rule="nonzero"/></clipPath><clipPath id="963ffb42db"><path d="M 817.230469 71.65625 L 801.269531 43.71875 L 833.195312 43.71875 Z M 817.230469 71.65625 " clip-rule="nonzero"/></clipPath><clipPath id="4d867c2d18"><path d="M 782.082031 49.277344 L 814.054688 49.277344 L 814.054688 77.214844 L 782.082031 77.214844 Z M 782.082031 49.277344 " clip-rule="nonzero"/></clipPath><clipPath id="03cd9c5ac7"><path d="M 798.089844 49.277344 L 782.128906 77.214844 L 814.054688 77.214844 Z M 798.089844 49.277344 " clip-rule="nonzero"/></clipPath><clipPath id="7705189d6d"><path d="M 763.296875 43.71875 L 795.273438 43.71875 L 795.273438 71.65625 L 763.296875 71.65625 Z M 763.296875 43.71875 " clip-rule="nonzero"/></clipPath><clipPath id="5d62603465"><path d="M 779.308594 71.65625 L 763.34375 43.71875 L 795.273438 43.71875 Z M 779.308594 71.65625 " clip-rule="nonzero"/></clipPath><clipPath id="eca4865d27"><path d="M 878 88.019531 L 909.933594 88.019531 L 909.933594 115.957031 L 878 115.957031 Z M 878 88.019531 " clip-rule="nonzero"/></clipPath><clipPath id="bdf56d1ebb"><path d="M 893.96875 88.019531 L 878.003906 115.957031 L 909.933594 115.957031 Z M 893.96875 88.019531 " clip-rule="nonzero"/></clipPath><clipPath id="d6d7187ab1"><path d="M 858.820312 82.460938 L 890.792969 82.460938 L 890.792969 110.398438 L 858.820312 110.398438 Z M 858.820312 82.460938 " clip-rule="nonzero"/></clipPath><clipPath id="174b5fe09e"><path d="M 874.828125 110.398438 L 858.867188 82.460938 L 890.792969 82.460938 Z M 874.828125 110.398438 " clip-rule="nonzero"/></clipPath><clipPath id="e3d793ba96"><path d="M 839.679688 88.019531 L 871.652344 88.019531 L 871.652344 115.957031 L 839.679688 115.957031 Z M 839.679688 88.019531 " clip-rule="nonzero"/></clipPath><clipPath id="6235e21af7"><path d="M 855.691406 88.019531 L 839.726562 115.957031 L 871.652344 115.957031 Z M 855.691406 88.019531 " clip-rule="nonzero"/></clipPath><clipPath id="daa3220e98"><path d="M 820.539062 82.460938 L 852.511719 82.460938 L 852.511719 110.398438 L 820.539062 110.398438 Z M 820.539062 82.460938 " clip-rule="nonzero"/></clipPath><clipPath id="e9a78d5ccb"><path d="M 836.550781 110.398438 L 820.585938 82.460938 L 852.511719 82.460938 Z M 836.550781 110.398438 " clip-rule="nonzero"/></clipPath><clipPath id="7a9fa5627f"><path d="M 801.398438 88.019531 L 833.375 88.019531 L 833.375 115.957031 L 801.398438 115.957031 Z M 801.398438 88.019531 " clip-rule="nonzero"/></clipPath><clipPath id="7035440109"><path d="M 817.410156 88.019531 L 801.445312 115.957031 L 833.375 115.957031 Z M 817.410156 88.019531 " clip-rule="nonzero"/></clipPath><clipPath id="1b17f40730"><path d="M 782.617188 82.460938 L 814.589844 82.460938 L 814.589844 110.398438 L 782.617188 110.398438 Z M 782.617188 82.460938 " clip-rule="nonzero"/></clipPath><clipPath id="1597fa8eab"><path d="M 798.625 110.398438 L 782.664062 82.460938 L 814.589844 82.460938 Z M 798.625 110.398438 " clip-rule="nonzero"/></clipPath></defs><g clip-path="url(#319d6a3df0)"><g clip-path="url(#298dddc5d5)"><path fill="#a60404" d="M 1045.195312 266.734375 L 1013.222656 266.734375 L 1013.222656 238.796875 L 1045.195312 238.796875 Z M 1045.195312 266.734375 " fill-opacity="1" fill-rule="nonzero"/></g></g><g clip-path="url(#311c3584b8)"><g clip-path="url(#9aa194c7cd)"><path fill="#a60404" d="M 1026.058594 272.292969 L 994.082031 272.292969 L 994.082031 244.355469 L 1026.058594 244.355469 Z M 1026.058594 272.292969 " fill-opacity="1" fill-rule="nonzero"/></g></g><g clip-path="url(#32049a261c)"><g clip-path="url(#ee3dc5ac08)"><path fill="#a60404" d="M 1006.917969 266.734375 L 974.941406 266.734375 L 974.941406 238.796875 L 1006.917969 238.796875 Z M 1006.917969 266.734375 " fill-opacity="1" fill-rule="nonzero"/></g></g><g clip-path="url(#102088c170)"><g clip-path="url(#cd582b6916)"><path fill="#a60404" d="M 987.777344 272.292969 L 955.804688 272.292969 L 955.804688 244.355469 L 987.777344 244.355469 Z M 987.777344 272.292969 " fill-opacity="1" fill-rule="nonzero"/></g></g><g clip-path="url(#553f70b147)"><g clip-path="url(#0ec2f05115)"><path fill="#a60404" d="M 968.636719 266.734375 L 936.664062 266.734375 L 936.664062 238.796875 L 968.636719 238.796875 Z M 968.636719 266.734375 " fill-opacity="1" fill-rule="nonzero"/></g></g><g clip-path="url(#c12fc95bfe)"><g clip-path="url(#3cc6112ab5)"><path fill="#a60404" d="M 949.496094 272.292969 L 917.523438 272.292969 L 917.523438 244.355469 L 949.496094 244.355469 Z M 949.496094 272.292969 " fill-opacity="1" fill-rule="nonzero"/></g></g><g clip-path="url(#e9700dd67f)"><g clip-path="url(#5d2d66f6e9)"><path fill="#cc5200" d="M 930.355469 266.734375 L 898.382812 266.734375 L 898.382812 238.796875 L 930.355469 238.796875 Z M 930.355469 266.734375 " fill-opacity="1" fill-rule="nonzero"/></g></g><g clip-path="url(#01873ef74c)"><g clip-path="url(#c7f4027204)"><path fill="#a60404" d="M 911.21875 272.292969 L 879.242188 272.292969 L 879.242188 244.355469 L 911.21875 244.355469 Z M 911.21875 272.292969 " fill-opacity="1" fill-rule="nonzero"/></g></g><g clip-path="url(#488ed48cec)"><g clip-path="url(#06d151f4e7)"><path fill="#a60404" d="M 892.433594 266.734375 L 860.460938 266.734375 L 860.460938 238.796875 L 892.433594 238.796875 Z M 892.433594 266.734375 " fill-opacity="1" fill-rule="nonzero"/></g></g><g clip-path="url(#9c4d19eabf)"><g clip-path="url(#696985ee24)"><path fill="#a60404" d="M 1044.839844 311.347656 L 1012.867188 311.347656 L 1012.867188 283.410156 L 1044.839844 283.410156 Z M 1044.839844 311.347656 " fill-opacity="1" fill-rule="nonzero"/></g></g><g clip-path="url(#ba95dfb910)"><g clip-path="url(#0dbfb93b08)"><path fill="#cc5200" d="M 1025.699219 305.789062 L 993.726562 305.789062 L 993.726562 277.851562 L 1025.699219 277.851562 Z M 1025.699219 305.789062 " fill-opacity="1" fill-rule="nonzero"/></g></g><g clip-path="url(#069cd2a1fa)"><g clip-path="url(#242eebe0c3)"><path fill="#a60404" d="M 1006.558594 311.347656 L 974.585938 311.347656 L 974.585938 283.410156 L 1006.558594 283.410156 Z M 1006.558594 311.347656 " fill-opacity="1" fill-rule="nonzero"/></g></g><g clip-path="url(#e24b5668c2)"><g clip-path="url(#19e630e673)"><path fill="#a60404" d="M 987.421875 305.789062 L 955.445312 305.789062 L 955.445312 277.851562 L 987.421875 277.851562 Z M 987.421875 305.789062 " fill-opacity="1" fill-rule="nonzero"/></g></g><g clip-path="url(#08b7f58266)"><g clip-path="url(#033bca832e)"><path fill="#a60404" d="M 968.28125 311.347656 L 936.304688 311.347656 L 936.304688 283.410156 L 968.28125 283.410156 Z M 968.28125 311.347656 " fill-opacity="1" fill-rule="nonzero"/></g></g><g clip-path="url(#92c094d11d)"><g clip-path="url(#c8ca4dc875)"><path fill="#a60404" d="M 949.140625 305.789062 L 917.167969 305.789062 L 917.167969 277.851562 L 949.140625 277.851562 Z M 949.140625 305.789062 " fill-opacity="1" fill-rule="nonzero"/></g></g><g clip-path="url(#37f0caa6c7)"><g clip-path="url(#7a5236b2e6)"><path fill="#a60404" d="M 930 311.347656 L 898.027344 311.347656 L 898.027344 283.410156 L 930 283.410156 Z M 930 311.347656 " fill-opacity="1" fill-rule="nonzero"/></g></g><g clip-path="url(#5234a861f4)"><g clip-path="url(#997c055c40)"><path fill="#a60404" d="M 911.21875 305.789062 L 879.242188 305.789062 L 879.242188 277.851562 L 911.21875 277.851562 Z M 911.21875 305.789062 " fill-opacity="1" fill-rule="nonzero"/></g></g><g clip-path="url(#a6148456e7)"><g clip-path="url(#5edd2d4726)"><path fill="#a60404" d="M 1045.019531 344.53125 L 1013.042969 344.53125 L 1013.042969 316.59375 L 1045.019531 316.59375 Z M 1045.019531 344.53125 " fill-opacity="1" fill-rule="nonzero"/></g></g><g clip-path="url(#b203e07759)"><g clip-path="url(#583d94346a)"><path fill="#a60404" d="M 1025.878906 350.089844 L 993.90625 350.089844 L 993.90625 322.152344 L 1025.878906 322.152344 Z M 1025.878906 350.089844 " fill-opacity="1" fill-rule="nonzero"/></g></g><g clip-path="url(#f88f3cc7b3)"><g clip-path="url(#808f91521b)"><path fill="#a60404" d="M 1006.738281 344.53125 L 974.765625 344.53125 L 974.765625 316.59375 L 1006.738281 316.59375 Z M 1006.738281 344.53125 " fill-opacity="1" fill-rule="nonzero"/></g></g><g clip-path="url(#d860652e74)"><g clip-path="url(#9045797d3f)"><path fill="#a60404" d="M 987.597656 350.089844 L 955.625 350.089844 L 955.625 322.152344 L 987.597656 322.152344 Z M 987.597656 350.089844 " fill-opacity="1" fill-rule="nonzero"/></g></g><g clip-path="url(#61dfaacd62)"><g clip-path="url(#f228f3fdae)"><path fill="#cc5200" d="M 968.457031 344.53125 L 936.484375 344.53125 L 936.484375 316.59375 L 968.457031 316.59375 Z M 968.457031 344.53125 " fill-opacity="1" fill-rule="nonzero"/></g></g><g clip-path="url(#160122aef0)"><g clip-path="url(#5a8e22e68a)"><path fill="#a60404" d="M 949.320312 350.089844 L 917.34375 350.089844 L 917.34375 322.152344 L 949.320312 322.152344 Z M 949.320312 350.089844 " fill-opacity="1" fill-rule="nonzero"/></g></g><g clip-path="url(#ccc598ad97)"><g clip-path="url(#c73fdf26f9)"><path fill="#a60404" d="M 930.535156 344.53125 L 898.5625 344.53125 L 898.5625 316.59375 L 930.535156 316.59375 Z M 930.535156 344.53125 " fill-opacity="1" fill-rule="nonzero"/></g></g><g clip-path="url(#f34829b862)"><g clip-path="url(#3c2d1febd1)"><path fill="#a60404" d="M 1044.234375 155.757812 L 1012.261719 155.757812 L 1012.261719 127.820312 L 1044.234375 127.820312 Z M 1044.234375 155.757812 " fill-opacity="1" fill-rule="nonzero"/></g></g><g clip-path="url(#e95d3fb63a)"><g clip-path="url(#d73403fbe6)"><path fill="#a60404" d="M 1025.09375 150.199219 L 993.121094 150.199219 L 993.121094 122.261719 L 1025.09375 122.261719 Z M 1025.09375 150.199219 " fill-opacity="1" fill-rule="nonzero"/></g></g><g clip-path="url(#8ea3b12a36)"><g clip-path="url(#4b143d5888)"><path fill="#a60404" d="M 1005.953125 155.757812 L 973.980469 155.757812 L 973.980469 127.820312 L 1005.953125 127.820312 Z M 1005.953125 155.757812 " fill-opacity="1" fill-rule="nonzero"/></g></g><g clip-path="url(#892c5702f0)"><g clip-path="url(#9ead6142da)"><path fill="#a60404" d="M 986.816406 150.199219 L 954.839844 150.199219 L 954.839844 122.261719 L 986.816406 122.261719 Z M 986.816406 150.199219 " fill-opacity="1" fill-rule="nonzero"/></g></g><g clip-path="url(#9a8f8c1338)"><g clip-path="url(#f1635172e9)"><path fill="#a60404" d="M 967.675781 155.757812 L 935.699219 155.757812 L 935.699219 127.820312 L 967.675781 127.820312 Z M 967.675781 155.757812 " fill-opacity="1" fill-rule="nonzero"/></g></g><g clip-path="url(#583a7e0c24)"><g clip-path="url(#5abef80258)"><path fill="#cc5200" d="M 948.535156 150.199219 L 916.558594 150.199219 L 916.558594 122.261719 L 948.535156 122.261719 Z M 948.535156 150.199219 " fill-opacity="1" fill-rule="nonzero"/></g></g><g clip-path="url(#b81078f650)"><g clip-path="url(#71ff429d18)"><path fill="#a60404" d="M 929.394531 155.757812 L 897.421875 155.757812 L 897.421875 127.820312 L 929.394531 127.820312 Z M 929.394531 155.757812 " fill-opacity="1" fill-rule="nonzero"/></g></g><g clip-path="url(#fd4e72c96b)"><g clip-path="url(#8f3bf7f0b2)"><path fill="#a60404" d="M 910.613281 150.199219 L 878.636719 150.199219 L 878.636719 122.261719 L 910.613281 122.261719 Z M 910.613281 150.199219 " fill-opacity="1" fill-rule="nonzero"/></g></g><g clip-path="url(#f903e84f78)"><g clip-path="url(#4020c9ce2a)"><path fill="#cc5200" d="M 1043.878906 189.253906 L 1011.902344 189.253906 L 1011.902344 161.316406 L 1043.878906 161.316406 Z M 1043.878906 189.253906 " fill-opacity="1" fill-rule="nonzero"/></g></g><g clip-path="url(#bad9305c1a)"><g clip-path="url(#07b6b4500b)"><path fill="#a60404" d="M 1024.738281 194.8125 L 992.761719 194.8125 L 992.761719 166.875 L 1024.738281 166.875 Z M 1024.738281 194.8125 " fill-opacity="1" fill-rule="nonzero"/></g></g><g clip-path="url(#8e5da81c9d)"><g clip-path="url(#abdc3ac9a4)"><path fill="#a60404" d="M 1005.597656 189.253906 L 973.625 189.253906 L 973.625 161.316406 L 1005.597656 161.316406 Z M 1005.597656 189.253906 " fill-opacity="1" fill-rule="nonzero"/></g></g><g clip-path="url(#a62353112d)"><g clip-path="url(#8aab479840)"><path fill="#a60404" d="M 986.457031 194.8125 L 954.484375 194.8125 L 954.484375 166.875 L 986.457031 166.875 Z M 986.457031 194.8125 " fill-opacity="1" fill-rule="nonzero"/></g></g><g clip-path="url(#0e120233bd)"><g clip-path="url(#6de243e6e0)"><path fill="#a60404" d="M 967.316406 189.253906 L 935.34375 189.253906 L 935.34375 161.316406 L 967.316406 161.316406 Z M 967.316406 189.253906 " fill-opacity="1" fill-rule="nonzero"/></g></g><g clip-path="url(#49902ff18f)"><g clip-path="url(#b597bbfe24)"><path fill="#a60404" d="M 948.179688 194.8125 L 916.203125 194.8125 L 916.203125 166.875 L 948.179688 166.875 Z M 948.179688 194.8125 " fill-opacity="1" fill-rule="nonzero"/></g></g><g clip-path="url(#9a372255d6)"><g clip-path="url(#05f2d7efe1)"><path fill="#a60404" d="M 929.394531 189.253906 L 897.421875 189.253906 L 897.421875 161.316406 L 929.394531 161.316406 Z M 929.394531 189.253906 " fill-opacity="1" fill-rule="nonzero"/></g></g><g clip-path="url(#eb48b9a33c)"><g clip-path="url(#0224793d7f)"><path fill="#a60404" d="M 1024.917969 227.996094 L 992.941406 227.996094 L 992.941406 200.058594 L 1024.917969 200.058594 Z M 1024.917969 227.996094 " fill-opacity="1" fill-rule="nonzero"/></g></g><g clip-path="url(#d2a41efaf4)"><g clip-path="url(#225f337748)"><path fill="#a60404" d="M 1005.777344 233.550781 L 973.800781 233.550781 L 973.800781 205.617188 L 1005.777344 205.617188 Z M 1005.777344 233.550781 " fill-opacity="1" fill-rule="nonzero"/></g></g><g clip-path="url(#b6e1bcd4c2)"><g clip-path="url(#71480f0b70)"><path fill="#cc5200" d="M 986.636719 227.996094 L 954.664062 227.996094 L 954.664062 200.058594 L 986.636719 200.058594 Z M 986.636719 227.996094 " fill-opacity="1" fill-rule="nonzero"/></g></g><g clip-path="url(#5df2d88fbf)"><g clip-path="url(#dabae3f482)"><path fill="#a60404" d="M 967.496094 233.550781 L 935.523438 233.550781 L 935.523438 205.617188 L 967.496094 205.617188 Z M 967.496094 233.550781 " fill-opacity="1" fill-rule="nonzero"/></g></g><g clip-path="url(#c08f0a1506)"><g clip-path="url(#1068577589)"><path fill="#a60404" d="M 948.714844 227.996094 L 916.738281 227.996094 L 916.738281 200.058594 L 948.714844 200.058594 Z M 948.714844 227.996094 " fill-opacity="1" fill-rule="nonzero"/></g></g><g clip-path="url(#a2c3998d61)"><g clip-path="url(#2958614002)"><path fill="#a60404" d="M 1044.660156 33.664062 L 1012.6875 33.664062 L 1012.6875 5.726562 L 1044.660156 5.726562 Z M 1044.660156 33.664062 " fill-opacity="1" fill-rule="nonzero"/></g></g><g clip-path="url(#17cfa71533)"><g clip-path="url(#2a9a119e97)"><path fill="#a60404" d="M 1025.523438 39.222656 L 993.546875 39.222656 L 993.546875 11.285156 L 1025.523438 11.285156 Z M 1025.523438 39.222656 " fill-opacity="1" fill-rule="nonzero"/></g></g><g clip-path="url(#cfca1da131)"><g clip-path="url(#2316e98d48)"><path fill="#a60404" d="M 1006.382812 33.664062 L 974.40625 33.664062 L 974.40625 5.726562 L 1006.382812 5.726562 Z M 1006.382812 33.664062 " fill-opacity="1" fill-rule="nonzero"/></g></g><g clip-path="url(#fbf30f291a)"><g clip-path="url(#760c8ab056)"><path fill="#a60404" d="M 987.242188 39.222656 L 955.269531 39.222656 L 955.269531 11.285156 L 987.242188 11.285156 Z M 987.242188 39.222656 " fill-opacity="1" fill-rule="nonzero"/></g></g><g clip-path="url(#28a06213e4)"><g clip-path="url(#4ea0e329f8)"><path fill="#a60404" d="M 968.101562 33.664062 L 936.128906 33.664062 L 936.128906 5.726562 L 968.101562 5.726562 Z M 968.101562 33.664062 " fill-opacity="1" fill-rule="nonzero"/></g></g><g clip-path="url(#778f1be37a)"><g clip-path="url(#649dfdce3e)"><path fill="#a60404" d="M 948.960938 39.222656 L 916.988281 39.222656 L 916.988281 11.285156 L 948.960938 11.285156 Z M 948.960938 39.222656 " fill-opacity="1" fill-rule="nonzero"/></g></g><g clip-path="url(#4fdc0d8c8f)"><g clip-path="url(#d413b3b71a)"><path fill="#cc5200" d="M 929.824219 33.664062 L 897.847656 33.664062 L 897.847656 5.726562 L 929.824219 5.726562 Z M 929.824219 33.664062 " fill-opacity="1" fill-rule="nonzero"/></g></g><g clip-path="url(#cbd3aef66f)"><g clip-path="url(#02142bba45)"><path fill="#a60404" d="M 910.683594 39.222656 L 878.707031 39.222656 L 878.707031 11.285156 L 910.683594 11.285156 Z M 910.683594 39.222656 " fill-opacity="1" fill-rule="nonzero"/></g></g><g clip-path="url(#f401080291)"><g clip-path="url(#9d69c4fd20)"><path fill="#a60404" d="M 891.898438 33.664062 L 859.925781 33.664062 L 859.925781 5.726562 L 891.898438 5.726562 Z M 891.898438 33.664062 " fill-opacity="1" fill-rule="nonzero"/></g></g><g clip-path="url(#5c58d43fae)"><g clip-path="url(#5f4c18de26)"><path fill="#a60404" d="M 1044.304688 78.277344 L 1012.332031 78.277344 L 1012.332031 50.339844 L 1044.304688 50.339844 Z M 1044.304688 78.277344 " fill-opacity="1" fill-rule="nonzero"/></g></g><g clip-path="url(#0cda2706bd)"><g clip-path="url(#c6b1ffbfa3)"><path fill="#cc5200" d="M 1025.164062 72.71875 L 993.191406 72.71875 L 993.191406 44.78125 L 1025.164062 44.78125 Z M 1025.164062 72.71875 " fill-opacity="1" fill-rule="nonzero"/></g></g><g clip-path="url(#dc42da3dd4)"><g clip-path="url(#adf41d704d)"><path fill="#a60404" d="M 1006.027344 78.277344 L 974.050781 78.277344 L 974.050781 50.339844 L 1006.027344 50.339844 Z M 1006.027344 78.277344 " fill-opacity="1" fill-rule="nonzero"/></g></g><g clip-path="url(#7f8ea36500)"><g clip-path="url(#105b445585)"><path fill="#a60404" d="M 986.886719 72.71875 L 954.910156 72.71875 L 954.910156 44.78125 L 986.886719 44.78125 Z M 986.886719 72.71875 " fill-opacity="1" fill-rule="nonzero"/></g></g><g clip-path="url(#e56ee0abff)"><g clip-path="url(#3c05496bfc)"><path fill="#a60404" d="M 967.746094 78.277344 L 935.769531 78.277344 L 935.769531 50.339844 L 967.746094 50.339844 Z M 967.746094 78.277344 " fill-opacity="1" fill-rule="nonzero"/></g></g><g clip-path="url(#8d3fad8ca7)"><g clip-path="url(#01541dacbd)"><path fill="#a60404" d="M 948.605469 72.71875 L 916.632812 72.71875 L 916.632812 44.78125 L 948.605469 44.78125 Z M 948.605469 72.71875 " fill-opacity="1" fill-rule="nonzero"/></g></g><g clip-path="url(#ee0f08eb6a)"><g clip-path="url(#d5c4641eb3)"><path fill="#a60404" d="M 929.464844 78.277344 L 897.492188 78.277344 L 897.492188 50.339844 L 929.464844 50.339844 Z M 929.464844 78.277344 " fill-opacity="1" fill-rule="nonzero"/></g></g><g clip-path="url(#4e8bc64b34)"><g clip-path="url(#847b27ffc6)"><path fill="#a60404" d="M 910.683594 72.71875 L 878.707031 72.71875 L 878.707031 44.78125 L 910.683594 44.78125 Z M 910.683594 72.71875 " fill-opacity="1" fill-rule="nonzero"/></g></g><g clip-path="url(#654e1e3111)"><g clip-path="url(#f92f236775)"><path fill="#a60404" d="M 1044.484375 111.457031 L 1012.507812 111.457031 L 1012.507812 83.523438 L 1044.484375 83.523438 Z M 1044.484375 111.457031 " fill-opacity="1" fill-rule="nonzero"/></g></g><g clip-path="url(#9986eb3422)"><g clip-path="url(#18454597ef)"><path fill="#a60404" d="M 1025.34375 117.015625 L 993.371094 117.015625 L 993.371094 89.082031 L 1025.34375 89.082031 Z M 1025.34375 117.015625 " fill-opacity="1" fill-rule="nonzero"/></g></g><g clip-path="url(#be6bbda21d)"><g clip-path="url(#d67cf0ff5a)"><path fill="#a60404" d="M 1006.203125 111.457031 L 974.230469 111.457031 L 974.230469 83.523438 L 1006.203125 83.523438 Z M 1006.203125 111.457031 " fill-opacity="1" fill-rule="nonzero"/></g></g><g clip-path="url(#d2c950a736)"><g clip-path="url(#fca3669272)"><path fill="#a60404" d="M 987.0625 117.015625 L 955.089844 117.015625 L 955.089844 89.082031 L 987.0625 89.082031 Z M 987.0625 117.015625 " fill-opacity="1" fill-rule="nonzero"/></g></g><g clip-path="url(#89ab829279)"><g clip-path="url(#d09798458a)"><path fill="#cc5200" d="M 967.925781 111.457031 L 935.949219 111.457031 L 935.949219 83.523438 L 967.925781 83.523438 Z M 967.925781 111.457031 " fill-opacity="1" fill-rule="nonzero"/></g></g><g clip-path="url(#08d1bd4b17)"><g clip-path="url(#675d8a1e4a)"><path fill="#a60404" d="M 948.785156 117.015625 L 916.808594 117.015625 L 916.808594 89.082031 L 948.785156 89.082031 Z M 948.785156 117.015625 " fill-opacity="1" fill-rule="nonzero"/></g></g><g clip-path="url(#fb75c318c2)"><g clip-path="url(#3684b5452a)"><path fill="#a60404" d="M 930 111.457031 L 898.027344 111.457031 L 898.027344 83.523438 L 930 83.523438 Z M 930 111.457031 " fill-opacity="1" fill-rule="nonzero"/></g></g><g clip-path="url(#36ed35d918)"><g clip-path="url(#696da864d5)"><path fill="#a60404" d="M 1044.054688 233.550781 L 1012.082031 233.550781 L 1012.082031 205.617188 L 1044.054688 205.617188 Z M 1044.054688 233.550781 " fill-opacity="1" fill-rule="nonzero"/></g></g><g clip-path="url(#85df5a6c97)"><g clip-path="url(#27fba05f97)"><path fill="#a60404" d="M 890.542969 155.445312 L 858.570312 155.445312 L 858.570312 127.507812 L 890.542969 127.507812 Z M 890.542969 155.445312 " fill-opacity="1" fill-rule="nonzero"/></g></g><g clip-path="url(#9e0d42cc7a)"><g clip-path="url(#f2a08644d2)"><path fill="#a60404" d="M 871.761719 149.886719 L 839.785156 149.886719 L 839.785156 121.953125 L 871.761719 121.953125 Z M 871.761719 149.886719 " fill-opacity="1" fill-rule="nonzero"/></g></g><g clip-path="url(#eda6394c95)"><g clip-path="url(#387209d780)"><path fill="#cc5200" d="M 909.328125 194.5 L 877.351562 194.5 L 877.351562 166.5625 L 909.328125 166.5625 Z M 909.328125 194.5 " fill-opacity="1" fill-rule="nonzero"/></g></g><g clip-path="url(#057fa8b850)"><g clip-path="url(#5ae5a2c41a)"><path fill="#a60404" d="M 890.542969 188.941406 L 858.570312 188.941406 L 858.570312 161.003906 L 890.542969 161.003906 Z M 890.542969 188.941406 " fill-opacity="1" fill-rule="nonzero"/></g></g><g clip-path="url(#7252e973e3)"><g clip-path="url(#f30aeec589)"><path fill="#a60404" d="M 928.644531 233.242188 L 896.671875 233.242188 L 896.671875 205.304688 L 928.644531 205.304688 Z M 928.644531 233.242188 " fill-opacity="1" fill-rule="nonzero"/></g></g><g clip-path="url(#19d824fa40)"><g clip-path="url(#db20803ba2)"><path fill="#a60404" d="M 909.863281 227.683594 L 877.886719 227.683594 L 877.886719 199.746094 L 909.863281 199.746094 Z M 909.863281 227.683594 " fill-opacity="1" fill-rule="nonzero"/></g></g><g clip-path="url(#ffae6741f9)"><g clip-path="url(#610614470d)"><path fill="#a60404" d="M 852.621094 155.445312 L 820.644531 155.445312 L 820.644531 127.507812 L 852.621094 127.507812 Z M 852.621094 155.445312 " fill-opacity="1" fill-rule="nonzero"/></g></g><g clip-path="url(#31f74c4d75)"><g clip-path="url(#598a0dbeaf)"><path fill="#a60404" d="M 833.835938 149.886719 L 801.863281 149.886719 L 801.863281 121.953125 L 833.835938 121.953125 Z M 833.835938 149.886719 " fill-opacity="1" fill-rule="nonzero"/></g></g><g clip-path="url(#9cd9440a6d)"><g clip-path="url(#1da06e93df)"><path fill="#a60404" d="M 871.402344 194.5 L 839.429688 194.5 L 839.429688 166.5625 L 871.402344 166.5625 Z M 871.402344 194.5 " fill-opacity="1" fill-rule="nonzero"/></g></g><g clip-path="url(#4f491148c8)"><g clip-path="url(#f6ac0118e6)"><path fill="#a60404" d="M 852.621094 188.941406 L 820.644531 188.941406 L 820.644531 161.003906 L 852.621094 161.003906 Z M 852.621094 188.941406 " fill-opacity="1" fill-rule="nonzero"/></g></g><g clip-path="url(#da781e1cac)"><g clip-path="url(#675090956b)"><path fill="#a60404" d="M 890.722656 233.242188 L 858.746094 233.242188 L 858.746094 205.304688 L 890.722656 205.304688 Z M 890.722656 233.242188 " fill-opacity="1" fill-rule="nonzero"/></g></g><g clip-path="url(#ad8b901c45)"><g clip-path="url(#edcd58270c)"><path fill="#a60404" d="M 871.9375 227.683594 L 839.964844 227.683594 L 839.964844 199.746094 L 871.9375 199.746094 Z M 871.9375 227.683594 " fill-opacity="1" fill-rule="nonzero"/></g></g><g clip-path="url(#950c9f5656)"><g clip-path="url(#52c77d9349)"><path fill="#a60404" d="M 871.832031 38.160156 L 839.855469 38.160156 L 839.855469 10.226562 L 871.832031 10.226562 Z M 871.832031 38.160156 " fill-opacity="1" fill-rule="nonzero"/></g></g><g clip-path="url(#d495393f96)"><g clip-path="url(#f2f7054c92)"><path fill="#a60404" d="M 852.691406 33.664062 L 820.71875 33.664062 L 820.71875 5.726562 L 852.691406 5.726562 Z M 852.691406 33.664062 " fill-opacity="1" fill-rule="nonzero"/></g></g><g clip-path="url(#6a5262ddb2)"><g clip-path="url(#59af6bc5af)"><path fill="#a60404" d="M 833.550781 38.160156 L 801.578125 38.160156 L 801.578125 10.226562 L 833.550781 10.226562 Z M 833.550781 38.160156 " fill-opacity="1" fill-rule="nonzero"/></g></g><g clip-path="url(#2fb9320df1)"><g clip-path="url(#eab9b8573d)"><path fill="#cc5200" d="M 814.410156 33.664062 L 782.4375 33.664062 L 782.4375 5.726562 L 814.410156 5.726562 Z M 814.410156 33.664062 " fill-opacity="1" fill-rule="nonzero"/></g></g><g clip-path="url(#657a4d373b)"><g clip-path="url(#275e28f4e8)"><path fill="#a60404" d="M 795.273438 38.160156 L 763.296875 38.160156 L 763.296875 10.226562 L 795.273438 10.226562 Z M 795.273438 38.160156 " fill-opacity="1" fill-rule="nonzero"/></g></g><g clip-path="url(#cfee392352)"><g clip-path="url(#85c7a33aac)"><path fill="#a60404" d="M 776.488281 33.664062 L 744.515625 33.664062 L 744.515625 5.726562 L 776.488281 5.726562 Z M 776.488281 33.664062 " fill-opacity="1" fill-rule="nonzero"/></g></g><g clip-path="url(#eb43bef501)"><g clip-path="url(#3b5730dc67)"><path fill="#a60404" d="M 890.613281 77.214844 L 858.640625 77.214844 L 858.640625 49.277344 L 890.613281 49.277344 Z M 890.613281 77.214844 " fill-opacity="1" fill-rule="nonzero"/></g></g><g clip-path="url(#96a97c7587)"><g clip-path="url(#6d12e11779)"><path fill="#a60404" d="M 871.476562 71.65625 L 839.5 71.65625 L 839.5 43.71875 L 871.476562 43.71875 Z M 871.476562 71.65625 " fill-opacity="1" fill-rule="nonzero"/></g></g><g clip-path="url(#ea081fa16c)"><g clip-path="url(#0d2dc671bf)"><path fill="#a60404" d="M 852.335938 77.214844 L 820.359375 77.214844 L 820.359375 49.277344 L 852.335938 49.277344 Z M 852.335938 77.214844 " fill-opacity="1" fill-rule="nonzero"/></g></g><g clip-path="url(#093f07f9e7)"><g clip-path="url(#963ffb42db)"><path fill="#a60404" d="M 833.195312 71.65625 L 801.222656 71.65625 L 801.222656 43.71875 L 833.195312 43.71875 Z M 833.195312 71.65625 " fill-opacity="1" fill-rule="nonzero"/></g></g><g clip-path="url(#4d867c2d18)"><g clip-path="url(#03cd9c5ac7)"><path fill="#a60404" d="M 814.054688 77.214844 L 782.082031 77.214844 L 782.082031 49.277344 L 814.054688 49.277344 Z M 814.054688 77.214844 " fill-opacity="1" fill-rule="nonzero"/></g></g><g clip-path="url(#7705189d6d)"><g clip-path="url(#5d62603465)"><path fill="#a60404" d="M 795.273438 71.65625 L 763.296875 71.65625 L 763.296875 43.71875 L 795.273438 43.71875 Z M 795.273438 71.65625 " fill-opacity="1" fill-rule="nonzero"/></g></g><g clip-path="url(#eca4865d27)"><g clip-path="url(#bdf56d1ebb)"><path fill="#a60404" d="M 909.933594 115.957031 L 877.957031 115.957031 L 877.957031 88.019531 L 909.933594 88.019531 Z M 909.933594 115.957031 " fill-opacity="1" fill-rule="nonzero"/></g></g><g clip-path="url(#d6d7187ab1)"><g clip-path="url(#174b5fe09e)"><path fill="#a60404" d="M 890.792969 110.398438 L 858.820312 110.398438 L 858.820312 82.460938 L 890.792969 82.460938 Z M 890.792969 110.398438 " fill-opacity="1" fill-rule="nonzero"/></g></g><g clip-path="url(#e3d793ba96)"><g clip-path="url(#6235e21af7)"><path fill="#a60404" d="M 871.652344 115.957031 L 839.679688 115.957031 L 839.679688 88.019531 L 871.652344 88.019531 Z M 871.652344 115.957031 " fill-opacity="1" fill-rule="nonzero"/></g></g><g clip-path="url(#daa3220e98)"><g clip-path="url(#e9a78d5ccb)"><path fill="#cc5200" d="M 852.511719 110.398438 L 820.539062 110.398438 L 820.539062 82.460938 L 852.511719 82.460938 Z M 852.511719 110.398438 " fill-opacity="1" fill-rule="nonzero"/></g></g><g clip-path="url(#7a9fa5627f)"><g clip-path="url(#7035440109)"><path fill="#a60404" d="M 833.375 115.957031 L 801.398438 115.957031 L 801.398438 88.019531 L 833.375 88.019531 Z M 833.375 115.957031 " fill-opacity="1" fill-rule="nonzero"/></g></g><g clip-path="url(#1b17f40730)"><g clip-path="url(#1597fa8eab)"><path fill="#a60404" d="M 814.589844 110.398438 L 782.617188 110.398438 L 782.617188 82.460938 L 814.589844 82.460938 Z M 814.589844 110.398438 " fill-opacity="1" fill-rule="nonzero"/></g></g></svg>