<svg xmlns="http://www.w3.org/2000/svg" xmlns:xlink="http://www.w3.org/1999/xlink" width="1366" zoomAndPan="magnify" viewBox="0 0 1024.5 106.499997" height="142" preserveAspectRatio="xMidYMid meet" version="1.0"><defs><clipPath id="02fe132417"><path d="M 2.144531 0 L 1021.855469 0 L 1021.855469 106.003906 L 2.144531 106.003906 Z M 2.144531 0 " clip-rule="nonzero"/></clipPath><clipPath id="0619456d44"><path d="M 2.144531 77.730469 L 19.0625 77.730469 L 19.0625 105.554688 L 2.144531 105.554688 Z M 2.144531 77.730469 " clip-rule="nonzero"/></clipPath><clipPath id="3a5ade95eb"><path d="M 3.117188 77.730469 L 19.015625 105.554688 L -12.785156 105.554688 Z M 3.117188 77.730469 " clip-rule="nonzero"/></clipPath><clipPath id="12f0d37179"><path d="M 6.277344 72.191406 L 38.125 72.191406 L 38.125 100.019531 L 6.277344 100.019531 Z M 6.277344 72.191406 " clip-rule="nonzero"/></clipPath><clipPath id="c901427b53"><path d="M 22.179688 100.019531 L 38.078125 72.191406 L 6.277344 72.191406 Z M 22.179688 100.019531 " clip-rule="nonzero"/></clipPath><clipPath id="8c7d28ba49"><path d="M 25.34375 77.730469 L 57.191406 77.730469 L 57.191406 105.554688 L 25.34375 105.554688 Z M 25.34375 77.730469 " clip-rule="nonzero"/></clipPath><clipPath id="63a2151447"><path d="M 41.242188 77.730469 L 57.144531 105.554688 L 25.34375 105.554688 Z M 41.242188 77.730469 " clip-rule="nonzero"/></clipPath><clipPath id="648ca28213"><path d="M 44.40625 72.191406 L 76.253906 72.191406 L 76.253906 100.019531 L 44.40625 100.019531 Z M 44.40625 72.191406 " clip-rule="nonzero"/></clipPath><clipPath id="4b62f55d32"><path d="M 60.308594 100.019531 L 76.207031 72.191406 L 44.40625 72.191406 Z M 60.308594 100.019531 " clip-rule="nonzero"/></clipPath><clipPath id="7e090cd4a7"><path d="M 63.46875 77.730469 L 95.316406 77.730469 L 95.316406 105.554688 L 63.46875 105.554688 Z M 63.46875 77.730469 " clip-rule="nonzero"/></clipPath><clipPath id="ca9a9fd0ff"><path d="M 79.371094 77.730469 L 95.269531 105.554688 L 63.46875 105.554688 Z M 79.371094 77.730469 " clip-rule="nonzero"/></clipPath><clipPath id="b6f6062107"><path d="M 82.535156 72.191406 L 114.382812 72.191406 L 114.382812 100.019531 L 82.535156 100.019531 Z M 82.535156 72.191406 " clip-rule="nonzero"/></clipPath><clipPath id="c395e758f3"><path d="M 98.433594 100.019531 L 114.335938 72.191406 L 82.535156 72.191406 Z M 98.433594 100.019531 " clip-rule="nonzero"/></clipPath><clipPath id="70d959f5a9"><path d="M 101.597656 77.730469 L 133.445312 77.730469 L 133.445312 105.554688 L 101.597656 105.554688 Z M 101.597656 77.730469 " clip-rule="nonzero"/></clipPath><clipPath id="cd2061a3cd"><path d="M 117.5 77.730469 L 133.398438 105.554688 L 101.597656 105.554688 Z M 117.5 77.730469 " clip-rule="nonzero"/></clipPath><clipPath id="3fd8dd52d2"><path d="M 120.664062 72.191406 L 152.507812 72.191406 L 152.507812 100.019531 L 120.664062 100.019531 Z M 120.664062 72.191406 " clip-rule="nonzero"/></clipPath><clipPath id="0d8f98e9cd"><path d="M 136.5625 100.019531 L 152.464844 72.191406 L 120.664062 72.191406 Z M 136.5625 100.019531 " clip-rule="nonzero"/></clipPath><clipPath id="94c53b5c2b"><path d="M 139.371094 77.730469 L 171.21875 77.730469 L 171.21875 105.554688 L 139.371094 105.554688 Z M 139.371094 77.730469 " clip-rule="nonzero"/></clipPath><clipPath id="807f34bac7"><path d="M 155.269531 77.730469 L 171.171875 105.554688 L 139.371094 105.554688 Z M 155.269531 77.730469 " clip-rule="nonzero"/></clipPath><clipPath id="e164317f97"><path d="M 2.144531 33.292969 L 19.417969 33.292969 L 19.417969 61.121094 L 2.144531 61.121094 Z M 2.144531 33.292969 " clip-rule="nonzero"/></clipPath><clipPath id="ec219900f4"><path d="M 3.46875 61.121094 L 19.371094 33.292969 L -12.429688 33.292969 Z M 3.46875 61.121094 " clip-rule="nonzero"/></clipPath><clipPath id="9e4efd825c"><path d="M 6.632812 38.832031 L 38.480469 38.832031 L 38.480469 66.65625 L 6.632812 66.65625 Z M 6.632812 38.832031 " clip-rule="nonzero"/></clipPath><clipPath id="f46c4d9af9"><path d="M 22.535156 38.832031 L 38.433594 66.65625 L 6.632812 66.65625 Z M 22.535156 38.832031 " clip-rule="nonzero"/></clipPath><clipPath id="ba3c676a96"><path d="M 25.699219 33.292969 L 57.546875 33.292969 L 57.546875 61.121094 L 25.699219 61.121094 Z M 25.699219 33.292969 " clip-rule="nonzero"/></clipPath><clipPath id="7a741718fc"><path d="M 41.597656 61.121094 L 57.5 33.292969 L 25.699219 33.292969 Z M 41.597656 61.121094 " clip-rule="nonzero"/></clipPath><clipPath id="7aae1162ef"><path d="M 44.761719 38.832031 L 76.609375 38.832031 L 76.609375 66.65625 L 44.761719 66.65625 Z M 44.761719 38.832031 " clip-rule="nonzero"/></clipPath><clipPath id="0b6ab29abe"><path d="M 60.664062 38.832031 L 76.5625 66.65625 L 44.761719 66.65625 Z M 60.664062 38.832031 " clip-rule="nonzero"/></clipPath><clipPath id="847678dbd5"><path d="M 63.824219 33.292969 L 95.671875 33.292969 L 95.671875 61.121094 L 63.824219 61.121094 Z M 63.824219 33.292969 " clip-rule="nonzero"/></clipPath><clipPath id="78cc330eaa"><path d="M 79.726562 61.121094 L 95.625 33.292969 L 63.824219 33.292969 Z M 79.726562 61.121094 " clip-rule="nonzero"/></clipPath><clipPath id="9993fee74b"><path d="M 82.890625 38.832031 L 114.738281 38.832031 L 114.738281 66.65625 L 82.890625 66.65625 Z M 82.890625 38.832031 " clip-rule="nonzero"/></clipPath><clipPath id="8ba9c6e9af"><path d="M 98.789062 38.832031 L 114.691406 66.65625 L 82.890625 66.65625 Z M 98.789062 38.832031 " clip-rule="nonzero"/></clipPath><clipPath id="11b15a71dc"><path d="M 101.953125 33.292969 L 133.800781 33.292969 L 133.800781 61.121094 L 101.953125 61.121094 Z M 101.953125 33.292969 " clip-rule="nonzero"/></clipPath><clipPath id="464fdca2d5"><path d="M 117.855469 61.121094 L 133.753906 33.292969 L 101.953125 33.292969 Z M 117.855469 61.121094 " clip-rule="nonzero"/></clipPath><clipPath id="d59d52f78b"><path d="M 120.664062 38.832031 L 152.507812 38.832031 L 152.507812 66.65625 L 120.664062 66.65625 Z M 120.664062 38.832031 " clip-rule="nonzero"/></clipPath><clipPath id="db242be765"><path d="M 136.5625 38.832031 L 152.464844 66.65625 L 120.664062 66.65625 Z M 136.5625 38.832031 " clip-rule="nonzero"/></clipPath><clipPath id="a1bfaca000"><path d="M 2.144531 0.242188 L 19.238281 0.242188 L 19.238281 28.070312 L 2.144531 28.070312 Z M 2.144531 0.242188 " clip-rule="nonzero"/></clipPath><clipPath id="71d1445b7d"><path d="M 3.292969 0.242188 L 19.191406 28.070312 L -12.609375 28.070312 Z M 3.292969 0.242188 " clip-rule="nonzero"/></clipPath><clipPath id="ffd87f96b6"><path d="M 6.457031 0 L 38.304688 0 L 38.304688 22.53125 L 6.457031 22.53125 Z M 6.457031 0 " clip-rule="nonzero"/></clipPath><clipPath id="27f1060f22"><path d="M 22.355469 22.53125 L 38.257812 -5.292969 L 6.457031 -5.292969 Z M 22.355469 22.53125 " clip-rule="nonzero"/></clipPath><clipPath id="929cc69818"><path d="M 25.519531 0.242188 L 57.367188 0.242188 L 57.367188 28.070312 L 25.519531 28.070312 Z M 25.519531 0.242188 " clip-rule="nonzero"/></clipPath><clipPath id="1b32c57abb"><path d="M 41.421875 0.242188 L 57.320312 28.070312 L 25.519531 28.070312 Z M 41.421875 0.242188 " clip-rule="nonzero"/></clipPath><clipPath id="49938eec64"><path d="M 44.585938 0 L 76.429688 0 L 76.429688 22.53125 L 44.585938 22.53125 Z M 44.585938 0 " clip-rule="nonzero"/></clipPath><clipPath id="06bc594076"><path d="M 60.484375 22.53125 L 76.386719 -5.292969 L 44.585938 -5.292969 Z M 60.484375 22.53125 " clip-rule="nonzero"/></clipPath><clipPath id="ee396f2199"><path d="M 63.648438 0.242188 L 95.496094 0.242188 L 95.496094 28.070312 L 63.648438 28.070312 Z M 63.648438 0.242188 " clip-rule="nonzero"/></clipPath><clipPath id="c92f52eb8a"><path d="M 79.546875 0.242188 L 95.449219 28.070312 L 63.648438 28.070312 Z M 79.546875 0.242188 " clip-rule="nonzero"/></clipPath><clipPath id="a4b4a02f67"><path d="M 82.710938 0 L 114.558594 0 L 114.558594 22.53125 L 82.710938 22.53125 Z M 82.710938 0 " clip-rule="nonzero"/></clipPath><clipPath id="29bcb5c2b2"><path d="M 98.613281 22.53125 L 114.511719 -5.292969 L 82.710938 -5.292969 Z M 98.613281 22.53125 " clip-rule="nonzero"/></clipPath><clipPath id="f7aa1049df"><path d="M 101.421875 0.242188 L 133.269531 0.242188 L 133.269531 28.070312 L 101.421875 28.070312 Z M 101.421875 0.242188 " clip-rule="nonzero"/></clipPath><clipPath id="dc79d81420"><path d="M 117.320312 0.242188 L 133.222656 28.070312 L 101.421875 28.070312 Z M 117.320312 0.242188 " clip-rule="nonzero"/></clipPath></defs><g clip-path="url(#02fe132417)"><path fill="#ffffff" d="M 2.144531 0 L 1021.855469 0 L 1021.855469 106.003906 L 2.144531 106.003906 Z M 2.144531 0 " fill-opacity="1" fill-rule="nonzero"/><path fill="#ffffff" d="M 2.144531 0 L 1021.855469 0 L 1021.855469 106.003906 L 2.144531 106.003906 Z M 2.144531 0 " fill-opacity="1" fill-rule="nonzero"/><path fill="#2a2e45" d="M 2.144531 0 L 1022.003906 0 L 1022.003906 106.003906 L 2.144531 106.003906 Z M 2.144531 0 " fill-opacity="1" fill-rule="nonzero"/></g><g clip-path="url(#0619456d44)"><g clip-path="url(#3a5ade95eb)"><path fill="#a60404" d="M -12.785156 77.730469 L 19.0625 77.730469 L 19.0625 105.554688 L -12.785156 105.554688 Z M -12.785156 77.730469 " fill-opacity="1" fill-rule="nonzero"/></g></g><g clip-path="url(#12f0d37179)"><g clip-path="url(#c901427b53)"><path fill="#a60404" d="M 6.277344 72.191406 L 38.125 72.191406 L 38.125 100.019531 L 6.277344 100.019531 Z M 6.277344 72.191406 " fill-opacity="1" fill-rule="nonzero"/></g></g><g clip-path="url(#8c7d28ba49)"><g clip-path="url(#63a2151447)"><path fill="#a60404" d="M 25.34375 77.730469 L 57.191406 77.730469 L 57.191406 105.554688 L 25.34375 105.554688 Z M 25.34375 77.730469 " fill-opacity="1" fill-rule="nonzero"/></g></g><g clip-path="url(#648ca28213)"><g clip-path="url(#4b62f55d32)"><path fill="#a60404" d="M 44.40625 72.191406 L 76.253906 72.191406 L 76.253906 100.019531 L 44.40625 100.019531 Z M 44.40625 72.191406 " fill-opacity="1" fill-rule="nonzero"/></g></g><g clip-path="url(#7e090cd4a7)"><g clip-path="url(#ca9a9fd0ff)"><path fill="#a60404" d="M 63.46875 77.730469 L 95.316406 77.730469 L 95.316406 105.554688 L 63.46875 105.554688 Z M 63.46875 77.730469 " fill-opacity="1" fill-rule="nonzero"/></g></g><g clip-path="url(#b6f6062107)"><g clip-path="url(#c395e758f3)"><path fill="#a60404" d="M 82.535156 72.191406 L 114.382812 72.191406 L 114.382812 100.019531 L 82.535156 100.019531 Z M 82.535156 72.191406 " fill-opacity="1" fill-rule="nonzero"/></g></g><g clip-path="url(#70d959f5a9)"><g clip-path="url(#cd2061a3cd)"><path fill="#a60404" d="M 101.597656 77.730469 L 133.445312 77.730469 L 133.445312 105.554688 L 101.597656 105.554688 Z M 101.597656 77.730469 " fill-opacity="1" fill-rule="nonzero"/></g></g><g clip-path="url(#3fd8dd52d2)"><g clip-path="url(#0d8f98e9cd)"><path fill="#a60404" d="M 120.664062 72.191406 L 152.507812 72.191406 L 152.507812 100.019531 L 120.664062 100.019531 Z M 120.664062 72.191406 " fill-opacity="1" fill-rule="nonzero"/></g></g><g clip-path="url(#94c53b5c2b)"><g clip-path="url(#807f34bac7)"><path fill="#a60404" d="M 139.371094 77.730469 L 171.21875 77.730469 L 171.21875 105.554688 L 139.371094 105.554688 Z M 139.371094 77.730469 " fill-opacity="1" fill-rule="nonzero"/></g></g><g clip-path="url(#e164317f97)"><g clip-path="url(#ec219900f4)"><path fill="#a60404" d="M -12.429688 33.292969 L 19.417969 33.292969 L 19.417969 61.121094 L -12.429688 61.121094 Z M -12.429688 33.292969 " fill-opacity="1" fill-rule="nonzero"/></g></g><g clip-path="url(#9e4efd825c)"><g clip-path="url(#f46c4d9af9)"><path fill="#a60404" d="M 6.632812 38.832031 L 38.480469 38.832031 L 38.480469 66.65625 L 6.632812 66.65625 Z M 6.632812 38.832031 " fill-opacity="1" fill-rule="nonzero"/></g></g><g clip-path="url(#ba3c676a96)"><g clip-path="url(#7a741718fc)"><path fill="#a60404" d="M 25.699219 33.292969 L 57.546875 33.292969 L 57.546875 61.121094 L 25.699219 61.121094 Z M 25.699219 33.292969 " fill-opacity="1" fill-rule="nonzero"/></g></g><g clip-path="url(#7aae1162ef)"><g clip-path="url(#0b6ab29abe)"><path fill="#a60404" d="M 44.761719 38.832031 L 76.609375 38.832031 L 76.609375 66.65625 L 44.761719 66.65625 Z M 44.761719 38.832031 " fill-opacity="1" fill-rule="nonzero"/></g></g><g clip-path="url(#847678dbd5)"><g clip-path="url(#78cc330eaa)"><path fill="#a60404" d="M 63.824219 33.292969 L 95.671875 33.292969 L 95.671875 61.121094 L 63.824219 61.121094 Z M 63.824219 33.292969 " fill-opacity="1" fill-rule="nonzero"/></g></g><g clip-path="url(#9993fee74b)"><g clip-path="url(#8ba9c6e9af)"><path fill="#a60404" d="M 82.890625 38.832031 L 114.738281 38.832031 L 114.738281 66.65625 L 82.890625 66.65625 Z M 82.890625 38.832031 " fill-opacity="1" fill-rule="nonzero"/></g></g><g clip-path="url(#11b15a71dc)"><g clip-path="url(#464fdca2d5)"><path fill="#a60404" d="M 101.953125 33.292969 L 133.800781 33.292969 L 133.800781 61.121094 L 101.953125 61.121094 Z M 101.953125 33.292969 " fill-opacity="1" fill-rule="nonzero"/></g></g><g clip-path="url(#d59d52f78b)"><g clip-path="url(#db242be765)"><path fill="#a60404" d="M 120.664062 38.832031 L 152.507812 38.832031 L 152.507812 66.65625 L 120.664062 66.65625 Z M 120.664062 38.832031 " fill-opacity="1" fill-rule="nonzero"/></g></g><g clip-path="url(#a1bfaca000)"><g clip-path="url(#71d1445b7d)"><path fill="#a60404" d="M -12.609375 0.242188 L 19.238281 0.242188 L 19.238281 28.070312 L -12.609375 28.070312 Z M -12.609375 0.242188 " fill-opacity="1" fill-rule="nonzero"/></g></g><g clip-path="url(#ffd87f96b6)"><g clip-path="url(#27f1060f22)"><path fill="#a60404" d="M 6.457031 -5.292969 L 38.304688 -5.292969 L 38.304688 22.53125 L 6.457031 22.53125 Z M 6.457031 -5.292969 " fill-opacity="1" fill-rule="nonzero"/></g></g><g clip-path="url(#929cc69818)"><g clip-path="url(#1b32c57abb)"><path fill="#a60404" d="M 25.519531 0.242188 L 57.367188 0.242188 L 57.367188 28.070312 L 25.519531 28.070312 Z M 25.519531 0.242188 " fill-opacity="1" fill-rule="nonzero"/></g></g><g clip-path="url(#49938eec64)"><g clip-path="url(#06bc594076)"><path fill="#a60404" d="M 44.585938 -5.292969 L 76.429688 -5.292969 L 76.429688 22.53125 L 44.585938 22.53125 Z M 44.585938 -5.292969 " fill-opacity="1" fill-rule="nonzero"/></g></g><g clip-path="url(#ee396f2199)"><g clip-path="url(#c92f52eb8a)"><path fill="#a60404" d="M 63.648438 0.242188 L 95.496094 0.242188 L 95.496094 28.070312 L 63.648438 28.070312 Z M 63.648438 0.242188 " fill-opacity="1" fill-rule="nonzero"/></g></g><g clip-path="url(#a4b4a02f67)"><g clip-path="url(#29bcb5c2b2)"><path fill="#a60404" d="M 82.710938 -5.292969 L 114.558594 -5.292969 L 114.558594 22.53125 L 82.710938 22.53125 Z M 82.710938 -5.292969 " fill-opacity="1" fill-rule="nonzero"/></g></g><g clip-path="url(#f7aa1049df)"><g clip-path="url(#dc79d81420)"><path fill="#a60404" d="M 101.421875 0.242188 L 133.269531 0.242188 L 133.269531 28.070312 L 101.421875 28.070312 Z M 101.421875 0.242188 " fill-opacity="1" fill-rule="nonzero"/></g></g></svg>