<svg xmlns="http://www.w3.org/2000/svg" xmlns:xlink="http://www.w3.org/1999/xlink" width="1366" zoomAndPan="magnify" viewBox="0 0 1024.5 84.749999" height="113" preserveAspectRatio="xMidYMid meet" version="1.0"><defs><clipPath id="d11afb8223"><path d="M 1.257812 0 L 1022.742188 0 L 1022.742188 84.5 L 1.257812 84.5 Z M 1.257812 0 " clip-rule="nonzero"/></clipPath><clipPath id="77d0ebf1c4"><path d="M 1.257812 0 L 1014.292969 0 L 1014.292969 84.5 L 1.257812 84.5 Z M 1.257812 0 " clip-rule="nonzero"/></clipPath><clipPath id="3325b9a6cb"><path d="M 742.917969 0 L 1022.742188 0 L 1022.742188 84.5 L 742.917969 84.5 Z M 742.917969 0 " clip-rule="nonzero"/></clipPath><clipPath id="7a80cd25f5"><path d="M 839.660156 -1.523438 L 1205.828125 -1.523438 L 1302.570312 116.382812 L 742.917969 116.382812 Z M 839.660156 -1.523438 " clip-rule="nonzero"/></clipPath></defs><g clip-path="url(#d11afb8223)"><path fill="#ffffff" d="M 1.257812 0 L 1022.742188 0 L 1022.742188 84.5 L 1.257812 84.5 Z M 1.257812 0 " fill-opacity="1" fill-rule="nonzero"/><path fill="#ffffff" d="M 1.257812 0 L 1022.742188 0 L 1022.742188 84.5 L 1.257812 84.5 Z M 1.257812 0 " fill-opacity="1" fill-rule="nonzero"/></g><g clip-path="url(#77d0ebf1c4)"><path fill="#2a2e45" d="M -7.191406 -1.523438 L 1014.347656 -1.523438 L 1014.347656 116.382812 L -7.191406 116.382812 Z M -7.191406 -1.523438 " fill-opacity="1" fill-rule="nonzero"/></g><g clip-path="url(#3325b9a6cb)"><g clip-path="url(#7a80cd25f5)"><path fill="#931f1d" d="M 742.917969 -1.523438 L 1302.503906 -1.523438 L 1302.503906 116.382812 L 742.917969 116.382812 Z M 742.917969 -1.523438 " fill-opacity="1" fill-rule="nonzero"/></g></g></svg>